<svg width="201" height="308" viewBox="0 0 201 308" fill="none" xmlns="http://www.w3.org/2000/svg">
<rect width="201" height="308" fill="#D5DBE5"/>
<g clip-path="url(#clip0_596_1393)">
<path d="M20 43.4706C20 40.6771 20.5072 38.2783 21.5165 36.269C22.531 34.2597 23.9707 32.7066 25.8356 31.6046C27.7006 30.5026 29.9088 29.9541 32.4603 29.9541C35.0118 29.9541 37.0765 30.5231 38.9825 31.6558C40.8833 32.7937 42.3896 34.3571 43.486 36.3459C44.5875 38.3346 45.1358 40.6258 45.1358 43.2092V44.834H25.2874C25.6358 50.1802 28.1514 52.8507 32.8292 52.8507C34.6788 52.8507 36.1646 52.4304 37.2815 51.5949C38.3984 50.7542 39.1157 49.6215 39.4282 48.1863H44.8232C43.7063 54.127 39.6895 57.0948 32.7779 57.0948C30.1598 57.0948 27.9004 56.5463 25.9996 55.4443C24.0937 54.3423 22.6232 52.7738 21.5729 50.7286C20.5226 48.6835 20 46.2692 20 43.4706ZM32.5166 33.988C28.3256 33.988 25.933 36.3612 25.3438 41.1128H39.6946C39.4846 38.9497 38.7365 37.2172 37.4403 35.9256C36.1492 34.6339 34.5097 33.988 32.5166 33.988Z" fill="#6A00F7"/>
<path d="M74.7656 20H79.843V56.6745H74.7656V20Z" fill="#6A00F7"/>
<path d="M85.6055 30.4769H90.6828V34.5621C91.5231 33.0962 92.5939 31.9583 93.9055 31.1535C95.2171 30.3488 96.5338 29.949 97.8608 29.949H99.2749V35.2387H97.9121C95.8883 35.2387 94.177 35.823 92.7783 36.9917C91.3796 38.1604 90.6828 39.6725 90.6828 41.5228V56.6642H85.6055V30.4769Z" fill="#6A00F7"/>
<path d="M126.19 30.477V56.6745H121.113V51.9076C120.206 53.5837 119.002 54.8959 117.501 55.839C115.999 56.7822 114.288 57.2537 112.367 57.2537C110.133 57.2537 108.171 56.6797 106.475 55.5264C104.779 54.3731 103.462 52.7687 102.52 50.7082C101.577 48.6477 101.105 46.2386 101.105 43.4758C101.105 40.7131 101.577 38.3142 102.52 36.2742C103.462 34.229 104.779 32.6401 106.475 31.5073C108.166 30.3694 110.133 29.8055 112.367 29.8055C114.288 29.8055 115.999 30.2669 117.501 31.1946C119.002 32.1224 120.206 33.4243 121.113 35.0953V30.4873H126.19V30.477ZM106.342 43.4707C106.342 46.4026 106.987 48.6835 108.278 50.3084C109.569 51.9332 111.368 52.7431 113.673 52.7431C115.979 52.7431 117.88 51.9332 119.171 50.3084C120.462 48.6835 121.108 46.4026 121.108 43.4707C121.108 40.5388 120.462 38.3194 119.171 36.7099C117.88 35.1055 116.046 34.3008 113.673 34.3008C111.301 34.3008 109.569 35.1055 108.278 36.7099C106.987 38.3142 106.342 40.5695 106.342 43.4707Z" fill="#6A00F7"/>
<path d="M133.992 56.6744V34.721H129.381V30.4769H133.992V23.6648H139.018V30.4769H143.629V34.721H139.018V56.6744H133.992Z" fill="#6A00F7"/>
<path d="M145.305 43.4706C145.305 40.6771 145.812 38.2783 146.821 36.269C147.836 34.2597 149.275 32.7066 151.14 31.6046C153.005 30.5026 155.213 29.9541 157.765 29.9541C160.316 29.9541 162.381 30.5231 164.287 31.6558C166.188 32.7937 167.694 34.3571 168.791 36.3459C169.892 38.3346 170.44 40.6258 170.44 43.2092V44.834H150.592C150.941 50.1802 153.456 52.8507 158.134 52.8507C159.983 52.8507 161.469 52.4304 162.586 51.5949C163.703 50.7542 164.42 49.6215 164.733 48.1863H170.128C169.011 54.127 164.994 57.0948 158.083 57.0948C155.465 57.0948 153.205 56.5463 151.304 55.4443C149.398 54.3423 147.928 52.7738 146.878 50.7286C145.832 48.6835 145.305 46.2692 145.305 43.4706ZM157.821 33.988C153.63 33.988 151.238 36.3612 150.648 41.1128H164.999C164.789 38.9497 164.041 37.2172 162.745 35.9256C161.454 34.6339 159.814 33.988 157.821 33.988Z" fill="#6A00F7"/>
<path d="M71.0795 30.231C71.0795 32.1018 71.1 33.819 71.0539 35.5361C71.0487 35.7667 70.7311 36.0486 70.4954 36.2127C68.2821 37.7401 66.0995 39.3086 63.8298 40.754C60.8274 42.6608 57.6918 42.6506 54.6587 40.8719C52.1534 39.4009 49.7556 37.7453 47.3271 36.146C47.1016 35.9974 46.8608 35.6796 46.8557 35.4387C46.8147 33.7728 46.8352 32.1018 46.8352 30.2515C47.24 30.5026 47.5166 30.6666 47.7882 30.846C50.6881 32.7528 53.5828 34.6647 56.4878 36.5715C58.3784 37.8119 59.9462 37.8068 61.806 36.5407C64.6495 34.6083 67.4828 32.6605 70.3263 30.723C70.5261 30.5898 70.7311 30.4667 71.0897 30.2361L71.0795 30.231Z" fill="#6A00F7"/>
<path d="M71.0808 56.6745C67.8837 54.4858 64.866 52.4253 61.8534 50.3596C59.9372 49.0474 58.4156 49.0372 56.4584 50.3186C53.5585 52.2254 50.6586 54.1322 47.7587 56.0338C47.5026 56.2029 47.2413 56.3618 46.8314 56.6232C46.8314 54.7729 46.816 53.0558 46.8519 51.3438C46.8519 51.1336 47.1081 50.8722 47.3181 50.7338C49.6954 49.1705 52.042 47.561 54.4859 46.1002C57.7085 44.1729 60.9773 44.2036 64.1385 46.3103C66.2955 47.7455 68.4268 49.2268 70.5531 50.7133C70.7836 50.8722 71.0501 51.1695 71.0552 51.4104C71.0962 53.1019 71.0808 54.7985 71.0808 56.6745Z" fill="#6A00F7"/>
</g>
<g clip-path="url(#clip1_596_1393)">
<path d="M20 101.222C20 98.4286 20.5072 96.0297 21.5165 94.0204C22.531 92.0112 23.9707 90.4581 25.8356 89.356C27.7006 88.254 29.9088 87.7056 32.4603 87.7056C35.0118 87.7056 37.0765 88.2745 38.9825 89.4073C40.8833 90.5452 42.3896 92.1086 43.486 94.0973C44.5875 96.0861 45.1358 98.3773 45.1358 100.961V102.586H25.2874C25.6358 107.932 28.1514 110.602 32.8292 110.602C34.6788 110.602 36.1646 110.182 37.2815 109.346C38.3984 108.506 39.1157 107.373 39.4282 105.938H44.8232C43.7063 111.878 39.6895 114.846 32.7779 114.846C30.1598 114.846 27.9004 114.298 25.9996 113.196C24.0937 112.094 22.6232 110.525 21.5729 108.48C20.5226 106.435 20 104.021 20 101.222ZM32.5166 91.7395C28.3256 91.7395 25.933 94.1127 25.3438 98.8642H39.6946C39.4846 96.7012 38.7365 94.9687 37.4403 93.677C36.1492 92.3853 34.5097 91.7395 32.5166 91.7395Z" fill="#6A00F7"/>
<path d="M74.7656 77.7515H79.843V114.426H74.7656V77.7515Z" fill="#6A00F7"/>
<path d="M85.6055 88.2284H90.6828V92.3136C91.5231 90.8476 92.5939 89.7097 93.9055 88.905C95.2171 88.1002 96.5338 87.7004 97.8608 87.7004H99.2749V92.9902H97.9121C95.8883 92.9902 94.177 93.5745 92.7783 94.7432C91.3796 95.9118 90.6828 97.4239 90.6828 99.2743V114.416H85.6055V88.2284Z" fill="#6A00F7"/>
<path d="M126.19 88.2285V114.426H121.113V109.659C120.206 111.335 119.002 112.647 117.501 113.591C115.999 114.534 114.288 115.005 112.367 115.005C110.133 115.005 108.171 114.431 106.475 113.278C104.779 112.125 103.462 110.52 102.52 108.46C101.577 106.399 101.105 103.99 101.105 101.227C101.105 98.4645 101.577 96.0657 102.52 94.0257C103.462 91.9805 104.779 90.3915 106.475 89.2587C108.166 88.1208 110.133 87.557 112.367 87.557C114.288 87.557 115.999 88.0183 117.501 88.9461C119.002 89.8738 120.206 91.1758 121.113 92.8467V88.2387H126.19V88.2285ZM106.342 101.222C106.342 104.154 106.987 106.435 108.278 108.06C109.569 109.685 111.368 110.495 113.673 110.495C115.979 110.495 117.88 109.685 119.171 108.06C120.462 106.435 121.108 104.154 121.108 101.222C121.108 98.2903 120.462 96.0708 119.171 94.4613C117.88 92.857 116.046 92.0523 113.673 92.0523C111.301 92.0523 109.569 92.857 108.278 94.4613C106.987 96.0657 106.342 98.321 106.342 101.222Z" fill="#6A00F7"/>
<path d="M133.992 114.426V92.4724H129.381V88.2283H133.992V81.4163H139.018V88.2283H143.629V92.4724H139.018V114.426H133.992Z" fill="#6A00F7"/>
<path d="M145.305 101.222C145.305 98.4286 145.812 96.0297 146.821 94.0204C147.836 92.0112 149.275 90.4581 151.14 89.356C153.005 88.254 155.213 87.7056 157.765 87.7056C160.316 87.7056 162.381 88.2745 164.287 89.4073C166.188 90.5452 167.694 92.1086 168.791 94.0973C169.892 96.0861 170.44 98.3773 170.44 100.961V102.586H150.592C150.941 107.932 153.456 110.602 158.134 110.602C159.983 110.602 161.469 110.182 162.586 109.346C163.703 108.506 164.42 107.373 164.733 105.938H170.128C169.011 111.878 164.994 114.846 158.083 114.846C155.465 114.846 153.205 114.298 151.304 113.196C149.398 112.094 147.928 110.525 146.878 108.48C145.832 106.435 145.305 104.021 145.305 101.222ZM157.821 91.7395C153.63 91.7395 151.238 94.1127 150.648 98.8642H164.999C164.789 96.7012 164.041 94.9687 162.745 93.677C161.454 92.3853 159.814 91.7395 157.821 91.7395Z" fill="#6A00F7"/>
<path d="M174.032 81.5599V82.4621H172.29V87.0086H171.209V82.4621H169.467V81.5599H174.037H174.032ZM179.919 87.0086L179.719 83.7999C179.698 83.3796 179.698 82.8567 179.678 82.2775H179.616C179.478 82.7594 179.314 83.4001 179.155 83.9024L178.172 86.9266H177.05L176.066 83.8204C175.963 83.4001 175.805 82.7594 175.687 82.2775H175.625C175.625 82.7799 175.605 83.2976 175.584 83.7999L175.384 87.0086H174.344L174.744 81.5599H176.368L177.311 84.2253C177.434 84.6456 177.531 85.0454 177.669 85.6093H177.69C177.828 85.1069 177.951 84.6456 178.069 84.2458L179.012 81.5599H180.574L180.995 87.0086H179.914H179.919Z" fill="#6A00F7"/>
<path d="M71.0795 87.9824C71.0795 89.8533 71.1 91.5704 71.0539 93.2875C71.0487 93.5182 70.7311 93.8001 70.4954 93.9641C68.2821 95.4916 66.0995 97.0601 63.8298 98.5055C60.8274 100.412 57.6918 100.402 54.6587 98.6234C52.1534 97.1523 49.7556 95.4967 47.3271 93.8975C47.1016 93.7489 46.8608 93.4311 46.8557 93.1901C46.8147 91.5243 46.8352 89.8533 46.8352 88.0029C47.24 88.2541 47.5166 88.4181 47.7882 88.5975C50.6881 90.5043 53.5828 92.4162 56.4878 94.3229C58.3784 95.5634 59.9462 95.5582 61.806 94.2922C64.6495 92.3598 67.4828 90.412 70.3263 88.4745C70.5261 88.3412 70.7311 88.2182 71.0897 87.9875L71.0795 87.9824Z" fill="#6A00F7"/>
<path d="M71.0808 114.426C67.8837 112.237 64.866 110.177 61.8534 108.111C59.9372 106.799 58.4156 106.789 56.4584 108.07C53.5585 109.977 50.6586 111.884 47.7587 113.785C47.5026 113.954 47.2413 114.113 46.8314 114.375C46.8314 112.524 46.816 110.807 46.8519 109.095C46.8519 108.885 47.1081 108.624 47.3181 108.485C49.6954 106.922 52.042 105.312 54.4859 103.852C57.7085 101.924 60.9773 101.955 64.1385 104.062C66.2955 105.497 68.4268 106.978 70.5531 108.465C70.7836 108.624 71.0501 108.921 71.0552 109.162C71.0962 110.853 71.0808 112.55 71.0808 114.426Z" fill="#6A00F7"/>
</g>
<g clip-path="url(#clip2_596_1393)">
<path d="M79.4907 155C79.4907 158.461 79.5326 161.647 79.4441 164.828C79.4301 165.261 78.8476 165.773 78.4048 166.081C74.3037 168.913 70.2493 171.819 66.041 174.493C60.4766 178.028 54.6559 178.005 49.0309 174.707C44.3752 171.982 39.9339 168.913 35.4274 165.95C35.0126 165.676 34.5606 165.089 34.5466 164.637C34.472 161.549 34.5093 158.461 34.5093 155.028C35.2596 155.494 35.7769 155.801 36.2802 156.132C41.6582 159.667 47.0316 163.212 52.4142 166.742C55.9188 169.039 58.8268 169.029 62.2801 166.682C67.5556 163.1 72.8124 159.495 78.0786 155.899C78.4468 155.647 78.8289 155.419 79.4907 155Z" fill="#6A00F7"/>
<path d="M79.4855 204C73.5529 199.948 67.9652 196.124 62.3728 192.3C58.8217 189.873 55.9929 189.85 52.3671 192.23C46.9891 195.76 41.6111 199.291 36.2331 202.822C35.7578 203.134 35.2731 203.427 34.5135 203.912C34.5135 200.479 34.4808 197.307 34.5507 194.135C34.5601 193.748 35.0308 193.255 35.4129 193.003C39.8216 190.111 44.1743 187.125 48.7041 184.419C54.6833 180.846 60.7417 180.902 66.6044 184.805C70.6076 187.47 74.5596 190.213 78.5068 192.961C78.9309 193.255 79.4296 193.804 79.4436 194.247C79.5228 197.386 79.4855 200.525 79.4855 204Z" fill="#6A00F7"/>
</g>
<g clip-path="url(#clip3_596_1393)">
<path d="M163.451 166.661L162.062 163.525H162.624L163.596 165.826L164.568 163.525H165.13L163.741 166.661H163.451ZM161.96 166.661V163.525H162.505V166.661H161.96ZM164.687 166.661V163.525H165.232V166.661H164.687ZM159.914 166.661V163.798H160.46V166.661H159.914ZM158.96 164.002V163.525H161.414V164.002H158.96Z" fill="#6A00F7"/>
<path d="M155.467 156.015C155.467 159.475 155.509 162.66 155.421 165.84C155.407 166.273 154.824 166.785 154.382 167.092C150.283 169.923 146.231 172.829 142.025 175.502C136.464 179.036 130.646 179.013 125.024 175.716C120.376 172.992 115.937 169.923 111.433 166.962C111.018 166.687 110.567 166.101 110.553 165.649C110.473 162.562 110.511 159.47 110.511 156.043C111.261 156.508 111.778 156.816 112.281 157.146C117.656 160.681 123.026 164.224 128.406 167.754C131.908 170.049 134.815 170.04 138.266 167.693C143.539 164.112 148.793 160.508 154.056 156.914C154.424 156.662 154.806 156.434 155.467 156.015Z" fill="#6A00F7"/>
<path d="M155.463 205C149.533 200.949 143.949 197.126 138.359 193.303C134.81 190.877 131.983 190.854 128.359 193.233C122.984 196.763 117.609 200.292 112.234 203.822C111.759 204.134 111.275 204.427 110.515 204.911C110.515 201.48 110.483 198.309 110.553 195.138C110.562 194.751 111.032 194.258 111.414 194.006C115.821 191.115 120.171 188.13 124.698 185.425C130.674 181.853 136.729 181.909 142.589 185.811C146.59 188.474 150.539 191.217 154.484 193.964C154.908 194.258 155.407 194.807 155.421 195.249C155.5 198.388 155.463 201.526 155.463 205Z" fill="#6A00F7"/>
</g>
<g clip-path="url(#clip4_596_1393)">
<rect x="35.5" y="245" width="130" height="43" rx="21.5" fill="#6300FA"/>
<path d="M67.668 271H61.332V260.6H62.868V269.544H67.668V271ZM68.8435 266.968C68.8435 264.424 70.3155 262.84 72.6515 262.84C74.9075 262.84 76.5235 264.536 76.5235 266.888V267.384H70.4595C70.5715 268.984 71.3555 269.832 72.7635 269.832C73.8995 269.832 74.6035 269.288 74.7795 268.408H76.4275C76.0915 270.2 74.8435 271.128 72.7475 271.128C70.3475 271.128 68.8435 269.528 68.8435 266.968ZM72.6675 264.072C71.4035 264.072 70.6515 264.776 70.4755 266.248H74.8595C74.7315 264.92 73.8835 264.072 72.6675 264.072ZM84.7559 268.632C84.7559 269.624 84.8519 270.472 85.0279 271H83.4439C83.3319 270.6 83.2679 270.12 83.2359 269.608C82.6759 270.568 81.6679 271.176 80.4839 271.176C78.9319 271.176 77.8279 270.168 77.8279 268.744C77.8279 267.4 78.6759 266.584 80.1799 266.488L82.3559 266.36C82.9799 266.312 83.2199 266.104 83.2199 265.624V265.592C83.2199 264.728 82.4199 264.04 81.4119 264.04C80.2439 264.04 79.6199 264.552 79.5079 265.544H77.8919C78.0039 263.88 79.3799 262.808 81.4119 262.808C83.3639 262.808 84.7559 264.04 84.7559 265.752V268.632ZM79.4119 268.632C79.4119 269.384 80.0359 269.864 80.9959 269.864C82.2599 269.864 83.2199 268.92 83.2199 267.64V267.384L80.7399 267.528C79.8599 267.592 79.4119 267.96 79.4119 268.632ZM86.4098 263H87.9618V264.248C88.4898 263.352 89.3378 262.84 90.1538 262.84H90.5858V264.456H90.1698C88.9378 264.456 87.9618 265.24 87.9618 266.376V271H86.4098V263ZM97.445 266.264C97.445 264.84 96.693 264.232 95.509 264.232C94.373 264.232 93.493 265.032 93.493 266.168V271H91.957V263H93.493V264.248C94.085 263.32 95.093 262.792 96.037 262.792C97.749 262.792 98.997 263.912 98.997 265.944V271H97.445V266.264ZM108.984 266.248C108.984 264.84 108.296 264.232 107.208 264.232C106.168 264.232 105.368 265.032 105.368 266.152V271H103.816V263H105.368V264.184C105.928 263.288 106.872 262.792 107.752 262.792C108.952 262.792 109.896 263.4 110.312 264.536C110.84 263.432 111.912 262.792 112.92 262.792C114.536 262.792 115.704 263.896 115.704 265.928V271H114.168V266.248C114.168 264.84 113.464 264.232 112.376 264.232C111.336 264.232 110.536 265.032 110.536 266.152V271H108.984V266.248ZM117.172 266.968C117.172 264.456 118.708 262.792 121.028 262.792C123.332 262.792 124.884 264.456 124.884 266.968C124.884 269.496 123.332 271.176 121.028 271.176C118.708 271.176 117.172 269.496 117.172 266.968ZM123.284 266.968C123.284 265.192 122.452 264.168 121.028 264.168C119.604 264.168 118.772 265.192 118.772 266.968C118.772 268.76 119.604 269.8 121.028 269.8C122.452 269.8 123.284 268.76 123.284 266.968ZM126.363 263H127.915V264.248C128.443 263.352 129.291 262.84 130.107 262.84H130.539V264.456H130.123C128.891 264.456 127.915 265.24 127.915 266.376V271H126.363V263ZM131.734 266.968C131.734 264.424 133.206 262.84 135.542 262.84C137.798 262.84 139.414 264.536 139.414 266.888V267.384H133.35C133.462 268.984 134.246 269.832 135.654 269.832C136.79 269.832 137.494 269.288 137.67 268.408H139.318C138.982 270.2 137.734 271.128 135.638 271.128C133.238 271.128 131.734 269.528 131.734 266.968ZM135.558 264.072C134.294 264.072 133.542 264.776 133.366 266.248H137.75C137.622 264.92 136.774 264.072 135.558 264.072Z" fill="white"/>
<path d="M40.5 293C40.5 289.686 43.1863 287 46.5 287H48.7773C52.0911 287 54.7773 289.686 54.7773 293V293C54.7773 296.314 52.0911 299 48.7773 299H46.5C43.1863 299 40.5 296.314 40.5 293V293Z" fill="#6300FA"/>
</g>
<defs>
<clipPath id="clip0_596_1393">
<rect width="150.441" height="37.2486" fill="white" transform="translate(20 20)"/>
</clipPath>
<clipPath id="clip1_596_1393">
<rect width="161" height="37.2486" fill="white" transform="translate(20 77.7515)"/>
</clipPath>
<clipPath id="clip2_596_1393">
<rect width="45" height="49" fill="white" transform="translate(34.5 155)"/>
</clipPath>
<clipPath id="clip3_596_1393">
<rect width="56" height="50" fill="white" transform="translate(110.5 155)"/>
</clipPath>
<clipPath id="clip4_596_1393">
<rect x="35.5" y="245" width="130" height="43" rx="21.5" fill="white"/>
</clipPath>
</defs>
</svg>
