<svg width="319" height="913" viewBox="0 0 319 913" fill="none" xmlns="http://www.w3.org/2000/svg">
<path d="M0 40C0 17.9086 17.9086 0 40 0H279C301.091 0 319 17.9086 319 40V913H0V40Z" fill="white"/>
<path d="M32.1 47.22H27.56V59H24.82V47.22H20.28V44.8H32.1V47.22ZM35.4628 44.8L38.9628 51.48L42.5228 44.8H45.5028L40.3428 54.04V59H37.6028V54L32.4628 44.8H35.4628ZM47.0659 59V44.8H53.0859C53.7393 44.8 54.3393 44.9333 54.8859 45.2C55.4326 45.4667 55.9059 45.8267 56.3059 46.28C56.7193 46.7333 57.0393 47.24 57.2659 47.8C57.4926 48.36 57.6059 48.9333 57.6059 49.52C57.6059 50.32 57.4193 51.08 57.0459 51.8C56.6726 52.52 56.1593 53.1067 55.5059 53.56C54.8526 54.0133 54.0793 54.24 53.1859 54.24H49.8259V59H47.0659ZM49.8259 51.82H53.0259C53.3593 51.82 53.6593 51.7267 53.9259 51.54C54.1926 51.3533 54.4059 51.0867 54.5659 50.74C54.7259 50.38 54.8059 49.9733 54.8059 49.52C54.8059 49.0267 54.7126 48.6067 54.5259 48.26C54.3526 47.9133 54.1193 47.6533 53.8259 47.48C53.5459 47.3067 53.2393 47.22 52.9059 47.22H49.8259V51.82ZM65.5869 59.1C64.5469 59.1 63.6002 58.9 62.7469 58.5C61.9069 58.1 61.1802 57.56 60.5669 56.88C59.9669 56.1867 59.5002 55.4133 59.1669 54.56C58.8335 53.6933 58.6669 52.8067 58.6669 51.9C58.6669 50.9533 58.8402 50.0533 59.1869 49.2C59.5469 48.3333 60.0335 47.5667 60.6469 46.9C61.2735 46.22 62.0069 45.6867 62.8469 45.3C63.7002 44.9 64.6335 44.7 65.6469 44.7C66.6735 44.7 67.6069 44.9067 68.4469 45.32C69.3002 45.7333 70.0269 46.2867 70.6269 46.98C71.2269 47.6733 71.6935 48.4467 72.0269 49.3C72.3602 50.1533 72.5269 51.0333 72.5269 51.94C72.5269 52.8733 72.3535 53.7733 72.0069 54.64C71.6602 55.4933 71.1735 56.26 70.5469 56.94C69.9335 57.6067 69.2002 58.1333 68.3469 58.52C67.5069 58.9067 66.5869 59.1 65.5869 59.1ZM61.4669 51.9C61.4669 52.5133 61.5602 53.1067 61.7469 53.68C61.9335 54.2533 62.2002 54.7667 62.5469 55.22C62.9069 55.66 63.3402 56.0133 63.8469 56.28C64.3669 56.5333 64.9535 56.66 65.6069 56.66C66.2735 56.66 66.8669 56.5267 67.3869 56.26C67.9069 55.98 68.3402 55.6133 68.6869 55.16C69.0335 54.6933 69.2935 54.18 69.4669 53.62C69.6535 53.0467 69.7469 52.4733 69.7469 51.9C69.7469 51.2867 69.6469 50.7 69.4469 50.14C69.2602 49.5667 68.9869 49.06 68.6269 48.62C68.2802 48.1667 67.8469 47.8133 67.3269 47.56C66.8202 47.2933 66.2469 47.16 65.6069 47.16C64.9269 47.16 64.3269 47.3 63.8069 47.58C63.3002 47.8467 62.8735 48.2067 62.5269 48.66C62.1802 49.1133 61.9135 49.62 61.7269 50.18C61.5535 50.74 61.4669 51.3133 61.4669 51.9ZM80.5441 59.1C79.6241 59.1 78.7507 58.9133 77.9241 58.54C77.1107 58.1667 76.3907 57.6533 75.7641 57C75.1507 56.3333 74.6707 55.56 74.3241 54.68C73.9774 53.8 73.8041 52.8467 73.8041 51.82C73.8041 50.8467 73.9774 49.9333 74.3241 49.08C74.6707 48.2133 75.1574 47.4533 75.7841 46.8C76.4107 46.1467 77.1441 45.6333 77.9841 45.26C78.8241 44.8867 79.7374 44.7 80.7241 44.7C82.0574 44.7 83.1974 44.9867 84.1441 45.56C85.1041 46.12 85.8241 46.8667 86.3041 47.8L84.2441 49.32C83.8841 48.6133 83.3774 48.0733 82.7241 47.7C82.0841 47.3267 81.3841 47.14 80.6241 47.14C80.0241 47.14 79.4774 47.2667 78.9841 47.52C78.4907 47.7733 78.0641 48.12 77.7041 48.56C77.3441 49 77.0641 49.5067 76.8641 50.08C76.6774 50.6533 76.5841 51.26 76.5841 51.9C76.5841 52.58 76.6841 53.2067 76.8841 53.78C77.0974 54.3533 77.3907 54.8533 77.7641 55.28C78.1507 55.7067 78.5974 56.0467 79.1041 56.3C79.6107 56.54 80.1707 56.66 80.7841 56.66C81.5041 56.66 82.1907 56.4733 82.8441 56.1C83.5107 55.7267 84.1307 55.18 84.7041 54.46V57.18C83.5174 58.46 82.1307 59.1 80.5441 59.1ZM84.5041 53.72H81.6441V51.7H86.7841V59H84.5041V53.72ZM89.1363 59V44.8H95.4163C96.0696 44.8 96.6696 44.9333 97.2163 45.2C97.7763 45.4667 98.2563 45.8267 98.6563 46.28C99.0696 46.7333 99.3829 47.24 99.5963 47.8C99.8229 48.36 99.9363 48.9333 99.9363 49.52C99.9363 50.12 99.8296 50.7 99.6163 51.26C99.4163 51.8067 99.1229 52.2867 98.7363 52.7C98.3496 53.1133 97.8963 53.4333 97.3763 53.66L100.616 59H97.5763L94.6563 54.24H91.8963V59H89.1363ZM91.8963 51.82H95.3563C95.7029 51.82 96.0096 51.72 96.2763 51.52C96.5429 51.3067 96.7563 51.0267 96.9163 50.68C97.0763 50.3333 97.1563 49.9467 97.1563 49.52C97.1563 49.0667 97.0629 48.6733 96.8763 48.34C96.6896 47.9933 96.4496 47.72 96.1563 47.52C95.8763 47.32 95.5696 47.22 95.2363 47.22H91.8963V51.82ZM106.297 44.8H109.097L114.317 59H111.477L110.157 55.46H105.197L103.897 59H101.057L106.297 44.8ZM109.657 53.52L107.697 47.66L105.657 53.52H109.657ZM115.875 59V44.8H121.895C122.548 44.8 123.148 44.9333 123.695 45.2C124.241 45.4667 124.715 45.8267 125.115 46.28C125.528 46.7333 125.848 47.24 126.075 47.8C126.301 48.36 126.415 48.9333 126.415 49.52C126.415 50.32 126.228 51.08 125.855 51.8C125.481 52.52 124.968 53.1067 124.315 53.56C123.661 54.0133 122.888 54.24 121.995 54.24H118.635V59H115.875ZM118.635 51.82H121.835C122.168 51.82 122.468 51.7267 122.735 51.54C123.001 51.3533 123.215 51.0867 123.375 50.74C123.535 50.38 123.615 49.9733 123.615 49.52C123.615 49.0267 123.521 48.6067 123.335 48.26C123.161 47.9133 122.928 47.6533 122.635 47.48C122.355 47.3067 122.048 47.22 121.715 47.22H118.635V51.82ZM140.275 44.8V59H137.535V52.94H131.095V59H128.335V44.8H131.095V50.54H137.535V44.8H140.275ZM144.838 44.8L148.338 51.48L151.898 44.8H154.878L149.718 54.04V59H146.978V54L141.838 44.8H144.838Z" fill="#333333"/>
<path d="M21.5469 129.574C21.5469 122.156 25.7656 117.234 32.0938 117.234C38.4219 117.234 42.6406 122.156 42.6406 129.574C42.6406 136.605 38.4219 141.281 32.0938 141.281C25.7656 141.281 21.5469 136.605 21.5469 129.574ZM39.8984 129.574C39.8984 123.387 37.0156 119.73 32.0938 119.73C27.1367 119.73 24.2891 123.387 24.2891 129.574C24.2891 135.375 27.1367 138.75 32.0938 138.75C37.0156 138.75 39.8984 135.375 39.8984 129.574ZM44.8906 123H47.7734L53.4688 138.012L59.0586 123H61.9766L54.9453 141H51.9219L44.8906 123ZM63.7344 131.93C63.7344 126.199 67.0039 122.648 72.1367 122.648C77.0234 122.648 80.5391 126.41 80.5391 131.578V132.668H66.4766C66.7227 136.746 68.7266 138.926 72.3477 138.926C75.3008 138.926 77.0938 137.52 77.5156 135.305H80.3281C79.5195 139.137 76.8828 141.281 72.3477 141.281C67.0742 141.281 63.7344 137.695 63.7344 131.93ZM72.1367 124.934C68.832 124.934 66.8984 126.832 66.5469 130.523H77.6914C77.4102 127.113 75.2305 124.934 72.1367 124.934ZM83.9844 123H86.6562V125.707C87.8516 123.738 89.8203 122.648 91.7188 122.648H92.5273V125.426H91.7539C88.8711 125.426 86.6562 127.359 86.6562 130.102V141H83.9844V123ZM98.3633 133.688C98.3633 137.344 100.191 138.891 103.004 138.891C105.781 138.891 107.891 136.816 107.891 133.898V123H110.527V141H107.891V138.082C106.59 140.191 104.34 141.422 102.23 141.422C98.4336 141.422 95.6914 138.855 95.6914 134.215V123H98.3633V133.688ZM122.762 133.336L119.844 132.949C116.152 132.492 114.148 130.98 114.148 127.922C114.148 124.652 116.82 122.648 121.215 122.648C125.398 122.648 128.176 124.828 128.527 128.414H125.891C125.469 125.988 123.992 124.863 121.18 124.863C118.543 124.863 116.785 126.023 116.785 127.781C116.785 129.504 117.945 130.207 120.23 130.488L123.184 130.84C127.121 131.297 128.984 133.02 128.984 136.254C128.984 139.348 126.207 141.316 122.023 141.316C117.277 141.316 114.395 139.031 113.973 135.586H116.75C117.172 138.012 118.859 139.102 122.023 139.102C124.625 139.102 126.348 138.012 126.348 136.289C126.348 134.602 125.188 133.617 122.762 133.336ZM132.043 131.93C132.043 126.199 135.312 122.648 140.445 122.648C145.332 122.648 148.848 126.41 148.848 131.578V132.668H134.785C135.031 136.746 137.035 138.926 140.656 138.926C143.609 138.926 145.402 137.52 145.824 135.305H148.637C147.828 139.137 145.191 141.281 140.656 141.281C135.383 141.281 132.043 137.695 132.043 131.93ZM140.445 124.934C137.141 124.934 135.207 126.832 134.855 130.523H146C145.719 127.113 143.539 124.934 140.445 124.934ZM168.711 115.793V141H166.074V137.52C164.773 139.91 162.594 141.352 159.852 141.352C155.105 141.352 151.941 137.59 151.941 131.93C151.941 126.305 155.105 122.578 159.852 122.578C162.594 122.578 164.773 123.984 166.074 126.375V115.793H168.711ZM154.684 131.93C154.684 136.324 156.793 138.891 160.379 138.891C164 138.891 166.074 136.324 166.074 131.93C166.074 127.57 164 125.039 160.379 125.039C156.793 125.039 154.684 127.57 154.684 131.93ZM179.328 129.223C179.328 122.016 183.477 117.234 189.734 117.234C195.113 117.234 199.016 120.469 199.402 125.285H196.66C196.449 121.875 193.812 119.73 189.77 119.73C184.918 119.73 182.07 123.211 182.07 129.223C182.07 135.27 184.812 138.75 189.488 138.75C193.391 138.75 195.992 135.762 196.309 131.086H189.312V128.73H199.402V141H197.293L197.117 135.902C195.605 139.207 192.828 141.281 189.383 141.281C183.371 141.281 179.328 136.465 179.328 129.223ZM203.199 123H205.871V125.707C207.066 123.738 209.035 122.648 210.934 122.648H211.742V125.426H210.969C208.086 125.426 205.871 127.359 205.871 130.102V141H203.199V123ZM213.887 131.93C213.887 126.305 217.297 122.578 222.359 122.578C227.387 122.578 230.762 126.305 230.762 131.93C230.762 137.59 227.387 141.352 222.359 141.352C217.297 141.352 213.887 137.59 213.887 131.93ZM228.02 131.93C228.02 127.57 225.945 125.039 222.359 125.039C218.738 125.039 216.629 127.57 216.629 131.93C216.629 136.324 218.738 138.891 222.359 138.891C225.945 138.891 228.02 136.324 228.02 131.93ZM241.766 138.609V141H240.148C237.898 141 235.824 139.77 235.824 136.395V125.32H232.52V123H235.824V118.324H238.461V123H241.766V125.32H238.461V136.043C238.461 138.082 239.27 138.609 240.359 138.609H241.766ZM244.016 131.93C244.016 126.199 247.285 122.648 252.418 122.648C257.305 122.648 260.82 126.41 260.82 131.578V132.668H246.758C247.004 136.746 249.008 138.926 252.629 138.926C255.582 138.926 257.375 137.52 257.797 135.305H260.609C259.801 139.137 257.164 141.281 252.629 141.281C247.355 141.281 244.016 137.695 244.016 131.93ZM252.418 124.934C249.113 124.934 247.18 126.832 246.828 130.523H257.973C257.691 127.113 255.512 124.934 252.418 124.934ZM272.703 133.336L269.785 132.949C266.094 132.492 264.09 130.98 264.09 127.922C264.09 124.652 266.762 122.648 271.156 122.648C275.34 122.648 278.117 124.828 278.469 128.414H275.832C275.41 125.988 273.934 124.863 271.121 124.863C268.484 124.863 266.727 126.023 266.727 127.781C266.727 129.504 267.887 130.207 270.172 130.488L273.125 130.84C277.062 131.297 278.926 133.02 278.926 136.254C278.926 139.348 276.148 141.316 271.965 141.316C267.219 141.316 264.336 139.031 263.914 135.586H266.691C267.113 138.012 268.801 139.102 271.965 139.102C274.566 139.102 276.289 138.012 276.289 136.289C276.289 134.602 275.129 133.617 272.703 133.336ZM293.375 123H296.715L289.016 131.824L297.066 141H293.797L287.117 133.512L285.008 135.938V141H282.336V115.793H285.008V132.809L293.375 123Z" fill="#212121"/>
<path d="M22.3926 193.48H29.6191V205.834H42.5586V193.48H49.7363V226H42.5586V212.572H29.6191V226H22.3926V193.48ZM53.9844 213.402C53.9844 205.443 58.7695 200.512 66.3867 200.512C73.9062 200.512 79.3262 205.98 79.3262 213.598V215.209H61.3574C61.7969 218.871 63.6523 220.824 66.7285 220.824C69.3652 220.824 70.9766 219.652 71.3672 217.602H78.9844C78.0078 223.51 73.7109 226.391 66.6797 226.391C58.8672 226.391 53.9844 221.41 53.9844 213.402ZM66.4355 205.688C63.7988 205.688 62.0898 207.152 61.5039 210.473H71.6113C71.3184 207.543 69.3164 205.688 66.4355 205.688ZM106.328 209.887V226H99.1504V222.338C97.5879 225.023 94.8047 226.635 91.2891 226.635C86.5039 226.635 82.9883 223.314 82.9883 218.725C82.9883 214.086 85.6738 211.498 90.6543 211.156L96.9531 210.766C98.5156 210.668 99.1504 210.131 99.1504 208.959V208.861C99.1504 206.957 97.2949 205.443 95.0488 205.443C92.3633 205.443 90.8496 206.615 90.5566 208.861H83.1836C83.5742 203.686 88.2129 200.268 95 200.268C101.738 200.268 106.328 204.174 106.328 209.887ZM90.2148 218.285C90.2148 220.043 91.7773 221.215 94.0234 221.215C96.9043 221.215 99.1504 219.066 99.1504 216.234V215.307L93.3398 215.648C91.2891 215.746 90.2148 216.674 90.2148 218.285ZM135.869 190.99V226H128.691V221.996C126.982 224.975 124.248 226.732 120.879 226.732C114.727 226.732 110.576 221.41 110.576 213.402C110.576 205.443 114.727 200.17 120.879 200.17C124.248 200.17 126.982 201.928 128.691 204.857V190.99H135.869ZM117.852 213.402C117.852 217.943 119.902 220.58 123.271 220.58C126.689 220.58 128.691 217.943 128.691 213.402C128.691 208.91 126.689 206.322 123.271 206.322C119.902 206.322 117.852 208.91 117.852 213.402ZM140.508 190.99H147.686V226H140.508V190.99ZM151.982 191.967H159.844V198.021H151.982V191.967ZM152.324 201H159.502V226H152.324V201ZM181.035 211.84C181.035 208.227 179.131 206.664 176.201 206.664C173.467 206.664 171.416 208.666 171.416 211.498V226H164.189V201H171.416V204.711C173.223 201.83 176.25 200.17 179.082 200.17C184.404 200.17 188.213 203.783 188.213 210.326V226H181.035V211.84ZM192.314 213.402C192.314 205.443 197.1 200.512 204.717 200.512C212.236 200.512 217.656 205.98 217.656 213.598V215.209H199.688C200.127 218.871 201.982 220.824 205.059 220.824C207.695 220.824 209.307 219.652 209.697 217.602H217.314C216.338 223.51 212.041 226.391 205.01 226.391C197.197 226.391 192.314 221.41 192.314 213.402ZM204.766 205.688C202.129 205.688 200.42 207.152 199.834 210.473H209.941C209.648 207.543 207.646 205.688 204.766 205.688ZM238.652 193.48H245.83V226H238.652V205.004H230.84V198.852H234.697C237.285 198.852 238.652 198.07 238.652 195.482V193.48Z" fill="#212121"/>
<path d="M25.625 249.594C27.2812 249.594 28.4062 250.656 28.4062 252.25C28.4062 253.344 27.8594 254.203 26.9844 254.609C28.1562 255.016 28.8906 255.984 28.8906 257.266C28.8906 258.906 27.75 260 26.0312 260H20.8438V249.594H25.625ZM25.5 250.672H22.0312V254.141H25.5C26.5469 254.141 27.1875 253.469 27.1875 252.344C27.1875 251.281 26.5469 250.672 25.5 250.672ZM25.5625 255.219H22.0312V258.938H25.8281C26.9688 258.938 27.6719 258.281 27.6719 257.172C27.6719 255.953 26.875 255.219 25.5625 255.219ZM30.2406 255.969C30.2406 253.469 31.7563 251.812 34.0063 251.812C36.2406 251.812 37.7406 253.469 37.7406 255.969C37.7406 258.484 36.2406 260.156 34.0063 260.156C31.7563 260.156 30.2406 258.484 30.2406 255.969ZM36.5219 255.969C36.5219 254.031 35.6 252.906 34.0063 252.906C32.3969 252.906 31.4594 254.031 31.4594 255.969C31.4594 257.922 32.3969 259.062 34.0063 259.062C35.6 259.062 36.5219 257.922 36.5219 255.969ZM39.3719 248.797H40.5594V260H39.3719V248.797ZM49.6281 248.797V260H48.4562V258.453C47.8781 259.516 46.9094 260.156 45.6906 260.156C43.5812 260.156 42.175 258.484 42.175 255.969C42.175 253.469 43.5812 251.812 45.6906 251.812C46.9094 251.812 47.8781 252.438 48.4562 253.5V248.797H49.6281ZM43.3937 255.969C43.3937 257.922 44.3312 259.062 45.925 259.062C47.5344 259.062 48.4562 257.922 48.4562 255.969C48.4562 254.031 47.5344 252.906 45.925 252.906C44.3312 252.906 43.3937 254.031 43.3937 255.969ZM51.3062 258.531H52.7125V260L52.1031 262.156H51.1969L52.15 260H51.3062V258.531ZM63.3969 256.547C63.3969 255 62.5375 254.031 60.975 254.031C59.8969 254.031 59.1 254.469 58.6625 255.172H57.5062L58.0219 249.578H64.2406V250.656H59.0531L58.7094 254.156C59.2719 253.438 60.1625 253 61.2719 253C63.3031 253 64.6 254.469 64.6 256.531C64.6 258.766 63.1781 260.125 61.0531 260.125C59.0687 260.125 57.6469 258.953 57.5062 257.25H58.725C58.7875 258.344 59.6781 259.031 61.0375 259.031C62.5219 259.031 63.3969 258.203 63.3969 256.547ZM66.0906 254.922C66.0906 251.469 67.5281 249.438 69.9188 249.438C72.2938 249.438 73.7 251.469 73.7 254.922C73.7 258.203 72.2938 260.125 69.9188 260.125C67.5125 260.125 66.0906 258.203 66.0906 254.922ZM72.4813 254.922C72.4813 252.016 71.6375 250.547 69.9188 250.547C68.1844 250.547 67.3094 252.016 67.3094 254.922C67.3094 257.641 68.1844 259 69.9188 259C71.6375 259 72.4813 257.641 72.4813 254.922ZM78.6437 249.594H79.9562L75.7844 260H74.4875L78.6437 249.594ZM88.3844 260H87.1031L86.1031 257.219H81.6656L80.6813 260H79.3844L83.2281 249.594H84.5563L88.3844 260ZM83.8531 251L82.025 256.188H85.7281L83.8531 251ZM90.8125 256.75C90.8125 258.375 91.625 259.062 92.875 259.062C94.1094 259.062 95.0469 258.141 95.0469 256.844V252H96.2188V260H95.0469V258.703C94.4688 259.641 93.4688 260.188 92.5312 260.188C90.8438 260.188 89.625 259.047 89.625 256.984V252H90.8125V256.75ZM101.803 258.938V260H101.084C100.084 260 99.1625 259.453 99.1625 257.953V253.031H97.6937V252H99.1625V249.922H100.334V252H101.803V253.031H100.334V257.797C100.334 258.703 100.694 258.938 101.178 258.938H101.803ZM102.903 255.969C102.903 253.469 104.419 251.812 106.669 251.812C108.903 251.812 110.403 253.469 110.403 255.969C110.403 258.484 108.903 260.156 106.669 260.156C104.419 260.156 102.903 258.484 102.903 255.969ZM109.184 255.969C109.184 254.031 108.262 252.906 106.669 252.906C105.059 252.906 104.122 254.031 104.122 255.969C104.122 257.922 105.059 259.062 106.669 259.062C108.262 259.062 109.184 257.922 109.184 255.969Z" fill="#818181"/>
<path d="M21.4355 298.488H25.7715V305.9H33.5352V298.488H37.8418V318H33.5352V309.943H25.7715V318H21.4355V298.488ZM40.3906 310.441C40.3906 305.666 43.2617 302.707 47.832 302.707C52.3438 302.707 55.5957 305.988 55.5957 310.559V311.525H44.8145C45.0781 313.723 46.1914 314.895 48.0371 314.895C49.6191 314.895 50.5859 314.191 50.8203 312.961H55.3906C54.8047 316.506 52.2266 318.234 48.0078 318.234C43.3203 318.234 40.3906 315.246 40.3906 310.441ZM47.8613 305.812C46.2793 305.812 45.2539 306.691 44.9023 308.684H50.9668C50.791 306.926 49.5898 305.812 47.8613 305.812ZM71.7969 308.332V318H67.4902V315.803C66.5527 317.414 64.8828 318.381 62.7734 318.381C59.9023 318.381 57.793 316.389 57.793 313.635C57.793 310.852 59.4043 309.299 62.3926 309.094L66.1719 308.859C67.1094 308.801 67.4902 308.479 67.4902 307.775V307.717C67.4902 306.574 66.377 305.666 65.0293 305.666C63.418 305.666 62.5098 306.369 62.334 307.717H57.9102C58.1445 304.611 60.9277 302.561 65 302.561C69.043 302.561 71.7969 304.904 71.7969 308.332ZM62.1289 313.371C62.1289 314.426 63.0664 315.129 64.4141 315.129C66.1426 315.129 67.4902 313.84 67.4902 312.141V311.584L64.0039 311.789C62.7734 311.848 62.1289 312.404 62.1289 313.371ZM89.5215 296.994V318H85.2148V315.598C84.1895 317.385 82.5488 318.439 80.5273 318.439C76.8359 318.439 74.3457 315.246 74.3457 310.441C74.3457 305.666 76.8359 302.502 80.5273 302.502C82.5488 302.502 84.1895 303.557 85.2148 305.314V296.994H89.5215ZM78.7109 310.441C78.7109 313.166 79.9414 314.748 81.9629 314.748C84.0137 314.748 85.2148 313.166 85.2148 310.441C85.2148 307.746 84.0137 306.193 81.9629 306.193C79.9414 306.193 78.7109 307.746 78.7109 310.441ZM92.3047 296.994H96.6113V318H92.3047V296.994ZM99.1895 297.58H103.906V301.213H99.1895V297.58ZM99.3945 303H103.701V318H99.3945V303ZM116.621 309.504C116.621 307.336 115.479 306.398 113.721 306.398C112.08 306.398 110.85 307.6 110.85 309.299V318H106.514V303H110.85V305.227C111.934 303.498 113.75 302.502 115.449 302.502C118.643 302.502 120.928 304.67 120.928 308.596V318H116.621V309.504ZM123.389 310.441C123.389 305.666 126.26 302.707 130.83 302.707C135.342 302.707 138.594 305.988 138.594 310.559V311.525H127.812C128.076 313.723 129.189 314.895 131.035 314.895C132.617 314.895 133.584 314.191 133.818 312.961H138.389C137.803 316.506 135.225 318.234 131.006 318.234C126.318 318.234 123.389 315.246 123.389 310.441ZM130.859 305.812C129.277 305.812 128.252 306.691 127.9 308.684H133.965C133.789 306.926 132.588 305.812 130.859 305.812ZM152.041 314.162H161.299V318H146.797V317.18C146.797 311.584 150.107 309.533 152.979 308.127C155.117 307.043 157.021 306.281 157.021 304.553C157.021 302.854 155.938 301.887 154.15 301.887C152.393 301.887 151.25 303.059 151.191 304.904H146.797C147.09 300.979 149.961 298.254 153.916 298.254C158.428 298.254 161.416 300.773 161.416 304.553C161.416 307.775 158.955 309.387 156.553 310.588C154.297 311.76 152.041 312.58 152.041 314.162Z" fill="#212121"/>
<path d="M25.625 336.594C27.2812 336.594 28.4062 337.656 28.4062 339.25C28.4062 340.344 27.8594 341.203 26.9844 341.609C28.1562 342.016 28.8906 342.984 28.8906 344.266C28.8906 345.906 27.75 347 26.0312 347H20.8438V336.594H25.625ZM25.5 337.672H22.0312V341.141H25.5C26.5469 341.141 27.1875 340.469 27.1875 339.344C27.1875 338.281 26.5469 337.672 25.5 337.672ZM25.5625 342.219H22.0312V345.938H25.8281C26.9688 345.938 27.6719 345.281 27.6719 344.172C27.6719 342.953 26.875 342.219 25.5625 342.219ZM30.2406 342.969C30.2406 340.469 31.7563 338.812 34.0063 338.812C36.2406 338.812 37.7406 340.469 37.7406 342.969C37.7406 345.484 36.2406 347.156 34.0063 347.156C31.7563 347.156 30.2406 345.484 30.2406 342.969ZM36.5219 342.969C36.5219 341.031 35.6 339.906 34.0063 339.906C32.3969 339.906 31.4594 341.031 31.4594 342.969C31.4594 344.922 32.3969 346.062 34.0063 346.062C35.6 346.062 36.5219 344.922 36.5219 342.969ZM39.3719 335.797H40.5594V347H39.3719V335.797ZM49.6281 335.797V347H48.4562V345.453C47.8781 346.516 46.9094 347.156 45.6906 347.156C43.5812 347.156 42.175 345.484 42.175 342.969C42.175 340.469 43.5812 338.812 45.6906 338.812C46.9094 338.812 47.8781 339.438 48.4562 340.5V335.797H49.6281ZM43.3937 342.969C43.3937 344.922 44.3312 346.062 45.925 346.062C47.5344 346.062 48.4562 344.922 48.4562 342.969C48.4562 341.031 47.5344 339.906 45.925 339.906C44.3312 339.906 43.3937 341.031 43.3937 342.969ZM51.3062 345.531H52.7125V347L52.1031 349.156H51.1969L52.15 347H51.3062V345.531ZM60.35 342.281V341.25H61.4594C62.6 341.25 63.2406 340.609 63.2406 339.5C63.2406 338.25 62.4125 337.531 61.0219 337.531C59.7562 337.531 58.9437 338.281 58.8969 339.469H57.6625C57.8031 337.688 59.1625 336.469 61.0375 336.469C63.0687 336.469 64.4437 337.656 64.4437 339.453C64.4437 340.516 63.9125 341.344 63.0062 341.766C64.0062 342.188 64.6 343.062 64.6 344.188C64.6 345.953 63.1781 347.125 61.0687 347.125C59.1 347.125 57.6469 345.922 57.5062 344.156H58.725C58.7875 345.328 59.6937 346.062 61.0219 346.062C62.5219 346.062 63.3969 345.359 63.3969 344.125C63.3969 342.938 62.6937 342.281 61.4594 342.281H60.35ZM66.0906 341.922C66.0906 338.469 67.5281 336.438 69.9188 336.438C72.2938 336.438 73.7 338.469 73.7 341.922C73.7 345.203 72.2938 347.125 69.9188 347.125C67.5125 347.125 66.0906 345.203 66.0906 341.922ZM72.4813 341.922C72.4813 339.016 71.6375 337.547 69.9188 337.547C68.1844 337.547 67.3094 339.016 67.3094 341.922C67.3094 344.641 68.1844 346 69.9188 346C71.6375 346 72.4813 344.641 72.4813 341.922ZM78.6437 336.594H79.9562L75.7844 347H74.4875L78.6437 336.594ZM88.3844 347H87.1031L86.1031 344.219H81.6656L80.6813 347H79.3844L83.2281 336.594H84.5563L88.3844 347ZM83.8531 338L82.025 343.188H85.7281L83.8531 338ZM90.8125 343.75C90.8125 345.375 91.625 346.062 92.875 346.062C94.1094 346.062 95.0469 345.141 95.0469 343.844V339H96.2188V347H95.0469V345.703C94.4688 346.641 93.4688 347.188 92.5312 347.188C90.8438 347.188 89.625 346.047 89.625 343.984V339H90.8125V343.75ZM101.803 345.938V347H101.084C100.084 347 99.1625 346.453 99.1625 344.953V340.031H97.6937V339H99.1625V336.922H100.334V339H101.803V340.031H100.334V344.797C100.334 345.703 100.694 345.938 101.178 345.938H101.803ZM102.903 342.969C102.903 340.469 104.419 338.812 106.669 338.812C108.903 338.812 110.403 340.469 110.403 342.969C110.403 345.484 108.903 347.156 106.669 347.156C104.419 347.156 102.903 345.484 102.903 342.969ZM109.184 342.969C109.184 341.031 108.262 339.906 106.669 339.906C105.059 339.906 104.122 341.031 104.122 342.969C104.122 344.922 105.059 346.062 106.669 346.062C108.262 346.062 109.184 344.922 109.184 342.969Z" fill="#818181"/>
<path d="M20.957 381.992H23.8477V386.934H29.0234V381.992H31.8945V395H29.0234V389.629H23.8477V395H20.957V381.992ZM33.5938 389.961C33.5938 386.777 35.5078 384.805 38.5547 384.805C41.5625 384.805 43.7305 386.992 43.7305 390.039V390.684H36.543C36.7188 392.148 37.4609 392.93 38.6914 392.93C39.7461 392.93 40.3906 392.461 40.5469 391.641H43.5938C43.2031 394.004 41.4844 395.156 38.6719 395.156C35.5469 395.156 33.5938 393.164 33.5938 389.961ZM38.5742 386.875C37.5195 386.875 36.8359 387.461 36.6016 388.789H40.6445C40.5273 387.617 39.7266 386.875 38.5742 386.875ZM54.5312 388.555V395H51.6602V393.535C51.0352 394.609 49.9219 395.254 48.5156 395.254C46.6016 395.254 45.1953 393.926 45.1953 392.09C45.1953 390.234 46.2695 389.199 48.2617 389.062L50.7812 388.906C51.4062 388.867 51.6602 388.652 51.6602 388.184V388.145C51.6602 387.383 50.918 386.777 50.0195 386.777C48.9453 386.777 48.3398 387.246 48.2227 388.145H45.2734C45.4297 386.074 47.2852 384.707 50 384.707C52.6953 384.707 54.5312 386.27 54.5312 388.555ZM48.0859 391.914C48.0859 392.617 48.7109 393.086 49.6094 393.086C50.7617 393.086 51.6602 392.227 51.6602 391.094V390.723L49.3359 390.859C48.5156 390.898 48.0859 391.27 48.0859 391.914ZM66.3477 380.996V395H63.4766V393.398C62.793 394.59 61.6992 395.293 60.3516 395.293C57.8906 395.293 56.2305 393.164 56.2305 389.961C56.2305 386.777 57.8906 384.668 60.3516 384.668C61.6992 384.668 62.793 385.371 63.4766 386.543V380.996H66.3477ZM59.1406 389.961C59.1406 391.777 59.9609 392.832 61.3086 392.832C62.6758 392.832 63.4766 391.777 63.4766 389.961C63.4766 388.164 62.6758 387.129 61.3086 387.129C59.9609 387.129 59.1406 388.164 59.1406 389.961ZM68.2031 380.996H71.0742V395H68.2031V380.996ZM72.793 381.387H75.9375V383.809H72.793V381.387ZM72.9297 385H75.8008V395H72.9297V385ZM84.4141 389.336C84.4141 387.891 83.6523 387.266 82.4805 387.266C81.3867 387.266 80.5664 388.066 80.5664 389.199V395H77.6758V385H80.5664V386.484C81.2891 385.332 82.5 384.668 83.6328 384.668C85.7617 384.668 87.2852 386.113 87.2852 388.73V395H84.4141V389.336ZM88.9258 389.961C88.9258 386.777 90.8398 384.805 93.8867 384.805C96.8945 384.805 99.0625 386.992 99.0625 390.039V390.684H91.875C92.0508 392.148 92.793 392.93 94.0234 392.93C95.0781 392.93 95.7227 392.461 95.8789 391.641H98.9258C98.5352 394.004 96.8164 395.156 94.0039 395.156C90.8789 395.156 88.9258 393.164 88.9258 389.961ZM93.9062 386.875C92.8516 386.875 92.168 387.461 91.9336 388.789H95.9766C95.8594 387.617 95.0586 386.875 93.9062 386.875ZM108.496 389.531V387.363H109.883C110.781 387.363 111.289 386.836 111.289 385.898C111.289 384.805 110.605 384.16 109.453 384.16C108.379 384.16 107.695 384.824 107.676 385.898H104.727C104.922 383.457 106.836 381.836 109.531 381.836C112.266 381.836 114.199 383.418 114.199 385.664C114.199 386.895 113.613 387.871 112.578 388.438C113.73 389.062 114.395 390.098 114.395 391.426C114.395 393.652 112.5 395.156 109.688 395.156C106.816 395.156 104.727 393.496 104.531 391.035H107.461C107.539 392.148 108.34 392.812 109.512 392.812C110.762 392.812 111.484 392.188 111.484 391.094C111.484 390.078 110.898 389.531 109.883 389.531H108.496Z" fill="#212121"/>
<path d="M25.625 410.594C27.2812 410.594 28.4062 411.656 28.4062 413.25C28.4062 414.344 27.8594 415.203 26.9844 415.609C28.1562 416.016 28.8906 416.984 28.8906 418.266C28.8906 419.906 27.75 421 26.0312 421H20.8438V410.594H25.625ZM25.5 411.672H22.0312V415.141H25.5C26.5469 415.141 27.1875 414.469 27.1875 413.344C27.1875 412.281 26.5469 411.672 25.5 411.672ZM25.5625 416.219H22.0312V419.938H25.8281C26.9688 419.938 27.6719 419.281 27.6719 418.172C27.6719 416.953 26.875 416.219 25.5625 416.219ZM30.2406 416.969C30.2406 414.469 31.7563 412.812 34.0063 412.812C36.2406 412.812 37.7406 414.469 37.7406 416.969C37.7406 419.484 36.2406 421.156 34.0063 421.156C31.7563 421.156 30.2406 419.484 30.2406 416.969ZM36.5219 416.969C36.5219 415.031 35.6 413.906 34.0063 413.906C32.3969 413.906 31.4594 415.031 31.4594 416.969C31.4594 418.922 32.3969 420.062 34.0063 420.062C35.6 420.062 36.5219 418.922 36.5219 416.969ZM39.3719 409.797H40.5594V421H39.3719V409.797ZM49.6281 409.797V421H48.4562V419.453C47.8781 420.516 46.9094 421.156 45.6906 421.156C43.5812 421.156 42.175 419.484 42.175 416.969C42.175 414.469 43.5812 412.812 45.6906 412.812C46.9094 412.812 47.8781 413.438 48.4562 414.5V409.797H49.6281ZM43.3937 416.969C43.3937 418.922 44.3312 420.062 45.925 420.062C47.5344 420.062 48.4562 418.922 48.4562 416.969C48.4562 415.031 47.5344 413.906 45.925 413.906C44.3312 413.906 43.3937 415.031 43.3937 416.969ZM51.3062 419.531H52.7125V421L52.1031 423.156H51.1969L52.15 421H51.3062V419.531ZM58.8344 419.906H64.5219V421H57.5062V420.719C57.5062 418.25 59.3187 417.25 60.9281 416.406C62.2094 415.703 63.3656 415.078 63.3656 413.75C63.3656 412.359 62.4906 411.547 61.0062 411.547C59.6781 411.547 58.7875 412.406 58.725 413.75H57.5062C57.6469 411.797 59.0531 410.469 60.975 410.469C63.1469 410.469 64.5844 411.781 64.5844 413.75C64.5844 415.484 63.1937 416.422 61.7875 417.203C60.3344 418.016 58.8344 418.688 58.8344 419.906ZM65.8563 415.922C65.8563 412.469 67.2938 410.438 69.6844 410.438C72.0594 410.438 73.4656 412.469 73.4656 415.922C73.4656 419.203 72.0594 421.125 69.6844 421.125C67.2781 421.125 65.8563 419.203 65.8563 415.922ZM72.2469 415.922C72.2469 413.016 71.4031 411.547 69.6844 411.547C67.95 411.547 67.075 413.016 67.075 415.922C67.075 418.641 67.95 420 69.6844 420C71.4031 420 72.2469 418.641 72.2469 415.922ZM78.4094 410.594H79.7219L75.55 421H74.2531L78.4094 410.594ZM88.15 421H86.8688L85.8688 418.219H81.4313L80.4469 421H79.15L82.9938 410.594H84.3219L88.15 421ZM83.6188 412L81.7906 417.188H85.4938L83.6188 412ZM90.5781 417.75C90.5781 419.375 91.3906 420.062 92.6406 420.062C93.875 420.062 94.8125 419.141 94.8125 417.844V413H95.9844V421H94.8125V419.703C94.2344 420.641 93.2344 421.188 92.2969 421.188C90.6094 421.188 89.3906 420.047 89.3906 417.984V413H90.5781V417.75ZM101.569 419.938V421H100.85C99.85 421 98.9281 420.453 98.9281 418.953V414.031H97.4594V413H98.9281V410.922H100.1V413H101.569V414.031H100.1V418.797C100.1 419.703 100.459 419.938 100.944 419.938H101.569ZM102.669 416.969C102.669 414.469 104.184 412.812 106.434 412.812C108.669 412.812 110.169 414.469 110.169 416.969C110.169 419.484 108.669 421.156 106.434 421.156C104.184 421.156 102.669 419.484 102.669 416.969ZM108.95 416.969C108.95 415.031 108.028 413.906 106.434 413.906C104.825 413.906 103.887 415.031 103.887 416.969C103.887 418.922 104.825 420.062 106.434 420.062C108.028 420.062 108.95 418.922 108.95 416.969Z" fill="#818181"/>
<path d="M20.7656 453.594H23.0781V457.547H27.2188V453.594H29.5156V464H27.2188V459.703H23.0781V464H20.7656V453.594ZM30.875 459.969C30.875 457.422 32.4062 455.844 34.8438 455.844C37.25 455.844 38.9844 457.594 38.9844 460.031V460.547H33.2344C33.375 461.719 33.9688 462.344 34.9531 462.344C35.7969 462.344 36.3125 461.969 36.4375 461.312H38.875C38.5625 463.203 37.1875 464.125 34.9375 464.125C32.4375 464.125 30.875 462.531 30.875 459.969ZM34.8594 457.5C34.0156 457.5 33.4688 457.969 33.2812 459.031H36.5156C36.4219 458.094 35.7812 457.5 34.8594 457.5ZM47.625 458.844V464H45.3281V462.828C44.8281 463.688 43.9375 464.203 42.8125 464.203C41.2812 464.203 40.1562 463.141 40.1562 461.672C40.1562 460.188 41.0156 459.359 42.6094 459.25L44.625 459.125C45.125 459.094 45.3281 458.922 45.3281 458.547V458.516C45.3281 457.906 44.7344 457.422 44.0156 457.422C43.1562 457.422 42.6719 457.797 42.5781 458.516H40.2188C40.3438 456.859 41.8281 455.766 44 455.766C46.1562 455.766 47.625 457.016 47.625 458.844ZM42.4688 461.531C42.4688 462.094 42.9688 462.469 43.6875 462.469C44.6094 462.469 45.3281 461.781 45.3281 460.875V460.578L43.4688 460.688C42.8125 460.719 42.4688 461.016 42.4688 461.531ZM57.0781 452.797V464H54.7812V462.719C54.2344 463.672 53.3594 464.234 52.2812 464.234C50.3125 464.234 48.9844 462.531 48.9844 459.969C48.9844 457.422 50.3125 455.734 52.2812 455.734C53.3594 455.734 54.2344 456.297 54.7812 457.234V452.797H57.0781ZM51.3125 459.969C51.3125 461.422 51.9688 462.266 53.0469 462.266C54.1406 462.266 54.7812 461.422 54.7812 459.969C54.7812 458.531 54.1406 457.703 53.0469 457.703C51.9688 457.703 51.3125 458.531 51.3125 459.969ZM58.5625 452.797H60.8594V464H58.5625V452.797ZM62.2344 453.109H64.75V455.047H62.2344V453.109ZM62.3438 456H64.6406V464H62.3438V456ZM71.5312 459.469C71.5312 458.312 70.9219 457.812 69.9844 457.812C69.1094 457.812 68.4531 458.453 68.4531 459.359V464H66.1406V456H68.4531V457.188C69.0312 456.266 70 455.734 70.9062 455.734C72.6094 455.734 73.8281 456.891 73.8281 458.984V464H71.5312V459.469ZM75.1406 459.969C75.1406 457.422 76.6719 455.844 79.1094 455.844C81.5156 455.844 83.25 457.594 83.25 460.031V460.547H77.5C77.6406 461.719 78.2344 462.344 79.2188 462.344C80.0625 462.344 80.5781 461.969 80.7031 461.312H83.1406C82.8281 463.203 81.4531 464.125 79.2031 464.125C76.7031 464.125 75.1406 462.531 75.1406 459.969ZM79.125 457.5C78.2812 457.5 77.7344 457.969 77.5469 459.031H80.7812C80.6875 458.094 80.0469 457.5 79.125 457.5ZM94.6562 461.672V464H92.4688V461.672H87.4688V459.266L91.7812 453.594H94.6562V459.75H96.0781V461.672H94.6562ZM92.4688 459.75V456.109L89.7969 459.75H92.4688Z" fill="#212121"/>
<path d="M25.625 477.594C27.2812 477.594 28.4062 478.656 28.4062 480.25C28.4062 481.344 27.8594 482.203 26.9844 482.609C28.1562 483.016 28.8906 483.984 28.8906 485.266C28.8906 486.906 27.75 488 26.0312 488H20.8438V477.594H25.625ZM25.5 478.672H22.0312V482.141H25.5C26.5469 482.141 27.1875 481.469 27.1875 480.344C27.1875 479.281 26.5469 478.672 25.5 478.672ZM25.5625 483.219H22.0312V486.938H25.8281C26.9688 486.938 27.6719 486.281 27.6719 485.172C27.6719 483.953 26.875 483.219 25.5625 483.219ZM30.2406 483.969C30.2406 481.469 31.7563 479.812 34.0063 479.812C36.2406 479.812 37.7406 481.469 37.7406 483.969C37.7406 486.484 36.2406 488.156 34.0063 488.156C31.7563 488.156 30.2406 486.484 30.2406 483.969ZM36.5219 483.969C36.5219 482.031 35.6 480.906 34.0063 480.906C32.3969 480.906 31.4594 482.031 31.4594 483.969C31.4594 485.922 32.3969 487.062 34.0063 487.062C35.6 487.062 36.5219 485.922 36.5219 483.969ZM39.3719 476.797H40.5594V488H39.3719V476.797ZM49.6281 476.797V488H48.4562V486.453C47.8781 487.516 46.9094 488.156 45.6906 488.156C43.5812 488.156 42.175 486.484 42.175 483.969C42.175 481.469 43.5812 479.812 45.6906 479.812C46.9094 479.812 47.8781 480.438 48.4562 481.5V476.797H49.6281ZM43.3937 483.969C43.3937 485.922 44.3312 487.062 45.925 487.062C47.5344 487.062 48.4562 485.922 48.4562 483.969C48.4562 482.031 47.5344 480.906 45.925 480.906C44.3312 480.906 43.3937 482.031 43.3937 483.969ZM51.3062 486.531H52.7125V488L52.1031 490.156H51.1969L52.15 488H51.3062V486.531ZM59.85 477.594H61.0219V488H59.85V480.312H57.35V479.312H58.5844C59.4125 479.312 59.85 479.062 59.85 478.234V477.594ZM62.6531 482.75C62.6531 479.406 64.1375 477.438 66.6531 477.438C68.3875 477.438 69.6531 478.453 69.95 480.094H68.7313C68.5281 479.047 67.8094 478.469 66.6531 478.469C64.8094 478.469 63.8719 479.875 63.8719 482.656C63.8719 482.828 63.8875 483 63.9031 483.156C64.3875 481.938 65.5281 481.188 66.8563 481.188C68.7313 481.188 70.075 482.641 70.075 484.641C70.075 486.672 68.6844 488.125 66.7156 488.125C64.2313 488.125 62.6531 486.047 62.6531 482.75ZM64.2313 484.656C64.2313 486.031 65.2781 487.078 66.6531 487.078C67.9813 487.078 68.8563 486.109 68.8563 484.656C68.8563 483.203 67.9813 482.234 66.6531 482.234C65.2156 482.234 64.2313 483.219 64.2313 484.656ZM75.0187 477.594H76.3312L72.1594 488H70.8625L75.0187 477.594ZM84.7594 488H83.4781L82.4781 485.219H78.0406L77.0563 488H75.7594L79.6031 477.594H80.9313L84.7594 488ZM80.2281 479L78.4 484.188H82.1031L80.2281 479ZM87.1875 484.75C87.1875 486.375 88 487.062 89.25 487.062C90.4844 487.062 91.4219 486.141 91.4219 484.844V480H92.5938V488H91.4219V486.703C90.8438 487.641 89.8438 488.188 88.9062 488.188C87.2188 488.188 86 487.047 86 484.984V480H87.1875V484.75ZM98.1781 486.938V488H97.4594C96.4594 488 95.5375 487.453 95.5375 485.953V481.031H94.0687V480H95.5375V477.922H96.7094V480H98.1781V481.031H96.7094V485.797C96.7094 486.703 97.0687 486.938 97.5531 486.938H98.1781ZM99.2781 483.969C99.2781 481.469 100.794 479.812 103.044 479.812C105.278 479.812 106.778 481.469 106.778 483.969C106.778 486.484 105.278 488.156 103.044 488.156C100.794 488.156 99.2781 486.484 99.2781 483.969ZM105.559 483.969C105.559 482.031 104.637 480.906 103.044 480.906C101.434 480.906 100.497 482.031 100.497 483.969C100.497 485.922 101.434 487.062 103.044 487.062C104.637 487.062 105.559 485.922 105.559 483.969Z" fill="#818181"/>
<path d="M30.4004 526.488C33.3887 526.488 35.4102 528.48 35.4102 531.469C35.4102 533.578 34.3848 535.189 32.7441 535.951C34.9414 536.684 36.3184 538.471 36.3184 540.873C36.3184 543.949 34.209 546 31.0156 546H21.6406V526.488H30.4004ZM30.2539 527.953H23.1641V535.277H30.2539C32.5098 535.277 33.8281 533.871 33.8281 531.469C33.8281 529.213 32.5098 527.953 30.2539 527.953ZM30.2539 536.742H23.1641V544.564H30.8691C33.3008 544.564 34.7363 543.217 34.7363 540.873C34.7363 538.266 33.0664 536.742 30.2539 536.742ZM38.7207 538.441C38.7207 533.783 41.4746 530.707 45.5762 530.707C49.6484 530.707 52.373 533.783 52.373 538.441C52.373 543.129 49.6484 546.234 45.5762 546.234C41.4746 546.234 38.7207 543.129 38.7207 538.441ZM50.791 538.441C50.791 534.486 48.8867 532.201 45.5762 532.201C42.2363 532.201 40.3027 534.486 40.3027 538.441C40.3027 542.426 42.2363 544.74 45.5762 544.74C48.8867 544.74 50.791 542.426 50.791 538.441ZM68.6328 524.994V546H67.1387V542.953C66.0547 545.004 64.1797 546.234 61.7773 546.234C57.7637 546.234 55.0684 543.129 55.0684 538.441C55.0684 533.783 57.7637 530.707 61.7773 530.707C64.1797 530.707 66.0547 531.908 67.1387 533.959V524.994H68.6328ZM56.6504 538.441C56.6504 542.426 58.584 544.74 61.8945 544.74C65.2344 544.74 67.1387 542.426 67.1387 538.441C67.1387 534.486 65.2344 532.201 61.8945 532.201C58.584 532.201 56.6504 534.486 56.6504 538.441ZM72.0898 549.047H74.2285C75.7227 549.047 76.4844 548.49 77.041 546.908L77.3926 546L71.3281 531H73.0273L78.2715 544.008L83.4277 531H85.1562L78.7402 547.084C77.7148 549.604 76.6309 550.629 74.9609 550.629H72.0898V549.047ZM86.4453 537.006H98.1934V538.441H86.4453V537.006ZM104.99 526.488H106.484V546H104.99V531H100.303V529.711H102.617C104.17 529.711 104.99 529.242 104.99 527.689V526.488Z" fill="#212121"/>
<path d="M27.0625 576H20.8438V565.594H22.0312V574.891H27.0625V576ZM28.3281 565.562H29.7344V566.875H28.3281V565.562ZM28.4375 568H29.625V576H28.4375V568ZM38.5938 568V576.172C38.5938 577.938 37.1875 579.125 35.0625 579.125C32.9688 579.125 31.5156 578.094 31.2656 576.516H32.5C32.625 577.484 33.5625 578.062 35.0312 578.062C36.5312 578.062 37.4219 577.344 37.4219 576.094V574.219C36.8438 575.25 35.8594 575.859 34.6406 575.859C32.5469 575.859 31.1406 574.25 31.1406 571.828C31.1406 569.422 32.5469 567.828 34.6406 567.828C35.8594 567.828 36.8438 568.422 37.4219 569.453V568H38.5938ZM32.3594 571.828C32.3594 573.688 33.2969 574.766 34.8906 574.766C36.5 574.766 37.4219 573.688 37.4219 571.828C37.4219 569.984 36.5 568.906 34.8906 568.906C33.2969 568.906 32.3594 569.984 32.3594 571.828ZM45.8438 571.156C45.8438 569.594 45 568.938 43.6875 568.938C42.4219 568.938 41.4688 569.812 41.4688 571.047V576H40.2812V564.797H41.4688V569.234C42.0469 568.328 43.0781 567.812 44.0312 567.812C45.7656 567.812 47.0156 568.906 47.0156 570.906V576H45.8438V571.156ZM52.2812 574.938V576H51.5625C50.5625 576 49.6406 575.453 49.6406 573.953V569.031H48.1719V568H49.6406V565.922H50.8125V568H52.2812V569.031H50.8125V573.797C50.8125 574.703 51.1719 574.938 51.6562 574.938H52.2812ZM53.5312 574.531H54.9375V576L54.3281 578.156H53.4219L54.375 576H53.5312V574.531ZM62.375 571.281V570.25H63.4844C64.625 570.25 65.2656 569.609 65.2656 568.5C65.2656 567.25 64.4375 566.531 63.0469 566.531C61.7812 566.531 60.9688 567.281 60.9219 568.469H59.6875C59.8281 566.688 61.1875 565.469 63.0625 565.469C65.0938 565.469 66.4688 566.656 66.4688 568.453C66.4688 569.516 65.9375 570.344 65.0312 570.766C66.0312 571.188 66.625 572.062 66.625 573.188C66.625 574.953 65.2031 576.125 63.0938 576.125C61.125 576.125 59.6719 574.922 59.5312 573.156H60.75C60.8125 574.328 61.7188 575.062 63.0469 575.062C64.5469 575.062 65.4219 574.359 65.4219 573.125C65.4219 571.938 64.7188 571.281 63.4844 571.281H62.375ZM68.0156 570.922C68.0156 567.469 69.4531 565.438 71.8438 565.438C74.2188 565.438 75.625 567.469 75.625 570.922C75.625 574.203 74.2188 576.125 71.8438 576.125C69.4375 576.125 68.0156 574.203 68.0156 570.922ZM74.4062 570.922C74.4062 568.016 73.5625 566.547 71.8438 566.547C70.1094 566.547 69.2344 568.016 69.2344 570.922C69.2344 573.641 70.1094 575 71.8438 575C73.5625 575 74.4062 573.641 74.4062 570.922ZM80.4688 565.594H81.7812L77.6094 576H76.3125L80.4688 565.594ZM90.1094 576H88.8281L87.8281 573.219H83.3906L82.4062 576H81.1094L84.9531 565.594H86.2812L90.1094 576ZM85.5781 567L83.75 572.188H87.4531L85.5781 567ZM92.4375 572.75C92.4375 574.375 93.25 575.062 94.5 575.062C95.7344 575.062 96.6719 574.141 96.6719 572.844V568H97.8438V576H96.6719V574.703C96.0938 575.641 95.0938 576.188 94.1562 576.188C92.4688 576.188 91.25 575.047 91.25 572.984V568H92.4375V572.75ZM103.328 574.938V576H102.609C101.609 576 100.688 575.453 100.688 573.953V569.031H99.2188V568H100.688V565.922H101.859V568H103.328V569.031H101.859V573.797C101.859 574.703 102.219 574.938 102.703 574.938H103.328ZM104.328 571.969C104.328 569.469 105.844 567.812 108.094 567.812C110.328 567.812 111.828 569.469 111.828 571.969C111.828 574.484 110.328 576.156 108.094 576.156C105.844 576.156 104.328 574.484 104.328 571.969ZM110.609 571.969C110.609 570.031 109.688 568.906 108.094 568.906C106.484 568.906 105.547 570.031 105.547 571.969C105.547 573.922 106.484 575.062 108.094 575.062C109.688 575.062 110.609 573.922 110.609 571.969Z" fill="#818181"/>
<path d="M28.3203 599.391C30.7109 599.391 32.3281 600.984 32.3281 603.375C32.3281 605.062 31.5078 606.352 30.1953 606.961C31.9531 607.547 33.0547 608.977 33.0547 610.898C33.0547 613.359 31.3672 615 28.8125 615H21.3125V599.391H28.3203ZM28.2031 600.562H22.5312V606.422H28.2031C30.0078 606.422 31.0625 605.297 31.0625 603.375C31.0625 601.57 30.0078 600.562 28.2031 600.562ZM28.2031 607.594H22.5312V613.852H28.6953C30.6406 613.852 31.7891 612.773 31.7891 610.898C31.7891 608.812 30.4531 607.594 28.2031 607.594ZM34.9766 608.953C34.9766 605.227 37.1797 602.766 40.4609 602.766C43.7188 602.766 45.8984 605.227 45.8984 608.953C45.8984 612.703 43.7188 615.188 40.4609 615.188C37.1797 615.188 34.9766 612.703 34.9766 608.953ZM44.6328 608.953C44.6328 605.789 43.1094 603.961 40.4609 603.961C37.7891 603.961 36.2422 605.789 36.2422 608.953C36.2422 612.141 37.7891 613.992 40.4609 613.992C43.1094 613.992 44.6328 612.141 44.6328 608.953ZM58.9062 598.195V615H57.7109V612.562C56.8438 614.203 55.3438 615.188 53.4219 615.188C50.2109 615.188 48.0547 612.703 48.0547 608.953C48.0547 605.227 50.2109 602.766 53.4219 602.766C55.3438 602.766 56.8438 603.727 57.7109 605.367V598.195H58.9062ZM49.3203 608.953C49.3203 612.141 50.8672 613.992 53.5156 613.992C56.1875 613.992 57.7109 612.141 57.7109 608.953C57.7109 605.789 56.1875 603.961 53.5156 603.961C50.8672 603.961 49.3203 605.789 49.3203 608.953ZM61.6719 617.438H63.3828C64.5781 617.438 65.1875 616.992 65.6328 615.727L65.9141 615L61.0625 603H62.4219L66.6172 613.406L70.7422 603H72.125L66.9922 615.867C66.1719 617.883 65.3047 618.703 63.9688 618.703H61.6719V617.438ZM73.1562 607.805H82.5547V608.953H73.1562V607.805ZM85.7188 613.852H94.625V615H84.4766V614.672C84.4766 611.203 87.2188 609.773 89.6562 608.438C91.6484 607.336 93.4531 606.281 93.4531 604.102C93.4531 601.758 92 600.398 89.5156 600.398C87.3125 600.398 85.8359 601.805 85.7422 603.984H84.4766C84.6641 601.148 86.7266 599.203 89.5156 599.203C92.6328 599.203 94.7188 601.148 94.7188 604.102C94.7188 606.703 92.6094 608.133 90.4297 609.375C88.1328 610.688 85.7188 611.812 85.7188 613.852Z" fill="#212121"/>
<path d="M27.0625 643H20.8438V632.594H22.0312V641.891H27.0625V643ZM28.4281 632.562H29.8344V633.875H28.4281V632.562ZM28.5375 635H29.725V643H28.5375V635ZM38.7937 635V643.172C38.7937 644.938 37.3875 646.125 35.2625 646.125C33.1687 646.125 31.7156 645.094 31.4656 643.516H32.7C32.825 644.484 33.7625 645.062 35.2312 645.062C36.7312 645.062 37.6219 644.344 37.6219 643.094V641.219C37.0437 642.25 36.0594 642.859 34.8406 642.859C32.7469 642.859 31.3406 641.25 31.3406 638.828C31.3406 636.422 32.7469 634.828 34.8406 634.828C36.0594 634.828 37.0437 635.422 37.6219 636.453V635H38.7937ZM32.5594 638.828C32.5594 640.688 33.4969 641.766 35.0906 641.766C36.7 641.766 37.6219 640.688 37.6219 638.828C37.6219 636.984 36.7 635.906 35.0906 635.906C33.4969 635.906 32.5594 636.984 32.5594 638.828ZM46.1437 638.156C46.1437 636.594 45.3 635.938 43.9875 635.938C42.7219 635.938 41.7687 636.812 41.7687 638.047V643H40.5812V631.797H41.7687V636.234C42.3469 635.328 43.3781 634.812 44.3312 634.812C46.0656 634.812 47.3156 635.906 47.3156 637.906V643H46.1437V638.156ZM52.6812 641.938V643H51.9625C50.9625 643 50.0406 642.453 50.0406 640.953V636.031H48.5719V635H50.0406V632.922H51.2125V635H52.6812V636.031H51.2125V640.797C51.2125 641.703 51.5719 641.938 52.0562 641.938H52.6812ZM54.0312 641.531H55.4375V643L54.8281 645.156H53.9219L54.875 643H54.0312V641.531ZM61.5594 641.906H67.2469V643H60.2313V642.719C60.2313 640.25 62.0438 639.25 63.6531 638.406C64.9344 637.703 66.0906 637.078 66.0906 635.75C66.0906 634.359 65.2156 633.547 63.7313 633.547C62.4031 633.547 61.5125 634.406 61.45 635.75H60.2313C60.3719 633.797 61.7781 632.469 63.7 632.469C65.8719 632.469 67.3094 633.781 67.3094 635.75C67.3094 637.484 65.9188 638.422 64.5125 639.203C63.0594 640.016 61.5594 640.688 61.5594 641.906ZM74.7219 640.359V643H73.5656V640.359H68.4875V639.078L73.2687 632.594H74.7219V639.312H76.3V640.359H74.7219ZM73.5656 639.312V633.969L69.7062 639.312H73.5656ZM81.2594 632.594H82.5719L78.4 643H77.1031L81.2594 632.594ZM91 643H89.7188L88.7188 640.219H84.2812L83.2969 643H82L85.8438 632.594H87.1719L91 643ZM86.4688 634L84.6406 639.188H88.3438L86.4688 634ZM93.4281 639.75C93.4281 641.375 94.2406 642.062 95.4906 642.062C96.725 642.062 97.6625 641.141 97.6625 639.844V635H98.8344V643H97.6625V641.703C97.0844 642.641 96.0844 643.188 95.1469 643.188C93.4594 643.188 92.2406 642.047 92.2406 639.984V635H93.4281V639.75ZM104.419 641.938V643H103.7C102.7 643 101.778 642.453 101.778 640.953V636.031H100.309V635H101.778V632.922H102.95V635H104.419V636.031H102.95V640.797C102.95 641.703 103.309 641.938 103.794 641.938H104.419ZM105.519 638.969C105.519 636.469 107.034 634.812 109.284 634.812C111.519 634.812 113.019 636.469 113.019 638.969C113.019 641.484 111.519 643.156 109.284 643.156C107.034 643.156 105.519 641.484 105.519 638.969ZM111.8 638.969C111.8 637.031 110.878 635.906 109.284 635.906C107.675 635.906 106.738 637.031 106.738 638.969C106.738 640.922 107.675 642.062 109.284 642.062C110.878 642.062 111.8 640.922 111.8 638.969Z" fill="#818181"/>
<path d="M25.625 663.594C27.2812 663.594 28.4062 664.656 28.4062 666.25C28.4062 667.344 27.8594 668.203 26.9844 668.609C28.1562 669.016 28.8906 669.984 28.8906 671.266C28.8906 672.906 27.75 674 26.0312 674H20.8438V663.594H25.625ZM25.5 664.672H22.0312V668.141H25.5C26.5469 668.141 27.1875 667.469 27.1875 666.344C27.1875 665.281 26.5469 664.672 25.5 664.672ZM25.5625 669.219H22.0312V672.938H25.8281C26.9688 672.938 27.6719 672.281 27.6719 671.172C27.6719 669.953 26.875 669.219 25.5625 669.219ZM30.1406 669.969C30.1406 667.469 31.6562 665.812 33.9062 665.812C36.1406 665.812 37.6406 667.469 37.6406 669.969C37.6406 672.484 36.1406 674.156 33.9062 674.156C31.6562 674.156 30.1406 672.484 30.1406 669.969ZM36.4219 669.969C36.4219 668.031 35.5 666.906 33.9062 666.906C32.2969 666.906 31.3594 668.031 31.3594 669.969C31.3594 671.922 32.2969 673.062 33.9062 673.062C35.5 673.062 36.4219 671.922 36.4219 669.969ZM46.4688 662.797V674H45.2969V672.453C44.7188 673.516 43.75 674.156 42.5312 674.156C40.4219 674.156 39.0156 672.484 39.0156 669.969C39.0156 667.469 40.4219 665.812 42.5312 665.812C43.75 665.812 44.7188 666.438 45.2969 667.5V662.797H46.4688ZM40.2344 669.969C40.2344 671.922 41.1719 673.062 42.7656 673.062C44.375 673.062 45.2969 671.922 45.2969 669.969C45.2969 668.031 44.375 666.906 42.7656 666.906C41.1719 666.906 40.2344 668.031 40.2344 669.969ZM48.2812 675.406H49.3906C50.1562 675.406 50.5469 675.141 50.8125 674.375L51 673.922L47.8438 666H49.125L51.6875 672.594L54.1875 666H55.4844L52.2031 674.5C51.625 675.969 50.9688 676.547 49.8125 676.547H48.2812V675.406ZM56.125 669.047H62.5781V670.125H56.125V669.047ZM66.6562 669.281V668.25H67.7656C68.9062 668.25 69.5469 667.609 69.5469 666.5C69.5469 665.25 68.7188 664.531 67.3281 664.531C66.0625 664.531 65.25 665.281 65.2031 666.469H63.9688C64.1094 664.688 65.4688 663.469 67.3438 663.469C69.375 663.469 70.75 664.656 70.75 666.453C70.75 667.516 70.2188 668.344 69.3125 668.766C70.3125 669.188 70.9062 670.062 70.9062 671.188C70.9062 672.953 69.4844 674.125 67.375 674.125C65.4062 674.125 63.9531 672.922 63.8125 671.156H65.0312C65.0938 672.328 66 673.062 67.3281 673.062C68.8281 673.062 69.7031 672.359 69.7031 671.125C69.7031 669.938 69 669.281 67.7656 669.281H66.6562Z" fill="#212121"/>
<path d="M24.5 695.719H22.0312V700H20.8438V689.594H25.2031C27.1406 689.594 28.4219 690.797 28.4219 692.625C28.4219 693.953 27.625 694.938 26.3438 695.266C27.5 695.484 28 696.125 28.1562 697.547L28.4375 700H27.2812L27.0156 697.688C26.8594 696.297 26.125 695.719 24.5 695.719ZM25.0469 690.672H22.0312V694.656H25.0469C26.4062 694.656 27.2188 693.953 27.2188 692.703C27.2188 691.422 26.4062 690.672 25.0469 690.672ZM29.6562 695.969C29.6562 693.422 31.1094 691.844 33.3906 691.844C35.5625 691.844 37.125 693.516 37.125 695.812V696.297H30.875C30.9844 698.109 31.875 699.078 33.4844 699.078C34.7969 699.078 35.5938 698.453 35.7812 697.469H37.0312C36.6719 699.172 35.5 700.125 33.4844 700.125C31.1406 700.125 29.6562 698.531 29.6562 695.969ZM33.3906 692.859C31.9219 692.859 31.0625 693.703 30.9062 695.344H35.8594C35.7344 693.828 34.7656 692.859 33.3906 692.859ZM45.9531 692V700.172C45.9531 701.938 44.5469 703.125 42.4219 703.125C40.3281 703.125 38.875 702.094 38.625 700.516H39.8594C39.9844 701.484 40.9219 702.062 42.3906 702.062C43.8906 702.062 44.7812 701.344 44.7812 700.094V698.219C44.2031 699.25 43.2188 699.859 42 699.859C39.9062 699.859 38.5 698.25 38.5 695.828C38.5 693.422 39.9062 691.828 42 691.828C43.2188 691.828 44.2031 692.422 44.7812 693.453V692H45.9531ZM39.7188 695.828C39.7188 697.688 40.6562 698.766 42.25 698.766C43.8594 698.766 44.7812 697.688 44.7812 695.828C44.7812 693.984 43.8594 692.906 42.25 692.906C40.6562 692.906 39.7188 693.984 39.7188 695.828ZM48.8281 696.75C48.8281 698.375 49.6406 699.062 50.8906 699.062C52.125 699.062 53.0625 698.141 53.0625 696.844V692H54.2344V700H53.0625V698.703C52.4844 699.641 51.4844 700.188 50.5469 700.188C48.8594 700.188 47.6406 699.047 47.6406 696.984V692H48.8281V696.75ZM55.9219 688.797H57.1094V700H55.9219V688.797ZM65.2969 694.688V700H64.1094V698.578C63.5156 699.547 62.4844 700.172 61.2656 700.172C59.7188 700.172 58.625 699.188 58.625 697.781C58.625 696.484 59.4688 695.688 60.9219 695.594L63.1719 695.422C63.8594 695.391 64.1094 695.156 64.1094 694.625V694.594C64.1094 693.594 63.2344 692.828 62.0938 692.828C60.7656 692.828 60.0469 693.391 59.9219 694.531H58.6875C58.7969 692.891 60.125 691.828 62.0781 691.828C63.9375 691.828 65.2969 693.047 65.2969 694.688ZM59.8281 697.75C59.8281 698.594 60.5156 699.141 61.6094 699.141C63.0469 699.141 64.1094 698.047 64.1094 696.578V696.328L61.3281 696.516C60.3281 696.594 59.8281 697 59.8281 697.75ZM67 692H68.1875V693.203C68.7188 692.328 69.5938 691.844 70.4375 691.844H70.7969V693.078H70.4531C69.1719 693.078 68.1875 693.938 68.1875 695.156V700H67V692ZM70.8125 698.531H72.2188V700L71.6094 702.156H70.7031L71.6562 700H70.8125V698.531ZM79.1562 689.594H80.3281V700H79.1562V692.312H76.6562V691.312H77.8906C78.7188 691.312 79.1562 691.062 79.1562 690.234V689.594ZM81.8594 694.75C81.8594 691.406 83.3438 689.438 85.8594 689.438C87.5938 689.438 88.8594 690.453 89.1562 692.094H87.9375C87.7344 691.047 87.0156 690.469 85.8594 690.469C84.0156 690.469 83.0781 691.875 83.0781 694.656C83.0781 694.828 83.0938 695 83.1094 695.156C83.5938 693.938 84.7344 693.188 86.0625 693.188C87.9375 693.188 89.2812 694.641 89.2812 696.641C89.2812 698.672 87.8906 700.125 85.9219 700.125C83.4375 700.125 81.8594 698.047 81.8594 694.75ZM83.4375 696.656C83.4375 698.031 84.4844 699.078 85.8594 699.078C87.1875 699.078 88.0625 698.109 88.0625 696.656C88.0625 695.203 87.1875 694.234 85.8594 694.234C84.4219 694.234 83.4375 695.219 83.4375 696.656ZM94.125 689.594H95.4375L91.2656 700H89.9688L94.125 689.594ZM103.766 700H102.484L101.484 697.219H97.0469L96.0625 700H94.7656L98.6094 689.594H99.9375L103.766 700ZM99.2344 691L97.4062 696.188H101.109L99.2344 691ZM106.094 696.75C106.094 698.375 106.906 699.062 108.156 699.062C109.391 699.062 110.328 698.141 110.328 696.844V692H111.5V700H110.328V698.703C109.75 699.641 108.75 700.188 107.812 700.188C106.125 700.188 104.906 699.047 104.906 696.984V692H106.094V696.75ZM116.984 698.938V700H116.266C115.266 700 114.344 699.453 114.344 697.953V693.031H112.875V692H114.344V689.922H115.516V692H116.984V693.031H115.516V697.797C115.516 698.703 115.875 698.938 116.359 698.938H116.984ZM117.984 695.969C117.984 693.469 119.5 691.812 121.75 691.812C123.984 691.812 125.484 693.469 125.484 695.969C125.484 698.484 123.984 700.156 121.75 700.156C119.5 700.156 117.984 698.484 117.984 695.969ZM124.266 695.969C124.266 694.031 123.344 692.906 121.75 692.906C120.141 692.906 119.203 694.031 119.203 695.969C119.203 697.922 120.141 699.062 121.75 699.062C123.344 699.062 124.266 697.922 124.266 695.969Z" fill="#818181"/>
<path d="M24.9219 718.895C26.3711 718.895 27.3555 719.824 27.3555 721.219C27.3555 722.176 26.877 722.928 26.1113 723.283C27.1367 723.639 27.7793 724.486 27.7793 725.607C27.7793 727.043 26.7812 728 25.2773 728H20.7383V718.895H24.9219ZM24.8125 719.838H21.7773V722.873H24.8125C25.7285 722.873 26.2891 722.285 26.2891 721.301C26.2891 720.371 25.7285 719.838 24.8125 719.838ZM24.8672 723.816H21.7773V727.07H25.0996C26.0977 727.07 26.7129 726.496 26.7129 725.525C26.7129 724.459 26.0156 723.816 24.8672 723.816ZM28.873 724.473C28.873 722.285 30.1992 720.836 32.168 720.836C34.123 720.836 35.4355 722.285 35.4355 724.473C35.4355 726.674 34.123 728.137 32.168 728.137C30.1992 728.137 28.873 726.674 28.873 724.473ZM34.3691 724.473C34.3691 722.777 33.5625 721.793 32.168 721.793C30.7598 721.793 29.9395 722.777 29.9395 724.473C29.9395 726.182 30.7598 727.18 32.168 727.18C33.5625 727.18 34.3691 726.182 34.3691 724.473ZM43.1602 718.197V728H42.1348V726.646C41.6289 727.576 40.7812 728.137 39.7148 728.137C37.8691 728.137 36.6387 726.674 36.6387 724.473C36.6387 722.285 37.8691 720.836 39.7148 720.836C40.7812 720.836 41.6289 721.383 42.1348 722.312V718.197H43.1602ZM37.7051 724.473C37.7051 726.182 38.5254 727.18 39.9199 727.18C41.3281 727.18 42.1348 726.182 42.1348 724.473C42.1348 722.777 41.3281 721.793 39.9199 721.793C38.5254 721.793 37.7051 722.777 37.7051 724.473ZM44.7461 729.23H45.7168C46.3867 729.23 46.7285 728.998 46.9609 728.328L47.125 727.932L44.3633 721H45.4844L47.7266 726.77L49.9141 721H51.0488L48.1777 728.438C47.6719 729.723 47.0977 730.229 46.0859 730.229H44.7461V729.23ZM51.6094 723.666H57.2559V724.609H51.6094V723.666ZM63.6543 725.689V728H62.6426V725.689H58.1992V724.568L62.3828 718.895H63.6543V724.773H65.0352V725.689H63.6543ZM62.6426 724.773V720.098L59.2656 724.773H62.6426Z" fill="#212121"/>
<path d="M24.5 749.719H22.0312V754H20.8438V743.594H25.2031C27.1406 743.594 28.4219 744.797 28.4219 746.625C28.4219 747.953 27.625 748.938 26.3438 749.266C27.5 749.484 28 750.125 28.1562 751.547L28.4375 754H27.2812L27.0156 751.688C26.8594 750.297 26.125 749.719 24.5 749.719ZM25.0469 744.672H22.0312V748.656H25.0469C26.4062 748.656 27.2188 747.953 27.2188 746.703C27.2188 745.422 26.4062 744.672 25.0469 744.672ZM29.6562 749.969C29.6562 747.422 31.1094 745.844 33.3906 745.844C35.5625 745.844 37.125 747.516 37.125 749.812V750.297H30.875C30.9844 752.109 31.875 753.078 33.4844 753.078C34.7969 753.078 35.5938 752.453 35.7812 751.469H37.0312C36.6719 753.172 35.5 754.125 33.4844 754.125C31.1406 754.125 29.6562 752.531 29.6562 749.969ZM33.3906 746.859C31.9219 746.859 31.0625 747.703 30.9062 749.344H35.8594C35.7344 747.828 34.7656 746.859 33.3906 746.859ZM45.9531 746V754.172C45.9531 755.938 44.5469 757.125 42.4219 757.125C40.3281 757.125 38.875 756.094 38.625 754.516H39.8594C39.9844 755.484 40.9219 756.062 42.3906 756.062C43.8906 756.062 44.7812 755.344 44.7812 754.094V752.219C44.2031 753.25 43.2188 753.859 42 753.859C39.9062 753.859 38.5 752.25 38.5 749.828C38.5 747.422 39.9062 745.828 42 745.828C43.2188 745.828 44.2031 746.422 44.7812 747.453V746H45.9531ZM39.7188 749.828C39.7188 751.688 40.6562 752.766 42.25 752.766C43.8594 752.766 44.7812 751.688 44.7812 749.828C44.7812 747.984 43.8594 746.906 42.25 746.906C40.6562 746.906 39.7188 747.984 39.7188 749.828ZM48.8281 750.75C48.8281 752.375 49.6406 753.062 50.8906 753.062C52.125 753.062 53.0625 752.141 53.0625 750.844V746H54.2344V754H53.0625V752.703C52.4844 753.641 51.4844 754.188 50.5469 754.188C48.8594 754.188 47.6406 753.047 47.6406 750.984V746H48.8281V750.75ZM55.9219 742.797H57.1094V754H55.9219V742.797ZM65.2969 748.688V754H64.1094V752.578C63.5156 753.547 62.4844 754.172 61.2656 754.172C59.7188 754.172 58.625 753.188 58.625 751.781C58.625 750.484 59.4688 749.688 60.9219 749.594L63.1719 749.422C63.8594 749.391 64.1094 749.156 64.1094 748.625V748.594C64.1094 747.594 63.2344 746.828 62.0938 746.828C60.7656 746.828 60.0469 747.391 59.9219 748.531H58.6875C58.7969 746.891 60.125 745.828 62.0781 745.828C63.9375 745.828 65.2969 747.047 65.2969 748.688ZM59.8281 751.75C59.8281 752.594 60.5156 753.141 61.6094 753.141C63.0469 753.141 64.1094 752.047 64.1094 750.578V750.328L61.3281 750.516C60.3281 750.594 59.8281 751 59.8281 751.75ZM67 746H68.1875V747.203C68.7188 746.328 69.5938 745.844 70.4375 745.844H70.7969V747.078H70.4531C69.1719 747.078 68.1875 747.938 68.1875 749.156V754H67V746ZM70.8125 752.531H72.2188V754L71.6094 756.156H70.7031L71.6562 754H70.8125V752.531ZM79.1562 743.594H80.3281V754H79.1562V746.312H76.6562V745.312H77.8906C78.7188 745.312 79.1562 745.062 79.1562 744.234V743.594ZM87.9375 751.359V754H86.7812V751.359H81.7031V750.078L86.4844 743.594H87.9375V750.312H89.5156V751.359H87.9375ZM86.7812 750.312V744.969L82.9219 750.312H86.7812ZM94.375 743.594H95.6875L91.5156 754H90.2188L94.375 743.594ZM104.016 754H102.734L101.734 751.219H97.2969L96.3125 754H95.0156L98.8594 743.594H100.188L104.016 754ZM99.4844 745L97.6562 750.188H101.359L99.4844 745ZM106.344 750.75C106.344 752.375 107.156 753.062 108.406 753.062C109.641 753.062 110.578 752.141 110.578 750.844V746H111.75V754H110.578V752.703C110 753.641 109 754.188 108.062 754.188C106.375 754.188 105.156 753.047 105.156 750.984V746H106.344V750.75ZM117.234 752.938V754H116.516C115.516 754 114.594 753.453 114.594 751.953V747.031H113.125V746H114.594V743.922H115.766V746H117.234V747.031H115.766V751.797C115.766 752.703 116.125 752.938 116.609 752.938H117.234ZM118.234 749.969C118.234 747.469 119.75 745.812 122 745.812C124.234 745.812 125.734 747.469 125.734 749.969C125.734 752.484 124.234 754.156 122 754.156C119.75 754.156 118.234 752.484 118.234 749.969ZM124.516 749.969C124.516 748.031 123.594 746.906 122 746.906C120.391 746.906 119.453 748.031 119.453 749.969C119.453 751.922 120.391 753.062 122 753.062C123.594 753.062 124.516 751.922 124.516 749.969Z" fill="#818181"/>
<path d="M25.625 788.594C27.2812 788.594 28.4062 789.656 28.4062 791.25C28.4062 792.344 27.8594 793.203 26.9844 793.609C28.1562 794.016 28.8906 794.984 28.8906 796.266C28.8906 797.906 27.75 799 26.0312 799H20.8438V788.594H25.625ZM25.5 789.672H22.0312V793.141H25.5C26.5469 793.141 27.1875 792.469 27.1875 791.344C27.1875 790.281 26.5469 789.672 25.5 789.672ZM25.5625 794.219H22.0312V797.938H25.8281C26.9688 797.938 27.6719 797.281 27.6719 796.172C27.6719 794.953 26.875 794.219 25.5625 794.219ZM31.4844 795.75C31.4844 797.375 32.2969 798.062 33.5469 798.062C34.7812 798.062 35.7188 797.141 35.7188 795.844V791H36.8906V799H35.7188V797.703C35.1406 798.641 34.1406 799.188 33.2031 799.188C31.5156 799.188 30.2969 798.047 30.2969 795.984V791H31.4844V795.75ZM42.375 797.938V799H41.6562C40.6562 799 39.7344 798.453 39.7344 796.953V792.031H38.2656V791H39.7344V788.922H40.9062V791H42.375V792.031H40.9062V796.797C40.9062 797.703 41.2656 797.938 41.75 797.938H42.375ZM47.5312 797.938V799H46.8125C45.8125 799 44.8906 798.453 44.8906 796.953V792.031H43.4219V791H44.8906V788.922H46.0625V791H47.5312V792.031H46.0625V796.797C46.0625 797.703 46.4219 797.938 46.9062 797.938H47.5312ZM48.5312 794.969C48.5312 792.469 50.0469 790.812 52.2969 790.812C54.5312 790.812 56.0312 792.469 56.0312 794.969C56.0312 797.484 54.5312 799.156 52.2969 799.156C50.0469 799.156 48.5312 797.484 48.5312 794.969ZM54.8125 794.969C54.8125 793.031 53.8906 791.906 52.2969 791.906C50.6875 791.906 49.75 793.031 49.75 794.969C49.75 796.922 50.6875 798.062 52.2969 798.062C53.8906 798.062 54.8125 796.922 54.8125 794.969ZM63.125 794.156C63.125 792.594 62.2812 791.938 60.9844 791.938C59.7188 791.938 58.75 792.812 58.75 794.047V799H57.5625V791H58.75V792.234C59.3438 791.328 60.3594 790.812 61.3281 790.812C63.0469 790.812 64.2969 791.906 64.2969 793.906V799H63.125V794.156ZM76.2344 788.594H77.4062V799H76.125L70.3438 790.156V799H69.1562V788.594H70.7188L76.2344 797.109V788.594ZM78.9375 794.969C78.9375 792.469 80.4531 790.812 82.7031 790.812C84.9375 790.812 86.4375 792.469 86.4375 794.969C86.4375 797.484 84.9375 799.156 82.7031 799.156C80.4531 799.156 78.9375 797.484 78.9375 794.969ZM85.2188 794.969C85.2188 793.031 84.2969 791.906 82.7031 791.906C81.0938 791.906 80.1562 793.031 80.1562 794.969C80.1562 796.922 81.0938 798.062 82.7031 798.062C84.2969 798.062 85.2188 796.922 85.2188 794.969ZM87.9688 791H89.1562V792.203C89.6875 791.328 90.5625 790.844 91.4062 790.844H91.7656V792.078H91.4219C90.1406 792.078 89.1562 792.938 89.1562 794.156V799H87.9688V791ZM98.4062 794.156C98.4062 792.594 97.6406 791.938 96.4219 791.938C95.25 791.938 94.3594 792.812 94.3594 794.047V799H93.1719V791H94.3594V792.188C94.9219 791.312 95.875 790.812 96.7656 790.812C97.9688 790.812 98.9375 791.422 99.3438 792.547C99.8594 791.453 100.969 790.812 102 790.812C103.609 790.812 104.797 791.906 104.797 793.906V799H103.625V794.156C103.625 792.594 102.859 791.938 101.656 791.938C100.484 791.938 99.5781 792.812 99.5781 794.047V799H98.4062V794.156ZM113 793.688V799H111.812V797.578C111.219 798.547 110.188 799.172 108.969 799.172C107.422 799.172 106.328 798.188 106.328 796.781C106.328 795.484 107.172 794.688 108.625 794.594L110.875 794.422C111.562 794.391 111.812 794.156 111.812 793.625V793.594C111.812 792.594 110.938 791.828 109.797 791.828C108.469 791.828 107.75 792.391 107.625 793.531H106.391C106.5 791.891 107.828 790.828 109.781 790.828C111.641 790.828 113 792.047 113 793.688ZM107.531 796.75C107.531 797.594 108.219 798.141 109.312 798.141C110.75 798.141 111.812 797.047 111.812 795.578V795.328L109.031 795.516C108.031 795.594 107.531 796 107.531 796.75ZM114.703 787.797H115.891V799H114.703V787.797Z" fill="#212121"/>
<path d="M26.5469 824H25.4375L22.0312 815.234V824H20.8438V813.594H22.5469L26 822.344L29.375 813.594H31.1406V824H29.9688V815.234L26.5469 824ZM32.7719 819.969C32.7719 817.422 34.225 815.844 36.5063 815.844C38.6781 815.844 40.2406 817.516 40.2406 819.812V820.297H33.9906C34.1 822.109 34.9906 823.078 36.6 823.078C37.9125 823.078 38.7094 822.453 38.8969 821.469H40.1469C39.7875 823.172 38.6156 824.125 36.6 824.125C34.2563 824.125 32.7719 822.531 32.7719 819.969ZM36.5063 816.859C35.0375 816.859 34.1781 817.703 34.0219 819.344H38.975C38.85 817.828 37.8813 816.859 36.5063 816.859ZM49.1688 812.797V824H47.9969V822.453C47.4188 823.516 46.45 824.156 45.2313 824.156C43.1219 824.156 41.7156 822.484 41.7156 819.969C41.7156 817.469 43.1219 815.812 45.2313 815.812C46.45 815.812 47.4188 816.438 47.9969 817.5V812.797H49.1688ZM42.9344 819.969C42.9344 821.922 43.8719 823.062 45.4656 823.062C47.075 823.062 47.9969 821.922 47.9969 819.969C47.9969 818.031 47.075 816.906 45.4656 816.906C43.8719 816.906 42.9344 818.031 42.9344 819.969ZM50.8469 813.562H52.2531V814.875H50.8469V813.562ZM50.9562 816H52.1437V824H50.9562V816ZM55.1031 820.75C55.1031 822.375 55.9156 823.062 57.1656 823.062C58.4 823.062 59.3375 822.141 59.3375 820.844V816H60.5094V824H59.3375V822.703C58.7594 823.641 57.7594 824.188 56.8219 824.188C55.1344 824.188 53.9156 823.047 53.9156 820.984V816H55.1031V820.75ZM67.5312 819.156C67.5312 817.594 66.7656 816.938 65.5469 816.938C64.375 816.938 63.4844 817.812 63.4844 819.047V824H62.2969V816H63.4844V817.188C64.0469 816.312 65 815.812 65.8906 815.812C67.0938 815.812 68.0625 816.422 68.4688 817.547C68.9844 816.453 70.0938 815.812 71.125 815.812C72.7344 815.812 73.9219 816.906 73.9219 818.906V824H72.75V819.156C72.75 817.594 71.9844 816.938 70.7812 816.938C69.6094 816.938 68.7031 817.812 68.7031 819.047V824H67.5312V819.156ZM75.6 822.531H77.0062V824L76.3969 826.156H75.4906L76.4437 824H75.6V822.531ZM84.1437 813.594H85.3156V824H84.1437V816.312H81.6437V815.312H82.8781C83.7062 815.312 84.1437 815.062 84.1437 814.234V813.594ZM86.9469 818.75C86.9469 815.406 88.4313 813.438 90.9469 813.438C92.6813 813.438 93.9469 814.453 94.2438 816.094H93.025C92.8219 815.047 92.1031 814.469 90.9469 814.469C89.1031 814.469 88.1656 815.875 88.1656 818.656C88.1656 818.828 88.1813 819 88.1969 819.156C88.6813 817.938 89.8219 817.188 91.15 817.188C93.025 817.188 94.3688 818.641 94.3688 820.641C94.3688 822.672 92.9781 824.125 91.0094 824.125C88.525 824.125 86.9469 822.047 86.9469 818.75ZM88.525 820.656C88.525 822.031 89.5719 823.078 90.9469 823.078C92.275 823.078 93.15 822.109 93.15 820.656C93.15 819.203 92.275 818.234 90.9469 818.234C89.5094 818.234 88.525 819.219 88.525 820.656ZM99.3125 813.594H100.625L96.4531 824H95.1562L99.3125 813.594ZM109.053 824H107.772L106.772 821.219H102.334L101.35 824H100.053L103.897 813.594H105.225L109.053 824ZM104.522 815L102.694 820.188H106.397L104.522 815ZM111.481 820.75C111.481 822.375 112.294 823.062 113.544 823.062C114.778 823.062 115.716 822.141 115.716 820.844V816H116.887V824H115.716V822.703C115.137 823.641 114.137 824.188 113.2 824.188C111.512 824.188 110.294 823.047 110.294 820.984V816H111.481V820.75ZM122.472 822.938V824H121.753C120.753 824 119.831 823.453 119.831 821.953V817.031H118.363V816H119.831V813.922H121.003V816H122.472V817.031H121.003V821.797C121.003 822.703 121.363 822.938 121.847 822.938H122.472ZM123.572 819.969C123.572 817.469 125.088 815.812 127.338 815.812C129.572 815.812 131.072 817.469 131.072 819.969C131.072 822.484 129.572 824.156 127.338 824.156C125.088 824.156 123.572 822.484 123.572 819.969ZM129.853 819.969C129.853 818.031 128.931 816.906 127.338 816.906C125.728 816.906 124.791 818.031 124.791 819.969C124.791 821.922 125.728 823.062 127.338 823.062C128.931 823.062 129.853 821.922 129.853 819.969Z" fill="#818181"/>
<path d="M24.9219 855.895C26.3711 855.895 27.3555 856.824 27.3555 858.219C27.3555 859.176 26.877 859.928 26.1113 860.283C27.1367 860.639 27.7793 861.486 27.7793 862.607C27.7793 864.043 26.7812 865 25.2773 865H20.7383V855.895H24.9219ZM24.8125 856.838H21.7773V859.873H24.8125C25.7285 859.873 26.2891 859.285 26.2891 858.301C26.2891 857.371 25.7285 856.838 24.8125 856.838ZM24.8672 860.816H21.7773V864.07H25.0996C26.0977 864.07 26.7129 863.496 26.7129 862.525C26.7129 861.459 26.0156 860.816 24.8672 860.816ZM30.0488 862.156C30.0488 863.578 30.7598 864.18 31.8535 864.18C32.9336 864.18 33.7539 863.373 33.7539 862.238V858H34.7793V865H33.7539V863.865C33.248 864.686 32.373 865.164 31.5527 865.164C30.0762 865.164 29.0098 864.166 29.0098 862.361V858H30.0488V862.156ZM39.5781 864.07V865H38.9492C38.0742 865 37.2676 864.521 37.2676 863.209V858.902H35.9824V858H37.2676V856.182H38.293V858H39.5781V858.902H38.293V863.072C38.293 863.865 38.6074 864.07 39.0312 864.07H39.5781ZM44.0898 864.07V865H43.4609C42.5859 865 41.7793 864.521 41.7793 863.209V858.902H40.4941V858H41.7793V856.182H42.8047V858H44.0898V858.902H42.8047V863.072C42.8047 863.865 43.1191 864.07 43.543 864.07H44.0898ZM44.9648 861.473C44.9648 859.285 46.291 857.836 48.2598 857.836C50.2148 857.836 51.5273 859.285 51.5273 861.473C51.5273 863.674 50.2148 865.137 48.2598 865.137C46.291 865.137 44.9648 863.674 44.9648 861.473ZM50.4609 861.473C50.4609 859.777 49.6543 858.793 48.2598 858.793C46.8516 858.793 46.0312 859.777 46.0312 861.473C46.0312 863.182 46.8516 864.18 48.2598 864.18C49.6543 864.18 50.4609 863.182 50.4609 861.473ZM57.7344 860.762C57.7344 859.395 56.9961 858.82 55.8613 858.82C54.7539 858.82 53.9062 859.586 53.9062 860.666V865H52.8672V858H53.9062V859.08C54.4258 858.287 55.3145 857.836 56.1621 857.836C57.666 857.836 58.7598 858.793 58.7598 860.543V865H57.7344V860.762ZM66.8262 861.008L65.6777 860.871C63.9141 860.666 62.9434 859.832 62.9434 858.424C62.9434 856.797 64.2012 855.771 66.2246 855.771C68.166 855.771 69.4512 856.838 69.6152 858.574H68.5625C68.3574 857.316 67.6328 856.715 66.2109 856.715C64.8711 856.715 63.9824 857.371 63.9824 858.383C63.9824 859.203 64.5977 859.641 65.8145 859.805L66.9355 859.941C68.8496 860.174 69.793 861.021 69.793 862.525C69.793 864.098 68.4941 865.109 66.5391 865.109C64.3926 865.109 63.0664 864.002 62.875 862.293H63.9551C64.1738 863.578 65.0078 864.166 66.5527 864.166C67.8652 864.166 68.7539 863.537 68.7539 862.539C68.7539 861.678 68.1113 861.158 66.8262 861.008ZM75.6992 860.762C75.6992 859.395 75.0293 858.82 73.9629 858.82C72.9375 858.82 72.1582 859.586 72.1582 860.666V865H71.1191V858H72.1582V859.039C72.6504 858.273 73.4844 857.836 74.2637 857.836C75.3164 857.836 76.1641 858.369 76.5195 859.354C76.9707 858.396 77.9414 857.836 78.8438 857.836C80.252 857.836 81.291 858.793 81.291 860.543V865H80.2656V860.762C80.2656 859.395 79.5957 858.82 78.543 858.82C77.5176 858.82 76.7246 859.586 76.7246 860.666V865H75.6992V860.762ZM88.4688 860.352V865H87.4297V863.756C86.9102 864.604 86.0078 865.15 84.9414 865.15C83.5879 865.15 82.6309 864.289 82.6309 863.059C82.6309 861.924 83.3691 861.227 84.6406 861.145L86.6094 860.994C87.2109 860.967 87.4297 860.762 87.4297 860.297V860.27C87.4297 859.395 86.6641 858.725 85.666 858.725C84.5039 858.725 83.875 859.217 83.7656 860.215H82.6855C82.7812 858.779 83.9434 857.85 85.6523 857.85C87.2793 857.85 88.4688 858.916 88.4688 860.352ZM83.6836 863.031C83.6836 863.77 84.2852 864.248 85.2422 864.248C86.5 864.248 87.4297 863.291 87.4297 862.006V861.787L84.9961 861.951C84.1211 862.02 83.6836 862.375 83.6836 863.031ZM89.959 855.197H90.998V865H89.959V855.197ZM92.4609 855.197H93.5V865H92.4609V855.197Z" fill="#212121"/>
<path d="M24.5 885.719H22.0312V890H20.8438V879.594H25.2031C27.1406 879.594 28.4219 880.797 28.4219 882.625C28.4219 883.953 27.625 884.938 26.3438 885.266C27.5 885.484 28 886.125 28.1562 887.547L28.4375 890H27.2812L27.0156 887.688C26.8594 886.297 26.125 885.719 24.5 885.719ZM25.0469 880.672H22.0312V884.656H25.0469C26.4062 884.656 27.2188 883.953 27.2188 882.703C27.2188 881.422 26.4062 880.672 25.0469 880.672ZM29.7563 885.969C29.7563 883.422 31.2094 881.844 33.4906 881.844C35.6625 881.844 37.225 883.516 37.225 885.812V886.297H30.975C31.0844 888.109 31.975 889.078 33.5844 889.078C34.8969 889.078 35.6938 888.453 35.8813 887.469H37.1313C36.7719 889.172 35.6 890.125 33.5844 890.125C31.2406 890.125 29.7563 888.531 29.7563 885.969ZM33.4906 882.859C32.0219 882.859 31.1625 883.703 31.0063 885.344H35.9594C35.8344 883.828 34.8656 882.859 33.4906 882.859ZM46.1531 882V890.172C46.1531 891.938 44.7469 893.125 42.6219 893.125C40.5281 893.125 39.075 892.094 38.825 890.516H40.0594C40.1844 891.484 41.1219 892.062 42.5906 892.062C44.0906 892.062 44.9813 891.344 44.9813 890.094V888.219C44.4031 889.25 43.4188 889.859 42.2 889.859C40.1063 889.859 38.7 888.25 38.7 885.828C38.7 883.422 40.1063 881.828 42.2 881.828C43.4188 881.828 44.4031 882.422 44.9813 883.453V882H46.1531ZM39.9188 885.828C39.9188 887.688 40.8563 888.766 42.45 888.766C44.0594 888.766 44.9813 887.688 44.9813 885.828C44.9813 883.984 44.0594 882.906 42.45 882.906C40.8563 882.906 39.9188 883.984 39.9188 885.828ZM49.1281 886.75C49.1281 888.375 49.9406 889.062 51.1906 889.062C52.425 889.062 53.3625 888.141 53.3625 886.844V882H54.5344V890H53.3625V888.703C52.7844 889.641 51.7844 890.188 50.8469 890.188C49.1594 890.188 47.9406 889.047 47.9406 886.984V882H49.1281V886.75ZM56.3219 878.797H57.5094V890H56.3219V878.797ZM65.7969 884.688V890H64.6094V888.578C64.0156 889.547 62.9844 890.172 61.7656 890.172C60.2188 890.172 59.125 889.188 59.125 887.781C59.125 886.484 59.9688 885.688 61.4219 885.594L63.6719 885.422C64.3594 885.391 64.6094 885.156 64.6094 884.625V884.594C64.6094 883.594 63.7344 882.828 62.5938 882.828C61.2656 882.828 60.5469 883.391 60.4219 884.531H59.1875C59.2969 882.891 60.625 881.828 62.5781 881.828C64.4375 881.828 65.7969 883.047 65.7969 884.688ZM60.3281 887.75C60.3281 888.594 61.0156 889.141 62.1094 889.141C63.5469 889.141 64.6094 888.047 64.6094 886.578V886.328L61.8281 886.516C60.8281 886.594 60.3281 887 60.3281 887.75ZM67.6 882H68.7875V883.203C69.3187 882.328 70.1937 881.844 71.0375 881.844H71.3969V883.078H71.0531C69.7719 883.078 68.7875 883.938 68.7875 885.156V890H67.6V882ZM71.5125 888.531H72.9188V890L72.3094 892.156H71.4031L72.3563 890H71.5125V888.531ZM80.0563 879.594H81.2281V890H80.0563V882.312H77.5563V881.312H78.7906C79.6188 881.312 80.0563 881.062 80.0563 880.234V879.594ZM88.9375 887.359V890H87.7812V887.359H82.7031V886.078L87.4844 879.594H88.9375V886.312H90.5156V887.359H88.9375ZM87.7812 886.312V880.969L83.9219 886.312H87.7812ZM95.475 879.594H96.7875L92.6156 890H91.3187L95.475 879.594ZM105.216 890H103.934L102.934 887.219H98.4969L97.5125 890H96.2156L100.059 879.594H101.387L105.216 890ZM100.684 881L98.8562 886.188H102.559L100.684 881ZM107.644 886.75C107.644 888.375 108.456 889.062 109.706 889.062C110.941 889.062 111.878 888.141 111.878 886.844V882H113.05V890H111.878V888.703C111.3 889.641 110.3 890.188 109.363 890.188C107.675 890.188 106.456 889.047 106.456 886.984V882H107.644V886.75ZM118.634 888.938V890H117.916C116.916 890 115.994 889.453 115.994 887.953V883.031H114.525V882H115.994V879.922H117.166V882H118.634V883.031H117.166V887.797C117.166 888.703 117.525 888.938 118.009 888.938H118.634ZM119.734 885.969C119.734 883.469 121.25 881.812 123.5 881.812C125.734 881.812 127.234 883.469 127.234 885.969C127.234 888.484 125.734 890.156 123.5 890.156C121.25 890.156 119.734 888.484 119.734 885.969ZM126.016 885.969C126.016 884.031 125.094 882.906 123.5 882.906C121.891 882.906 120.953 884.031 120.953 885.969C120.953 887.922 121.891 889.062 123.5 889.062C125.094 889.062 126.016 887.922 126.016 885.969Z" fill="#818181"/>
</svg>
