<svg width="303" height="302" viewBox="0 0 303 302" fill="none" xmlns="http://www.w3.org/2000/svg">
<rect width="301.741" height="301.741" transform="translate(0.505859)" fill="white"/>
<rect width="168" height="132" transform="translate(67 85)" fill="white"/>
<mask id="path-1-inside-1_2027_996" fill="white">
<path d="M153.405 109.457C154.044 110.291 154.391 111.313 154.391 112.364V189.997C154.391 191.145 155.22 192.071 156.133 191.375V191.375C157.307 190.479 159.451 190.905 159.451 192.382V195.105C159.451 195.797 159.177 196.466 158.677 196.943C153.158 202.216 150.045 202.183 145.502 196.985C145.058 196.477 144.824 195.816 144.824 195.14V188.106C144.824 188.105 144.825 188.105 144.825 188.105V188.105C144.825 188.105 144.825 188.105 144.825 188.105V112.37C144.825 111.315 145.174 110.289 145.817 109.453V109.453C147.733 106.961 151.493 106.961 153.405 109.457V109.457Z"/>
</mask>
<path d="M153.405 109.457C154.044 110.291 154.391 111.313 154.391 112.364V189.997C154.391 191.145 155.22 192.071 156.133 191.375V191.375C157.307 190.479 159.451 190.905 159.451 192.382V195.105C159.451 195.797 159.177 196.466 158.677 196.943C153.158 202.216 150.045 202.183 145.502 196.985C145.058 196.477 144.824 195.816 144.824 195.14V188.106C144.824 188.105 144.825 188.105 144.825 188.105V188.105C144.825 188.105 144.825 188.105 144.825 188.105V112.37C144.825 111.315 145.174 110.289 145.817 109.453V109.453C147.733 106.961 151.493 106.961 153.405 109.457V109.457Z" fill="#624DE7"/>
<path d="M145.502 196.985L144.749 197.643L145.502 196.985ZM158.677 196.943L157.986 196.22L158.677 196.943ZM154.391 112.364H153.391V189.997H154.391H155.391V112.364H154.391ZM159.451 192.382H158.451V195.105H159.451H160.451V192.382H159.451ZM158.677 196.943L157.986 196.22C155.24 198.844 153.335 199.89 151.723 199.891C150.153 199.892 148.497 198.892 146.255 196.327L145.502 196.985L144.749 197.643C147.051 200.276 149.223 201.892 151.724 201.891C154.184 201.889 156.595 200.315 159.367 197.667L158.677 196.943ZM144.824 195.14H145.824V188.106H144.824H143.824V195.14H144.824ZM144.825 188.105H145.825V112.37H144.825H143.825V188.105H144.825ZM145.817 109.453L146.61 110.063C148.126 108.091 151.1 108.092 152.611 110.065L153.405 109.457L154.199 108.849C151.887 105.831 147.34 105.831 145.024 108.844L145.817 109.453ZM144.825 112.37H145.825C145.825 111.536 146.101 110.724 146.61 110.063L145.817 109.453L145.024 108.844C144.247 109.855 143.825 111.095 143.825 112.37H144.825ZM144.825 188.105L144.118 188.812C144.748 189.443 145.825 188.996 145.825 188.105H144.825H143.825C143.825 187.214 144.902 186.768 145.532 187.398L144.825 188.105ZM144.824 188.106H145.824C145.824 188.995 144.748 189.443 144.118 188.812L144.825 188.105L145.532 187.398C144.901 186.768 143.824 187.215 143.824 188.106H144.824ZM145.502 196.985L146.255 196.327C145.979 196.012 145.824 195.589 145.824 195.14H144.824H143.824C143.824 196.043 144.136 196.942 144.749 197.643L145.502 196.985ZM159.451 195.105H158.451C158.451 195.535 158.28 195.939 157.986 196.22L158.677 196.943L159.367 197.667C160.073 196.992 160.451 196.058 160.451 195.105H159.451ZM156.133 191.375L156.74 192.17C157.05 191.933 157.554 191.844 157.979 191.956C158.389 192.064 158.451 192.251 158.451 192.382H159.451H160.451C160.451 191.037 159.441 190.272 158.486 190.021C157.546 189.775 156.39 189.921 155.526 190.58L156.133 191.375ZM154.391 189.997H153.391C153.391 190.778 153.668 191.599 154.252 192.123C154.558 192.396 154.964 192.598 155.443 192.614C155.922 192.63 156.366 192.455 156.74 192.17L156.133 191.375L155.526 190.58C155.444 190.643 155.441 190.613 155.509 190.615C155.575 190.618 155.603 190.647 155.587 190.633C155.565 190.613 155.513 190.554 155.467 190.433C155.422 190.316 155.391 190.166 155.391 189.997H154.391ZM154.391 112.364H155.391C155.391 111.093 154.972 109.858 154.199 108.849L153.405 109.457L152.611 110.065C153.117 110.725 153.391 111.533 153.391 112.364H154.391Z" fill="#275892" mask="url(#path-1-inside-1_2027_996)"/>
<mask id="path-3-inside-2_2027_996" fill="white">
<path d="M132.708 108.454C132.708 95.8106 154.385 95.8871 154.386 108.454V110.215C154.386 110.767 153.938 111.215 153.386 111.215H145.89C145.338 111.215 144.908 110.76 144.79 110.22C144.31 108.02 142.273 107.977 142.273 111.215V188.104C142.273 188.105 142.274 188.105 142.274 188.105V188.105C142.274 188.105 142.274 188.105 142.274 188.105V193.535C142.274 195.193 141.458 196.756 140.056 197.64C130.252 203.831 124.92 203.653 117.697 196.909L117.243 196.475C117.049 196.289 116.79 196.185 116.521 196.185V196.185C115.944 196.185 115.477 195.717 115.477 195.14V163.548C115.477 162.231 116.02 160.973 116.977 160.069V160.069C120.028 157.191 125.042 159.354 125.042 163.548V189.856C125.042 191.988 126.399 194.011 128.53 194.065C128.718 194.07 128.907 194.07 129.096 194.066C131.283 194.011 132.708 191.947 132.708 189.759V108.454Z"/>
</mask>
<path d="M132.708 108.454C132.708 95.8106 154.385 95.8871 154.386 108.454V110.215C154.386 110.767 153.938 111.215 153.386 111.215H145.89C145.338 111.215 144.908 110.76 144.79 110.22C144.31 108.02 142.273 107.977 142.273 111.215V188.104C142.273 188.105 142.274 188.105 142.274 188.105V188.105C142.274 188.105 142.274 188.105 142.274 188.105V193.535C142.274 195.193 141.458 196.756 140.056 197.64C130.252 203.831 124.92 203.653 117.697 196.909L117.243 196.475C117.049 196.289 116.79 196.185 116.521 196.185V196.185C115.944 196.185 115.477 195.717 115.477 195.14V163.548C115.477 162.231 116.02 160.973 116.977 160.069V160.069C120.028 157.191 125.042 159.354 125.042 163.548V189.856C125.042 191.988 126.399 194.011 128.53 194.065C128.718 194.07 128.907 194.07 129.096 194.066C131.283 194.011 132.708 191.947 132.708 189.759V108.454Z" fill="#624DE7"/>
<path d="M132.708 108.454L131.708 108.453V108.454H132.708ZM154.386 108.454L155.386 108.454L155.386 108.453L154.386 108.454ZM154.386 110.215L155.386 110.216V110.215H154.386ZM153.386 111.215L153.386 112.215L153.386 112.215L153.386 111.215ZM145.89 111.215L145.889 112.215H145.89V111.215ZM144.79 110.22L145.767 110.007L145.767 110.007L144.79 110.22ZM117.697 196.909L117.006 197.631L117.015 197.64L117.697 196.909ZM129.096 194.066L129.071 193.066L129.096 194.066ZM117.243 196.475L116.552 197.197L117.243 196.475ZM140.056 197.64L140.59 198.486L140.056 197.64ZM132.708 108.454L133.708 108.454C133.708 105.615 134.91 103.536 136.708 102.143C138.533 100.729 141.015 99.9956 143.545 100C146.076 100.004 148.559 100.747 150.385 102.164C152.185 103.561 153.386 105.636 153.386 108.454L154.386 108.454L155.386 108.453C155.386 104.988 153.876 102.341 151.611 100.584C149.374 98.8479 146.438 98.0051 143.549 98C140.66 97.9949 137.722 98.8273 135.483 100.562C133.216 102.318 131.708 104.971 131.708 108.453L132.708 108.454ZM154.386 108.454H153.386V110.215H154.386H155.386V108.454H154.386ZM154.386 110.215L153.386 110.215L153.386 110.215L153.386 111.215L153.386 112.215C154.49 112.215 155.385 111.319 155.386 110.216L154.386 110.215ZM153.386 111.215V110.215H145.89V111.215V112.215H153.386V111.215ZM145.89 111.215L145.89 110.215C145.89 110.215 145.89 110.215 145.891 110.215C145.892 110.215 145.892 110.215 145.893 110.216C145.895 110.216 145.895 110.216 145.894 110.216C145.892 110.215 145.882 110.21 145.865 110.194C145.828 110.159 145.786 110.093 145.767 110.007L144.79 110.22L143.813 110.433C144 111.29 144.736 112.215 145.889 112.215L145.89 111.215ZM144.79 110.22L145.767 110.007C145.618 109.325 145.331 108.722 144.907 108.291C144.48 107.856 143.852 107.552 143.147 107.699C142.456 107.844 141.977 108.363 141.696 108.954C141.413 109.549 141.273 110.314 141.273 111.215H142.273H143.273C143.273 110.498 143.388 110.053 143.502 109.814C143.618 109.571 143.678 109.632 143.556 109.657C143.421 109.685 143.392 109.602 143.481 109.693C143.574 109.788 143.722 110.015 143.813 110.433L144.79 110.22ZM142.273 111.215H141.273V188.104H142.273H143.273V111.215H142.273ZM142.274 188.105H141.274V193.535H142.274H143.274V188.105H142.274ZM140.056 197.64L139.522 196.795C134.661 199.864 131.092 201.229 127.942 201.126C124.833 201.024 121.916 199.48 118.38 196.178L117.697 196.909L117.015 197.64C120.701 201.082 124.063 202.999 127.876 203.125C131.649 203.249 135.647 201.607 140.59 198.486L140.056 197.64ZM117.697 196.909L118.388 196.186L117.934 195.752L117.243 196.475L116.552 197.197L117.006 197.631L117.697 196.909ZM115.477 195.14H116.477V163.548H115.477H114.477V195.14H115.477ZM125.042 163.548H124.042V189.856H125.042H126.042V163.548H125.042ZM128.53 194.065L128.505 195.065C128.709 195.07 128.915 195.07 129.121 195.065L129.096 194.066L129.071 193.066C128.898 193.07 128.727 193.07 128.556 193.066L128.53 194.065ZM132.708 189.759H133.708V108.454H132.708H131.708V189.759H132.708ZM129.096 194.066L129.121 195.065C132.034 194.993 133.708 192.286 133.708 189.759H132.708H131.708C131.708 191.608 130.533 193.03 129.071 193.066L129.096 194.066ZM125.042 189.856H124.042C124.042 192.311 125.636 194.992 128.505 195.065L128.53 194.065L128.556 193.066C127.162 193.03 126.042 191.665 126.042 189.856H125.042ZM116.977 160.069L117.664 160.796C120.077 158.52 124.042 160.231 124.042 163.548H125.042H126.042C126.042 158.477 119.98 155.862 116.291 159.342L116.977 160.069ZM115.477 163.548H116.477C116.477 162.507 116.906 161.511 117.664 160.796L116.977 160.069L116.291 159.342C115.133 160.434 114.477 161.956 114.477 163.548H115.477ZM117.243 196.475L117.934 195.752C117.554 195.388 117.048 195.185 116.521 195.185V196.185V197.185C116.533 197.185 116.544 197.189 116.552 197.197L117.243 196.475ZM142.274 193.535H141.274C141.274 194.868 140.618 196.103 139.522 196.795L140.056 197.64L140.59 198.486C142.297 197.408 143.274 195.517 143.274 193.535H142.274ZM142.274 188.105V189.105C141.722 189.105 141.274 188.657 141.274 188.105H142.274H143.274C143.274 187.553 142.826 187.105 142.274 187.105V188.105ZM116.521 196.185V195.185C116.497 195.185 116.477 195.165 116.477 195.14H115.477H114.477C114.477 196.269 115.392 197.185 116.521 197.185V196.185ZM142.273 188.104H141.273C141.273 188.651 141.716 189.105 142.274 189.105V188.105V187.105C142.832 187.105 143.273 187.558 143.273 188.104H142.273Z" fill="#275892" mask="url(#path-3-inside-2_2027_996)"/>
<mask id="path-5-inside-3_2027_996" fill="white">
<path d="M169.444 134.008C170.282 134.844 170.752 135.978 170.752 137.161V147.272C170.752 148.603 171.831 149.682 173.162 149.682V149.682C173.917 149.682 174.628 150.035 175.084 150.637L176.305 152.252C177.845 154.287 176.394 157.206 173.842 157.206V157.206C172.135 157.206 170.752 158.589 170.752 160.296V189.037C170.752 191.295 172.309 193.39 174.561 193.223V193.223C176.605 193.072 177.895 191.121 177.895 189.072V184.69C177.895 180.894 182.339 178.838 185.233 181.296V181.296C186.229 182.142 186.803 183.383 186.803 184.69V194.338C186.803 195.358 185.976 196.185 184.955 196.185V196.185C184.558 196.185 184.169 196.317 183.848 196.55C176.291 202.053 171.547 202.773 163.885 197.638C162.578 196.761 161.844 195.258 161.844 193.683V137.161C161.844 133.195 166.637 131.206 169.444 134.008V134.008Z"/>
</mask>
<path d="M169.444 134.008C170.282 134.844 170.752 135.978 170.752 137.161V147.272C170.752 148.603 171.831 149.682 173.162 149.682V149.682C173.917 149.682 174.628 150.035 175.084 150.637L176.305 152.252C177.845 154.287 176.394 157.206 173.842 157.206V157.206C172.135 157.206 170.752 158.589 170.752 160.296V189.037C170.752 191.295 172.309 193.39 174.561 193.223V193.223C176.605 193.072 177.895 191.121 177.895 189.072V184.69C177.895 180.894 182.339 178.838 185.233 181.296V181.296C186.229 182.142 186.803 183.383 186.803 184.69V194.338C186.803 195.358 185.976 196.185 184.955 196.185V196.185C184.558 196.185 184.169 196.317 183.848 196.55C176.291 202.053 171.547 202.773 163.885 197.638C162.578 196.761 161.844 195.258 161.844 193.683V137.161C161.844 133.195 166.637 131.206 169.444 134.008V134.008Z" fill="#624DE7"/>
<path d="M163.885 197.638L164.442 196.807L163.885 197.638ZM183.848 196.55L183.259 195.742L183.848 196.55ZM175.084 150.637L175.881 150.034L175.084 150.637ZM170.752 137.161H169.752V147.272H170.752H171.752V137.161H170.752ZM175.084 150.637L174.286 151.241L175.508 152.856L176.305 152.252L177.103 151.649L175.881 150.034L175.084 150.637ZM170.752 160.296H169.752V189.037H170.752H171.752V160.296H170.752ZM177.895 189.072H178.895V184.69H177.895H176.895V189.072H177.895ZM186.803 184.69H185.803V194.338H186.803H187.803V184.69H186.803ZM183.848 196.55L183.259 195.742C179.52 198.465 176.634 199.881 173.833 200.086C171.061 200.289 168.185 199.316 164.442 196.807L163.885 197.638L163.329 198.468C167.247 201.095 170.574 202.33 173.979 202.081C177.354 201.834 180.618 200.139 184.436 197.359L183.848 196.55ZM161.844 193.683H162.844V137.161H161.844H160.844V193.683H161.844ZM161.844 137.161H162.844C162.844 134.085 166.561 132.543 168.738 134.716L169.444 134.008L170.151 133.301C166.714 129.87 160.844 132.304 160.844 137.161H161.844ZM163.885 197.638L164.442 196.807C163.436 196.132 162.844 194.955 162.844 193.683H161.844H160.844C160.844 195.561 161.72 197.39 163.329 198.468L163.885 197.638ZM184.955 196.185V195.185C184.339 195.185 183.745 195.388 183.259 195.742L183.848 196.55L184.436 197.359C184.593 197.245 184.777 197.185 184.955 197.185V196.185ZM186.803 194.338H185.803C185.803 194.806 185.423 195.185 184.955 195.185V196.185V197.185C186.528 197.185 187.803 195.911 187.803 194.338H186.803ZM185.233 181.296L184.585 182.058C185.358 182.714 185.803 183.677 185.803 184.69H186.803H187.803C187.803 183.09 187.1 181.57 185.88 180.534L185.233 181.296ZM177.895 184.69H178.895C178.895 181.746 182.342 180.152 184.585 182.058L185.233 181.296L185.88 180.534C182.337 177.524 176.895 180.042 176.895 184.69H177.895ZM174.561 193.223L174.635 194.22C177.373 194.017 178.895 191.453 178.895 189.072H177.895H176.895C176.895 190.789 175.838 192.126 174.487 192.226L174.561 193.223ZM170.752 189.037H169.752C169.752 191.639 171.59 194.446 174.635 194.22L174.561 193.223L174.487 192.226C173.028 192.334 171.752 190.952 171.752 189.037H170.752ZM173.842 157.206V156.206C171.583 156.206 169.752 158.037 169.752 160.296H170.752H171.752C171.752 159.142 172.688 158.206 173.842 158.206V157.206ZM176.305 152.252L175.508 152.856C176.549 154.232 175.568 156.206 173.842 156.206V157.206V158.206C177.22 158.206 179.141 154.343 177.103 151.649L176.305 152.252ZM173.162 149.682V150.682C173.603 150.682 174.02 150.889 174.286 151.241L175.084 150.637L175.881 150.034C175.236 149.182 174.23 148.682 173.162 148.682V149.682ZM170.752 147.272H169.752C169.752 149.155 171.279 150.682 173.162 150.682V149.682V148.682C172.383 148.682 171.752 148.05 171.752 147.272H170.752ZM170.752 137.161H171.752C171.752 135.713 171.176 134.324 170.151 133.301L169.444 134.008L168.738 134.716C169.387 135.364 169.752 136.244 169.752 137.161H170.752Z" fill="#275892" mask="url(#path-5-inside-3_2027_996)"/>
</svg>
