<svg width="407" height="302" viewBox="0 0 407 302" fill="none" xmlns="http://www.w3.org/2000/svg">
<rect width="407" height="301.74" fill="white"/>
<path d="M178.73 163.215C173.86 154.191 173.91 145.686 178.711 124.674C157.476 147.167 166.903 175.265 192.995 184.352L192.961 117.708C190.056 118.279 188.405 118.946 185.432 120.656L185.457 169.331C182.61 167.409 181.122 166.102 178.73 163.215Z" fill="#624DE7"/>
<path d="M197.252 185.521L197.217 116.59C199.85 115.908 201.424 115.848 204.359 116.174L204.39 176.474C209.314 176.472 212.354 175.212 217.034 173.167L217.039 182.636C208.975 185.381 202.59 186.768 197.252 185.521Z" fill="#624DE7"/>
<path d="M235.177 162.05C242.003 141.211 229.058 120.948 209.284 116.917L209.289 128.025C214.671 128.908 218.96 131.272 222.4 134.29L222.423 179.125C225.198 177.551 226.646 176.2 229.085 173.161L229.069 142.237C232.346 149.061 232.973 148.847 235.177 162.05Z" fill="#624DE7"/>
</svg>
