<svg width="406" height="302" viewBox="0 0 406 302" fill="none" xmlns="http://www.w3.org/2000/svg">
<rect width="406" height="301.74" fill="white"/>
<path d="M179.23 119.25C174.36 110.226 174.41 101.722 179.211 80.7092C157.976 103.202 167.403 131.301 193.495 140.387L193.461 73.7432C190.556 74.314 188.905 74.9816 185.932 76.6911L185.957 125.367C183.11 123.444 181.622 122.138 179.23 119.25Z" fill="#624DE7"/>
<path d="M197.752 141.557L197.717 72.6259C200.35 71.9435 201.924 71.8835 204.859 72.209L204.89 132.51C209.814 132.507 212.854 131.247 217.534 129.202L217.539 138.671C209.475 141.416 203.09 142.803 197.752 141.557Z" fill="#624DE7"/>
<path d="M235.677 118.086C242.503 97.246 229.558 76.9834 209.784 72.9524L209.789 84.0609C215.171 84.9434 219.46 87.3073 222.9 90.3257L222.923 135.161C225.698 133.586 227.146 132.235 229.585 129.196L229.569 98.2727C232.846 105.096 233.473 104.882 235.677 118.086Z" fill="#624DE7"/>
<path d="M103.451 189.501C101.911 189.502 100.511 189.193 99.2507 188.573C97.9904 187.954 96.9899 187.024 96.2493 185.785C95.5087 184.545 95.1379 182.965 95.1369 181.045L95.1303 168.145L99.1803 168.143L99.1869 181.073C99.1874 182.113 99.3579 182.993 99.6982 183.713C100.039 184.413 100.529 184.933 101.169 185.272C101.829 185.612 102.609 185.782 103.509 185.781C104.429 185.781 105.209 185.61 105.849 185.27C106.509 184.93 107.009 184.409 107.348 183.709C107.688 182.989 107.857 182.109 107.857 181.069L107.85 168.139L111.9 168.137L111.907 181.037C111.908 182.957 111.529 184.537 110.769 185.777C110.01 187.018 108.98 187.948 107.681 188.569C106.401 189.19 104.991 189.5 103.451 189.501ZM115.768 189.135L115.76 174.015L119.33 174.013L119.632 176.473C120.091 175.633 120.741 174.952 121.581 174.432C122.44 173.912 123.46 173.651 124.64 173.65C125.9 173.65 126.96 173.909 127.821 174.429C128.681 174.948 129.331 175.708 129.772 176.708C130.232 177.708 130.463 178.937 130.464 180.397L130.468 189.127L126.448 189.13L126.444 180.79C126.443 179.59 126.183 178.67 125.662 178.03C125.162 177.39 124.382 177.071 123.322 177.071C122.642 177.071 122.032 177.232 121.492 177.552C120.972 177.872 120.563 178.333 120.263 178.933C119.963 179.513 119.814 180.223 119.814 181.063L119.818 189.133L115.768 189.135ZM134.374 189.126L134.366 174.006L138.416 174.003L138.424 189.123L134.374 189.126ZM136.405 171.934C135.685 171.935 135.085 171.725 134.605 171.305C134.144 170.866 133.914 170.316 133.914 169.656C133.914 168.996 134.143 168.456 134.603 168.035C135.083 167.595 135.683 167.375 136.403 167.374C137.143 167.374 137.743 167.594 138.203 168.034C138.683 168.453 138.924 168.993 138.924 169.653C138.924 170.313 138.684 170.863 138.205 171.304C137.745 171.724 137.145 171.934 136.405 171.934ZM146.566 189.119L141.008 174.002L145.268 174L149.024 185.308L152.768 173.996L156.998 173.994L151.486 189.117L146.566 189.119ZM166.036 189.469C164.516 189.47 163.166 189.151 161.986 188.512C160.825 187.852 159.915 186.943 159.254 185.783C158.614 184.603 158.293 183.243 158.292 181.703C158.291 180.123 158.611 178.733 159.25 177.533C159.889 176.313 160.789 175.362 161.949 174.682C163.128 173.981 164.488 173.63 166.028 173.629C167.528 173.629 168.838 173.958 169.959 174.617C171.079 175.277 171.949 176.166 172.57 177.286C173.19 178.406 173.501 179.676 173.502 181.096C173.502 181.296 173.502 181.526 173.502 181.786C173.502 182.026 173.482 182.276 173.443 182.536L161.173 182.542L161.171 180.082L169.421 180.078C169.361 179.098 169.01 178.328 168.37 177.768C167.75 177.209 166.97 176.929 166.03 176.929C165.35 176.93 164.72 177.09 164.14 177.41C163.56 177.711 163.1 178.181 162.761 178.821C162.441 179.461 162.281 180.271 162.282 181.251L162.282 182.121C162.283 182.941 162.433 183.661 162.733 184.281C163.054 184.881 163.494 185.351 164.054 185.69C164.614 186.01 165.264 186.17 166.004 186.169C166.744 186.169 167.354 186.009 167.834 185.689C168.334 185.368 168.704 184.958 168.944 184.458L173.084 184.456C172.804 185.396 172.334 186.246 171.675 187.007C171.015 187.767 170.206 188.367 169.246 188.808C168.286 189.248 167.216 189.469 166.036 189.469ZM176.823 189.104L176.815 173.984L180.415 173.982L180.807 176.772C181.166 176.112 181.616 175.552 182.156 175.091C182.715 174.631 183.345 174.271 184.045 174.01C184.765 173.75 185.555 173.62 186.415 173.619L186.417 177.909L185.037 177.91C184.437 177.91 183.877 177.98 183.357 178.121C182.857 178.261 182.417 178.491 182.038 178.811C181.658 179.112 181.368 179.532 181.168 180.072C180.968 180.612 180.869 181.292 180.869 182.112L180.873 189.102L176.823 189.104ZM195.278 189.455C193.898 189.455 192.698 189.236 191.678 188.796C190.658 188.357 189.857 187.747 189.277 186.968C188.697 186.188 188.366 185.308 188.286 184.328L192.306 184.326C192.406 184.706 192.576 185.056 192.816 185.376C193.056 185.676 193.377 185.916 193.777 186.095C194.177 186.275 194.657 186.365 195.217 186.365C195.757 186.364 196.197 186.294 196.537 186.154C196.877 185.994 197.126 185.784 197.286 185.524C197.466 185.264 197.556 184.993 197.556 184.713C197.556 184.293 197.436 183.974 197.195 183.754C196.955 183.514 196.605 183.324 196.145 183.184C195.685 183.044 195.125 182.905 194.465 182.765C193.745 182.625 193.035 182.456 192.335 182.256C191.655 182.036 191.044 181.767 190.504 181.447C189.964 181.127 189.534 180.718 189.214 180.218C188.893 179.718 188.733 179.098 188.733 178.358C188.732 177.458 188.972 176.658 189.452 175.958C189.931 175.237 190.631 174.667 191.551 174.247C192.47 173.826 193.58 173.615 194.88 173.615C196.7 173.614 198.141 174.023 199.201 174.843C200.261 175.662 200.892 176.792 201.093 178.232L197.283 178.234C197.162 177.774 196.892 177.414 196.472 177.154C196.072 176.874 195.532 176.734 194.852 176.735C194.132 176.735 193.582 176.865 193.202 177.126C192.822 177.386 192.632 177.726 192.633 178.146C192.633 178.426 192.753 178.676 192.993 178.896C193.253 179.116 193.613 179.305 194.073 179.465C194.533 179.605 195.093 179.745 195.754 179.884C196.914 180.124 197.934 180.403 198.814 180.723C199.694 181.022 200.384 181.462 200.885 182.042C201.385 182.602 201.635 183.421 201.636 184.501C201.636 185.461 201.377 186.322 200.857 187.082C200.338 187.822 199.598 188.402 198.638 188.823C197.698 189.243 196.578 189.454 195.278 189.455ZM210.165 189.447C208.905 189.448 207.865 189.248 207.045 188.849C206.225 188.429 205.614 187.879 205.214 187.2C204.834 186.5 204.643 185.73 204.643 184.89C204.642 183.97 204.872 183.16 205.332 182.46C205.811 181.759 206.521 181.209 207.461 180.808C208.421 180.408 209.62 180.207 211.06 180.207L214.81 180.205C214.81 179.465 214.71 178.855 214.51 178.375C214.309 177.875 213.999 177.505 213.579 177.265C213.159 177.026 212.599 176.906 211.899 176.906C211.139 176.907 210.489 177.077 209.949 177.417C209.429 177.737 209.109 178.238 208.99 178.918L205.06 178.92C205.159 177.84 205.509 176.909 206.108 176.129C206.728 175.329 207.538 174.708 208.537 174.268C209.557 173.827 210.687 173.607 211.927 173.606C213.347 173.605 214.577 173.845 215.617 174.324C216.658 174.804 217.458 175.493 218.019 176.393C218.579 177.293 218.86 178.403 218.86 179.723L218.865 189.083L215.445 189.084L214.994 186.775C214.774 187.175 214.514 187.535 214.214 187.855C213.915 188.175 213.565 188.455 213.165 188.696C212.765 188.936 212.315 189.116 211.815 189.236C211.315 189.376 210.765 189.447 210.165 189.447ZM211.124 186.327C211.644 186.326 212.104 186.236 212.503 186.056C212.923 185.856 213.283 185.595 213.583 185.275C213.883 184.935 214.113 184.555 214.272 184.135C214.452 183.695 214.572 183.225 214.632 182.725L214.632 182.695L211.542 182.696C210.922 182.697 210.412 182.777 210.012 182.937C209.632 183.077 209.352 183.287 209.172 183.568C208.992 183.848 208.902 184.168 208.903 184.528C208.903 184.928 208.993 185.258 209.173 185.518C209.353 185.777 209.613 185.977 209.953 186.117C210.294 186.257 210.684 186.327 211.124 186.327ZM222.643 189.081L222.632 167.481L226.682 167.479L226.693 189.079L222.643 189.081ZM237.792 189.073L237.781 168.073L241.831 168.071L241.84 185.921L251.05 185.916L251.052 189.066L237.792 189.073ZM254.52 189.065L254.513 173.945L258.563 173.943L258.57 189.063L254.52 189.065ZM256.551 171.874C255.831 171.874 255.231 171.664 254.751 171.244C254.291 170.805 254.061 170.255 254.06 169.595C254.06 168.935 254.29 168.395 254.75 167.974C255.229 167.534 255.829 167.314 256.549 167.314C257.289 167.313 257.889 167.533 258.35 167.973C258.83 168.392 259.07 168.932 259.07 169.592C259.071 170.252 258.831 170.802 258.351 171.243C257.891 171.663 257.291 171.873 256.551 171.874ZM262.663 189.06L262.655 173.94L266.225 173.939L266.526 176.398C266.986 175.558 267.635 174.878 268.475 174.357C269.335 173.837 270.355 173.577 271.535 173.576C272.795 173.575 273.855 173.835 274.715 174.354C275.575 174.874 276.226 175.634 276.666 176.633C277.127 177.633 277.357 178.863 277.358 180.323L277.363 189.053L273.343 189.055L273.338 180.715C273.338 179.515 273.077 178.595 272.557 177.955C272.057 177.316 271.277 176.996 270.217 176.997C269.537 176.997 268.927 177.157 268.387 177.478C267.867 177.798 267.457 178.258 267.157 178.858C266.858 179.438 266.708 180.148 266.709 180.988L266.713 189.058L262.663 189.06ZM291.078 189.046L284.624 180.769L290.411 173.926L295.181 173.924L287.715 182.478L287.713 179.268L296.118 189.043L291.078 189.046ZM281.178 189.051L281.167 167.451L285.217 167.449L285.228 189.049L281.178 189.051ZM303.97 189.399C302.59 189.4 301.39 189.181 300.369 188.741C299.349 188.302 298.549 187.692 297.968 186.913C297.388 186.133 297.058 185.253 296.977 184.273L300.997 184.271C301.097 184.651 301.268 185.001 301.508 185.321C301.748 185.621 302.068 185.86 302.468 186.04C302.868 186.22 303.348 186.31 303.908 186.31C304.448 186.309 304.888 186.239 305.228 186.099C305.568 185.939 305.818 185.729 305.978 185.468C306.158 185.208 306.247 184.938 306.247 184.658C306.247 184.238 306.127 183.918 305.887 183.699C305.647 183.459 305.297 183.269 304.837 183.129C304.376 182.989 303.816 182.85 303.156 182.71C302.436 182.57 301.726 182.401 301.026 182.201C300.346 181.981 299.736 181.712 299.196 181.392C298.656 181.072 298.225 180.662 297.905 180.163C297.585 179.663 297.424 179.043 297.424 178.303C297.424 177.403 297.663 176.603 298.143 175.902C298.623 175.182 299.322 174.612 300.242 174.191C301.162 173.771 302.272 173.56 303.572 173.56C305.392 173.559 306.832 173.968 307.892 174.788C308.953 175.607 309.583 176.737 309.784 178.177L305.974 178.178C305.854 177.719 305.584 177.359 305.164 177.099C304.763 176.819 304.223 176.679 303.543 176.68C302.823 176.68 302.273 176.81 301.893 177.071C301.514 177.331 301.324 177.671 301.324 178.091C301.324 178.371 301.444 178.621 301.684 178.841C301.945 179.061 302.305 179.25 302.765 179.41C303.225 179.55 303.785 179.69 304.445 179.829C305.605 180.069 306.625 180.348 307.505 180.668C308.385 180.967 309.076 181.407 309.576 181.987C310.076 182.546 310.327 183.366 310.327 184.446C310.328 185.406 310.068 186.266 309.549 187.027C309.029 187.767 308.289 188.347 307.329 188.768C306.39 189.188 305.27 189.399 303.97 189.399ZM113.339 223.136L113.33 205.406L107.18 205.409L107.178 202.139L123.468 202.131L123.47 205.401L117.35 205.404L117.359 223.134L113.339 223.136ZM130.824 223.487C129.304 223.488 127.954 223.169 126.773 222.529C125.613 221.87 124.703 220.96 124.042 219.801C123.401 218.621 123.081 217.261 123.08 215.721C123.079 214.141 123.398 212.751 124.038 211.551C124.677 210.33 125.577 209.38 126.736 208.699C127.916 207.999 129.276 207.648 130.816 207.647C132.316 207.647 133.626 207.976 134.746 208.635C135.867 209.295 136.737 210.184 137.358 211.304C137.978 212.424 138.289 213.694 138.29 215.114C138.29 215.314 138.29 215.544 138.29 215.804C138.29 216.044 138.27 216.294 138.23 216.554L125.96 216.56L125.959 214.1L134.209 214.096C134.149 213.116 133.798 212.346 133.158 211.786C132.538 211.226 131.757 210.947 130.817 210.947C130.137 210.948 129.508 211.108 128.928 211.428C128.348 211.729 127.888 212.199 127.548 212.839C127.229 213.479 127.069 214.289 127.07 215.269L127.07 216.139C127.071 216.959 127.221 217.679 127.521 218.299C127.842 218.899 128.282 219.369 128.842 219.708C129.402 220.028 130.052 220.188 130.792 220.187C131.532 220.187 132.142 220.027 132.622 219.706C133.122 219.386 133.492 218.976 133.731 218.476L137.871 218.474C137.592 219.414 137.122 220.264 136.463 221.024C135.803 221.785 134.993 222.385 134.034 222.826C133.074 223.266 132.004 223.487 130.824 223.487ZM148.931 223.478C147.411 223.479 146.061 223.14 144.88 222.46C143.7 221.781 142.779 220.851 142.119 219.672C141.458 218.492 141.128 217.142 141.127 215.622C141.126 214.062 141.455 212.692 142.115 211.512C142.774 210.311 143.694 209.371 144.873 208.69C146.053 207.99 147.403 207.639 148.923 207.638C150.863 207.637 152.493 208.146 153.813 209.166C155.134 210.185 155.975 211.585 156.336 213.364L152.046 213.367C151.865 212.667 151.485 212.117 150.905 211.717C150.345 211.317 149.674 211.118 148.894 211.118C148.194 211.118 147.565 211.299 147.005 211.659C146.465 211.999 146.035 212.51 145.716 213.19C145.416 213.85 145.266 214.64 145.267 215.56C145.267 216.26 145.357 216.89 145.538 217.45C145.718 217.99 145.968 218.46 146.288 218.859C146.609 219.239 146.989 219.529 147.429 219.729C147.889 219.929 148.379 220.028 148.899 220.028C149.419 220.028 149.889 219.938 150.309 219.757C150.749 219.577 151.119 219.327 151.418 219.007C151.718 218.667 151.928 218.257 152.048 217.777L156.338 217.774C155.979 219.515 155.129 220.905 153.79 221.946C152.47 222.966 150.851 223.477 148.931 223.478ZM159.833 223.113L159.822 201.513L163.872 201.511L163.877 210.241C164.376 209.46 165.036 208.83 165.856 208.35C166.695 207.869 167.665 207.629 168.765 207.628C170.025 207.627 171.085 207.897 171.946 208.436C172.806 208.956 173.456 209.716 173.897 210.715C174.337 211.715 174.558 212.955 174.559 214.435L174.563 223.105L170.543 223.107L170.539 214.797C170.538 213.597 170.288 212.677 169.788 212.038C169.287 211.378 168.497 211.048 167.417 211.049C166.757 211.049 166.157 211.209 165.617 211.53C165.077 211.85 164.648 212.32 164.328 212.94C164.028 213.54 163.879 214.261 163.879 215.101L163.883 223.111L159.833 223.113ZM178.378 223.103L178.37 207.983L181.94 207.981L182.242 210.441C182.701 209.601 183.351 208.921 184.191 208.4C185.05 207.88 186.07 207.619 187.25 207.619C188.51 207.618 189.57 207.878 190.431 208.397C191.291 208.917 191.941 209.676 192.382 210.676C192.842 211.676 193.073 212.906 193.074 214.366L193.078 223.096L189.058 223.098L189.054 214.758C189.053 213.558 188.793 212.638 188.272 211.998C187.772 211.358 186.992 211.039 185.932 211.039C185.252 211.04 184.642 211.2 184.102 211.52C183.582 211.841 183.173 212.301 182.873 212.901C182.573 213.481 182.424 214.191 182.424 215.031L182.428 223.101L178.378 223.103ZM204.034 223.45C202.594 223.451 201.294 223.122 200.133 222.462C198.993 221.783 198.083 220.853 197.402 219.674C196.741 218.474 196.411 217.104 196.41 215.564C196.409 213.984 196.738 212.604 197.398 211.424C198.077 210.223 198.997 209.293 200.156 208.632C201.316 207.952 202.616 207.611 204.056 207.61C205.516 207.609 206.816 207.949 207.956 208.628C209.117 209.288 210.027 210.217 210.688 211.417C211.368 212.596 211.709 213.966 211.71 215.526C211.711 217.086 211.371 218.466 210.692 219.667C210.033 220.847 209.123 221.778 207.963 222.458C206.804 223.119 205.494 223.449 204.034 223.45ZM204.032 219.94C204.712 219.94 205.312 219.78 205.832 219.459C206.372 219.139 206.791 218.649 207.091 217.989C207.411 217.328 207.57 216.508 207.57 215.528C207.569 214.548 207.409 213.738 207.089 213.099C206.788 212.439 206.368 211.949 205.828 211.629C205.308 211.29 204.718 211.12 204.058 211.12C203.418 211.12 202.828 211.291 202.288 211.631C201.748 211.951 201.318 212.442 200.999 213.102C200.699 213.742 200.549 214.552 200.55 215.532C200.55 216.512 200.701 217.332 201.001 217.992C201.321 218.652 201.742 219.141 202.262 219.461C202.802 219.781 203.392 219.941 204.032 219.94ZM215.204 223.085L215.193 201.485L219.243 201.482L219.254 223.082L215.204 223.085ZM230.343 223.437C228.903 223.438 227.602 223.108 226.442 222.449C225.302 221.769 224.391 220.84 223.711 219.66C223.05 218.461 222.719 217.091 222.719 215.551C222.718 213.971 223.047 212.591 223.706 211.41C224.386 210.21 225.305 209.279 226.465 208.619C227.625 207.938 228.924 207.598 230.364 207.597C231.824 207.596 233.125 207.935 234.265 208.615C235.425 209.274 236.336 210.204 236.996 211.403C237.677 212.583 238.018 213.953 238.018 215.513C238.019 217.073 237.68 218.453 237.001 219.653C236.341 220.834 235.432 221.764 234.272 222.445C233.112 223.105 231.803 223.436 230.343 223.437ZM230.341 219.927C231.021 219.926 231.621 219.766 232.14 219.446C232.68 219.126 233.1 218.635 233.4 217.975C233.719 217.315 233.879 216.495 233.878 215.515C233.878 214.535 233.718 213.725 233.397 213.085C233.097 212.425 232.677 211.936 232.137 211.616C231.616 211.276 231.026 211.106 230.366 211.107C229.726 211.107 229.136 211.277 228.597 211.618C228.057 211.938 227.627 212.428 227.307 213.088C227.008 213.729 226.858 214.539 226.858 215.519C226.859 216.499 227.009 217.319 227.31 217.978C227.63 218.638 228.05 219.128 228.57 219.448C229.111 219.767 229.701 219.927 230.341 219.927ZM247.06 230.028C245.62 230.029 244.36 229.85 243.279 229.49C242.199 229.151 241.359 228.621 240.759 227.902C240.178 227.202 239.888 226.332 239.887 225.292C239.887 224.592 240.067 223.932 240.426 223.312C240.786 222.692 241.306 222.131 241.985 221.631C242.685 221.111 243.555 220.67 244.595 220.31L246.126 222.289C245.206 222.589 244.536 222.96 244.116 223.4C243.716 223.86 243.517 224.35 243.517 224.87C243.517 225.33 243.667 225.72 243.968 226.04C244.288 226.36 244.708 226.59 245.228 226.729C245.768 226.889 246.368 226.969 247.028 226.968C247.668 226.968 248.218 226.888 248.678 226.728C249.158 226.567 249.528 226.327 249.788 226.007C250.067 225.707 250.207 225.347 250.207 224.927C250.207 224.387 250.017 223.947 249.636 223.607C249.256 223.267 248.496 223.058 247.356 222.978C246.336 222.899 245.426 222.789 244.626 222.65C243.846 222.49 243.156 222.31 242.556 222.111C241.955 221.891 241.445 221.651 241.025 221.391C240.625 221.132 240.295 220.872 240.035 220.612L240.034 219.922L243.243 216.47L246.153 217.399L242.375 221.121L243.514 219.14C243.734 219.26 243.944 219.38 244.144 219.5C244.364 219.6 244.634 219.7 244.954 219.799C245.274 219.879 245.694 219.959 246.215 220.039C246.735 220.119 247.395 220.188 248.195 220.248C249.515 220.367 250.595 220.617 251.435 220.996C252.295 221.376 252.925 221.885 253.326 222.525C253.726 223.145 253.927 223.915 253.927 224.835C253.927 225.735 253.678 226.575 253.178 227.355C252.699 228.156 251.949 228.796 250.929 229.276C249.909 229.777 248.62 230.028 247.06 230.028ZM247.054 218.598C245.794 218.599 244.704 218.36 243.783 217.88C242.883 217.38 242.183 216.721 241.682 215.901C241.202 215.061 240.962 214.131 240.961 213.111C240.961 212.091 241.2 211.171 241.68 210.351C242.179 209.511 242.879 208.84 243.779 208.34C244.698 207.84 245.788 207.589 247.048 207.588C248.328 207.588 249.418 207.837 250.319 208.337C251.239 208.836 251.939 209.506 252.42 210.346C252.9 211.165 253.141 212.085 253.141 213.105C253.142 214.125 252.902 215.055 252.422 215.896C251.943 216.716 251.243 217.376 250.323 217.877C249.424 218.357 248.334 218.598 247.054 218.598ZM247.052 215.508C247.832 215.508 248.462 215.308 248.942 214.907C249.422 214.507 249.661 213.917 249.661 213.137C249.661 212.357 249.42 211.767 248.94 211.367C248.46 210.948 247.83 210.738 247.05 210.738C246.29 210.739 245.66 210.949 245.16 211.369C244.68 211.77 244.441 212.36 244.441 213.14C244.441 213.92 244.682 214.51 245.162 214.909C245.662 215.309 246.292 215.509 247.052 215.508ZM249.57 210.827L248.908 207.947L255.118 207.944L255.12 210.344L249.57 210.827ZM258.507 223.063L258.499 207.943L262.549 207.941L262.557 223.061L258.507 223.063ZM260.538 205.872C259.818 205.872 259.218 205.662 258.738 205.242C258.278 204.803 258.048 204.253 258.047 203.593C258.047 202.933 258.277 202.393 258.736 201.972C259.216 201.532 259.816 201.312 260.536 201.312C261.276 201.311 261.876 201.531 262.336 201.971C262.817 202.39 263.057 202.93 263.057 203.59C263.058 204.25 262.818 204.8 262.338 205.241C261.878 205.661 261.278 205.871 260.538 205.872ZM273.91 223.415C272.39 223.416 271.04 223.096 269.859 222.457C268.699 221.797 267.788 220.888 267.128 219.728C266.487 218.549 266.167 217.189 266.166 215.649C266.165 214.069 266.484 212.679 267.124 211.478C267.763 210.258 268.663 209.307 269.822 208.627C271.002 207.926 272.362 207.576 273.902 207.575C275.402 207.574 276.712 207.903 277.832 208.563C278.953 209.222 279.823 210.112 280.444 211.231C281.064 212.351 281.375 213.621 281.376 215.041C281.376 215.241 281.376 215.471 281.376 215.731C281.376 215.971 281.356 216.221 281.316 216.481L269.046 216.487L269.045 214.027L277.295 214.023C277.235 213.043 276.884 212.273 276.244 211.714C275.624 211.154 274.843 210.874 273.903 210.875C273.223 210.875 272.593 211.035 272.014 211.356C271.434 211.656 270.974 212.126 270.634 212.766C270.315 213.407 270.155 214.217 270.156 215.197L270.156 216.067C270.156 216.887 270.307 217.607 270.607 218.226C270.927 218.826 271.368 219.296 271.928 219.636C272.488 219.955 273.138 220.115 273.878 220.115C274.618 220.114 275.228 219.954 275.708 219.634C276.208 219.314 276.577 218.903 276.817 218.403L280.957 218.401C280.678 219.341 280.208 220.192 279.549 220.952C278.889 221.712 278.079 222.313 277.119 222.753C276.16 223.194 275.09 223.414 273.91 223.415ZM290.877 223.406C289.497 223.407 288.297 223.187 287.276 222.748C286.256 222.308 285.456 221.699 284.875 220.919C284.295 220.139 283.965 219.26 283.884 218.28L287.904 218.278C288.004 218.658 288.174 219.008 288.415 219.327C288.655 219.627 288.975 219.867 289.375 220.047C289.775 220.227 290.255 220.316 290.815 220.316C291.355 220.316 291.795 220.246 292.135 220.105C292.475 219.945 292.725 219.735 292.885 219.475C293.065 219.215 293.154 218.945 293.154 218.665C293.154 218.245 293.034 217.925 292.794 217.705C292.554 217.465 292.204 217.275 291.743 217.136C291.283 216.996 290.723 216.856 290.063 216.717C289.343 216.577 288.633 216.407 287.933 216.208C287.253 215.988 286.643 215.718 286.103 215.399C285.562 215.079 285.132 214.669 284.812 214.169C284.492 213.669 284.331 213.049 284.331 212.309C284.331 211.409 284.57 210.609 285.05 209.909C285.529 209.189 286.229 208.618 287.149 208.198C288.069 207.778 289.179 207.567 290.479 207.566C292.299 207.565 293.739 207.975 294.799 208.794C295.86 209.614 296.49 210.743 296.691 212.183L292.881 212.185C292.761 211.725 292.491 211.365 292.07 211.106C291.67 210.826 291.13 210.686 290.45 210.686C289.73 210.687 289.18 210.817 288.8 211.077C288.421 211.337 288.231 211.677 288.231 212.097C288.231 212.377 288.351 212.627 288.591 212.847C288.851 213.067 289.211 213.257 289.672 213.417C290.132 213.557 290.692 213.696 291.352 213.836C292.512 214.075 293.532 214.355 294.412 214.674C295.292 214.974 295.983 215.414 296.483 215.993C296.983 216.553 297.234 217.373 297.234 218.453C297.235 219.413 296.975 220.273 296.455 221.033C295.936 221.774 295.196 222.354 294.236 222.774C293.297 223.195 292.177 223.405 290.877 223.406Z" fill="#624DE7"/>
</svg>
