<svg width="407" height="302" viewBox="0 0 407 302" fill="none" xmlns="http://www.w3.org/2000/svg">
<rect width="407" height="301.74" fill="white"/>
<path d="M60.7304 163.251C55.8603 154.226 55.9096 145.722 60.7109 124.709C39.4763 147.202 48.9033 175.301 74.9948 184.387L74.961 117.743C72.056 118.314 70.4053 118.982 67.4322 120.691L67.4569 169.367C64.6105 167.444 63.1223 166.138 60.7304 163.251Z" fill="#117CFF"/>
<path d="M79.2524 185.557L79.2174 116.626C81.8503 115.944 83.4237 115.884 86.3591 116.209L86.3897 176.51C91.3138 176.507 94.3545 175.247 99.0339 173.202L99.0387 182.671C90.9755 185.416 84.5898 186.804 79.2524 185.557Z" fill="#117CFF"/>
<path d="M117.177 162.086C124.003 141.246 111.058 120.984 91.2836 116.953L91.2892 128.061C96.6713 128.944 100.96 131.307 104.4 134.326L104.423 179.161C107.198 177.586 108.646 176.236 111.085 173.196L111.069 142.273C114.346 149.096 114.973 148.882 117.177 162.086Z" fill="#117CFF"/>
<path d="M149.249 144.428C147.709 144.429 146.309 144.119 145.049 143.5C143.788 142.881 142.788 141.951 142.047 140.712C141.307 139.472 140.936 137.892 140.935 135.972L140.928 123.072L144.978 123.07L144.985 136C144.985 137.04 145.156 137.92 145.496 138.64C145.836 139.34 146.327 139.859 146.967 140.199C147.627 140.539 148.407 140.708 149.307 140.708C150.227 140.707 151.007 140.537 151.647 140.197C152.307 139.856 152.806 139.336 153.146 138.636C153.486 137.916 153.655 137.036 153.655 135.996L153.648 123.066L157.698 123.064L157.705 135.964C157.706 137.884 157.327 139.464 156.567 140.704C155.808 141.945 154.778 142.875 153.479 143.496C152.199 144.116 150.789 144.427 149.249 144.428ZM161.566 144.062L161.558 128.942L165.128 128.94L165.43 131.4C165.889 130.56 166.539 129.879 167.379 129.359C168.238 128.838 169.258 128.578 170.438 128.577C171.698 128.577 172.758 128.836 173.619 129.356C174.479 129.875 175.129 130.635 175.57 131.635C176.03 132.634 176.261 133.864 176.262 135.324L176.266 144.054L172.246 144.056L172.242 135.716C172.241 134.516 171.981 133.596 171.46 132.957C170.96 132.317 170.18 131.997 169.12 131.998C168.44 131.998 167.83 132.159 167.29 132.479C166.77 132.799 166.36 133.259 166.061 133.859C165.761 134.44 165.611 135.15 165.612 135.99L165.616 144.06L161.566 144.062ZM180.172 144.052L180.164 128.932L184.214 128.93L184.222 144.05L180.172 144.052ZM182.203 126.861C181.483 126.862 180.883 126.652 180.403 126.232C179.942 125.792 179.712 125.242 179.712 124.582C179.711 123.922 179.941 123.382 180.401 122.962C180.881 122.522 181.481 122.302 182.201 122.301C182.941 122.301 183.541 122.521 184.001 122.96C184.481 123.38 184.721 123.92 184.722 124.58C184.722 125.24 184.482 125.79 184.003 126.23C183.543 126.651 182.943 126.861 182.203 126.861ZM192.364 144.046L186.806 128.929L191.066 128.927L194.822 140.235L198.566 128.923L202.796 128.921L197.284 144.044L192.364 144.046ZM211.834 144.396C210.314 144.397 208.964 144.078 207.783 143.438C206.623 142.779 205.713 141.869 205.052 140.71C204.411 139.53 204.091 138.17 204.09 136.63C204.089 135.05 204.408 133.66 205.048 132.46C205.687 131.239 206.587 130.289 207.746 129.608C208.926 128.908 210.286 128.557 211.826 128.556C213.326 128.555 214.636 128.885 215.756 129.544C216.877 130.204 217.747 131.093 218.368 132.213C218.988 133.333 219.299 134.602 219.3 136.022C219.3 136.222 219.3 136.452 219.3 136.712C219.3 136.952 219.28 137.202 219.24 137.462L206.97 137.469L206.969 135.009L215.219 135.004C215.159 134.025 214.808 133.255 214.168 132.695C213.548 132.135 212.768 131.856 211.828 131.856C211.148 131.857 210.518 132.017 209.938 132.337C209.358 132.637 208.898 133.108 208.559 133.748C208.239 134.388 208.079 135.198 208.08 136.178L208.08 137.048C208.081 137.868 208.231 138.588 208.531 139.208C208.852 139.808 209.292 140.277 209.852 140.617C210.412 140.937 211.062 141.097 211.802 141.096C212.542 141.096 213.152 140.936 213.632 140.615C214.132 140.295 214.502 139.885 214.741 139.385L218.881 139.383C218.602 140.323 218.132 141.173 217.473 141.933C216.813 142.694 216.003 143.294 215.044 143.735C214.084 144.175 213.014 144.396 211.834 144.396ZM222.621 144.031L222.613 128.911L226.213 128.909L226.604 131.699C226.964 131.039 227.414 130.478 227.954 130.018C228.513 129.558 229.143 129.197 229.843 128.937C230.563 128.677 231.353 128.546 232.213 128.546L232.215 132.836L230.835 132.837C230.235 132.837 229.675 132.907 229.155 133.047C228.655 133.188 228.215 133.418 227.835 133.738C227.456 134.038 227.166 134.458 226.966 134.999C226.766 135.539 226.667 136.219 226.667 137.039L226.671 144.029L222.621 144.031ZM241.076 144.381C239.696 144.382 238.496 144.163 237.476 143.723C236.456 143.284 235.655 142.674 235.075 141.894C234.495 141.115 234.164 140.235 234.084 139.255L238.104 139.253C238.204 139.633 238.374 139.983 238.614 140.303C238.854 140.602 239.174 140.842 239.575 141.022C239.975 141.202 240.455 141.292 241.015 141.291C241.555 141.291 241.995 141.221 242.335 141.081C242.674 140.921 242.924 140.71 243.084 140.45C243.264 140.19 243.354 139.92 243.354 139.64C243.354 139.22 243.233 138.9 242.993 138.68C242.753 138.441 242.403 138.251 241.943 138.111C241.483 137.971 240.923 137.831 240.263 137.692C239.543 137.552 238.833 137.383 238.133 137.183C237.452 136.963 236.842 136.694 236.302 136.374C235.762 136.054 235.332 135.644 235.012 135.144C234.691 134.645 234.531 134.025 234.531 133.285C234.53 132.385 234.77 131.585 235.249 130.884C235.729 130.164 236.429 129.594 237.348 129.173C238.268 128.753 239.378 128.542 240.678 128.542C242.498 128.541 243.938 128.95 244.999 129.769C246.059 130.589 246.69 131.719 246.891 133.158L243.081 133.16C242.96 132.7 242.69 132.341 242.27 132.081C241.87 131.801 241.33 131.661 240.65 131.662C239.93 131.662 239.38 131.792 239 132.052C238.62 132.313 238.43 132.653 238.43 133.073C238.431 133.353 238.551 133.603 238.791 133.823C239.051 134.042 239.411 134.232 239.871 134.392C240.331 134.532 240.891 134.671 241.551 134.811C242.711 135.051 243.732 135.33 244.612 135.65C245.492 135.949 246.182 136.389 246.682 136.969C247.183 137.528 247.433 138.348 247.434 139.428C247.434 140.388 247.175 141.248 246.655 142.009C246.135 142.749 245.396 143.329 244.436 143.75C243.496 144.17 242.376 144.381 241.076 144.381ZM255.963 144.374C254.703 144.374 253.663 144.175 252.843 143.775C252.022 143.356 251.412 142.806 251.012 142.126C250.632 141.427 250.441 140.657 250.441 139.817C250.44 138.897 250.67 138.087 251.129 137.386C251.609 136.686 252.319 136.136 253.259 135.735C254.218 135.335 255.418 135.134 256.858 135.133L260.608 135.131C260.608 134.391 260.508 133.782 260.307 133.302C260.107 132.802 259.797 132.432 259.377 132.192C258.957 131.952 258.397 131.833 257.697 131.833C256.937 131.833 256.287 132.004 255.747 132.344C255.227 132.664 254.907 133.164 254.788 133.844L250.858 133.846C250.957 132.766 251.307 131.836 251.906 131.056C252.526 130.256 253.336 129.635 254.335 129.195C255.355 128.754 256.485 128.534 257.725 128.533C259.145 128.532 260.375 128.772 261.415 129.251C262.456 129.731 263.256 130.42 263.816 131.32C264.377 132.22 264.657 133.329 264.658 134.649L264.663 144.009L261.243 144.011L260.792 141.701C260.572 142.101 260.312 142.462 260.012 142.782C259.712 143.102 259.363 143.382 258.963 143.622C258.563 143.863 258.113 144.043 257.613 144.163C257.113 144.303 256.563 144.374 255.963 144.374ZM256.921 141.253C257.441 141.253 257.901 141.163 258.301 140.983C258.721 140.782 259.081 140.522 259.381 140.202C259.681 139.862 259.911 139.482 260.07 139.062C260.25 138.622 260.37 138.152 260.43 137.652L260.43 137.622L257.34 137.623C256.72 137.623 256.21 137.704 255.81 137.864C255.43 138.004 255.15 138.214 254.97 138.494C254.79 138.774 254.7 139.094 254.701 139.454C254.701 139.854 254.791 140.184 254.971 140.444C255.151 140.704 255.411 140.904 255.751 141.044C256.091 141.184 256.481 141.254 256.921 141.253ZM268.441 144.007L268.43 122.407L272.48 122.405L272.491 144.005L268.441 144.007ZM283.59 144L283.579 123L287.629 122.998L287.638 140.848L296.848 140.843L296.85 143.993L283.59 144ZM300.318 143.991L300.31 128.871L304.36 128.869L304.368 143.989L300.318 143.991ZM302.349 126.8C301.629 126.801 301.029 126.591 300.549 126.171C300.089 125.731 299.859 125.182 299.858 124.522C299.858 123.862 300.088 123.321 300.547 122.901C301.027 122.461 301.627 122.241 302.347 122.24C303.087 122.24 303.687 122.46 304.147 122.899C304.628 123.319 304.868 123.859 304.868 124.519C304.869 125.179 304.629 125.729 304.149 126.169C303.689 126.59 303.089 126.8 302.349 126.8ZM308.46 143.987L308.453 128.867L312.023 128.865L312.324 131.325C312.784 130.485 313.433 129.805 314.273 129.284C315.133 128.764 316.153 128.503 317.333 128.503C318.593 128.502 319.653 128.762 320.513 129.281C321.373 129.801 322.024 130.56 322.464 131.56C322.925 132.56 323.155 133.79 323.156 135.25L323.16 143.98L319.14 143.982L319.136 135.642C319.136 134.442 318.875 133.522 318.355 132.882C317.855 132.242 317.074 131.923 316.014 131.923C315.334 131.924 314.724 132.084 314.185 132.404C313.665 132.725 313.255 133.185 312.955 133.785C312.656 134.365 312.506 135.075 312.506 135.915L312.51 143.985L308.46 143.987ZM336.876 143.973L330.422 135.696L336.208 128.853L340.978 128.851L333.513 137.404L333.511 134.194L341.916 143.97L336.876 143.973ZM326.976 143.978L326.965 122.378L331.015 122.376L331.026 143.976L326.976 143.978ZM349.768 144.326C348.388 144.327 347.187 144.108 346.167 143.668C345.147 143.229 344.347 142.619 343.766 141.839C343.186 141.06 342.855 140.18 342.775 139.2L346.795 139.198C346.895 139.578 347.065 139.928 347.306 140.247C347.546 140.547 347.866 140.787 348.266 140.967C348.666 141.147 349.146 141.237 349.706 141.236C350.246 141.236 350.686 141.166 351.026 141.026C351.366 140.865 351.616 140.655 351.776 140.395C351.955 140.135 352.045 139.865 352.045 139.585C352.045 139.165 351.925 138.845 351.685 138.625C351.445 138.385 351.094 138.196 350.634 138.056C350.174 137.916 349.614 137.776 348.954 137.637C348.234 137.497 347.524 137.327 346.824 137.128C346.144 136.908 345.534 136.638 344.994 136.319C344.453 135.999 344.023 135.589 343.703 135.089C343.383 134.589 343.222 133.97 343.222 133.23C343.222 132.33 343.461 131.529 343.941 130.829C344.42 130.109 345.12 129.539 346.04 129.118C346.96 128.698 348.07 128.487 349.37 128.486C351.19 128.486 352.63 128.895 353.69 129.714C354.751 130.534 355.381 131.663 355.582 133.103L351.772 133.105C351.652 132.645 351.381 132.285 350.961 132.026C350.561 131.746 350.021 131.606 349.341 131.606C348.621 131.607 348.071 131.737 347.691 131.997C347.311 132.257 347.122 132.598 347.122 133.018C347.122 133.298 347.242 133.548 347.482 133.767C347.742 133.987 348.102 134.177 348.563 134.337C349.023 134.477 349.583 134.616 350.243 134.756C351.403 134.995 352.423 135.275 353.303 135.594C354.183 135.894 354.874 136.334 355.374 136.913C355.874 137.473 356.125 138.293 356.125 139.373C356.126 140.333 355.866 141.193 355.346 141.953C354.827 142.694 354.087 143.274 353.127 143.695C352.187 144.115 351.068 144.326 349.768 144.326ZM146.026 178.07L146.017 160.34L139.867 160.343L139.865 157.073L156.155 157.064L156.157 160.334L150.037 160.338L150.046 178.068L146.026 178.07ZM163.511 178.421C161.991 178.421 160.641 178.102 159.461 177.463C158.301 176.803 157.39 175.894 156.729 174.734C156.089 173.554 155.768 172.195 155.767 170.655C155.767 169.075 156.086 167.684 156.725 166.484C157.365 165.264 158.264 164.313 159.424 163.633C160.603 162.932 161.963 162.581 163.503 162.581C165.003 162.58 166.313 162.909 167.434 163.569C168.554 164.228 169.425 165.118 170.045 166.237C170.666 167.357 170.976 168.627 170.977 170.047C170.977 170.247 170.977 170.477 170.977 170.737C170.978 170.977 170.958 171.227 170.918 171.487L158.648 171.493L158.647 169.033L166.897 169.029C166.836 168.049 166.486 167.279 165.845 166.72C165.225 166.16 164.445 165.88 163.505 165.881C162.825 165.881 162.195 166.041 161.615 166.362C161.035 166.662 160.576 167.132 160.236 167.772C159.916 168.413 159.757 169.223 159.757 170.203L159.758 171.073C159.758 171.893 159.908 172.613 160.209 173.232C160.529 173.832 160.969 174.302 161.529 174.642C162.09 174.961 162.74 175.121 163.48 175.121C164.22 175.12 164.83 174.96 165.309 174.64C165.809 174.32 166.179 173.909 166.419 173.409L170.559 173.407C170.279 174.347 169.81 175.198 169.15 175.958C168.49 176.718 167.681 177.319 166.721 177.759C165.761 178.2 164.691 178.42 163.511 178.421ZM181.618 178.412C180.098 178.412 178.748 178.073 177.568 177.394C176.387 176.714 175.467 175.785 174.806 174.605C174.146 173.425 173.815 172.075 173.814 170.555C173.813 168.995 174.143 167.625 174.802 166.445C175.462 165.245 176.381 164.304 177.561 163.624C178.74 162.923 180.09 162.572 181.61 162.572C183.55 162.571 185.18 163.08 186.501 164.099C187.821 165.118 188.662 166.518 189.023 168.298L184.733 168.3C184.553 167.6 184.172 167.05 183.592 166.651C183.032 166.251 182.362 166.051 181.582 166.052C180.882 166.052 180.252 166.232 179.692 166.593C179.152 166.933 178.723 167.443 178.403 168.123C178.103 168.783 177.954 169.573 177.954 170.493C177.955 171.193 178.045 171.823 178.225 172.383C178.405 172.923 178.656 173.393 178.976 173.793C179.296 174.173 179.676 174.463 180.116 174.662C180.576 174.862 181.066 174.962 181.586 174.962C182.106 174.961 182.576 174.871 182.996 174.691C183.436 174.511 183.806 174.26 184.106 173.94C184.406 173.6 184.616 173.19 184.735 172.71L189.025 172.708C188.666 174.448 187.817 175.838 186.477 176.879C185.158 177.9 183.538 178.411 181.618 178.412ZM192.521 178.046L192.51 156.446L196.56 156.444L196.564 165.174C197.064 164.394 197.723 163.763 198.543 163.283C199.383 162.803 200.353 162.562 201.453 162.561C202.713 162.561 203.773 162.83 204.633 163.37C205.494 163.889 206.144 164.649 206.584 165.649C207.025 166.649 207.246 167.889 207.246 169.369L207.251 178.039L203.231 178.041L203.226 169.731C203.226 168.531 202.975 167.611 202.475 166.971C201.975 166.311 201.185 165.982 200.105 165.982C199.445 165.982 198.845 166.143 198.305 166.463C197.765 166.783 197.335 167.254 197.016 167.874C196.716 168.474 196.566 169.194 196.567 170.034L196.571 178.044L192.521 178.046ZM211.066 178.037L211.058 162.917L214.628 162.915L214.929 165.375C215.389 164.534 216.038 163.854 216.878 163.334C217.738 162.813 218.758 162.553 219.938 162.552C221.198 162.551 222.258 162.811 223.118 163.33C223.978 163.85 224.629 164.61 225.069 165.609C225.53 166.609 225.76 167.839 225.761 169.299L225.766 178.029L221.746 178.031L221.741 169.691C221.741 168.491 221.48 167.571 220.96 166.932C220.46 166.292 219.679 165.972 218.619 165.973C217.939 165.973 217.33 166.133 216.79 166.454C216.27 166.774 215.86 167.234 215.56 167.834C215.261 168.414 215.111 169.125 215.112 169.965L215.116 178.035L211.066 178.037ZM236.721 178.384C235.281 178.384 233.981 178.055 232.821 177.396C231.681 176.716 230.77 175.787 230.09 174.607C229.429 173.407 229.098 172.037 229.097 170.497C229.097 168.917 229.426 167.537 230.085 166.357C230.765 165.157 231.684 164.226 232.844 163.566C234.004 162.885 235.303 162.544 236.743 162.544C238.203 162.543 239.504 162.882 240.644 163.562C241.804 164.221 242.715 165.151 243.375 166.35C244.056 167.53 244.397 168.9 244.397 170.46C244.398 172.02 244.059 173.4 243.38 174.6C242.72 175.781 241.811 176.711 240.651 177.392C239.491 178.052 238.181 178.383 236.721 178.384ZM236.72 174.874C237.4 174.873 238 174.713 238.519 174.393C239.059 174.072 239.479 173.582 239.779 172.922C240.098 172.262 240.258 171.442 240.257 170.462C240.257 169.482 240.096 168.672 239.776 168.032C239.476 167.372 239.056 166.882 238.515 166.563C237.995 166.223 237.405 166.053 236.745 166.054C236.105 166.054 235.515 166.224 234.975 166.564C234.436 166.885 234.006 167.375 233.686 168.035C233.386 168.675 233.237 169.485 233.237 170.465C233.238 171.445 233.388 172.265 233.689 172.925C234.009 173.585 234.429 174.075 234.949 174.394C235.49 174.714 236.08 174.874 236.72 174.874ZM247.892 178.018L247.881 156.418L251.931 156.416L251.942 178.016L247.892 178.018ZM263.03 178.37C261.59 178.371 260.29 178.042 259.13 177.382C257.989 176.703 257.079 175.773 256.398 174.594C255.737 173.394 255.407 172.024 255.406 170.484C255.405 168.904 255.735 167.524 256.394 166.344C257.073 165.143 257.993 164.213 259.152 163.552C260.312 162.872 261.612 162.531 263.052 162.53C264.512 162.529 265.812 162.869 266.952 163.548C268.113 164.208 269.023 165.137 269.684 166.337C270.365 167.517 270.705 168.886 270.706 170.446C270.707 172.006 270.367 173.387 269.688 174.587C269.029 175.767 268.119 176.698 266.96 177.378C265.8 178.039 264.49 178.37 263.03 178.37ZM263.028 174.86C263.708 174.86 264.308 174.7 264.828 174.379C265.368 174.059 265.788 173.569 266.087 172.909C266.407 172.249 266.566 171.428 266.566 170.448C266.565 169.468 266.405 168.659 266.085 168.019C265.784 167.359 265.364 166.869 264.824 166.549C264.304 166.21 263.714 166.04 263.054 166.04C262.414 166.041 261.824 166.211 261.284 166.551C260.744 166.871 260.314 167.362 259.995 168.022C259.695 168.662 259.545 169.472 259.546 170.452C259.546 171.432 259.697 172.252 259.997 172.912C260.318 173.572 260.738 174.061 261.258 174.381C261.798 174.701 262.388 174.861 263.028 174.86ZM279.747 184.962C278.307 184.962 277.047 184.783 275.967 184.424C274.887 184.084 274.046 183.555 273.446 182.835C272.866 182.135 272.575 181.265 272.575 180.225C272.574 179.525 272.754 178.865 273.114 178.245C273.473 177.625 273.993 177.065 274.673 176.564C275.373 176.044 276.242 175.604 277.282 175.243L278.813 177.222C277.893 177.523 277.224 177.893 276.804 178.333C276.404 178.793 276.204 179.284 276.204 179.804C276.205 180.264 276.355 180.653 276.655 180.973C276.975 181.293 277.395 181.523 277.915 181.663C278.456 181.822 279.056 181.902 279.716 181.902C280.356 181.901 280.906 181.821 281.365 181.661C281.845 181.501 282.215 181.261 282.475 180.94C282.755 180.64 282.895 180.28 282.895 179.86C282.894 179.32 282.704 178.88 282.324 178.54C281.944 178.201 281.184 177.991 280.044 177.912C279.023 177.832 278.113 177.723 277.313 177.583C276.533 177.423 275.843 177.244 275.243 177.044C274.643 176.824 274.133 176.585 273.713 176.325C273.313 176.065 272.982 175.805 272.722 175.545L272.722 174.855L275.93 171.404L278.841 172.332L275.063 176.054L276.202 174.074C276.422 174.193 276.632 174.313 276.832 174.433C277.052 174.533 277.322 174.633 277.642 174.733C277.962 174.813 278.382 174.892 278.902 174.972C279.422 175.052 280.082 175.122 280.882 175.181C282.202 175.301 283.282 175.55 284.123 175.93C284.983 176.309 285.613 176.819 286.013 177.459C286.414 178.078 286.614 178.848 286.614 179.768C286.615 180.668 286.365 181.508 285.866 182.289C285.386 183.089 284.636 183.729 283.617 184.21C282.597 184.71 281.307 184.961 279.747 184.962ZM279.741 173.532C278.481 173.532 277.391 173.293 276.471 172.813C275.571 172.314 274.87 171.654 274.37 170.834C273.89 169.995 273.649 169.065 273.649 168.045C273.648 167.025 273.888 166.105 274.367 165.284C274.867 164.444 275.566 163.774 276.466 163.273C277.386 162.773 278.476 162.522 279.736 162.522C281.016 162.521 282.106 162.771 283.006 163.27C283.926 163.77 284.627 164.439 285.107 165.279C285.588 166.099 285.828 167.019 285.829 168.039C285.829 169.059 285.59 169.989 285.11 170.829C284.63 171.649 283.931 172.31 283.011 172.81C282.111 173.291 281.021 173.531 279.741 173.532ZM279.74 170.442C280.52 170.441 281.15 170.241 281.629 169.841C282.109 169.441 282.349 168.85 282.349 168.07C282.348 167.29 282.108 166.701 281.628 166.301C281.147 165.881 280.517 165.671 279.737 165.672C278.977 165.672 278.347 165.882 277.848 166.303C277.368 166.703 277.128 167.293 277.129 168.073C277.129 168.853 277.369 169.443 277.849 169.843C278.35 170.242 278.98 170.442 279.74 170.442ZM282.257 165.76L281.596 162.881L287.806 162.878L287.807 165.278L282.257 165.76ZM291.195 177.996L291.187 162.876L295.237 162.874L295.245 177.994L291.195 177.996ZM293.226 160.805C292.506 160.805 291.906 160.596 291.426 160.176C290.965 159.736 290.735 159.186 290.735 158.526C290.734 157.866 290.964 157.326 291.424 156.906C291.904 156.466 292.504 156.245 293.224 156.245C293.964 156.245 294.564 156.464 295.024 156.904C295.504 157.324 295.744 157.864 295.745 158.524C295.745 159.184 295.505 159.734 295.026 160.174C294.566 160.594 293.966 160.805 293.226 160.805ZM306.597 178.348C305.077 178.349 303.727 178.03 302.547 177.39C301.386 176.731 300.476 175.821 299.815 174.662C299.175 173.482 298.854 172.122 298.853 170.582C298.853 169.002 299.172 167.612 299.811 166.412C300.451 165.191 301.35 164.241 302.51 163.56C303.689 162.86 305.049 162.509 306.589 162.508C308.089 162.507 309.399 162.837 310.52 163.496C311.64 164.156 312.511 165.045 313.131 166.165C313.752 167.285 314.062 168.554 314.063 169.974C314.063 170.174 314.063 170.404 314.063 170.664C314.063 170.904 314.044 171.154 314.004 171.414L301.734 171.421L301.733 168.961L309.983 168.956C309.922 167.976 309.572 167.207 308.931 166.647C308.311 166.087 307.531 165.808 306.591 165.808C305.911 165.808 305.281 165.969 304.701 166.289C304.121 166.589 303.662 167.06 303.322 167.7C303.002 168.34 302.843 169.15 302.843 170.13L302.844 171C302.844 171.82 302.994 172.54 303.295 173.16C303.615 173.76 304.055 174.229 304.615 174.569C305.176 174.889 305.826 175.049 306.566 175.048C307.306 175.048 307.916 174.887 308.395 174.567C308.895 174.247 309.265 173.837 309.505 173.337L313.645 173.335C313.365 174.275 312.896 175.125 312.236 175.885C311.576 176.646 310.767 177.246 309.807 177.687C308.847 178.127 307.777 178.348 306.597 178.348ZM323.564 178.34C322.184 178.34 320.984 178.121 319.964 177.681C318.944 177.242 318.143 176.632 317.563 175.853C316.982 175.073 316.652 174.193 316.572 173.213L320.592 173.211C320.692 173.591 320.862 173.941 321.102 174.261C321.342 174.561 321.662 174.801 322.062 174.98C322.463 175.16 322.943 175.25 323.503 175.25C324.043 175.249 324.483 175.179 324.822 175.039C325.162 174.879 325.412 174.669 325.572 174.409C325.752 174.148 325.842 173.878 325.842 173.598C325.842 173.178 325.721 172.858 325.481 172.639C325.241 172.399 324.891 172.209 324.431 172.069C323.971 171.929 323.411 171.79 322.751 171.65C322.031 171.51 321.321 171.341 320.62 171.141C319.94 170.921 319.33 170.652 318.79 170.332C318.25 170.012 317.82 169.602 317.499 169.103C317.179 168.603 317.019 167.983 317.019 167.243C317.018 166.343 317.258 165.543 317.737 164.842C318.217 164.122 318.917 163.552 319.836 163.131C320.756 162.711 321.866 162.5 323.166 162.5C324.986 162.499 326.426 162.908 327.487 163.728C328.547 164.547 329.178 165.677 329.378 167.117L325.568 167.119C325.448 166.659 325.178 166.299 324.758 166.039C324.358 165.759 323.818 165.619 323.138 165.62C322.418 165.62 321.868 165.75 321.488 166.011C321.108 166.271 320.918 166.611 320.918 167.031C320.919 167.311 321.039 167.561 321.279 167.781C321.539 168.001 321.899 168.19 322.359 168.35C322.819 168.49 323.379 168.63 324.039 168.769C325.199 169.009 326.22 169.288 327.1 169.608C327.98 169.907 328.67 170.347 329.17 170.927C329.671 171.486 329.921 172.306 329.922 173.386C329.922 174.346 329.663 175.206 329.143 175.967C328.623 176.707 327.884 177.287 326.924 177.708C325.984 178.128 324.864 178.339 323.564 178.34Z" fill="#117CFF"/>
</svg>
