<svg width="407" height="302" viewBox="0 0 407 302" fill="none" xmlns="http://www.w3.org/2000/svg">
<rect width="407" height="301.74" fill="white"/>
<rect x="45.5" y="126" width="50" height="50" rx="25" fill="#624DE7"/>
<path d="M57.1894 157.983C54.4091 152.825 54.4397 147.966 57.1894 135.96C45.0488 148.807 50.4276 164.866 65.3343 170.066V131.983C63.6742 132.309 62.7307 132.69 61.0314 133.666V161.48C59.4054 160.381 58.5553 159.634 57.1894 157.983Z" fill="white"/>
<path d="M67.7669 170.735V131.346C69.2716 130.957 70.1707 130.923 71.848 131.11V165.568C74.6618 165.568 76.3997 164.848 79.0742 163.681V169.092C74.4659 170.658 70.8165 171.449 67.7669 170.735Z" fill="white"/>
<path d="M89.4451 157.334C93.3516 145.428 85.9603 133.845 74.6618 131.536V137.884C77.737 138.39 80.187 139.742 82.1517 141.468V167.088C83.7382 166.189 84.5662 165.417 85.9603 163.681V146.011C87.8307 149.911 88.1895 149.789 89.4451 157.334Z" fill="white"/>
<path d="M112.38 158.24C111.327 158.24 110.367 158.033 109.5 157.62C108.647 157.193 107.967 156.56 107.46 155.72C106.967 154.88 106.72 153.82 106.72 152.54V144H109.72V152.56C109.72 153.187 109.82 153.72 110.02 154.16C110.233 154.6 110.54 154.933 110.94 155.16C111.353 155.373 111.847 155.48 112.42 155.48C113.007 155.48 113.5 155.373 113.9 155.16C114.313 154.933 114.627 154.6 114.84 154.16C115.053 153.72 115.16 153.187 115.16 152.56V144H118.16V152.54C118.16 153.82 117.893 154.88 117.36 155.72C116.84 156.56 116.14 157.193 115.26 157.62C114.393 158.033 113.433 158.24 112.38 158.24ZM119.667 158V147.92H122.287L122.527 149.54C122.834 148.98 123.267 148.533 123.827 148.2C124.387 147.853 125.067 147.68 125.867 147.68C126.707 147.68 127.414 147.86 127.987 148.22C128.561 148.58 128.994 149.1 129.287 149.78C129.594 150.447 129.747 151.267 129.747 152.24V158H126.767V152.52C126.767 151.787 126.607 151.22 126.287 150.82C125.981 150.407 125.487 150.2 124.807 150.2C124.407 150.2 124.041 150.3 123.707 150.5C123.387 150.687 123.134 150.96 122.947 151.32C122.761 151.68 122.667 152.113 122.667 152.62V158H119.667ZM131.285 158V147.92H134.285V158H131.285ZM132.785 146.76C132.252 146.76 131.819 146.607 131.485 146.3C131.152 145.993 130.985 145.607 130.985 145.14C130.985 144.66 131.152 144.267 131.485 143.96C131.819 143.653 132.252 143.5 132.785 143.5C133.332 143.5 133.772 143.653 134.105 143.96C134.452 144.267 134.625 144.66 134.625 145.14C134.625 145.607 134.452 145.993 134.105 146.3C133.772 146.607 133.332 146.76 132.785 146.76ZM138.569 158L134.909 147.92H138.069L140.409 155.18L142.749 147.92H145.869L142.229 158H138.569ZM150.963 158.24C149.923 158.24 149.01 158.027 148.223 157.6C147.436 157.16 146.816 156.553 146.363 155.78C145.923 154.993 145.703 154.093 145.703 153.08C145.703 152.04 145.923 151.113 146.363 150.3C146.803 149.487 147.416 148.847 148.203 148.38C148.99 147.913 149.903 147.68 150.943 147.68C151.956 147.68 152.843 147.9 153.603 148.34C154.363 148.78 154.956 149.38 155.383 150.14C155.823 150.887 156.043 151.753 156.043 152.74C156.043 152.873 156.036 153.027 156.023 153.2C156.023 153.36 156.01 153.527 155.983 153.7H147.843V151.96H152.983C152.956 151.4 152.75 150.953 152.363 150.62C151.99 150.273 151.523 150.1 150.963 150.1C150.536 150.1 150.15 150.2 149.803 150.4C149.456 150.6 149.176 150.9 148.963 151.3C148.763 151.7 148.663 152.207 148.663 152.82V153.42C148.663 153.887 148.75 154.3 148.923 154.66C149.11 155.02 149.37 155.3 149.703 155.5C150.05 155.7 150.456 155.8 150.923 155.8C151.363 155.8 151.723 155.713 152.003 155.54C152.296 155.353 152.523 155.12 152.683 154.84H155.743C155.556 155.48 155.236 156.06 154.783 156.58C154.33 157.087 153.776 157.493 153.123 157.8C152.47 158.093 151.75 158.24 150.963 158.24ZM157.249 158V147.92H159.909L160.189 149.76C160.456 149.333 160.769 148.967 161.129 148.66C161.489 148.353 161.903 148.113 162.369 147.94C162.849 147.767 163.363 147.68 163.909 147.68V150.86H162.909C162.509 150.86 162.143 150.907 161.809 151C161.489 151.08 161.209 151.22 160.969 151.42C160.743 151.62 160.563 151.893 160.429 152.24C160.309 152.573 160.249 152.993 160.249 153.5V158H157.249ZM168.848 158.24C167.901 158.24 167.081 158.093 166.388 157.8C165.708 157.493 165.168 157.08 164.768 156.56C164.381 156.04 164.161 155.453 164.108 154.8H167.088C167.141 155.027 167.234 155.233 167.368 155.42C167.514 155.593 167.708 155.733 167.948 155.84C168.201 155.933 168.481 155.98 168.788 155.98C169.121 155.98 169.388 155.94 169.588 155.86C169.801 155.767 169.961 155.647 170.068 155.5C170.174 155.353 170.228 155.2 170.228 155.04C170.228 154.787 170.148 154.593 169.988 154.46C169.841 154.327 169.621 154.22 169.328 154.14C169.034 154.047 168.681 153.96 168.268 153.88C167.788 153.773 167.308 153.653 166.828 153.52C166.361 153.373 165.941 153.193 165.568 152.98C165.208 152.767 164.914 152.493 164.688 152.16C164.474 151.813 164.368 151.393 164.368 150.9C164.368 150.3 164.534 149.76 164.868 149.28C165.201 148.787 165.681 148.4 166.308 148.12C166.934 147.827 167.694 147.68 168.588 147.68C169.854 147.68 170.848 147.96 171.568 148.52C172.288 149.08 172.714 149.833 172.848 150.78H170.048C169.968 150.513 169.801 150.313 169.548 150.18C169.294 150.033 168.974 149.96 168.588 149.96C168.148 149.96 167.814 150.033 167.588 150.18C167.361 150.327 167.248 150.52 167.248 150.76C167.248 150.92 167.321 151.067 167.468 151.2C167.628 151.32 167.854 151.427 168.148 151.52C168.441 151.613 168.801 151.707 169.228 151.8C170.041 151.973 170.741 152.16 171.328 152.36C171.928 152.56 172.394 152.853 172.728 153.24C173.061 153.613 173.221 154.16 173.208 154.88C173.221 155.533 173.048 156.113 172.688 156.62C172.341 157.127 171.841 157.527 171.188 157.82C170.534 158.1 169.754 158.24 168.848 158.24ZM177.888 158.24C177.048 158.24 176.348 158.107 175.788 157.84C175.242 157.573 174.835 157.213 174.568 156.76C174.315 156.293 174.188 155.78 174.188 155.22C174.188 154.62 174.335 154.093 174.628 153.64C174.935 153.173 175.408 152.807 176.048 152.54C176.688 152.26 177.495 152.12 178.468 152.12H180.908C180.908 151.667 180.848 151.293 180.728 151C180.622 150.707 180.442 150.487 180.188 150.34C179.935 150.193 179.588 150.12 179.148 150.12C178.682 150.12 178.288 150.213 177.968 150.4C177.648 150.587 177.448 150.88 177.368 151.28H174.488C174.555 150.56 174.788 149.933 175.188 149.4C175.602 148.867 176.148 148.447 176.828 148.14C177.508 147.833 178.288 147.68 179.168 147.68C180.128 147.68 180.962 147.84 181.668 148.16C182.375 148.467 182.922 148.92 183.308 149.52C183.708 150.12 183.908 150.867 183.908 151.76V158H181.408L181.048 156.54C180.902 156.793 180.728 157.027 180.528 157.24C180.328 157.44 180.095 157.62 179.828 157.78C179.562 157.927 179.268 158.04 178.948 158.12C178.628 158.2 178.275 158.24 177.888 158.24ZM178.628 155.96C178.948 155.96 179.228 155.907 179.468 155.8C179.708 155.693 179.915 155.547 180.088 155.36C180.262 155.173 180.402 154.96 180.508 154.72C180.628 154.467 180.715 154.193 180.768 153.9V153.88H178.828C178.495 153.88 178.215 153.927 177.988 154.02C177.775 154.1 177.615 154.22 177.508 154.38C177.402 154.54 177.348 154.727 177.348 154.94C177.348 155.167 177.402 155.36 177.508 155.52C177.628 155.667 177.782 155.78 177.968 155.86C178.168 155.927 178.388 155.96 178.628 155.96ZM185.402 158V143.6H188.402V158H185.402ZM247.283 158V146.42H243.223V144H254.343V146.42H250.283V158H247.283ZM258.334 158.24C257.294 158.24 256.381 158.027 255.594 157.6C254.808 157.16 254.188 156.553 253.734 155.78C253.294 154.993 253.074 154.093 253.074 153.08C253.074 152.04 253.294 151.113 253.734 150.3C254.174 149.487 254.788 148.847 255.574 148.38C256.361 147.913 257.274 147.68 258.314 147.68C259.328 147.68 260.214 147.9 260.974 148.34C261.734 148.78 262.328 149.38 262.754 150.14C263.194 150.887 263.414 151.753 263.414 152.74C263.414 152.873 263.408 153.027 263.394 153.2C263.394 153.36 263.381 153.527 263.354 153.7H255.214V151.96H260.354C260.328 151.4 260.121 150.953 259.734 150.62C259.361 150.273 258.894 150.1 258.334 150.1C257.908 150.1 257.521 150.2 257.174 150.4C256.828 150.6 256.548 150.9 256.334 151.3C256.134 151.7 256.034 152.207 256.034 152.82V153.42C256.034 153.887 256.121 154.3 256.294 154.66C256.481 155.02 256.741 155.3 257.074 155.5C257.421 155.7 257.828 155.8 258.294 155.8C258.734 155.8 259.094 155.713 259.374 155.54C259.668 155.353 259.894 155.12 260.054 154.84H263.114C262.928 155.48 262.608 156.06 262.154 156.58C261.701 157.087 261.148 157.493 260.494 157.8C259.841 158.093 259.121 158.24 258.334 158.24ZM269.6 158.24C268.56 158.24 267.64 158.013 266.84 157.56C266.054 157.107 265.434 156.487 264.98 155.7C264.54 154.913 264.32 154.013 264.32 153C264.32 151.96 264.54 151.047 264.98 150.26C265.434 149.46 266.054 148.833 266.84 148.38C267.64 147.913 268.56 147.68 269.6 147.68C270.92 147.68 272.027 148.027 272.92 148.72C273.827 149.413 274.4 150.38 274.64 151.62H271.46C271.34 151.193 271.114 150.86 270.78 150.62C270.447 150.38 270.047 150.26 269.58 150.26C269.14 150.26 268.754 150.373 268.42 150.6C268.1 150.813 267.847 151.127 267.66 151.54C267.474 151.94 267.38 152.413 267.38 152.96C267.38 153.373 267.434 153.747 267.54 154.08C267.647 154.413 267.794 154.7 267.98 154.94C268.18 155.18 268.414 155.367 268.68 155.5C268.947 155.62 269.247 155.68 269.58 155.68C269.9 155.68 270.18 155.627 270.42 155.52C270.674 155.413 270.887 155.26 271.06 155.06C271.247 154.86 271.38 154.613 271.46 154.32H274.64C274.4 155.52 273.827 156.473 272.92 157.18C272.014 157.887 270.907 158.24 269.6 158.24ZM275.964 158V143.6H278.964V149.36C279.284 148.853 279.717 148.447 280.264 148.14C280.811 147.833 281.451 147.68 282.184 147.68C283.037 147.68 283.751 147.86 284.324 148.22C284.897 148.58 285.331 149.107 285.624 149.8C285.917 150.48 286.064 151.307 286.064 152.28V158H283.084V152.56C283.084 151.813 282.924 151.233 282.604 150.82C282.297 150.407 281.804 150.2 281.124 150.2C280.724 150.2 280.357 150.3 280.024 150.5C279.691 150.7 279.431 150.987 279.244 151.36C279.057 151.72 278.964 152.153 278.964 152.66V158H275.964ZM287.562 158V147.92H290.182L290.422 149.54C290.728 148.98 291.162 148.533 291.722 148.2C292.282 147.853 292.962 147.68 293.762 147.68C294.602 147.68 295.308 147.86 295.882 148.22C296.455 148.58 296.888 149.1 297.182 149.78C297.488 150.447 297.642 151.267 297.642 152.24V158H294.662V152.52C294.662 151.787 294.502 151.22 294.182 150.82C293.875 150.407 293.382 150.2 292.702 150.2C292.302 150.2 291.935 150.3 291.602 150.5C291.282 150.687 291.028 150.96 290.842 151.32C290.655 151.68 290.562 152.113 290.562 152.62V158H287.562ZM303.98 158.24C303.007 158.24 302.133 158.013 301.36 157.56C300.587 157.107 299.973 156.487 299.52 155.7C299.067 154.9 298.84 153.993 298.84 152.98C298.84 151.94 299.067 151.027 299.52 150.24C299.973 149.44 300.587 148.813 301.36 148.36C302.147 147.907 303.02 147.68 303.98 147.68C304.967 147.68 305.847 147.907 306.62 148.36C307.393 148.813 308.007 149.44 308.46 150.24C308.913 151.027 309.14 151.933 309.14 152.96C309.14 153.987 308.913 154.9 308.46 155.7C308.007 156.487 307.393 157.107 306.62 157.56C305.847 158.013 304.967 158.24 303.98 158.24ZM303.98 155.64C304.38 155.64 304.733 155.54 305.04 155.34C305.36 155.14 305.613 154.84 305.8 154.44C305.987 154.04 306.08 153.547 306.08 152.96C306.08 152.373 305.987 151.88 305.8 151.48C305.613 151.08 305.367 150.78 305.06 150.58C304.753 150.38 304.4 150.28 304 150.28C303.6 150.28 303.24 150.38 302.92 150.58C302.613 150.78 302.367 151.08 302.18 151.48C301.993 151.88 301.9 152.373 301.9 152.96C301.9 153.547 301.993 154.04 302.18 154.44C302.367 154.84 302.613 155.14 302.92 155.34C303.24 155.54 303.593 155.64 303.98 155.64ZM310.445 158V143.6H313.445V158H310.445ZM319.89 158.24C318.917 158.24 318.043 158.013 317.27 157.56C316.497 157.107 315.883 156.487 315.43 155.7C314.977 154.9 314.75 153.993 314.75 152.98C314.75 151.94 314.977 151.027 315.43 150.24C315.883 149.44 316.497 148.813 317.27 148.36C318.057 147.907 318.93 147.68 319.89 147.68C320.877 147.68 321.757 147.907 322.53 148.36C323.303 148.813 323.917 149.44 324.37 150.24C324.823 151.027 325.05 151.933 325.05 152.96C325.05 153.987 324.823 154.9 324.37 155.7C323.917 156.487 323.303 157.107 322.53 157.56C321.757 158.013 320.877 158.24 319.89 158.24ZM319.89 155.64C320.29 155.64 320.643 155.54 320.95 155.34C321.27 155.14 321.523 154.84 321.71 154.44C321.897 154.04 321.99 153.547 321.99 152.96C321.99 152.373 321.897 151.88 321.71 151.48C321.523 151.08 321.277 150.78 320.97 150.58C320.663 150.38 320.31 150.28 319.91 150.28C319.51 150.28 319.15 150.38 318.83 150.58C318.523 150.78 318.277 151.08 318.09 151.48C317.903 151.88 317.81 152.373 317.81 152.96C317.81 153.547 317.903 154.04 318.09 154.44C318.277 154.84 318.523 155.14 318.83 155.34C319.15 155.54 319.503 155.64 319.89 155.64ZM330.072 162.64C329.085 162.64 328.232 162.52 327.512 162.28C326.792 162.053 326.232 161.707 325.832 161.24C325.445 160.773 325.252 160.187 325.252 159.48C325.252 158.973 325.385 158.5 325.652 158.06C325.932 157.62 326.325 157.233 326.832 156.9C327.339 156.553 327.945 156.267 328.652 156.04L329.652 157.56C329.065 157.733 328.625 157.96 328.332 158.24C328.052 158.52 327.912 158.833 327.912 159.18C327.912 159.447 328.005 159.673 328.192 159.86C328.379 160.047 328.632 160.187 328.952 160.28C329.285 160.373 329.652 160.42 330.052 160.42C330.439 160.42 330.772 160.373 331.052 160.28C331.345 160.187 331.572 160.047 331.732 159.86C331.905 159.687 331.992 159.473 331.992 159.22C331.992 158.887 331.879 158.62 331.652 158.42C331.425 158.22 330.959 158.093 330.252 158.04C329.599 157.987 329.005 157.913 328.472 157.82C327.952 157.713 327.485 157.587 327.072 157.44C326.672 157.293 326.325 157.133 326.032 156.96C325.739 156.787 325.512 156.613 325.352 156.44V155.98L327.552 153.56L329.612 154.2L326.952 156.9L327.872 155.38C328.005 155.46 328.145 155.54 328.292 155.62C328.439 155.687 328.619 155.747 328.832 155.8C329.045 155.853 329.312 155.907 329.632 155.96C329.952 156 330.365 156.047 330.872 156.1C331.739 156.18 332.452 156.347 333.012 156.6C333.585 156.84 334.005 157.173 334.272 157.6C334.552 158.027 334.692 158.547 334.692 159.16C334.692 159.76 334.525 160.327 334.192 160.86C333.859 161.393 333.352 161.82 332.672 162.14C331.992 162.473 331.125 162.64 330.072 162.64ZM330.092 155.08C329.252 155.08 328.525 154.913 327.912 154.58C327.299 154.247 326.825 153.807 326.492 153.26C326.159 152.7 325.992 152.073 325.992 151.38C325.992 150.7 326.159 150.087 326.492 149.54C326.825 148.98 327.299 148.533 327.912 148.2C328.525 147.853 329.252 147.68 330.092 147.68C330.945 147.68 331.679 147.853 332.292 148.2C332.905 148.533 333.372 148.98 333.692 149.54C334.012 150.087 334.172 150.7 334.172 151.38C334.172 152.073 334.012 152.7 333.692 153.26C333.372 153.807 332.905 154.247 332.292 154.58C331.679 154.913 330.945 155.08 330.092 155.08ZM330.092 152.82C330.545 152.82 330.919 152.7 331.212 152.46C331.505 152.22 331.652 151.867 331.652 151.4C331.652 150.933 331.505 150.58 331.212 150.34C330.919 150.1 330.545 149.98 330.092 149.98C329.639 149.98 329.259 150.1 328.952 150.34C328.659 150.58 328.512 150.933 328.512 151.4C328.512 151.867 328.659 152.22 328.952 152.46C329.259 152.7 329.639 152.82 330.092 152.82ZM331.772 149.98L331.332 147.92H335.512V149.62L331.772 149.98ZM336.82 158V147.92H339.82V158H336.82ZM338.32 146.76C337.787 146.76 337.354 146.607 337.02 146.3C336.687 145.993 336.52 145.607 336.52 145.14C336.52 144.66 336.687 144.267 337.02 143.96C337.354 143.653 337.787 143.5 338.32 143.5C338.867 143.5 339.307 143.653 339.64 143.96C339.987 144.267 340.16 144.66 340.16 145.14C340.16 145.607 339.987 145.993 339.64 146.3C339.307 146.607 338.867 146.76 338.32 146.76ZM346.424 158.24C345.384 158.24 344.471 158.027 343.684 157.6C342.897 157.16 342.277 156.553 341.824 155.78C341.384 154.993 341.164 154.093 341.164 153.08C341.164 152.04 341.384 151.113 341.824 150.3C342.264 149.487 342.877 148.847 343.664 148.38C344.451 147.913 345.364 147.68 346.404 147.68C347.417 147.68 348.304 147.9 349.064 148.34C349.824 148.78 350.417 149.38 350.844 150.14C351.284 150.887 351.504 151.753 351.504 152.74C351.504 152.873 351.497 153.027 351.484 153.2C351.484 153.36 351.471 153.527 351.444 153.7H343.304V151.96H348.444C348.417 151.4 348.211 150.953 347.824 150.62C347.451 150.273 346.984 150.1 346.424 150.1C345.997 150.1 345.611 150.2 345.264 150.4C344.917 150.6 344.637 150.9 344.424 151.3C344.224 151.7 344.124 152.207 344.124 152.82V153.42C344.124 153.887 344.211 154.3 344.384 154.66C344.571 155.02 344.831 155.3 345.164 155.5C345.511 155.7 345.917 155.8 346.384 155.8C346.824 155.8 347.184 155.713 347.464 155.54C347.757 155.353 347.984 155.12 348.144 154.84H351.204C351.017 155.48 350.697 156.06 350.244 156.58C349.791 157.087 349.237 157.493 348.584 157.8C347.931 158.093 347.211 158.24 346.424 158.24ZM356.91 158.24C355.963 158.24 355.143 158.093 354.45 157.8C353.77 157.493 353.23 157.08 352.83 156.56C352.443 156.04 352.223 155.453 352.17 154.8H355.15C355.203 155.027 355.297 155.233 355.43 155.42C355.577 155.593 355.77 155.733 356.01 155.84C356.263 155.933 356.543 155.98 356.85 155.98C357.183 155.98 357.45 155.94 357.65 155.86C357.863 155.767 358.023 155.647 358.13 155.5C358.237 155.353 358.29 155.2 358.29 155.04C358.29 154.787 358.21 154.593 358.05 154.46C357.903 154.327 357.683 154.22 357.39 154.14C357.097 154.047 356.743 153.96 356.33 153.88C355.85 153.773 355.37 153.653 354.89 153.52C354.423 153.373 354.003 153.193 353.63 152.98C353.27 152.767 352.977 152.493 352.75 152.16C352.537 151.813 352.43 151.393 352.43 150.9C352.43 150.3 352.597 149.76 352.93 149.28C353.263 148.787 353.743 148.4 354.37 148.12C354.997 147.827 355.757 147.68 356.65 147.68C357.917 147.68 358.91 147.96 359.63 148.52C360.35 149.08 360.777 149.833 360.91 150.78H358.11C358.03 150.513 357.863 150.313 357.61 150.18C357.357 150.033 357.037 149.96 356.65 149.96C356.21 149.96 355.877 150.033 355.65 150.18C355.423 150.327 355.31 150.52 355.31 150.76C355.31 150.92 355.383 151.067 355.53 151.2C355.69 151.32 355.917 151.427 356.21 151.52C356.503 151.613 356.863 151.707 357.29 151.8C358.103 151.973 358.803 152.16 359.39 152.36C359.99 152.56 360.457 152.853 360.79 153.24C361.123 153.613 361.283 154.16 361.27 154.88C361.283 155.533 361.11 156.113 360.75 156.62C360.403 157.127 359.903 157.527 359.25 157.82C358.597 158.1 357.817 158.24 356.91 158.24Z" fill="black"/>
<path d="M193.559 158V144H196.559V155.68H202.599V158H193.559ZM203.926 158V147.92H206.926V158H203.926ZM205.426 146.76C204.893 146.76 204.459 146.607 204.126 146.3C203.793 145.993 203.626 145.607 203.626 145.14C203.626 144.66 203.793 144.267 204.126 143.96C204.459 143.653 204.893 143.5 205.426 143.5C205.973 143.5 206.413 143.653 206.746 143.96C207.093 144.267 207.266 144.66 207.266 145.14C207.266 145.607 207.093 145.993 206.746 146.3C206.413 146.607 205.973 146.76 205.426 146.76ZM208.57 158V147.92H211.19L211.43 149.54C211.736 148.98 212.17 148.533 212.73 148.2C213.29 147.853 213.97 147.68 214.77 147.68C215.61 147.68 216.316 147.86 216.89 148.22C217.463 148.58 217.896 149.1 218.19 149.78C218.496 150.447 218.65 151.267 218.65 152.24V158H215.67V152.52C215.67 151.787 215.51 151.22 215.19 150.82C214.883 150.407 214.39 150.2 213.71 150.2C213.31 150.2 212.943 150.3 212.61 150.5C212.29 150.687 212.036 150.96 211.85 151.32C211.663 151.68 211.57 152.113 211.57 152.62V158H208.57ZM226.868 158L222.708 152.48L226.408 147.92H229.948L224.968 153.76V151.36L230.588 158H226.868ZM220.148 158V143.6H223.148V158H220.148ZM234.891 158.24C233.944 158.24 233.124 158.093 232.431 157.8C231.751 157.493 231.211 157.08 230.811 156.56C230.424 156.04 230.204 155.453 230.151 154.8H233.131C233.184 155.027 233.277 155.233 233.411 155.42C233.557 155.593 233.751 155.733 233.991 155.84C234.244 155.933 234.524 155.98 234.831 155.98C235.164 155.98 235.431 155.94 235.631 155.86C235.844 155.767 236.004 155.647 236.111 155.5C236.217 155.353 236.271 155.2 236.271 155.04C236.271 154.787 236.191 154.593 236.031 154.46C235.884 154.327 235.664 154.22 235.371 154.14C235.077 154.047 234.724 153.96 234.311 153.88C233.831 153.773 233.351 153.653 232.871 153.52C232.404 153.373 231.984 153.193 231.611 152.98C231.251 152.767 230.957 152.493 230.731 152.16C230.517 151.813 230.411 151.393 230.411 150.9C230.411 150.3 230.577 149.76 230.911 149.28C231.244 148.787 231.724 148.4 232.351 148.12C232.977 147.827 233.737 147.68 234.631 147.68C235.897 147.68 236.891 147.96 237.611 148.52C238.331 149.08 238.757 149.833 238.891 150.78H236.091C236.011 150.513 235.844 150.313 235.591 150.18C235.337 150.033 235.017 149.96 234.631 149.96C234.191 149.96 233.857 150.033 233.631 150.18C233.404 150.327 233.291 150.52 233.291 150.76C233.291 150.92 233.364 151.067 233.511 151.2C233.671 151.32 233.897 151.427 234.191 151.52C234.484 151.613 234.844 151.707 235.271 151.8C236.084 151.973 236.784 152.16 237.371 152.36C237.971 152.56 238.437 152.853 238.771 153.24C239.104 153.613 239.264 154.16 239.251 154.88C239.264 155.533 239.091 156.113 238.731 156.62C238.384 157.127 237.884 157.527 237.231 157.82C236.577 158.1 235.797 158.24 234.891 158.24Z" fill="#624DE7"/>
</svg>
