<svg width="396" height="474" viewBox="0 0 396 474" fill="none" xmlns="http://www.w3.org/2000/svg">
<rect width="396" height="474" fill="white"/>
<rect x="54" y="191" width="72" height="39" rx="5" fill="#E1E5EC"/>
<path d="M70.424 216V204.64H71.544V215.008H78.104V216H70.424ZM78.8561 213.6C78.8561 213.077 79.0055 212.629 79.3041 212.256C79.6028 211.872 80.0135 211.579 80.5361 211.376C81.0695 211.163 81.6828 211.056 82.3761 211.056C82.7815 211.056 83.2028 211.088 83.6401 211.152C84.0775 211.216 84.4668 211.312 84.8081 211.44V210.736C84.8081 210.032 84.6001 209.472 84.1841 209.056C83.7681 208.64 83.1921 208.432 82.4561 208.432C82.0081 208.432 81.5655 208.517 81.1281 208.688C80.7015 208.848 80.2535 209.088 79.7841 209.408L79.3681 208.64C79.9121 208.267 80.4455 207.989 80.9681 207.808C81.4908 207.616 82.0241 207.52 82.5681 207.52C83.5921 207.52 84.4028 207.813 85.0001 208.4C85.5975 208.987 85.8961 209.797 85.8961 210.832V214.688C85.8961 214.837 85.9281 214.949 85.9921 215.024C86.0561 215.088 86.1575 215.125 86.2961 215.136V216C86.1788 216.011 86.0775 216.021 85.9921 216.032C85.9068 216.043 85.8428 216.043 85.8001 216.032C85.5335 216.021 85.3308 215.936 85.1921 215.776C85.0535 215.616 84.9788 215.445 84.9681 215.264L84.9521 214.656C84.5788 215.136 84.0935 215.509 83.4961 215.776C82.8988 216.032 82.2908 216.16 81.6721 216.16C81.1388 216.16 80.6535 216.048 80.2161 215.824C79.7895 215.589 79.4535 215.28 79.2081 214.896C78.9735 214.501 78.8561 214.069 78.8561 213.6ZM84.4401 214.24C84.5575 214.091 84.6481 213.947 84.7121 213.808C84.7761 213.669 84.8081 213.547 84.8081 213.44V212.224C84.4455 212.085 84.0668 211.979 83.6721 211.904C83.2881 211.829 82.8988 211.792 82.5041 211.792C81.7255 211.792 81.0961 211.947 80.6161 212.256C80.1361 212.565 79.8961 212.987 79.8961 213.52C79.8961 213.829 79.9761 214.123 80.1361 214.4C80.2961 214.667 80.5308 214.891 80.8401 215.072C81.1495 215.243 81.5121 215.328 81.9281 215.328C82.4508 215.328 82.9361 215.227 83.3841 215.024C83.8428 214.821 84.1948 214.56 84.4401 214.24ZM92.3269 216.16C91.6762 216.16 91.0735 215.995 90.5189 215.664C89.9642 215.323 89.5322 214.896 89.2229 214.384V216H88.2469V204.32H89.3349V209.408C89.7082 208.843 90.1562 208.389 90.6789 208.048C91.2015 207.696 91.8095 207.52 92.5029 207.52C93.0895 207.52 93.6122 207.643 94.0709 207.888C94.5402 208.133 94.9402 208.464 95.2709 208.88C95.6015 209.285 95.8522 209.749 96.0229 210.272C96.1935 210.784 96.2789 211.312 96.2789 211.856C96.2789 212.443 96.1775 212.992 95.9749 213.504C95.7829 214.016 95.5055 214.475 95.1429 214.88C94.7802 215.275 94.3589 215.589 93.8789 215.824C93.4095 216.048 92.8922 216.16 92.3269 216.16ZM92.0709 215.2C92.5189 215.2 92.9349 215.109 93.3189 214.928C93.7029 214.747 94.0335 214.496 94.3109 214.176C94.5882 213.856 94.8015 213.499 94.9509 213.104C95.1002 212.699 95.1749 212.283 95.1749 211.856C95.1749 211.269 95.0469 210.72 94.7909 210.208C94.5455 209.685 94.1989 209.269 93.7509 208.96C93.3135 208.64 92.7962 208.48 92.1989 208.48C91.7722 208.48 91.3722 208.576 90.9989 208.768C90.6362 208.96 90.3109 209.216 90.0229 209.536C89.7455 209.845 89.5162 210.187 89.3349 210.56V213.152C89.3775 213.44 89.4895 213.712 89.6709 213.968C89.8522 214.213 90.0762 214.427 90.3429 214.608C90.6202 214.789 90.9082 214.933 91.2069 215.04C91.5055 215.147 91.7935 215.2 92.0709 215.2ZM101.722 216.16C101.125 216.16 100.57 216.048 100.058 215.824C99.5459 215.589 99.1032 215.275 98.7299 214.88C98.3565 214.475 98.0632 214.011 97.8499 213.488C97.6472 212.965 97.5459 212.405 97.5459 211.808C97.5459 211.029 97.7219 210.315 98.0739 209.664C98.4365 209.013 98.9325 208.496 99.5619 208.112C100.191 207.717 100.906 207.52 101.706 207.52C102.527 207.52 103.242 207.717 103.85 208.112C104.469 208.507 104.954 209.029 105.306 209.68C105.658 210.32 105.834 211.024 105.834 211.792C105.834 211.877 105.834 211.963 105.834 212.048C105.834 212.123 105.829 212.181 105.818 212.224H98.6819C98.7352 212.821 98.9005 213.355 99.1779 213.824C99.4659 214.283 99.8339 214.651 100.282 214.928C100.741 215.195 101.237 215.328 101.77 215.328C102.314 215.328 102.826 215.189 103.306 214.912C103.797 214.635 104.138 214.272 104.33 213.824L105.274 214.08C105.103 214.475 104.842 214.832 104.49 215.152C104.138 215.472 103.722 215.723 103.242 215.904C102.773 216.075 102.266 216.16 101.722 216.16ZM98.6499 211.44H104.81C104.767 210.832 104.602 210.299 104.314 209.84C104.037 209.381 103.669 209.024 103.21 208.768C102.762 208.501 102.266 208.368 101.722 208.368C101.178 208.368 100.682 208.501 100.234 208.768C99.7859 209.024 99.4179 209.387 99.1299 209.856C98.8525 210.315 98.6925 210.843 98.6499 211.44ZM107.561 204.32H108.649V214.112C108.649 214.528 108.723 214.8 108.873 214.928C109.022 215.056 109.203 215.12 109.417 215.12C109.609 215.12 109.801 215.099 109.993 215.056C110.185 215.013 110.35 214.971 110.489 214.928L110.681 215.808C110.478 215.893 110.227 215.963 109.929 216.016C109.641 216.069 109.39 216.096 109.177 216.096C108.686 216.096 108.291 215.952 107.993 215.664C107.705 215.376 107.561 214.981 107.561 214.48V204.32Z" fill="black"/>
<rect x="54" y="290" width="72" height="39" rx="5" fill="#9ECB3A"/>
<path d="M70.424 315V303.64H71.544V314.008H78.104V315H70.424ZM78.8561 312.6C78.8561 312.077 79.0055 311.629 79.3041 311.256C79.6028 310.872 80.0135 310.579 80.5361 310.376C81.0695 310.163 81.6828 310.056 82.3761 310.056C82.7815 310.056 83.2028 310.088 83.6401 310.152C84.0775 310.216 84.4668 310.312 84.8081 310.44V309.736C84.8081 309.032 84.6001 308.472 84.1841 308.056C83.7681 307.64 83.1921 307.432 82.4561 307.432C82.0081 307.432 81.5655 307.517 81.1281 307.688C80.7015 307.848 80.2535 308.088 79.7841 308.408L79.3681 307.64C79.9121 307.267 80.4455 306.989 80.9681 306.808C81.4908 306.616 82.0241 306.52 82.5681 306.52C83.5921 306.52 84.4028 306.813 85.0001 307.4C85.5975 307.987 85.8961 308.797 85.8961 309.832V313.688C85.8961 313.837 85.9281 313.949 85.9921 314.024C86.0561 314.088 86.1575 314.125 86.2961 314.136V315C86.1788 315.011 86.0775 315.021 85.9921 315.032C85.9068 315.043 85.8428 315.043 85.8001 315.032C85.5335 315.021 85.3308 314.936 85.1921 314.776C85.0535 314.616 84.9788 314.445 84.9681 314.264L84.9521 313.656C84.5788 314.136 84.0935 314.509 83.4961 314.776C82.8988 315.032 82.2908 315.16 81.6721 315.16C81.1388 315.16 80.6535 315.048 80.2161 314.824C79.7895 314.589 79.4535 314.28 79.2081 313.896C78.9735 313.501 78.8561 313.069 78.8561 312.6ZM84.4401 313.24C84.5575 313.091 84.6481 312.947 84.7121 312.808C84.7761 312.669 84.8081 312.547 84.8081 312.44V311.224C84.4455 311.085 84.0668 310.979 83.6721 310.904C83.2881 310.829 82.8988 310.792 82.5041 310.792C81.7255 310.792 81.0961 310.947 80.6161 311.256C80.1361 311.565 79.8961 311.987 79.8961 312.52C79.8961 312.829 79.9761 313.123 80.1361 313.4C80.2961 313.667 80.5308 313.891 80.8401 314.072C81.1495 314.243 81.5121 314.328 81.9281 314.328C82.4508 314.328 82.9361 314.227 83.3841 314.024C83.8428 313.821 84.1948 313.56 84.4401 313.24ZM92.3269 315.16C91.6762 315.16 91.0735 314.995 90.5189 314.664C89.9642 314.323 89.5322 313.896 89.2229 313.384V315H88.2469V303.32H89.3349V308.408C89.7082 307.843 90.1562 307.389 90.6789 307.048C91.2015 306.696 91.8095 306.52 92.5029 306.52C93.0895 306.52 93.6122 306.643 94.0709 306.888C94.5402 307.133 94.9402 307.464 95.2709 307.88C95.6015 308.285 95.8522 308.749 96.0229 309.272C96.1935 309.784 96.2789 310.312 96.2789 310.856C96.2789 311.443 96.1775 311.992 95.9749 312.504C95.7829 313.016 95.5055 313.475 95.1429 313.88C94.7802 314.275 94.3589 314.589 93.8789 314.824C93.4095 315.048 92.8922 315.16 92.3269 315.16ZM92.0709 314.2C92.5189 314.2 92.9349 314.109 93.3189 313.928C93.7029 313.747 94.0335 313.496 94.3109 313.176C94.5882 312.856 94.8015 312.499 94.9509 312.104C95.1002 311.699 95.1749 311.283 95.1749 310.856C95.1749 310.269 95.0469 309.72 94.7909 309.208C94.5455 308.685 94.1989 308.269 93.7509 307.96C93.3135 307.64 92.7962 307.48 92.1989 307.48C91.7722 307.48 91.3722 307.576 90.9989 307.768C90.6362 307.96 90.3109 308.216 90.0229 308.536C89.7455 308.845 89.5162 309.187 89.3349 309.56V312.152C89.3775 312.44 89.4895 312.712 89.6709 312.968C89.8522 313.213 90.0762 313.427 90.3429 313.608C90.6202 313.789 90.9082 313.933 91.2069 314.04C91.5055 314.147 91.7935 314.2 92.0709 314.2ZM101.722 315.16C101.125 315.16 100.57 315.048 100.058 314.824C99.5459 314.589 99.1032 314.275 98.7299 313.88C98.3565 313.475 98.0632 313.011 97.8499 312.488C97.6472 311.965 97.5459 311.405 97.5459 310.808C97.5459 310.029 97.7219 309.315 98.0739 308.664C98.4365 308.013 98.9325 307.496 99.5619 307.112C100.191 306.717 100.906 306.52 101.706 306.52C102.527 306.52 103.242 306.717 103.85 307.112C104.469 307.507 104.954 308.029 105.306 308.68C105.658 309.32 105.834 310.024 105.834 310.792C105.834 310.877 105.834 310.963 105.834 311.048C105.834 311.123 105.829 311.181 105.818 311.224H98.6819C98.7352 311.821 98.9005 312.355 99.1779 312.824C99.4659 313.283 99.8339 313.651 100.282 313.928C100.741 314.195 101.237 314.328 101.77 314.328C102.314 314.328 102.826 314.189 103.306 313.912C103.797 313.635 104.138 313.272 104.33 312.824L105.274 313.08C105.103 313.475 104.842 313.832 104.49 314.152C104.138 314.472 103.722 314.723 103.242 314.904C102.773 315.075 102.266 315.16 101.722 315.16ZM98.6499 310.44H104.81C104.767 309.832 104.602 309.299 104.314 308.84C104.037 308.381 103.669 308.024 103.21 307.768C102.762 307.501 102.266 307.368 101.722 307.368C101.178 307.368 100.682 307.501 100.234 307.768C99.7859 308.024 99.4179 308.387 99.1299 308.856C98.8525 309.315 98.6925 309.843 98.6499 310.44ZM107.561 303.32H108.649V313.112C108.649 313.528 108.723 313.8 108.873 313.928C109.022 314.056 109.203 314.12 109.417 314.12C109.609 314.12 109.801 314.099 109.993 314.056C110.185 314.013 110.35 313.971 110.489 313.928L110.681 314.808C110.478 314.893 110.227 314.963 109.929 315.016C109.641 315.069 109.39 315.096 109.177 315.096C108.686 315.096 108.291 314.952 107.993 314.664C107.705 314.376 107.561 313.981 107.561 313.48V303.32Z" fill="white"/>
<rect x="54.5" y="389.5" width="71" height="38" rx="4.5" stroke="#9ECB3A"/>
<path d="M70.424 414V402.64H71.544V413.008H78.104V414H70.424ZM78.8561 411.6C78.8561 411.077 79.0055 410.629 79.3041 410.256C79.6028 409.872 80.0135 409.579 80.5361 409.376C81.0695 409.163 81.6828 409.056 82.3761 409.056C82.7815 409.056 83.2028 409.088 83.6401 409.152C84.0775 409.216 84.4668 409.312 84.8081 409.44V408.736C84.8081 408.032 84.6001 407.472 84.1841 407.056C83.7681 406.64 83.1921 406.432 82.4561 406.432C82.0081 406.432 81.5655 406.517 81.1281 406.688C80.7015 406.848 80.2535 407.088 79.7841 407.408L79.3681 406.64C79.9121 406.267 80.4455 405.989 80.9681 405.808C81.4908 405.616 82.0241 405.52 82.5681 405.52C83.5921 405.52 84.4028 405.813 85.0001 406.4C85.5975 406.987 85.8961 407.797 85.8961 408.832V412.688C85.8961 412.837 85.9281 412.949 85.9921 413.024C86.0561 413.088 86.1575 413.125 86.2961 413.136V414C86.1788 414.011 86.0775 414.021 85.9921 414.032C85.9068 414.043 85.8428 414.043 85.8001 414.032C85.5335 414.021 85.3308 413.936 85.1921 413.776C85.0535 413.616 84.9788 413.445 84.9681 413.264L84.9521 412.656C84.5788 413.136 84.0935 413.509 83.4961 413.776C82.8988 414.032 82.2908 414.16 81.6721 414.16C81.1388 414.16 80.6535 414.048 80.2161 413.824C79.7895 413.589 79.4535 413.28 79.2081 412.896C78.9735 412.501 78.8561 412.069 78.8561 411.6ZM84.4401 412.24C84.5575 412.091 84.6481 411.947 84.7121 411.808C84.7761 411.669 84.8081 411.547 84.8081 411.44V410.224C84.4455 410.085 84.0668 409.979 83.6721 409.904C83.2881 409.829 82.8988 409.792 82.5041 409.792C81.7255 409.792 81.0961 409.947 80.6161 410.256C80.1361 410.565 79.8961 410.987 79.8961 411.52C79.8961 411.829 79.9761 412.123 80.1361 412.4C80.2961 412.667 80.5308 412.891 80.8401 413.072C81.1495 413.243 81.5121 413.328 81.9281 413.328C82.4508 413.328 82.9361 413.227 83.3841 413.024C83.8428 412.821 84.1948 412.56 84.4401 412.24ZM92.3269 414.16C91.6762 414.16 91.0735 413.995 90.5189 413.664C89.9642 413.323 89.5322 412.896 89.2229 412.384V414H88.2469V402.32H89.3349V407.408C89.7082 406.843 90.1562 406.389 90.6789 406.048C91.2015 405.696 91.8095 405.52 92.5029 405.52C93.0895 405.52 93.6122 405.643 94.0709 405.888C94.5402 406.133 94.9402 406.464 95.2709 406.88C95.6015 407.285 95.8522 407.749 96.0229 408.272C96.1935 408.784 96.2789 409.312 96.2789 409.856C96.2789 410.443 96.1775 410.992 95.9749 411.504C95.7829 412.016 95.5055 412.475 95.1429 412.88C94.7802 413.275 94.3589 413.589 93.8789 413.824C93.4095 414.048 92.8922 414.16 92.3269 414.16ZM92.0709 413.2C92.5189 413.2 92.9349 413.109 93.3189 412.928C93.7029 412.747 94.0335 412.496 94.3109 412.176C94.5882 411.856 94.8015 411.499 94.9509 411.104C95.1002 410.699 95.1749 410.283 95.1749 409.856C95.1749 409.269 95.0469 408.72 94.7909 408.208C94.5455 407.685 94.1989 407.269 93.7509 406.96C93.3135 406.64 92.7962 406.48 92.1989 406.48C91.7722 406.48 91.3722 406.576 90.9989 406.768C90.6362 406.96 90.3109 407.216 90.0229 407.536C89.7455 407.845 89.5162 408.187 89.3349 408.56V411.152C89.3775 411.44 89.4895 411.712 89.6709 411.968C89.8522 412.213 90.0762 412.427 90.3429 412.608C90.6202 412.789 90.9082 412.933 91.2069 413.04C91.5055 413.147 91.7935 413.2 92.0709 413.2ZM101.722 414.16C101.125 414.16 100.57 414.048 100.058 413.824C99.5459 413.589 99.1032 413.275 98.7299 412.88C98.3565 412.475 98.0632 412.011 97.8499 411.488C97.6472 410.965 97.5459 410.405 97.5459 409.808C97.5459 409.029 97.7219 408.315 98.0739 407.664C98.4365 407.013 98.9325 406.496 99.5619 406.112C100.191 405.717 100.906 405.52 101.706 405.52C102.527 405.52 103.242 405.717 103.85 406.112C104.469 406.507 104.954 407.029 105.306 407.68C105.658 408.32 105.834 409.024 105.834 409.792C105.834 409.877 105.834 409.963 105.834 410.048C105.834 410.123 105.829 410.181 105.818 410.224H98.6819C98.7352 410.821 98.9005 411.355 99.1779 411.824C99.4659 412.283 99.8339 412.651 100.282 412.928C100.741 413.195 101.237 413.328 101.77 413.328C102.314 413.328 102.826 413.189 103.306 412.912C103.797 412.635 104.138 412.272 104.33 411.824L105.274 412.08C105.103 412.475 104.842 412.832 104.49 413.152C104.138 413.472 103.722 413.723 103.242 413.904C102.773 414.075 102.266 414.16 101.722 414.16ZM98.6499 409.44H104.81C104.767 408.832 104.602 408.299 104.314 407.84C104.037 407.381 103.669 407.024 103.21 406.768C102.762 406.501 102.266 406.368 101.722 406.368C101.178 406.368 100.682 406.501 100.234 406.768C99.7859 407.024 99.4179 407.387 99.1299 407.856C98.8525 408.315 98.6925 408.843 98.6499 409.44ZM107.561 402.32H108.649V412.112C108.649 412.528 108.723 412.8 108.873 412.928C109.022 413.056 109.203 413.12 109.417 413.12C109.609 413.12 109.801 413.099 109.993 413.056C110.185 413.013 110.35 412.971 110.489 412.928L110.681 413.808C110.478 413.893 110.227 413.963 109.929 414.016C109.641 414.069 109.39 414.096 109.177 414.096C108.686 414.096 108.291 413.952 107.993 413.664C107.705 413.376 107.561 412.981 107.561 412.48V402.32Z" fill="#333333"/>
<rect x="264.5" y="389.5" width="71" height="38" rx="4.5" fill="#CFE59C"/>
<rect x="264.5" y="389.5" width="71" height="38" rx="4.5" stroke="#9ECB3A"/>
<path d="M280.424 414V402.64H281.544V413.008H288.104V414H280.424ZM288.856 411.6C288.856 411.077 289.005 410.629 289.304 410.256C289.603 409.872 290.013 409.579 290.536 409.376C291.069 409.163 291.683 409.056 292.376 409.056C292.781 409.056 293.203 409.088 293.64 409.152C294.077 409.216 294.467 409.312 294.808 409.44V408.736C294.808 408.032 294.6 407.472 294.184 407.056C293.768 406.64 293.192 406.432 292.456 406.432C292.008 406.432 291.565 406.517 291.128 406.688C290.701 406.848 290.253 407.088 289.784 407.408L289.368 406.64C289.912 406.267 290.445 405.989 290.968 405.808C291.491 405.616 292.024 405.52 292.568 405.52C293.592 405.52 294.403 405.813 295 406.4C295.597 406.987 295.896 407.797 295.896 408.832V412.688C295.896 412.837 295.928 412.949 295.992 413.024C296.056 413.088 296.157 413.125 296.296 413.136V414C296.179 414.011 296.077 414.021 295.992 414.032C295.907 414.043 295.843 414.043 295.8 414.032C295.533 414.021 295.331 413.936 295.192 413.776C295.053 413.616 294.979 413.445 294.968 413.264L294.952 412.656C294.579 413.136 294.093 413.509 293.496 413.776C292.899 414.032 292.291 414.16 291.672 414.16C291.139 414.16 290.653 414.048 290.216 413.824C289.789 413.589 289.453 413.28 289.208 412.896C288.973 412.501 288.856 412.069 288.856 411.6ZM294.44 412.24C294.557 412.091 294.648 411.947 294.712 411.808C294.776 411.669 294.808 411.547 294.808 411.44V410.224C294.445 410.085 294.067 409.979 293.672 409.904C293.288 409.829 292.899 409.792 292.504 409.792C291.725 409.792 291.096 409.947 290.616 410.256C290.136 410.565 289.896 410.987 289.896 411.52C289.896 411.829 289.976 412.123 290.136 412.4C290.296 412.667 290.531 412.891 290.84 413.072C291.149 413.243 291.512 413.328 291.928 413.328C292.451 413.328 292.936 413.227 293.384 413.024C293.843 412.821 294.195 412.56 294.44 412.24ZM302.327 414.16C301.676 414.16 301.074 413.995 300.519 413.664C299.964 413.323 299.532 412.896 299.223 412.384V414H298.247V402.32H299.335V407.408C299.708 406.843 300.156 406.389 300.679 406.048C301.202 405.696 301.81 405.52 302.503 405.52C303.09 405.52 303.612 405.643 304.071 405.888C304.54 406.133 304.94 406.464 305.271 406.88C305.602 407.285 305.852 407.749 306.023 408.272C306.194 408.784 306.279 409.312 306.279 409.856C306.279 410.443 306.178 410.992 305.975 411.504C305.783 412.016 305.506 412.475 305.143 412.88C304.78 413.275 304.359 413.589 303.879 413.824C303.41 414.048 302.892 414.16 302.327 414.16ZM302.071 413.2C302.519 413.2 302.935 413.109 303.319 412.928C303.703 412.747 304.034 412.496 304.311 412.176C304.588 411.856 304.802 411.499 304.951 411.104C305.1 410.699 305.175 410.283 305.175 409.856C305.175 409.269 305.047 408.72 304.791 408.208C304.546 407.685 304.199 407.269 303.751 406.96C303.314 406.64 302.796 406.48 302.199 406.48C301.772 406.48 301.372 406.576 300.999 406.768C300.636 406.96 300.311 407.216 300.023 407.536C299.746 407.845 299.516 408.187 299.335 408.56V411.152C299.378 411.44 299.49 411.712 299.671 411.968C299.852 412.213 300.076 412.427 300.343 412.608C300.62 412.789 300.908 412.933 301.207 413.04C301.506 413.147 301.794 413.2 302.071 413.2ZM311.722 414.16C311.125 414.16 310.57 414.048 310.058 413.824C309.546 413.589 309.103 413.275 308.73 412.88C308.357 412.475 308.063 412.011 307.85 411.488C307.647 410.965 307.546 410.405 307.546 409.808C307.546 409.029 307.722 408.315 308.074 407.664C308.437 407.013 308.933 406.496 309.562 406.112C310.191 405.717 310.906 405.52 311.706 405.52C312.527 405.52 313.242 405.717 313.85 406.112C314.469 406.507 314.954 407.029 315.306 407.68C315.658 408.32 315.834 409.024 315.834 409.792C315.834 409.877 315.834 409.963 315.834 410.048C315.834 410.123 315.829 410.181 315.818 410.224H308.682C308.735 410.821 308.901 411.355 309.178 411.824C309.466 412.283 309.834 412.651 310.282 412.928C310.741 413.195 311.237 413.328 311.77 413.328C312.314 413.328 312.826 413.189 313.306 412.912C313.797 412.635 314.138 412.272 314.33 411.824L315.274 412.08C315.103 412.475 314.842 412.832 314.49 413.152C314.138 413.472 313.722 413.723 313.242 413.904C312.773 414.075 312.266 414.16 311.722 414.16ZM308.65 409.44H314.81C314.767 408.832 314.602 408.299 314.314 407.84C314.037 407.381 313.669 407.024 313.21 406.768C312.762 406.501 312.266 406.368 311.722 406.368C311.178 406.368 310.682 406.501 310.234 406.768C309.786 407.024 309.418 407.387 309.13 407.856C308.853 408.315 308.693 408.843 308.65 409.44ZM317.561 402.32H318.649V412.112C318.649 412.528 318.723 412.8 318.873 412.928C319.022 413.056 319.203 413.12 319.417 413.12C319.609 413.12 319.801 413.099 319.993 413.056C320.185 413.013 320.35 412.971 320.489 412.928L320.681 413.808C320.478 413.893 320.227 413.963 319.929 414.016C319.641 414.069 319.39 414.096 319.177 414.096C318.686 414.096 318.291 413.952 317.993 413.664C317.705 413.376 317.561 412.981 317.561 412.48V402.32Z" fill="#333333"/>
<rect x="264" y="290" width="72" height="39" rx="5" fill="#2E4B7B"/>
<path d="M280.424 315V303.64H281.544V314.008H288.104V315H280.424ZM288.856 312.6C288.856 312.077 289.005 311.629 289.304 311.256C289.603 310.872 290.013 310.579 290.536 310.376C291.069 310.163 291.683 310.056 292.376 310.056C292.781 310.056 293.203 310.088 293.64 310.152C294.077 310.216 294.467 310.312 294.808 310.44V309.736C294.808 309.032 294.6 308.472 294.184 308.056C293.768 307.64 293.192 307.432 292.456 307.432C292.008 307.432 291.565 307.517 291.128 307.688C290.701 307.848 290.253 308.088 289.784 308.408L289.368 307.64C289.912 307.267 290.445 306.989 290.968 306.808C291.491 306.616 292.024 306.52 292.568 306.52C293.592 306.52 294.403 306.813 295 307.4C295.597 307.987 295.896 308.797 295.896 309.832V313.688C295.896 313.837 295.928 313.949 295.992 314.024C296.056 314.088 296.157 314.125 296.296 314.136V315C296.179 315.011 296.077 315.021 295.992 315.032C295.907 315.043 295.843 315.043 295.8 315.032C295.533 315.021 295.331 314.936 295.192 314.776C295.053 314.616 294.979 314.445 294.968 314.264L294.952 313.656C294.579 314.136 294.093 314.509 293.496 314.776C292.899 315.032 292.291 315.16 291.672 315.16C291.139 315.16 290.653 315.048 290.216 314.824C289.789 314.589 289.453 314.28 289.208 313.896C288.973 313.501 288.856 313.069 288.856 312.6ZM294.44 313.24C294.557 313.091 294.648 312.947 294.712 312.808C294.776 312.669 294.808 312.547 294.808 312.44V311.224C294.445 311.085 294.067 310.979 293.672 310.904C293.288 310.829 292.899 310.792 292.504 310.792C291.725 310.792 291.096 310.947 290.616 311.256C290.136 311.565 289.896 311.987 289.896 312.52C289.896 312.829 289.976 313.123 290.136 313.4C290.296 313.667 290.531 313.891 290.84 314.072C291.149 314.243 291.512 314.328 291.928 314.328C292.451 314.328 292.936 314.227 293.384 314.024C293.843 313.821 294.195 313.56 294.44 313.24ZM302.327 315.16C301.676 315.16 301.074 314.995 300.519 314.664C299.964 314.323 299.532 313.896 299.223 313.384V315H298.247V303.32H299.335V308.408C299.708 307.843 300.156 307.389 300.679 307.048C301.202 306.696 301.81 306.52 302.503 306.52C303.09 306.52 303.612 306.643 304.071 306.888C304.54 307.133 304.94 307.464 305.271 307.88C305.602 308.285 305.852 308.749 306.023 309.272C306.194 309.784 306.279 310.312 306.279 310.856C306.279 311.443 306.178 311.992 305.975 312.504C305.783 313.016 305.506 313.475 305.143 313.88C304.78 314.275 304.359 314.589 303.879 314.824C303.41 315.048 302.892 315.16 302.327 315.16ZM302.071 314.2C302.519 314.2 302.935 314.109 303.319 313.928C303.703 313.747 304.034 313.496 304.311 313.176C304.588 312.856 304.802 312.499 304.951 312.104C305.1 311.699 305.175 311.283 305.175 310.856C305.175 310.269 305.047 309.72 304.791 309.208C304.546 308.685 304.199 308.269 303.751 307.96C303.314 307.64 302.796 307.48 302.199 307.48C301.772 307.48 301.372 307.576 300.999 307.768C300.636 307.96 300.311 308.216 300.023 308.536C299.746 308.845 299.516 309.187 299.335 309.56V312.152C299.378 312.44 299.49 312.712 299.671 312.968C299.852 313.213 300.076 313.427 300.343 313.608C300.62 313.789 300.908 313.933 301.207 314.04C301.506 314.147 301.794 314.2 302.071 314.2ZM311.722 315.16C311.125 315.16 310.57 315.048 310.058 314.824C309.546 314.589 309.103 314.275 308.73 313.88C308.357 313.475 308.063 313.011 307.85 312.488C307.647 311.965 307.546 311.405 307.546 310.808C307.546 310.029 307.722 309.315 308.074 308.664C308.437 308.013 308.933 307.496 309.562 307.112C310.191 306.717 310.906 306.52 311.706 306.52C312.527 306.52 313.242 306.717 313.85 307.112C314.469 307.507 314.954 308.029 315.306 308.68C315.658 309.32 315.834 310.024 315.834 310.792C315.834 310.877 315.834 310.963 315.834 311.048C315.834 311.123 315.829 311.181 315.818 311.224H308.682C308.735 311.821 308.901 312.355 309.178 312.824C309.466 313.283 309.834 313.651 310.282 313.928C310.741 314.195 311.237 314.328 311.77 314.328C312.314 314.328 312.826 314.189 313.306 313.912C313.797 313.635 314.138 313.272 314.33 312.824L315.274 313.08C315.103 313.475 314.842 313.832 314.49 314.152C314.138 314.472 313.722 314.723 313.242 314.904C312.773 315.075 312.266 315.16 311.722 315.16ZM308.65 310.44H314.81C314.767 309.832 314.602 309.299 314.314 308.84C314.037 308.381 313.669 308.024 313.21 307.768C312.762 307.501 312.266 307.368 311.722 307.368C311.178 307.368 310.682 307.501 310.234 307.768C309.786 308.024 309.418 308.387 309.13 308.856C308.853 309.315 308.693 309.843 308.65 310.44ZM317.561 303.32H318.649V313.112C318.649 313.528 318.723 313.8 318.873 313.928C319.022 314.056 319.203 314.12 319.417 314.12C319.609 314.12 319.801 314.099 319.993 314.056C320.185 314.013 320.35 313.971 320.489 313.928L320.681 314.808C320.478 314.893 320.227 314.963 319.929 315.016C319.641 315.069 319.39 315.096 319.177 315.096C318.686 315.096 318.291 314.952 317.993 314.664C317.705 314.376 317.561 313.981 317.561 313.48V303.32Z" fill="white"/>
<rect x="264" y="191" width="72" height="39" rx="5" fill="#CFD4DD"/>
<path d="M280.424 216V204.64H281.544V215.008H288.104V216H280.424ZM288.856 213.6C288.856 213.077 289.005 212.629 289.304 212.256C289.603 211.872 290.013 211.579 290.536 211.376C291.069 211.163 291.683 211.056 292.376 211.056C292.781 211.056 293.203 211.088 293.64 211.152C294.077 211.216 294.467 211.312 294.808 211.44V210.736C294.808 210.032 294.6 209.472 294.184 209.056C293.768 208.64 293.192 208.432 292.456 208.432C292.008 208.432 291.565 208.517 291.128 208.688C290.701 208.848 290.253 209.088 289.784 209.408L289.368 208.64C289.912 208.267 290.445 207.989 290.968 207.808C291.491 207.616 292.024 207.52 292.568 207.52C293.592 207.52 294.403 207.813 295 208.4C295.597 208.987 295.896 209.797 295.896 210.832V214.688C295.896 214.837 295.928 214.949 295.992 215.024C296.056 215.088 296.157 215.125 296.296 215.136V216C296.179 216.011 296.077 216.021 295.992 216.032C295.907 216.043 295.843 216.043 295.8 216.032C295.533 216.021 295.331 215.936 295.192 215.776C295.053 215.616 294.979 215.445 294.968 215.264L294.952 214.656C294.579 215.136 294.093 215.509 293.496 215.776C292.899 216.032 292.291 216.16 291.672 216.16C291.139 216.16 290.653 216.048 290.216 215.824C289.789 215.589 289.453 215.28 289.208 214.896C288.973 214.501 288.856 214.069 288.856 213.6ZM294.44 214.24C294.557 214.091 294.648 213.947 294.712 213.808C294.776 213.669 294.808 213.547 294.808 213.44V212.224C294.445 212.085 294.067 211.979 293.672 211.904C293.288 211.829 292.899 211.792 292.504 211.792C291.725 211.792 291.096 211.947 290.616 212.256C290.136 212.565 289.896 212.987 289.896 213.52C289.896 213.829 289.976 214.123 290.136 214.4C290.296 214.667 290.531 214.891 290.84 215.072C291.149 215.243 291.512 215.328 291.928 215.328C292.451 215.328 292.936 215.227 293.384 215.024C293.843 214.821 294.195 214.56 294.44 214.24ZM302.327 216.16C301.676 216.16 301.074 215.995 300.519 215.664C299.964 215.323 299.532 214.896 299.223 214.384V216H298.247V204.32H299.335V209.408C299.708 208.843 300.156 208.389 300.679 208.048C301.202 207.696 301.81 207.52 302.503 207.52C303.09 207.52 303.612 207.643 304.071 207.888C304.54 208.133 304.94 208.464 305.271 208.88C305.602 209.285 305.852 209.749 306.023 210.272C306.194 210.784 306.279 211.312 306.279 211.856C306.279 212.443 306.178 212.992 305.975 213.504C305.783 214.016 305.506 214.475 305.143 214.88C304.78 215.275 304.359 215.589 303.879 215.824C303.41 216.048 302.892 216.16 302.327 216.16ZM302.071 215.2C302.519 215.2 302.935 215.109 303.319 214.928C303.703 214.747 304.034 214.496 304.311 214.176C304.588 213.856 304.802 213.499 304.951 213.104C305.1 212.699 305.175 212.283 305.175 211.856C305.175 211.269 305.047 210.72 304.791 210.208C304.546 209.685 304.199 209.269 303.751 208.96C303.314 208.64 302.796 208.48 302.199 208.48C301.772 208.48 301.372 208.576 300.999 208.768C300.636 208.96 300.311 209.216 300.023 209.536C299.746 209.845 299.516 210.187 299.335 210.56V213.152C299.378 213.44 299.49 213.712 299.671 213.968C299.852 214.213 300.076 214.427 300.343 214.608C300.62 214.789 300.908 214.933 301.207 215.04C301.506 215.147 301.794 215.2 302.071 215.2ZM311.722 216.16C311.125 216.16 310.57 216.048 310.058 215.824C309.546 215.589 309.103 215.275 308.73 214.88C308.357 214.475 308.063 214.011 307.85 213.488C307.647 212.965 307.546 212.405 307.546 211.808C307.546 211.029 307.722 210.315 308.074 209.664C308.437 209.013 308.933 208.496 309.562 208.112C310.191 207.717 310.906 207.52 311.706 207.52C312.527 207.52 313.242 207.717 313.85 208.112C314.469 208.507 314.954 209.029 315.306 209.68C315.658 210.32 315.834 211.024 315.834 211.792C315.834 211.877 315.834 211.963 315.834 212.048C315.834 212.123 315.829 212.181 315.818 212.224H308.682C308.735 212.821 308.901 213.355 309.178 213.824C309.466 214.283 309.834 214.651 310.282 214.928C310.741 215.195 311.237 215.328 311.77 215.328C312.314 215.328 312.826 215.189 313.306 214.912C313.797 214.635 314.138 214.272 314.33 213.824L315.274 214.08C315.103 214.475 314.842 214.832 314.49 215.152C314.138 215.472 313.722 215.723 313.242 215.904C312.773 216.075 312.266 216.16 311.722 216.16ZM308.65 211.44H314.81C314.767 210.832 314.602 210.299 314.314 209.84C314.037 209.381 313.669 209.024 313.21 208.768C312.762 208.501 312.266 208.368 311.722 208.368C311.178 208.368 310.682 208.501 310.234 208.768C309.786 209.024 309.418 209.387 309.13 209.856C308.853 210.315 308.693 210.843 308.65 211.44ZM317.561 204.32H318.649V214.112C318.649 214.528 318.723 214.8 318.873 214.928C319.022 215.056 319.203 215.12 319.417 215.12C319.609 215.12 319.801 215.099 319.993 215.056C320.185 215.013 320.35 214.971 320.489 214.928L320.681 215.808C320.478 215.893 320.227 215.963 319.929 216.016C319.641 216.069 319.39 216.096 319.177 216.096C318.686 216.096 318.291 215.952 317.993 215.664C317.705 215.376 317.561 214.981 317.561 214.48V204.32Z" fill="black"/>
<path d="M66.76 55.34C66.76 56.1 66.56 56.7533 66.16 57.3C65.7733 57.8467 65.2467 58.2667 64.58 58.56C63.9133 58.8533 63.18 59 62.38 59H55.6V44.8H62.92C63.5867 44.8 64.16 44.98 64.64 45.34C65.1333 45.6867 65.5067 46.14 65.76 46.7C66.0267 47.2467 66.16 47.82 66.16 48.42C66.16 49.1133 65.98 49.7667 65.62 50.38C65.2733 50.98 64.7733 51.4267 64.12 51.72C64.9333 51.96 65.5733 52.4 66.04 53.04C66.52 53.6667 66.76 54.4333 66.76 55.34ZM64.46 54.92C64.46 54.52 64.3733 54.16 64.2 53.84C64.04 53.5067 63.8133 53.24 63.52 53.04C63.24 52.8267 62.9067 52.72 62.52 52.72H57.84V57.06H62.38C62.78 57.06 63.1333 56.9667 63.44 56.78C63.76 56.58 64.0067 56.32 64.18 56C64.3667 55.6667 64.46 55.3067 64.46 54.92ZM57.84 46.74V50.92H61.96C62.3333 50.92 62.6667 50.8333 62.96 50.66C63.2533 50.4733 63.4867 50.2267 63.66 49.92C63.8333 49.6 63.92 49.24 63.92 48.84C63.92 48.4267 63.84 48.0667 63.68 47.76C63.52 47.44 63.3 47.1933 63.02 47.02C62.7533 46.8333 62.44 46.74 62.08 46.74H57.84ZM75.0161 59.1C73.8828 59.1 72.9228 58.9067 72.1361 58.52C71.3628 58.1333 70.7361 57.6067 70.2561 56.94C69.7894 56.2733 69.4428 55.5133 69.2161 54.66C69.0028 53.8067 68.8961 52.92 68.8961 52V44.8H71.1361V52C71.1361 52.6533 71.2028 53.2867 71.3361 53.9C71.4694 54.5 71.6828 55.04 71.9761 55.52C72.2694 56 72.6628 56.38 73.1561 56.66C73.6628 56.94 74.2828 57.08 75.0161 57.08C75.7628 57.08 76.3828 56.94 76.8761 56.66C77.3828 56.3667 77.7761 55.98 78.0561 55.5C78.3494 55.0067 78.5628 54.46 78.6961 53.86C78.8294 53.26 78.8961 52.64 78.8961 52V44.8H81.1561V52C81.1561 52.9733 81.0361 53.8933 80.7961 54.76C80.5694 55.6133 80.2094 56.3667 79.7161 57.02C79.2361 57.66 78.6094 58.1667 77.8361 58.54C77.0628 58.9133 76.1228 59.1 75.0161 59.1ZM94.5552 46.78H89.8352V59H87.5752V46.78H82.8352V44.8H94.5552V46.78ZM106.879 46.78H102.159V59H99.8994V46.78H95.1594V44.8H106.879V46.78ZM114.293 59.1C113.266 59.1 112.34 58.9 111.513 58.5C110.686 58.1 109.973 57.56 109.373 56.88C108.773 56.1867 108.306 55.4133 107.973 54.56C107.653 53.6933 107.493 52.8067 107.493 51.9C107.493 50.9533 107.666 50.0533 108.013 49.2C108.36 48.3333 108.84 47.5667 109.453 46.9C110.066 46.22 110.786 45.6867 111.613 45.3C112.453 44.9 113.36 44.7 114.333 44.7C115.346 44.7 116.266 44.9067 117.093 45.32C117.933 45.7333 118.646 46.2867 119.233 46.98C119.833 47.6733 120.293 48.4467 120.613 49.3C120.946 50.1533 121.113 51.0267 121.113 51.92C121.113 52.8667 120.94 53.7733 120.593 54.64C120.26 55.4933 119.786 56.26 119.173 56.94C118.56 57.6067 117.833 58.1333 116.993 58.52C116.166 58.9067 115.266 59.1 114.293 59.1ZM109.773 51.9C109.773 52.5667 109.88 53.2133 110.093 53.84C110.306 54.4667 110.606 55.0267 110.993 55.52C111.393 56 111.873 56.38 112.433 56.66C112.993 56.94 113.62 57.08 114.313 57.08C115.033 57.08 115.673 56.9333 116.233 56.64C116.793 56.3467 117.26 55.9533 117.633 55.46C118.02 54.9533 118.313 54.3933 118.513 53.78C118.713 53.1533 118.813 52.5267 118.813 51.9C118.813 51.2333 118.706 50.5933 118.493 49.98C118.293 49.3533 117.993 48.8 117.593 48.32C117.193 47.8267 116.713 47.44 116.153 47.16C115.606 46.88 114.993 46.74 114.313 46.74C113.593 46.74 112.953 46.8867 112.393 47.18C111.833 47.4733 111.36 47.8667 110.973 48.36C110.586 48.8533 110.286 49.4067 110.073 50.02C109.873 50.6333 109.773 51.26 109.773 51.9ZM125.672 48.96V59H123.432V44.8H125.272L133.312 55.06V44.82H135.572V59H133.612L125.672 48.96ZM147.164 48.14C147.031 47.9933 146.837 47.84 146.584 47.68C146.331 47.5067 146.031 47.3467 145.684 47.2C145.337 47.0533 144.964 46.9333 144.564 46.84C144.164 46.7467 143.751 46.7 143.324 46.7C142.391 46.7 141.697 46.8733 141.244 47.22C140.791 47.5667 140.564 48.0467 140.564 48.66C140.564 49.1133 140.691 49.4733 140.944 49.74C141.197 49.9933 141.584 50.2067 142.104 50.38C142.624 50.5533 143.277 50.74 144.064 50.94C145.024 51.1667 145.857 51.44 146.564 51.76C147.271 52.0667 147.811 52.48 148.184 53C148.557 53.52 148.744 54.2067 148.744 55.06C148.744 55.78 148.611 56.4 148.344 56.92C148.077 57.44 147.704 57.8667 147.224 58.2C146.744 58.52 146.191 58.76 145.564 58.92C144.937 59.0667 144.264 59.14 143.544 59.14C142.837 59.14 142.131 59.0667 141.424 58.92C140.731 58.7733 140.064 58.56 139.424 58.28C138.797 57.9867 138.217 57.6333 137.684 57.22L138.704 55.3C138.877 55.4733 139.124 55.6667 139.444 55.88C139.777 56.08 140.157 56.2733 140.584 56.46C141.024 56.6467 141.497 56.8067 142.004 56.94C142.524 57.06 143.051 57.12 143.584 57.12C144.477 57.12 145.157 56.9667 145.624 56.66C146.104 56.34 146.344 55.8867 146.344 55.3C146.344 54.82 146.191 54.44 145.884 54.16C145.577 53.8667 145.131 53.62 144.544 53.42C143.957 53.22 143.257 53.02 142.444 52.82C141.511 52.5667 140.731 52.2933 140.104 52C139.477 51.6933 139.004 51.3067 138.684 50.84C138.377 50.36 138.224 49.7533 138.224 49.02C138.224 48.0867 138.451 47.3 138.904 46.66C139.357 46.0067 139.971 45.52 140.744 45.2C141.531 44.8667 142.411 44.7 143.384 44.7C144.024 44.7 144.631 44.7733 145.204 44.92C145.777 45.0533 146.311 45.24 146.804 45.48C147.311 45.72 147.771 45.9933 148.184 46.3L147.164 48.14Z" fill="black"/>
<path d="M55.28 135V123.64H59.312C60.5387 123.64 61.5627 123.896 62.384 124.408C63.2053 124.909 63.8187 125.592 64.224 126.456C64.64 127.309 64.848 128.259 64.848 129.304C64.848 130.456 64.6187 131.459 64.16 132.312C63.712 133.165 63.072 133.827 62.24 134.296C61.408 134.765 60.432 135 59.312 135H55.28ZM63.024 129.304C63.024 128.504 62.8747 127.8 62.576 127.192C62.288 126.573 61.8667 126.093 61.312 125.752C60.768 125.4 60.1013 125.224 59.312 125.224H57.072V133.416H59.312C60.112 133.416 60.784 133.235 61.328 132.872C61.8827 132.509 62.304 132.019 62.592 131.4C62.88 130.781 63.024 130.083 63.024 129.304ZM70.3011 135.16C69.6505 135.16 69.0585 135.048 68.5251 134.824C68.0025 134.589 67.5491 134.275 67.1651 133.88C66.7811 133.475 66.4825 133.016 66.2691 132.504C66.0665 131.981 65.9651 131.427 65.9651 130.84C65.9651 130.051 66.1465 129.331 66.5091 128.68C66.8718 128.019 67.3785 127.491 68.0291 127.096C68.6798 126.691 69.4425 126.488 70.3171 126.488C71.1918 126.488 71.9438 126.691 72.5731 127.096C73.2131 127.491 73.7091 128.013 74.0611 128.664C74.4131 129.315 74.5891 130.013 74.5891 130.76C74.5891 130.888 74.5838 131.011 74.5731 131.128C74.5625 131.235 74.5518 131.325 74.5411 131.4H67.8371C67.8691 131.891 68.0025 132.323 68.2371 132.696C68.4825 133.059 68.7918 133.347 69.1651 133.56C69.5385 133.763 69.9385 133.864 70.3651 133.864C70.8345 133.864 71.2771 133.747 71.6931 133.512C72.1198 133.277 72.4078 132.968 72.5571 132.584L74.0611 133.016C73.8798 133.421 73.6025 133.789 73.2291 134.12C72.8665 134.44 72.4345 134.696 71.9331 134.888C71.4318 135.069 70.8878 135.16 70.3011 135.16ZM67.7891 130.232H72.8451C72.8131 129.752 72.6745 129.331 72.4291 128.968C72.1945 128.595 71.8905 128.307 71.5171 128.104C71.1545 127.891 70.7491 127.784 70.3011 127.784C69.8638 127.784 69.4585 127.891 69.0851 128.104C68.7225 128.307 68.4238 128.595 68.1891 128.968C67.9545 129.331 67.8211 129.752 67.7891 130.232ZM76.4266 135V128.2H75.3066V126.84H76.4266V126.504C76.4266 125.821 76.5333 125.229 76.7466 124.728C76.9706 124.227 77.28 123.843 77.6746 123.576C78.08 123.299 78.5546 123.16 79.0986 123.16C79.44 123.16 79.776 123.208 80.1066 123.304C80.4373 123.389 80.752 123.512 81.0506 123.672L80.6666 124.984C80.5066 124.877 80.3146 124.797 80.0906 124.744C79.8773 124.68 79.6693 124.648 79.4666 124.648C79.0613 124.648 78.7466 124.803 78.5226 125.112C78.2986 125.421 78.1866 125.869 78.1866 126.456V126.84H80.3306V128.2H78.1866V135H76.4266ZM81.0261 132.552C81.0261 132.019 81.1755 131.555 81.4741 131.16C81.7835 130.755 82.2048 130.445 82.7381 130.232C83.2715 130.008 83.8901 129.896 84.5941 129.896C84.9675 129.896 85.3461 129.923 85.7301 129.976C86.1248 130.029 86.4715 130.115 86.7701 130.232V129.704C86.7701 129.117 86.5941 128.659 86.2421 128.328C85.8901 127.997 85.3835 127.832 84.7221 127.832C84.2528 127.832 83.8101 127.917 83.3941 128.088C82.9781 128.248 82.5355 128.477 82.0661 128.776L81.4741 127.592C82.0288 127.219 82.5835 126.941 83.1381 126.76C83.7035 126.579 84.2955 126.488 84.9141 126.488C86.0341 126.488 86.9141 126.787 87.5541 127.384C88.2048 127.971 88.5301 128.808 88.5301 129.896V133.016C88.5301 133.219 88.5621 133.363 88.6261 133.448C88.7008 133.533 88.8235 133.581 88.9941 133.592V135C88.8341 135.032 88.6901 135.053 88.5621 135.064C88.4341 135.075 88.3275 135.08 88.2421 135.08C87.8688 135.08 87.5861 134.989 87.3941 134.808C87.2021 134.627 87.0901 134.413 87.0581 134.168L87.0101 133.688C86.6475 134.157 86.1835 134.52 85.6181 134.776C85.0528 135.032 84.4821 135.16 83.9061 135.16C83.3515 135.16 82.8555 135.048 82.4181 134.824C81.9808 134.589 81.6395 134.275 81.3941 133.88C81.1488 133.485 81.0261 133.043 81.0261 132.552ZM86.3541 133.064C86.4821 132.925 86.5835 132.787 86.6581 132.648C86.7328 132.509 86.7701 132.387 86.7701 132.28V131.32C86.4715 131.203 86.1568 131.117 85.8261 131.064C85.4955 131 85.1701 130.968 84.8501 130.968C84.2101 130.968 83.6875 131.096 83.2821 131.352C82.8875 131.608 82.6901 131.96 82.6901 132.408C82.6901 132.653 82.7541 132.888 82.8821 133.112C83.0208 133.336 83.2128 133.517 83.4581 133.656C83.7141 133.795 84.0288 133.864 84.4021 133.864C84.7861 133.864 85.1541 133.789 85.5061 133.64C85.8581 133.491 86.1408 133.299 86.3541 133.064ZM90.5854 131.752V126.632H92.3454V131.4C92.3454 132.147 92.4787 132.712 92.7454 133.096C93.0227 133.469 93.4227 133.656 93.9454 133.656C94.276 133.656 94.596 133.587 94.9054 133.448C95.2254 133.309 95.5134 133.107 95.7694 132.84C96.036 132.563 96.2494 132.232 96.4094 131.848V126.632H98.1694V133.016C98.1694 133.219 98.2067 133.363 98.2814 133.448C98.356 133.533 98.4787 133.581 98.6494 133.592V135C98.468 135.032 98.3187 135.053 98.2014 135.064C98.084 135.075 97.972 135.08 97.8654 135.08C97.5454 135.08 97.2787 134.995 97.0654 134.824C96.852 134.643 96.7294 134.413 96.6974 134.136L96.6654 133.304C96.292 133.912 95.8067 134.376 95.2094 134.696C94.612 135.005 93.956 135.16 93.2414 135.16C92.3667 135.16 91.7054 134.872 91.2574 134.296C90.8094 133.72 90.5854 132.872 90.5854 131.752ZM100.431 123.32H102.191V132.584C102.191 133.011 102.255 133.283 102.383 133.4C102.511 133.517 102.671 133.576 102.863 133.576C103.077 133.576 103.274 133.555 103.455 133.512C103.647 133.469 103.813 133.416 103.951 133.352L104.207 134.744C103.951 134.851 103.647 134.941 103.295 135.016C102.943 135.091 102.629 135.128 102.351 135.128C101.754 135.128 101.285 134.963 100.943 134.632C100.602 134.291 100.431 133.821 100.431 133.224V123.32ZM109.837 134.568C109.688 134.643 109.501 134.723 109.277 134.808C109.053 134.893 108.797 134.968 108.509 135.032C108.232 135.096 107.944 135.128 107.645 135.128C107.282 135.128 106.946 135.064 106.637 134.936C106.328 134.808 106.077 134.605 105.885 134.328C105.704 134.04 105.613 133.672 105.613 133.224V127.992H104.509V126.632H105.613V123.88H107.373V126.632H109.197V127.992H107.373V132.664C107.394 132.952 107.485 133.165 107.645 133.304C107.816 133.443 108.024 133.512 108.269 133.512C108.514 133.512 108.749 133.469 108.973 133.384C109.197 133.299 109.362 133.229 109.469 133.176L109.837 134.568Z" fill="#037CB0"/>
<path d="M278.608 123.64V135H276.8V129.992H271.072V135H269.28V123.64H271.072V128.392H276.8V123.64H278.608ZM284.566 135.16C283.905 135.16 283.313 135.048 282.79 134.824C282.267 134.589 281.814 134.269 281.43 133.864C281.057 133.459 280.769 133 280.566 132.488C280.363 131.965 280.262 131.411 280.262 130.824C280.262 130.237 280.363 129.683 280.566 129.16C280.769 128.637 281.057 128.179 281.43 127.784C281.814 127.379 282.267 127.064 282.79 126.84C283.323 126.605 283.915 126.488 284.566 126.488C285.217 126.488 285.803 126.605 286.326 126.84C286.859 127.064 287.313 127.379 287.686 127.784C288.07 128.179 288.363 128.637 288.566 129.16C288.769 129.683 288.87 130.237 288.87 130.824C288.87 131.411 288.769 131.965 288.566 132.488C288.363 133 288.07 133.459 287.686 133.864C287.313 134.269 286.859 134.589 286.326 134.824C285.803 135.048 285.217 135.16 284.566 135.16ZM282.07 130.84C282.07 131.373 282.182 131.853 282.406 132.28C282.63 132.707 282.929 133.043 283.302 133.288C283.675 133.533 284.097 133.656 284.566 133.656C285.025 133.656 285.441 133.533 285.814 133.288C286.198 133.032 286.502 132.691 286.726 132.264C286.95 131.827 287.062 131.347 287.062 130.824C287.062 130.291 286.95 129.811 286.726 129.384C286.502 128.957 286.198 128.621 285.814 128.376C285.441 128.12 285.025 127.992 284.566 127.992C284.097 127.992 283.675 128.12 283.302 128.376C282.929 128.632 282.63 128.973 282.406 129.4C282.182 129.816 282.07 130.296 282.07 130.84ZM292.486 135L289.302 126.632H291.126L293.51 133.368L295.894 126.632H297.59L294.406 135H292.486ZM302.364 135.16C301.713 135.16 301.121 135.048 300.588 134.824C300.065 134.589 299.612 134.275 299.228 133.88C298.844 133.475 298.545 133.016 298.332 132.504C298.129 131.981 298.028 131.427 298.028 130.84C298.028 130.051 298.209 129.331 298.572 128.68C298.934 128.019 299.441 127.491 300.092 127.096C300.742 126.691 301.505 126.488 302.38 126.488C303.254 126.488 304.006 126.691 304.636 127.096C305.276 127.491 305.772 128.013 306.124 128.664C306.476 129.315 306.652 130.013 306.652 130.76C306.652 130.888 306.646 131.011 306.636 131.128C306.625 131.235 306.614 131.325 306.604 131.4H299.9C299.932 131.891 300.065 132.323 300.3 132.696C300.545 133.059 300.854 133.347 301.228 133.56C301.601 133.763 302.001 133.864 302.428 133.864C302.897 133.864 303.34 133.747 303.756 133.512C304.182 133.277 304.47 132.968 304.62 132.584L306.124 133.016C305.942 133.421 305.665 133.789 305.292 134.12C304.929 134.44 304.497 134.696 303.996 134.888C303.494 135.069 302.95 135.16 302.364 135.16ZM299.852 130.232H304.908C304.876 129.752 304.737 129.331 304.492 128.968C304.257 128.595 303.953 128.307 303.58 128.104C303.217 127.891 302.812 127.784 302.364 127.784C301.926 127.784 301.521 127.891 301.148 128.104C300.785 128.307 300.486 128.595 300.252 128.968C300.017 129.331 299.884 129.752 299.852 130.232ZM312.791 128.152C312.109 128.163 311.501 128.317 310.967 128.616C310.445 128.915 310.071 129.336 309.847 129.88V135H308.087V126.632H309.719V128.504C310.007 127.928 310.386 127.469 310.855 127.128C311.325 126.776 311.821 126.584 312.343 126.552C312.45 126.552 312.535 126.552 312.599 126.552C312.674 126.552 312.738 126.557 312.791 126.568V128.152Z" fill="#037CB0"/>
<path d="M94 161L290 161" stroke="#D1D1D1" stroke-dasharray="5 5"/>
</svg>
