<svg width="396" height="474" viewBox="0 0 396 474" fill="none" xmlns="http://www.w3.org/2000/svg">
<rect width="396" height="474" fill="white"/>
<path d="M56 147C56 145.409 55.3679 143.883 54.2426 142.757C53.1174 141.632 51.5913 141 50 141C48.4087 141 46.8826 141.632 45.7574 142.757C44.6321 143.883 44 145.409 44 147C44 154 41 156 41 156H59C59 156 56 154 56 147Z" stroke="#25282B" stroke-width="2" stroke-linecap="round" stroke-linejoin="round"/>
<path d="M51.7295 160C51.5537 160.303 51.3014 160.555 50.9978 160.73C50.6941 160.904 50.3499 160.996 49.9995 160.996C49.6492 160.996 49.3049 160.904 49.0013 160.73C48.6977 160.555 48.4453 160.303 48.2695 160" stroke="#25282B" stroke-width="2" stroke-linecap="round" stroke-linejoin="round"/>
<path d="M236 158C240.418 158 244 154.418 244 150C244 145.582 240.418 142 236 142C231.582 142 228 145.582 228 150C228 154.418 231.582 158 236 158Z" stroke="#25282B" stroke-width="2" stroke-linecap="round" stroke-linejoin="round"/>
<path d="M246 160L241.65 155.65" stroke="#25282B" stroke-width="2" stroke-linecap="round" stroke-linejoin="round"/>
<path d="M140.289 142.86L131.819 157C131.644 157.302 131.552 157.645 131.551 157.994C131.55 158.344 131.64 158.687 131.813 158.99C131.986 159.294 132.236 159.547 132.537 159.724C132.837 159.901 133.18 159.996 133.529 160H150.469C150.818 159.996 151.16 159.901 151.461 159.724C151.762 159.547 152.011 159.294 152.184 158.99C152.357 158.687 152.448 158.344 152.447 157.994C152.446 157.645 152.353 157.302 152.179 157L143.709 142.86C143.531 142.566 143.28 142.323 142.98 142.154C142.68 141.986 142.343 141.897 141.999 141.897C141.655 141.897 141.317 141.986 141.018 142.154C140.718 142.323 140.467 142.566 140.289 142.86V142.86Z" stroke="black" stroke-width="1.33333" stroke-linecap="round" stroke-linejoin="round"/>
<path d="M142 148V152" stroke="black" stroke-width="1.33333" stroke-linecap="round" stroke-linejoin="round"/>
<path d="M142 156H142.011" stroke="black" stroke-width="1.33333" stroke-linecap="round" stroke-linejoin="round"/>
<circle cx="332" cy="151" r="11" fill="#D9D9D9"/>
<path d="M331.329 156V147.273H332.67V156H331.329ZM332.011 145.818C331.749 145.818 331.524 145.729 331.335 145.551C331.149 145.373 331.056 145.159 331.056 144.909C331.056 144.659 331.149 144.445 331.335 144.267C331.524 144.089 331.749 144 332.011 144C332.272 144 332.496 144.089 332.681 144.267C332.871 144.445 332.965 144.659 332.965 144.909C332.965 145.159 332.871 145.373 332.681 145.551C332.496 145.729 332.272 145.818 332.011 145.818Z" fill="black"/>
<path d="M41 224.109L43.2243 230L58 221" stroke="black" stroke-width="3"/>
<circle cx="328.625" cy="291.625" r="2.625" fill="black"/>
<circle cx="328.625" cy="299.5" r="2.625" fill="black"/>
<circle cx="328.625" cy="307.375" r="2.625" fill="black"/>
<circle cx="336.5" cy="291.625" r="2.625" fill="black"/>
<circle cx="336.5" cy="299.5" r="2.625" fill="black"/>
<circle cx="336.5" cy="307.375" r="2.625" fill="black"/>
<circle cx="344.375" cy="291.625" r="2.625" fill="black"/>
<circle cx="344.375" cy="299.5" r="2.625" fill="black"/>
<circle cx="344.375" cy="307.375" r="2.625" fill="black"/>
<path d="M134 225H148" stroke="#25282B" stroke-width="2" stroke-linecap="round" stroke-linejoin="round"/>
<path d="M236 218V232" stroke="#25282B" stroke-width="2" stroke-linecap="round" stroke-linejoin="round"/>
<path d="M229 225H243" stroke="#25282B" stroke-width="2" stroke-linecap="round" stroke-linejoin="round"/>
<path d="M327 229.2V226.75H342.1V229.2H327ZM327 223.45V221H342.1V223.45H327Z" fill="black"/>
<path d="M62.9994 303.92V306.92C63.0006 307.199 62.9435 307.474 62.832 307.729C62.7204 307.985 62.5567 308.214 62.3515 308.402C62.1463 308.59 61.904 308.734 61.6402 308.823C61.3764 308.912 61.0968 308.945 60.8194 308.92C57.7423 308.586 54.7864 307.534 52.1894 305.85C49.7733 304.315 47.7248 302.266 46.1894 299.85C44.4994 297.241 43.4477 294.271 43.1194 291.18C43.0945 290.904 43.1273 290.625 43.2159 290.362C43.3046 290.099 43.447 289.857 43.6342 289.652C43.8214 289.447 44.0492 289.283 44.3032 289.171C44.5572 289.058 44.8318 289 45.1094 289H48.1094C48.5948 288.995 49.0652 289.167 49.4332 289.484C49.8012 289.8 50.0415 290.24 50.1094 290.72C50.2361 291.68 50.4709 292.623 50.8094 293.53C50.944 293.888 50.9731 294.277 50.8934 294.651C50.8136 295.025 50.6283 295.368 50.3594 295.64L49.0894 296.91C50.513 299.414 52.5859 301.487 55.0894 302.91L56.3594 301.64C56.6313 301.371 56.9746 301.186 57.3486 301.106C57.7225 301.026 58.1115 301.056 58.4694 301.19C59.3767 301.529 60.3194 301.763 61.2794 301.89C61.7652 301.959 62.2088 302.203 62.526 302.578C62.8431 302.952 63.0116 303.43 62.9994 303.92Z" stroke="#25282B" stroke-width="2" stroke-linecap="round" stroke-linejoin="round"/>
<g clip-path="url(#clip0_576_1021)">
<path d="M254.666 364C253.708 364.676 252.648 365.192 251.526 365.53C250.924 364.838 250.123 364.347 249.233 364.124C248.343 363.901 247.406 363.957 246.548 364.284C245.691 364.612 244.954 365.194 244.439 365.954C243.924 366.713 243.654 367.612 243.666 368.53V369.53C241.909 369.576 240.167 369.186 238.597 368.395C237.027 367.605 235.676 366.439 234.666 365C234.666 365 230.666 374 239.666 378C237.607 379.398 235.153 380.099 232.666 380C241.666 385 252.666 380 252.666 368.5C252.665 368.221 252.638 367.944 252.586 367.67C253.607 366.664 254.327 365.393 254.666 364Z" stroke="#25282B" stroke-width="2" stroke-linecap="round" stroke-linejoin="round"/>
</g>
<g clip-path="url(#clip1_576_1021)">
<path d="M160.207 367.42C160.088 366.945 159.846 366.511 159.505 366.159C159.165 365.808 158.737 365.553 158.267 365.42C156.547 365 149.667 365 149.667 365C149.667 365 142.787 365 141.067 365.46C140.596 365.593 140.169 365.848 139.828 366.199C139.487 366.551 139.245 366.985 139.127 367.46C138.812 369.206 138.658 370.976 138.667 372.75C138.655 374.537 138.809 376.321 139.127 378.08C139.258 378.54 139.505 378.958 139.845 379.294C140.185 379.631 140.605 379.874 141.067 380C142.787 380.46 149.667 380.46 149.667 380.46C149.667 380.46 156.547 380.46 158.267 380C158.737 379.867 159.165 379.612 159.505 379.261C159.846 378.909 160.088 378.475 160.207 378C160.519 376.268 160.673 374.51 160.667 372.75C160.678 370.963 160.524 369.179 160.207 367.42V367.42Z" stroke="#25282B" stroke-width="2" stroke-linecap="round" stroke-linejoin="round"/>
<path d="M147.416 376.02L153.166 372.75L147.416 369.48V376.02Z" stroke="#25282B" stroke-width="2" stroke-linecap="round" stroke-linejoin="round"/>
</g>
<g clip-path="url(#clip2_576_1021)">
<path d="M148 289C144.13 289 141 292.13 141 296C141 301.25 148 309 148 309C148 309 155 301.25 155 296C155 292.13 151.87 289 148 289ZM143 296C143 293.24 145.24 291 148 291C150.76 291 153 293.24 153 296C153 298.88 150.12 303.19 148 305.88C145.92 303.21 143 298.85 143 296Z" fill="#0F172B"/>
<path d="M148 298.5C149.381 298.5 150.5 297.381 150.5 296C150.5 294.619 149.381 293.5 148 293.5C146.619 293.5 145.5 294.619 145.5 296C145.5 297.381 146.619 298.5 148 298.5Z" fill="#0F172B"/>
</g>
<g clip-path="url(#clip3_576_1021)">
<path d="M253 293C253 291.9 252.1 291 251 291H235C233.9 291 233 291.9 233 293V305C233 306.1 233.9 307 235 307H251C252.1 307 253 306.1 253 305V293ZM251 293L243 298L235 293H251ZM251 305H235V295L243 300L251 295V305Z" fill="#0F172B"/>
</g>
<path d="M53.8333 362C47.8631 362 43 366.863 43 372.833C43 378.804 47.8631 383.667 53.8333 383.667C59.8036 383.667 64.6667 378.804 64.6667 372.833C64.6667 366.863 59.8036 362 53.8333 362ZM53.8333 364.167C58.6326 364.167 62.5 368.034 62.5 372.833C62.5 377.182 59.3208 380.756 55.1536 381.39V375.417H57.6758L58.0715 372.854H55.1536V371.454C55.1536 370.389 55.5006 369.444 56.4972 369.444H58.0968V367.207C57.8152 367.169 57.2207 367.087 56.0973 367.087C53.7508 367.087 52.3755 368.326 52.3755 371.149V372.854H49.9634V375.417H52.3755V381.369C48.2761 380.678 45.1667 377.134 45.1667 372.833C45.1667 368.034 49.034 364.167 53.8333 364.167Z" fill="black"/>
<path d="M328.666 364C327.561 364 326.666 364.895 326.666 366V380C326.666 381.105 327.561 382 328.666 382H342.666C343.771 382 344.666 381.105 344.666 380V366C344.666 364.895 343.771 364 342.666 364H328.666ZM328.666 366H342.666V380H328.666V366ZM331.445 367.316C330.588 367.316 330.074 367.832 330.074 368.518C330.074 369.204 330.588 369.717 331.359 369.717C332.216 369.717 332.73 369.204 332.73 368.518C332.73 367.832 332.216 367.316 331.445 367.316ZM330.143 371V378H332.666V371H330.143ZM334.748 371V378H337.271V374.174C337.271 373.035 338.084 372.871 338.328 372.871C338.572 372.871 339.225 373.116 339.225 374.174V378H341.666V374.174C341.666 371.977 340.69 371 339.469 371C338.248 371 337.596 371.407 337.271 371.977V371H334.748Z" fill="#0F172B"/>
<path d="M42.6 62V47.8H44.84V62H42.6ZM47.1492 54.8C47.1492 53.9333 47.3026 53.0867 47.6092 52.26C47.9159 51.42 48.3626 50.66 48.9492 49.98C49.5492 49.2867 50.2759 48.74 51.1292 48.34C51.9826 47.9267 52.9492 47.72 54.0292 47.72C55.3092 47.72 56.4159 48.0133 57.3492 48.6C58.2826 49.1733 58.9759 49.9133 59.4292 50.82L57.6692 52C57.4026 51.4267 57.0626 50.9733 56.6492 50.64C56.2492 50.3067 55.8092 50.0733 55.3292 49.94C54.8626 49.8067 54.4026 49.74 53.9492 49.74C53.2026 49.74 52.5492 49.8933 51.9892 50.2C51.4292 50.4933 50.9559 50.8867 50.5692 51.38C50.1959 51.8733 49.9092 52.4267 49.7092 53.04C49.5226 53.6533 49.4292 54.2667 49.4292 54.88C49.4292 55.56 49.5426 56.22 49.7692 56.86C49.9959 57.4867 50.3092 58.0467 50.7092 58.54C51.1226 59.02 51.6092 59.4 52.1692 59.68C52.7292 59.96 53.3426 60.1 54.0092 60.1C54.4626 60.1 54.9359 60.02 55.4292 59.86C55.9226 59.7 56.3759 59.4533 56.7892 59.12C57.2159 58.7733 57.5492 58.32 57.7892 57.76L59.6492 58.82C59.3559 59.5267 58.8959 60.1267 58.2692 60.62C57.6559 61.1133 56.9626 61.4867 56.1892 61.74C55.4292 61.9933 54.6759 62.12 53.9292 62.12C52.9292 62.12 52.0159 61.9133 51.1892 61.5C50.3626 61.0733 49.6492 60.5133 49.0492 59.82C48.4492 59.1133 47.9826 58.3267 47.6492 57.46C47.3159 56.58 47.1492 55.6933 47.1492 54.8ZM67.4453 62.1C66.4186 62.1 65.492 61.9 64.6653 61.5C63.8386 61.1 63.1253 60.56 62.5253 59.88C61.9253 59.1867 61.4586 58.4133 61.1253 57.56C60.8053 56.6933 60.6453 55.8067 60.6453 54.9C60.6453 53.9533 60.8186 53.0533 61.1653 52.2C61.512 51.3333 61.992 50.5667 62.6053 49.9C63.2186 49.22 63.9386 48.6867 64.7653 48.3C65.6053 47.9 66.512 47.7 67.4853 47.7C68.4986 47.7 69.4186 47.9067 70.2453 48.32C71.0853 48.7333 71.7986 49.2867 72.3853 49.98C72.9853 50.6733 73.4453 51.4467 73.7653 52.3C74.0986 53.1533 74.2653 54.0267 74.2653 54.92C74.2653 55.8667 74.092 56.7733 73.7453 57.64C73.412 58.4933 72.9386 59.26 72.3253 59.94C71.712 60.6067 70.9853 61.1333 70.1453 61.52C69.3186 61.9067 68.4186 62.1 67.4453 62.1ZM62.9253 54.9C62.9253 55.5667 63.032 56.2133 63.2453 56.84C63.4586 57.4667 63.7586 58.0267 64.1453 58.52C64.5453 59 65.0253 59.38 65.5853 59.66C66.1453 59.94 66.772 60.08 67.4653 60.08C68.1853 60.08 68.8253 59.9333 69.3853 59.64C69.9453 59.3467 70.412 58.9533 70.7853 58.46C71.172 57.9533 71.4653 57.3933 71.6653 56.78C71.8653 56.1533 71.9653 55.5267 71.9653 54.9C71.9653 54.2333 71.8586 53.5933 71.6453 52.98C71.4453 52.3533 71.1453 51.8 70.7453 51.32C70.3453 50.8267 69.8653 50.44 69.3053 50.16C68.7586 49.88 68.1453 49.74 67.4653 49.74C66.7453 49.74 66.1053 49.8867 65.5453 50.18C64.9853 50.4733 64.512 50.8667 64.1253 51.36C63.7386 51.8533 63.4386 52.4067 63.2253 53.02C63.0253 53.6333 62.9253 54.26 62.9253 54.9ZM78.8244 51.96V62H76.5844V47.8H78.4244L86.4644 58.06V47.82H88.7244V62H86.7644L78.8244 51.96ZM100.316 51.14C100.183 50.9933 99.9897 50.84 99.7364 50.68C99.4831 50.5067 99.1831 50.3467 98.8364 50.2C98.4897 50.0533 98.1164 49.9333 97.7164 49.84C97.3164 49.7467 96.9031 49.7 96.4764 49.7C95.5431 49.7 94.8497 49.8733 94.3964 50.22C93.9431 50.5667 93.7164 51.0467 93.7164 51.66C93.7164 52.1133 93.8431 52.4733 94.0964 52.74C94.3497 52.9933 94.7364 53.2067 95.2564 53.38C95.7764 53.5533 96.4297 53.74 97.2164 53.94C98.1764 54.1667 99.0097 54.44 99.7164 54.76C100.423 55.0667 100.963 55.48 101.336 56C101.71 56.52 101.896 57.2067 101.896 58.06C101.896 58.78 101.763 59.4 101.496 59.92C101.23 60.44 100.856 60.8667 100.376 61.2C99.8964 61.52 99.3431 61.76 98.7164 61.92C98.0897 62.0667 97.4164 62.14 96.6964 62.14C95.9897 62.14 95.2831 62.0667 94.5764 61.92C93.8831 61.7733 93.2164 61.56 92.5764 61.28C91.9497 60.9867 91.3697 60.6333 90.8364 60.22L91.8564 58.3C92.0297 58.4733 92.2764 58.6667 92.5964 58.88C92.9297 59.08 93.3097 59.2733 93.7364 59.46C94.1764 59.6467 94.6497 59.8067 95.1564 59.94C95.6764 60.06 96.2031 60.12 96.7364 60.12C97.6297 60.12 98.3097 59.9667 98.7764 59.66C99.2564 59.34 99.4964 58.8867 99.4964 58.3C99.4964 57.82 99.3431 57.44 99.0364 57.16C98.7297 56.8667 98.2831 56.62 97.6964 56.42C97.1097 56.22 96.4097 56.02 95.5964 55.82C94.6631 55.5667 93.8831 55.2933 93.2564 55C92.6297 54.6933 92.1564 54.3067 91.8364 53.84C91.5297 53.36 91.3764 52.7533 91.3764 52.02C91.3764 51.0867 91.6031 50.3 92.0564 49.66C92.5097 49.0067 93.1231 48.52 93.8964 48.2C94.6831 47.8667 95.5631 47.7 96.5364 47.7C97.1764 47.7 97.7831 47.7733 98.3564 47.92C98.9297 48.0533 99.4631 48.24 99.9564 48.48C100.463 48.72 100.923 48.9933 101.336 49.3L100.316 51.14Z" fill="black"/>
<defs>
<clipPath id="clip0_576_1021">
<rect width="24" height="24" fill="white" transform="translate(231.666 361)"/>
</clipPath>
<clipPath id="clip1_576_1021">
<rect width="24" height="24" fill="white" transform="translate(137.666 361)"/>
</clipPath>
<clipPath id="clip2_576_1021">
<rect width="24" height="24" fill="white" transform="translate(136 287)"/>
</clipPath>
<clipPath id="clip3_576_1021">
<rect width="24" height="24" fill="white" transform="translate(231 287)"/>
</clipPath>
</defs>
</svg>
