<svg width="582" height="100" viewBox="0 0 582 100" fill="none" xmlns="http://www.w3.org/2000/svg">
<mask id="path-1-inside-1_173_56" fill="white">
<path d="M0 0.424805H582V99.4248H0V0.424805Z"/>
</mask>
<path d="M582 98.9248H0V99.9248H582V98.9248Z" fill="#037CB0" fill-opacity="0.2" mask="url(#path-1-inside-1_173_56)"/>
<rect x="0.25" y="28.1748" width="82.5" height="43.5" rx="4.75" stroke="#037CB0" stroke-opacity="0.2" stroke-width="0.5"/>
<path d="M11.424 55.9248V44.5648H12.544V55.9248H11.424ZM17.075 55.9248V48.4528H15.923V47.5888H17.075V47.3648C17.075 46.6821 17.171 46.0955 17.363 45.6048C17.5657 45.1141 17.8483 44.7408 18.211 44.4848C18.5843 44.2181 19.0217 44.0848 19.523 44.0848C19.8537 44.0848 20.1737 44.1328 20.483 44.2288C20.7923 44.3248 21.059 44.4528 21.283 44.6128L20.947 45.3968C20.8083 45.2795 20.627 45.1888 20.403 45.1248C20.179 45.0608 19.955 45.0288 19.731 45.0288C19.2297 45.0288 18.8403 45.2261 18.563 45.6208C18.2963 46.0155 18.163 46.5861 18.163 47.3328V47.5888H20.467V48.4528H18.163V55.9248H17.075ZM27.5563 55.5248C27.4709 55.5568 27.3376 55.6155 27.1562 55.7008C26.9749 55.7861 26.7563 55.8608 26.5002 55.9248C26.2442 55.9888 25.9669 56.0208 25.6683 56.0208C25.3589 56.0208 25.0656 55.9621 24.7882 55.8448C24.5216 55.7275 24.3082 55.5515 24.1482 55.3168C23.9882 55.0715 23.9082 54.7728 23.9082 54.4208V48.4528H22.7562V47.5888H23.9082V44.7728H24.9962V47.5888H26.9163V48.4528H24.9962V54.1168C25.0176 54.4155 25.1242 54.6395 25.3162 54.7888C25.5189 54.9381 25.7483 55.0128 26.0043 55.0128C26.3029 55.0128 26.5749 54.9648 26.8203 54.8688C27.0656 54.7621 27.2149 54.6875 27.2682 54.6448L27.5563 55.5248ZM30.5156 55.9248V47.5888H31.6036V55.9248H30.5156ZM30.5156 45.8448V44.2448H31.6036V45.8448H30.5156ZM41.552 55.9248L38.464 51.6528L36.688 53.3168V55.9248H35.6V44.2448H36.688V52.1488L41.408 47.6048H42.608L39.2 51.0128L42.736 55.9248H41.552ZM52.6924 55.9248H51.6044V51.2688C51.6044 50.3301 51.439 49.6261 51.1084 49.1568C50.7777 48.6768 50.303 48.4368 49.6844 48.4368C49.279 48.4368 48.8737 48.5435 48.4684 48.7568C48.0737 48.9595 47.7217 49.2421 47.4124 49.6048C47.1137 49.9568 46.9004 50.3621 46.7724 50.8208V55.9248H45.6844V44.2448H46.7724V49.4768C47.103 48.8581 47.5617 48.3675 48.1484 48.0048C48.7457 47.6315 49.3804 47.4448 50.0524 47.4448C50.5324 47.4448 50.9377 47.5301 51.2684 47.7008C51.6097 47.8715 51.8817 48.1221 52.0844 48.4528C52.2977 48.7728 52.4524 49.1515 52.5484 49.5888C52.6444 50.0155 52.6924 50.5008 52.6924 51.0448V55.9248ZM55.9405 53.5248C55.9405 53.0021 56.0898 52.5541 56.3885 52.1808C56.6872 51.7968 57.0978 51.5035 57.6205 51.3008C58.1538 51.0875 58.7672 50.9808 59.4605 50.9808C59.8658 50.9808 60.2872 51.0128 60.7245 51.0768C61.1618 51.1408 61.5512 51.2368 61.8925 51.3648V50.6608C61.8925 49.9568 61.6845 49.3968 61.2685 48.9808C60.8525 48.5648 60.2765 48.3568 59.5405 48.3568C59.0925 48.3568 58.6498 48.4421 58.2125 48.6128C57.7858 48.7728 57.3378 49.0128 56.8685 49.3328L56.4525 48.5648C56.9965 48.1915 57.5298 47.9141 58.0525 47.7328C58.5752 47.5408 59.1085 47.4448 59.6525 47.4448C60.6765 47.4448 61.4872 47.7381 62.0845 48.3248C62.6818 48.9115 62.9805 49.7221 62.9805 50.7568V54.6128C62.9805 54.7621 63.0125 54.8741 63.0765 54.9488C63.1405 55.0128 63.2418 55.0501 63.3805 55.0608V55.9248C63.2632 55.9355 63.1618 55.9461 63.0765 55.9568C62.9912 55.9675 62.9272 55.9675 62.8845 55.9568C62.6178 55.9461 62.4152 55.8608 62.2765 55.7008C62.1378 55.5408 62.0632 55.3701 62.0525 55.1888L62.0365 54.5808C61.6632 55.0608 61.1778 55.4341 60.5805 55.7008C59.9832 55.9568 59.3752 56.0848 58.7565 56.0848C58.2232 56.0848 57.7378 55.9728 57.3005 55.7488C56.8738 55.5141 56.5378 55.2048 56.2925 54.8208C56.0578 54.4261 55.9405 53.9941 55.9405 53.5248ZM61.5245 54.1648C61.6418 54.0155 61.7325 53.8715 61.7965 53.7328C61.8605 53.5941 61.8925 53.4715 61.8925 53.3648V52.1488C61.5298 52.0101 61.1512 51.9035 60.7565 51.8288C60.3725 51.7541 59.9832 51.7168 59.5885 51.7168C58.8098 51.7168 58.1805 51.8715 57.7005 52.1808C57.2205 52.4901 56.9805 52.9115 56.9805 53.4448C56.9805 53.7541 57.0605 54.0475 57.2205 54.3248C57.3805 54.5915 57.6152 54.8155 57.9245 54.9968C58.2338 55.1675 58.5965 55.2528 59.0125 55.2528C59.5352 55.2528 60.0205 55.1515 60.4685 54.9488C60.9272 54.7461 61.2792 54.4848 61.5245 54.1648ZM71.0913 48.5488C70.3659 48.5701 69.7259 48.7728 69.1713 49.1568C68.6273 49.5408 68.2433 50.0688 68.0193 50.7408V55.9248H66.9313V47.5888H67.9553V49.5888C68.2433 49.0021 68.6219 48.5275 69.0913 48.1648C69.5713 47.8021 70.0779 47.5995 70.6113 47.5568C70.7179 47.5461 70.8086 47.5408 70.8833 47.5408C70.9686 47.5408 71.0379 47.5461 71.0913 47.5568V48.5488Z" fill="#333333"/>
<path d="M98.384 44.5648V55.9248H97.28V50.6128H90.544V55.9248H89.424V44.5648H90.544V49.6208H97.28V44.5648H98.384ZM102.533 52.4848V47.5888H103.621V52.2928C103.621 53.2421 103.781 53.9515 104.101 54.4208C104.431 54.8901 104.917 55.1248 105.557 55.1248C105.983 55.1248 106.394 55.0341 106.789 54.8528C107.194 54.6608 107.551 54.3941 107.861 54.0528C108.17 53.7008 108.405 53.2955 108.565 52.8368V47.5888H109.653V54.6128C109.653 54.7621 109.685 54.8741 109.749 54.9488C109.813 55.0128 109.909 55.0501 110.037 55.0608V55.9248C109.909 55.9355 109.807 55.9408 109.733 55.9408C109.658 55.9515 109.589 55.9568 109.525 55.9568C109.311 55.9355 109.125 55.8501 108.965 55.7008C108.815 55.5515 108.735 55.3701 108.725 55.1568L108.693 54.0368C108.33 54.6768 107.834 55.1781 107.205 55.5408C106.586 55.9035 105.914 56.0848 105.189 56.0848C104.314 56.0848 103.653 55.7808 103.205 55.1728C102.757 54.5648 102.533 53.6688 102.533 52.4848ZM116.449 56.0848C115.766 56.0848 115.131 55.9728 114.545 55.7488C113.958 55.5248 113.451 55.1835 113.025 54.7248L113.473 53.9568C113.942 54.3941 114.411 54.7141 114.881 54.9168C115.361 55.1088 115.867 55.2048 116.401 55.2048C117.051 55.2048 117.579 55.0768 117.985 54.8208C118.39 54.5541 118.593 54.1755 118.593 53.6848C118.593 53.3541 118.491 53.1035 118.289 52.9328C118.097 52.7515 117.814 52.6075 117.441 52.5008C117.078 52.3835 116.641 52.2608 116.129 52.1328C115.553 51.9728 115.067 51.8075 114.673 51.6368C114.289 51.4555 113.995 51.2315 113.793 50.9648C113.601 50.6875 113.505 50.3301 113.505 49.8928C113.505 49.3488 113.638 48.9008 113.905 48.5488C114.182 48.1861 114.555 47.9141 115.025 47.7328C115.505 47.5408 116.038 47.4448 116.625 47.4448C117.265 47.4448 117.83 47.5461 118.321 47.7488C118.811 47.9515 119.211 48.2341 119.521 48.5968L118.993 49.3328C118.694 48.9915 118.337 48.7408 117.921 48.5808C117.515 48.4101 117.062 48.3248 116.561 48.3248C116.219 48.3248 115.894 48.3728 115.585 48.4688C115.275 48.5541 115.019 48.7035 114.817 48.9168C114.625 49.1195 114.529 49.4021 114.529 49.7648C114.529 50.0635 114.603 50.2981 114.753 50.4688C114.902 50.6288 115.126 50.7675 115.425 50.8848C115.723 50.9915 116.091 51.1088 116.529 51.2368C117.158 51.4075 117.707 51.5835 118.177 51.7648C118.646 51.9355 119.009 52.1595 119.265 52.4368C119.521 52.7141 119.649 53.1035 119.649 53.6048C119.649 54.3835 119.355 54.9915 118.769 55.4288C118.182 55.8661 117.409 56.0848 116.449 56.0848ZM125.783 56.0848C125.1 56.0848 124.466 55.9728 123.879 55.7488C123.292 55.5248 122.786 55.1835 122.359 54.7248L122.807 53.9568C123.276 54.3941 123.746 54.7141 124.215 54.9168C124.695 55.1088 125.202 55.2048 125.735 55.2048C126.386 55.2048 126.914 55.0768 127.319 54.8208C127.724 54.5541 127.927 54.1755 127.927 53.6848C127.927 53.3541 127.826 53.1035 127.623 52.9328C127.431 52.7515 127.148 52.6075 126.775 52.5008C126.412 52.3835 125.975 52.2608 125.463 52.1328C124.887 51.9728 124.402 51.8075 124.007 51.6368C123.623 51.4555 123.33 51.2315 123.127 50.9648C122.935 50.6875 122.839 50.3301 122.839 49.8928C122.839 49.3488 122.972 48.9008 123.239 48.5488C123.516 48.1861 123.89 47.9141 124.359 47.7328C124.839 47.5408 125.372 47.4448 125.959 47.4448C126.599 47.4448 127.164 47.5461 127.655 47.7488C128.146 47.9515 128.546 48.2341 128.855 48.5968L128.327 49.3328C128.028 48.9915 127.671 48.7408 127.255 48.5808C126.85 48.4101 126.396 48.3248 125.895 48.3248C125.554 48.3248 125.228 48.3728 124.919 48.4688C124.61 48.5541 124.354 48.7035 124.151 48.9168C123.959 49.1195 123.863 49.4021 123.863 49.7648C123.863 50.0635 123.938 50.2981 124.087 50.4688C124.236 50.6288 124.46 50.7675 124.759 50.8848C125.058 50.9915 125.426 51.1088 125.863 51.2368C126.492 51.4075 127.042 51.5835 127.511 51.7648C127.98 51.9355 128.343 52.1595 128.599 52.4368C128.855 52.7141 128.983 53.1035 128.983 53.6048C128.983 54.3835 128.69 54.9915 128.103 55.4288C127.516 55.8661 126.743 56.0848 125.783 56.0848ZM131.709 53.5248C131.709 53.0021 131.859 52.5541 132.157 52.1808C132.456 51.7968 132.867 51.5035 133.389 51.3008C133.923 51.0875 134.536 50.9808 135.229 50.9808C135.635 50.9808 136.056 51.0128 136.493 51.0768C136.931 51.1408 137.32 51.2368 137.661 51.3648V50.6608C137.661 49.9568 137.453 49.3968 137.037 48.9808C136.621 48.5648 136.045 48.3568 135.309 48.3568C134.861 48.3568 134.419 48.4421 133.981 48.6128C133.555 48.7728 133.107 49.0128 132.637 49.3328L132.221 48.5648C132.765 48.1915 133.299 47.9141 133.821 47.7328C134.344 47.5408 134.877 47.4448 135.421 47.4448C136.445 47.4448 137.256 47.7381 137.853 48.3248C138.451 48.9115 138.749 49.7221 138.749 50.7568V54.6128C138.749 54.7621 138.781 54.8741 138.845 54.9488C138.909 55.0128 139.011 55.0501 139.149 55.0608V55.9248C139.032 55.9355 138.931 55.9461 138.845 55.9568C138.76 55.9675 138.696 55.9675 138.653 55.9568C138.387 55.9461 138.184 55.8608 138.045 55.7008C137.907 55.5408 137.832 55.3701 137.821 55.1888L137.805 54.5808C137.432 55.0608 136.947 55.4341 136.349 55.7008C135.752 55.9568 135.144 56.0848 134.525 56.0848C133.992 56.0848 133.507 55.9728 133.069 55.7488C132.643 55.5141 132.307 55.2048 132.061 54.8208C131.827 54.4261 131.709 53.9941 131.709 53.5248ZM137.293 54.1648C137.411 54.0155 137.501 53.8715 137.565 53.7328C137.629 53.5941 137.661 53.4715 137.661 53.3648V52.1488C137.299 52.0101 136.92 51.9035 136.525 51.8288C136.141 51.7541 135.752 51.7168 135.357 51.7168C134.579 51.7168 133.949 51.8715 133.469 52.1808C132.989 52.4901 132.749 52.9115 132.749 53.4448C132.749 53.7541 132.829 54.0475 132.989 54.3248C133.149 54.5915 133.384 54.8155 133.693 54.9968C134.003 55.1675 134.365 55.2528 134.781 55.2528C135.304 55.2528 135.789 55.1515 136.237 54.9488C136.696 54.7461 137.048 54.4848 137.293 54.1648ZM142.7 55.9248V47.5888H143.788V55.9248H142.7ZM142.7 45.8448V44.2448H143.788V45.8448H142.7ZM154.792 55.9248H153.704V51.2688C153.704 50.2875 153.56 49.5728 153.272 49.1248C152.984 48.6661 152.531 48.4368 151.912 48.4368C151.486 48.4368 151.064 48.5435 150.648 48.7568C150.232 48.9595 149.864 49.2421 149.544 49.6048C149.235 49.9568 149.011 50.3621 148.872 50.8208V55.9248H147.784V47.5888H148.776V49.4768C149 49.0715 149.294 48.7195 149.656 48.4208C150.019 48.1115 150.43 47.8715 150.888 47.7008C151.347 47.5301 151.822 47.4448 152.312 47.4448C152.771 47.4448 153.16 47.5301 153.48 47.7008C153.8 47.8715 154.056 48.1168 154.248 48.4368C154.44 48.7461 154.579 49.1248 154.664 49.5728C154.75 50.0101 154.792 50.5008 154.792 51.0448V55.9248Z" fill="#333333"/>
<path d="M210.354 49.5713C210.549 49.7665 210.549 50.0831 210.354 50.2784L207.172 53.4603C206.976 53.6556 206.66 53.6556 206.464 53.4603C206.269 53.2651 206.269 52.9485 206.464 52.7532L209.293 49.9248L206.464 47.0964C206.269 46.9011 206.269 46.5845 206.464 46.3893C206.66 46.194 206.976 46.194 207.172 46.3893L210.354 49.5713ZM176 49.4248H210V50.4248H176V49.4248Z" fill="#037CB0"/>
<path d="M242.544 46.6288V55.9248H241.424V44.5648H242.352L249.808 54.0368V44.5808H250.928V55.9248H249.888L242.544 46.6288ZM253.559 55.9248V47.5888H254.647V55.9248H253.559ZM253.559 45.8448V44.2448H254.647V45.8448H253.559ZM260.66 56.0848C260.052 56.0848 259.492 55.9728 258.98 55.7488C258.478 55.5141 258.036 55.1941 257.652 54.7888C257.278 54.3835 256.985 53.9195 256.772 53.3968C256.569 52.8741 256.468 52.3195 256.468 51.7328C256.468 50.9435 256.644 50.2235 256.996 49.5728C257.348 48.9221 257.838 48.4048 258.468 48.0208C259.097 47.6368 259.822 47.4448 260.644 47.4448C261.422 47.4448 262.11 47.6261 262.708 47.9888C263.305 48.3408 263.748 48.8208 264.036 49.4288L262.98 49.7648C262.745 49.3381 262.414 49.0075 261.988 48.7728C261.572 48.5275 261.108 48.4048 260.596 48.4048C260.041 48.4048 259.534 48.5488 259.076 48.8368C258.617 49.1248 258.249 49.5195 257.972 50.0208C257.705 50.5221 257.572 51.0928 257.572 51.7328C257.572 52.3621 257.71 52.9328 257.988 53.4448C258.265 53.9568 258.633 54.3675 259.092 54.6768C259.55 54.9755 260.057 55.1248 260.612 55.1248C260.974 55.1248 261.321 55.0608 261.652 54.9328C261.993 54.8048 262.286 54.6341 262.532 54.4208C262.788 54.1968 262.958 53.9568 263.044 53.7008L264.116 54.0208C263.966 54.4155 263.716 54.7728 263.364 55.0928C263.022 55.4021 262.617 55.6475 262.148 55.8288C261.689 55.9995 261.193 56.0848 260.66 56.0848ZM271.777 55.9248L268.689 51.6528L266.913 53.3168V55.9248H265.825V44.2448H266.913V52.1488L271.633 47.6048H272.833L269.425 51.0128L272.961 55.9248H271.777ZM281.317 55.9248H280.229V51.2688C280.229 50.2875 280.085 49.5728 279.797 49.1248C279.509 48.6661 279.056 48.4368 278.437 48.4368C278.011 48.4368 277.589 48.5435 277.173 48.7568C276.757 48.9595 276.389 49.2421 276.069 49.6048C275.76 49.9568 275.536 50.3621 275.397 50.8208V55.9248H274.309V47.5888H275.301V49.4768C275.525 49.0715 275.819 48.7195 276.181 48.4208C276.544 48.1115 276.955 47.8715 277.413 47.7008C277.872 47.5301 278.347 47.4448 278.837 47.4448C279.296 47.4448 279.685 47.5301 280.005 47.7008C280.325 47.8715 280.581 48.1168 280.773 48.4368C280.965 48.7461 281.104 49.1248 281.189 49.5728C281.275 50.0101 281.317 50.5008 281.317 51.0448V55.9248ZM282.965 53.5248C282.965 53.0021 283.115 52.5541 283.414 52.1808C283.712 51.7968 284.123 51.5035 284.646 51.3008C285.179 51.0875 285.792 50.9808 286.486 50.9808C286.891 50.9808 287.312 51.0128 287.75 51.0768C288.187 51.1408 288.576 51.2368 288.918 51.3648V50.6608C288.918 49.9568 288.71 49.3968 288.294 48.9808C287.878 48.5648 287.302 48.3568 286.566 48.3568C286.118 48.3568 285.675 48.4421 285.238 48.6128C284.811 48.7728 284.363 49.0128 283.894 49.3328L283.478 48.5648C284.022 48.1915 284.555 47.9141 285.078 47.7328C285.6 47.5408 286.134 47.4448 286.678 47.4448C287.702 47.4448 288.512 47.7381 289.11 48.3248C289.707 48.9115 290.006 49.7221 290.006 50.7568V54.6128C290.006 54.7621 290.038 54.8741 290.102 54.9488C290.166 55.0128 290.267 55.0501 290.406 55.0608V55.9248C290.288 55.9355 290.187 55.9461 290.102 55.9568C290.016 55.9675 289.952 55.9675 289.91 55.9568C289.643 55.9461 289.44 55.8608 289.302 55.7008C289.163 55.5408 289.088 55.3701 289.078 55.1888L289.062 54.5808C288.688 55.0608 288.203 55.4341 287.606 55.7008C287.008 55.9568 286.4 56.0848 285.782 56.0848C285.248 56.0848 284.763 55.9728 284.326 55.7488C283.899 55.5141 283.563 55.2048 283.318 54.8208C283.083 54.4261 282.965 53.9941 282.965 53.5248ZM288.55 54.1648C288.667 54.0155 288.758 53.8715 288.822 53.7328C288.886 53.5941 288.918 53.4715 288.918 53.3648V52.1488C288.555 52.0101 288.176 51.9035 287.782 51.8288C287.398 51.7541 287.008 51.7168 286.614 51.7168C285.835 51.7168 285.206 51.8715 284.726 52.1808C284.246 52.4901 284.006 52.9115 284.006 53.4448C284.006 53.7541 284.086 54.0475 284.246 54.3248C284.406 54.5915 284.64 54.8155 284.95 54.9968C285.259 55.1675 285.622 55.2528 286.038 55.2528C286.56 55.2528 287.046 55.1515 287.494 54.9488C287.952 54.7461 288.304 54.4848 288.55 54.1648ZM304.756 55.9248H303.668V51.2688C303.668 50.2981 303.514 49.5835 303.204 49.1248C302.895 48.6661 302.436 48.4368 301.828 48.4368C301.199 48.4368 300.634 48.6608 300.132 49.1088C299.642 49.5568 299.295 50.1328 299.092 50.8368V55.9248H298.004V51.2688C298.004 50.2875 297.855 49.5728 297.556 49.1248C297.258 48.6661 296.799 48.4368 296.18 48.4368C295.562 48.4368 295.002 48.6555 294.5 49.0928C293.999 49.5301 293.647 50.1061 293.444 50.8208V55.9248H292.356V47.5888H293.348V49.4768C293.7 48.8261 294.148 48.3248 294.692 47.9728C295.247 47.6208 295.86 47.4448 296.532 47.4448C297.226 47.4448 297.786 47.6421 298.212 48.0368C298.639 48.4315 298.9 48.9488 298.996 49.5888C299.38 48.8848 299.839 48.3515 300.372 47.9888C300.916 47.6261 301.53 47.4448 302.212 47.4448C302.682 47.4448 303.076 47.5301 303.396 47.7008C303.727 47.8715 303.988 48.1168 304.18 48.4368C304.383 48.7461 304.527 49.1248 304.612 49.5728C304.708 50.0101 304.756 50.5008 304.756 51.0448V55.9248ZM310.659 56.0848C310.062 56.0848 309.507 55.9728 308.995 55.7488C308.483 55.5141 308.041 55.1995 307.667 54.8048C307.294 54.3995 307.001 53.9355 306.787 53.4128C306.585 52.8901 306.483 52.3301 306.483 51.7328C306.483 50.9541 306.659 50.2395 307.011 49.5888C307.374 48.9381 307.87 48.4208 308.499 48.0368C309.129 47.6421 309.843 47.4448 310.643 47.4448C311.465 47.4448 312.179 47.6421 312.787 48.0368C313.406 48.4315 313.891 48.9541 314.243 49.6048C314.595 50.2448 314.771 50.9488 314.771 51.7168C314.771 51.8021 314.771 51.8875 314.771 51.9728C314.771 52.0475 314.766 52.1061 314.755 52.1488H307.619C307.673 52.7461 307.838 53.2795 308.115 53.7488C308.403 54.2075 308.771 54.5755 309.219 54.8528C309.678 55.1195 310.174 55.2528 310.707 55.2528C311.251 55.2528 311.763 55.1141 312.243 54.8368C312.734 54.5595 313.075 54.1968 313.267 53.7488L314.211 54.0048C314.041 54.3995 313.779 54.7568 313.427 55.0768C313.075 55.3968 312.659 55.6475 312.179 55.8288C311.71 55.9995 311.203 56.0848 310.659 56.0848ZM307.587 51.3648H313.747C313.705 50.7568 313.539 50.2235 313.251 49.7648C312.974 49.3061 312.606 48.9488 312.147 48.6928C311.699 48.4261 311.203 48.2928 310.659 48.2928C310.115 48.2928 309.619 48.4261 309.171 48.6928C308.723 48.9488 308.355 49.3115 308.067 49.7808C307.79 50.2395 307.63 50.7675 307.587 51.3648Z" fill="#333333"/>
<path d="M380.354 49.5713C380.549 49.7665 380.549 50.0831 380.354 50.2784L377.172 53.4603C376.976 53.6556 376.66 53.6556 376.464 53.4603C376.269 53.2651 376.269 52.9485 376.464 52.7532L379.293 49.9248L376.464 47.0964C376.269 46.9011 376.269 46.5845 376.464 46.3893C376.66 46.194 376.976 46.194 377.172 46.3893L380.354 49.5713ZM346 49.4248H380V50.4248H346V49.4248Z" fill="#037CB0"/>
<rect x="401" y="28.9248" width="42" height="42" rx="21" fill="#FFD000"/>
<rect x="401" y="28.9248" width="42" height="42" rx="21" stroke="#FFD000" stroke-width="2"/>
<path d="M411.2 55.9248V47.5888H412.288V55.9248H411.2ZM411.2 45.8448V44.2448H412.288V45.8448H411.2ZM417.242 55.9248V48.4528H416.09V47.5888H417.242V47.3648C417.242 46.6821 417.338 46.0955 417.531 45.6048C417.733 45.1141 418.016 44.7408 418.378 44.4848C418.752 44.2181 419.189 44.0848 419.691 44.0848C420.021 44.0848 420.341 44.1328 420.651 44.2288C420.96 44.3248 421.227 44.4528 421.451 44.6128L421.115 45.3968C420.976 45.2795 420.795 45.1888 420.571 45.1248C420.347 45.0608 420.122 45.0288 419.898 45.0288C419.397 45.0288 419.008 45.2261 418.73 45.6208C418.464 46.0155 418.331 46.5861 418.331 47.3328V47.5888H420.635V48.4528H418.331V55.9248H417.242ZM424.322 55.9248V48.4528H423.17V47.5888H424.322V47.3648C424.322 46.6821 424.418 46.0955 424.61 45.6048C424.813 45.1141 425.096 44.7408 425.458 44.4848C425.832 44.2181 426.269 44.0848 426.771 44.0848C427.101 44.0848 427.421 44.1328 427.731 44.2288C428.04 44.3248 428.306 44.4528 428.53 44.6128L428.194 45.3968C428.056 45.2795 427.875 45.1888 427.651 45.1248C427.427 45.0608 427.202 45.0288 426.978 45.0288C426.477 45.0288 426.088 45.2261 425.81 45.6208C425.544 46.0155 425.411 46.5861 425.411 47.3328V47.5888H427.714V48.4528H425.411V55.9248H424.322ZM431.002 55.9248V47.5888H432.09V55.9248H431.002ZM431.002 45.8448V44.2448H432.09V45.8448H431.002Z" fill="#333333"/>
<path d="M498.354 49.5713C498.549 49.7665 498.549 50.0831 498.354 50.2784L495.172 53.4603C494.976 53.6556 494.66 53.6556 494.464 53.4603C494.269 53.2651 494.269 52.9485 494.464 52.7532L497.293 49.9248L494.464 47.0964C494.269 46.9011 494.269 46.5845 494.464 46.3893C494.66 46.194 494.976 46.194 495.172 46.3893L498.354 49.5713ZM464 49.4248H498V50.4248H464V49.4248Z" fill="#037CB0"/>
<path d="M528.945 62.2262C528.207 64.7768 525.885 66.5211 523.237 66.514L518.036 66.5002L525.762 40.2365L535.303 40.2619L528.945 62.2262Z" fill="url(#paint0_linear_173_56)"/>
<path d="M526.604 37.3733C527.351 34.8353 529.667 33.1034 532.305 33.1105L537.369 33.124L535.935 38.0771L526.404 38.0517L526.604 37.3733Z" fill="url(#paint1_linear_173_56)"/>
<path d="M544.124 24.5535C544.852 21.988 547.181 20.229 549.841 20.236L554.928 20.2496L539.434 74.9216C538.706 77.4885 536.376 79.2488 533.716 79.2417L528.602 79.2281L544.124 24.5535Z" fill="url(#paint2_linear_173_56)"/>
<path d="M558.154 24.9743C558.882 22.4088 561.212 20.6498 563.871 20.6569L568.813 20.67L553.457 75.3292C552.734 77.9027 550.401 79.6696 547.736 79.6625L542.632 79.6489L558.154 24.9743Z" fill="url(#paint3_linear_173_56)"/>
<path d="M570.843 62.171C570.107 64.7257 567.783 66.4741 565.132 66.467L560.219 66.4539L567.724 40.1896L577.165 40.2148L570.843 62.171Z" fill="url(#paint4_linear_173_56)"/>
<path d="M568.529 37.3711C569.261 34.8105 571.588 33.0565 574.243 33.0636L579.22 33.0768L577.793 38.0311L568.352 37.9912L568.529 37.3711Z" fill="url(#paint5_linear_173_56)"/>
<defs>
<linearGradient id="paint0_linear_173_56" x1="532.821" y1="31.781" x2="522.204" y2="67.7312" gradientUnits="userSpaceOnUse">
<stop offset="0.245" stop-color="#037CB0"/>
<stop offset="1" stop-color="#FFD000"/>
</linearGradient>
<linearGradient id="paint1_linear_173_56" x1="532.821" y1="31.781" x2="522.204" y2="67.7312" gradientUnits="userSpaceOnUse">
<stop offset="0.245" stop-color="#037CB0"/>
<stop offset="1" stop-color="#FFD000"/>
</linearGradient>
<linearGradient id="paint2_linear_173_56" x1="550.507" y1="18.9441" x2="532.375" y2="80.3424" gradientUnits="userSpaceOnUse">
<stop offset="0.25" stop-color="#037CB0"/>
<stop offset="1" stop-color="#FFD000"/>
</linearGradient>
<linearGradient id="paint3_linear_173_56" x1="564.459" y1="19.3844" x2="546.339" y2="80.7435" gradientUnits="userSpaceOnUse">
<stop offset="0.245" stop-color="#037CB0"/>
<stop offset="1" stop-color="#FFD000"/>
</linearGradient>
<linearGradient id="paint4_linear_173_56" x1="574.825" y1="31.7791" x2="564.235" y2="67.64" gradientUnits="userSpaceOnUse">
<stop offset="0.245" stop-color="#037CB0"/>
<stop offset="1" stop-color="#FFD000"/>
</linearGradient>
<linearGradient id="paint5_linear_173_56" x1="574.825" y1="31.7791" x2="564.235" y2="67.64" gradientUnits="userSpaceOnUse">
<stop offset="0.245" stop-color="#037CB0"/>
<stop offset="1" stop-color="#FFD000"/>
</linearGradient>
</defs>
</svg>
