<svg width="600" height="600" viewBox="0 0 600 600" fill="none" xmlns="http://www.w3.org/2000/svg">
<g clip-path="url(#clip0_169_941)">
<path d="M275.303 118.046C275.303 118.046 197.119 121.488 155.701 203.239C114.283 284.989 71.519 259.472 46.2636 333.217C21.0082 406.96 71.9358 490.819 106.073 499.905C140.211 508.991 530.144 499.905 530.144 499.905C530.144 499.905 581.664 464.681 585.704 373.189C589.745 281.698 512.97 251.141 481.149 238.134C449.329 225.126 400.292 116.026 275.303 118.046Z" fill="#F2F8FB"/>
<path d="M387.329 341.624C477.393 281.027 494.857 249.912 539.31 244.125C647.584 230.034 568.253 509.913 320.312 569.72C202.511 598.135 56.5887 520.633 35.7197 460.417C15.5445 402.2 69.863 380.362 150.07 411.586C230.279 442.811 341.441 372.5 387.329 341.624Z" stroke="#81BDD7" stroke-miterlimit="10"/>
<path d="M491.826 262.759C497.211 267.684 497.582 276.042 492.656 281.426C487.73 286.81 479.373 287.182 473.989 282.256C468.605 277.33 468.233 268.973 473.159 263.588C478.085 258.204 486.442 257.833 491.826 262.759Z" fill="#FFD000" stroke="#FFD000"/>
<path d="M487.082 551.666C492.437 546.311 492.437 537.628 487.082 532.273C481.726 526.917 473.044 526.917 467.688 532.273C462.333 537.628 462.333 546.311 467.688 551.666C473.044 557.021 481.726 557.021 487.082 551.666Z" stroke="#FFD000" stroke-miterlimit="10"/>
<path d="M298.784 243.747C306.358 243.747 312.498 237.608 312.498 230.034C312.498 222.46 306.358 216.321 298.784 216.321C291.211 216.321 285.071 222.46 285.071 230.034C285.071 237.608 291.211 243.747 298.784 243.747Z" stroke="#FFD000" stroke-miterlimit="10"/>
<path d="M259.979 284.819L246.069 304.182H272.504L259.979 284.819Z" stroke="#FFD000" stroke-miterlimit="10" stroke-linecap="round" stroke-linejoin="round"/>
<path d="M211.05 547.119H186.691L194.748 531.604L211.05 547.119Z" fill="#FFD000" stroke="#FFD000"/>
<path d="M64.9624 323.778C68.2826 309.717 59.5755 295.627 45.5144 292.307C31.4533 288.987 17.363 297.694 14.0428 311.755C10.7226 325.816 19.4298 339.906 33.4908 343.227C47.5519 346.547 61.6422 337.84 64.9624 323.778Z" stroke="#81BDD7" stroke-miterlimit="10" stroke-linecap="round" stroke-linejoin="round"/>
<path d="M36.7712 322.872C36.605 322.005 36.5219 321.233 36.5219 320.557C36.5219 319.524 36.6644 318.663 36.9493 317.974C37.2343 317.274 37.5846 316.716 38.0001 316.3C38.4157 315.873 38.956 315.415 39.6209 314.929C40.1908 314.513 40.642 314.151 40.9745 313.842C41.3069 313.522 41.5859 313.13 41.8115 312.667C42.0371 312.192 42.1499 311.628 42.1499 310.975C42.1499 309.989 41.8531 309.229 41.2594 308.695C40.6657 308.149 39.8821 307.876 38.9085 307.876C37.8873 307.876 36.9968 308.149 36.2369 308.695C35.477 309.229 34.919 309.847 34.5627 310.547L32.0337 307.092C32.7342 306.225 33.696 305.483 34.919 304.866C36.1419 304.237 37.5074 303.922 39.0153 303.922C41.6038 303.922 43.5451 304.492 44.8393 305.632C46.1335 306.76 46.7806 308.386 46.7806 310.512C46.7806 311.367 46.65 312.103 46.3888 312.72C46.1276 313.326 45.801 313.836 45.4092 314.252C45.0174 314.656 44.489 315.13 43.8241 315.677C43.0998 316.258 42.5121 316.787 42.0609 317.262C41.6216 317.737 41.2475 318.348 40.9388 319.096C40.6301 319.844 40.4758 320.747 40.4758 321.803V322.872H36.7712ZM36.7356 326.292H40.7607V331.599H36.7356V326.292Z" fill="#B3D8E7"/>
<path d="M327.406 144.999C337.622 134.783 337.622 118.219 327.406 108.002C317.189 97.7859 300.625 97.7859 290.409 108.002C280.193 118.219 280.193 134.783 290.409 144.999C300.625 155.215 317.189 155.215 327.406 144.999Z" fill="#B3D8E7"/>
<path d="M306.166 131.626C306 130.759 305.917 129.988 305.917 129.311C305.917 128.278 306.059 127.417 306.344 126.728C306.629 126.028 306.98 125.47 307.395 125.054C307.811 124.627 308.351 124.169 309.016 123.683C309.586 123.267 310.037 122.905 310.369 122.596C310.702 122.276 310.981 121.884 311.207 121.421C311.432 120.946 311.545 120.382 311.545 119.729C311.545 118.743 311.248 117.983 310.654 117.449C310.061 116.903 309.277 116.63 308.303 116.63C307.282 116.63 306.392 116.903 305.632 117.449C304.872 117.983 304.314 118.601 303.958 119.301L301.429 115.846C302.129 114.979 303.091 114.237 304.314 113.62C305.537 112.991 306.902 112.676 308.41 112.676C310.999 112.676 312.94 113.246 314.234 114.386C315.529 115.514 316.176 117.14 316.176 119.266C316.176 120.121 316.045 120.857 315.784 121.474C315.523 122.08 315.196 122.59 314.804 123.006C314.412 123.41 313.884 123.885 313.219 124.431C312.495 125.013 311.907 125.541 311.456 126.016C311.017 126.491 310.643 127.102 310.334 127.85C310.025 128.598 309.871 129.501 309.871 130.557V131.626H306.166ZM306.131 135.046H310.156V140.353H306.131V135.046Z" fill="white"/>
<path d="M110.444 316.337C117.26 317.939 121.486 324.763 119.884 331.578C118.282 338.393 111.459 342.619 104.644 341.018C97.8286 339.416 93.6023 332.593 95.2041 325.777C96.8058 318.962 103.629 314.736 110.444 316.337Z" fill="#FFD000" stroke="#FFD000"/>
<path d="M574.289 93.2091H456.383C449.652 93.2091 444.197 98.6645 444.197 105.395V176.358C444.197 183.089 449.652 188.544 456.383 188.544H480.382L475.623 200.841C474.245 204.402 478.369 207.556 481.445 205.295L504.236 188.543H574.291C581.021 188.543 586.477 183.087 586.477 176.357V105.394C586.475 98.6645 581.019 93.2091 574.289 93.2091Z" fill="#CDE5EF"/>
<path d="M458.105 113.102H570.89" stroke="white" stroke-miterlimit="10" stroke-linecap="round" stroke-linejoin="round"/>
<path d="M458.105 123.345H570.89" stroke="white" stroke-miterlimit="10" stroke-linecap="round" stroke-linejoin="round"/>
<path d="M458.105 133.59H570.89" stroke="white" stroke-miterlimit="10" stroke-linecap="round" stroke-linejoin="round"/>
<path d="M458.105 143.835H570.89" stroke="white" stroke-miterlimit="10" stroke-linecap="round" stroke-linejoin="round"/>
<path d="M458.105 154.08H570.89" stroke="white" stroke-miterlimit="10" stroke-linecap="round" stroke-linejoin="round"/>
<path d="M458.105 164.324H570.89" stroke="white" stroke-miterlimit="10" stroke-linecap="round" stroke-linejoin="round"/>
<path d="M205.626 318.793C205.626 318.793 204.425 308.715 202.866 303.914C201.306 299.115 194.707 289.996 194.707 289.996C194.707 289.996 192.068 295.636 195.907 300.314C195.907 300.314 195.668 307.754 196.028 310.393C196.028 310.393 183.554 299.738 181.154 298.658C179.633 297.444 177.776 295.964 175.509 294.157C167.231 287.558 161.711 289.597 162.43 290.078C162.926 290.407 172.394 298.064 178.255 302.811L177.488 303.909C175.707 302.488 172.871 300.224 168.669 296.875C160.391 290.276 154.87 292.315 155.59 292.796C156.192 293.197 170.051 304.422 174.57 308.085L173.237 309.996C171.484 308.597 168.568 306.27 164.108 302.715C155.83 296.116 150.311 298.156 151.029 298.636C151.645 299.047 166.166 310.811 170.318 314.176L168.905 316.201C167.363 314.802 163.082 310.999 158.949 308.115C153.79 304.515 150.07 306.195 150.07 306.195C150.07 306.195 150.07 306.195 152.349 308.234C154.628 310.274 166.506 319.634 166.506 319.634C166.506 319.634 184.642 335.832 189.193 337.392L193.631 341.626L209.96 323.951L205.626 318.793Z" fill="#FCD3C4"/>
<path d="M336.181 430.677C326.445 444.717 312.826 453.389 294.719 449.705C246.231 439.849 188.979 345.728 188.979 345.728L191.86 342.61L213.229 319.491L287.599 387.073L310.824 353.453L333.509 320.622L344.72 304.399C344.72 304.399 351.286 314.781 355.418 347.782C357.997 368.464 352.55 407.124 336.181 430.677Z" fill="#037CB0"/>
<path d="M336.181 430.677C326.445 444.717 312.826 453.389 294.719 449.705C246.231 439.849 188.979 345.728 188.979 345.728L191.86 342.61L193.637 341.623C193.637 341.623 261.862 435.48 290.614 421.519C308.391 412.888 311.246 378.479 310.825 353.452L333.51 320.621L336.181 430.677Z" fill="#037CB0"/>
<path d="M518.305 421.519L513.887 499.317H496.754L503.489 421.519H518.305Z" fill="#4FA3C8"/>
<path d="M413.44 421.519L409.022 499.317H391.89L398.625 421.519H413.44Z" fill="#4FA3C8"/>
<path d="M520.058 434.986H384.323C370.831 434.986 359.894 424.049 359.894 410.557V334.631C359.894 321.139 370.831 310.202 384.323 310.202H520.058C533.55 310.202 544.487 321.139 544.487 334.631V410.557C544.487 424.049 533.55 434.986 520.058 434.986Z" fill="#4FA3C8"/>
<path d="M508.61 434.986H372.875C359.383 434.986 348.446 424.049 348.446 410.557V334.631C348.446 321.139 359.383 310.202 372.875 310.202H508.61C522.102 310.202 533.039 321.139 533.039 334.631V410.557C533.038 424.049 522.101 434.986 508.61 434.986Z" fill="#9ACBDF"/>
<path d="M406.3 275.174C406.3 275.174 433.07 270.875 469.085 308.133L477.393 499.317H326.874C326.874 499.317 310.439 370.337 329.596 324.469C348.755 278.599 383.164 273.123 406.3 275.174Z" fill="#81BDD7"/>
<path d="M353.787 171.487L360.396 162.438L416.737 181.302L416.248 202.465H419.969C427.525 202.465 433.651 208.59 433.651 216.148C433.651 223.705 427.526 229.83 419.969 229.83H415.615L414.952 258.554V283.796L374.161 289.405L373.162 272.522L372.633 263.652L366.714 260.826C349.771 252.742 338.98 235.639 338.98 216.865C338.98 200.546 344.168 184.657 353.787 171.487Z" fill="#FCD3C4"/>
<path d="M372.633 263.651L373.162 272.521C374.661 272.342 376.231 272.11 377.861 271.813C403.054 267.221 412.917 244.449 411.894 232.717C411.894 232.717 403.4 260.933 372.633 263.651Z" fill="#FFB898"/>
<path d="M420.39 212.228C419.334 213.027 418.362 214.083 418.015 215.404C418.015 215.404 420.118 216.105 420.309 218.464C420.5 220.822 418.015 221.843 418.015 221.843C418.015 221.843 419.927 225.03 423.114 223.309C426.302 221.588 425.773 215.58 422.605 214.321C422.605 214.321 427.641 213.748 429.488 215.597C429.488 215.597 429.91 213.743 427.805 212.103C425.636 210.41 422.581 210.568 420.39 212.228Z" fill="#FFB898"/>
<path d="M353.787 171.487C353.787 171.487 361.416 184.619 371.275 188.868C381.133 193.117 391.67 186.932 401.528 192.575C411.387 198.217 405.098 208.791 407.308 213.873C409.518 218.953 411.968 219.633 411.968 219.633C411.968 219.633 413.293 205.186 416.25 202.466C416.25 202.466 425.101 202.392 427.857 204.971C427.857 204.971 432.803 194.988 433.653 187.169C434.503 179.35 425.834 176.801 425.834 176.801C425.834 176.801 423.794 158.105 400.848 151.136C377.903 144.167 360.397 155.215 351.218 151.136C342.04 147.057 333.711 153.177 333.202 162.44C332.692 171.702 338.981 175.102 338.981 175.102C338.981 175.102 334.732 178.684 336.432 184.202C338.132 189.72 343.466 190.993 343.466 190.993C343.466 190.993 349.744 177.002 353.787 171.487Z" fill="#3F2D1F"/>
<path d="M358.356 238.686L381.719 237.539C381.719 237.539 376.31 245.953 368.612 245.873C361.523 245.798 358.356 238.686 358.356 238.686Z" fill="white"/>
<path d="M385.209 200.636C384.916 200.636 384.619 200.538 384.374 200.335C379.444 196.273 374.595 199.723 374.545 199.761C373.958 200.191 373.134 200.061 372.706 199.474C372.278 198.887 372.406 198.065 372.993 197.635C375.236 195.997 380.853 194.026 386.047 198.304C386.608 198.767 386.688 199.596 386.225 200.157C385.967 200.472 385.59 200.636 385.209 200.636Z" fill="#3F2D1F"/>
<path d="M356.156 200.636C355.861 200.636 355.566 200.538 355.321 200.335C350.39 196.273 345.54 199.723 345.491 199.761C344.904 200.191 344.081 200.061 343.653 199.474C343.225 198.887 343.352 198.065 343.939 197.635C346.184 195.997 351.8 194.026 356.993 198.304C357.556 198.767 357.634 199.596 357.172 200.157C356.913 200.472 356.537 200.636 356.156 200.636Z" fill="#3F2D1F"/>
<path d="M422.433 277.169L415.039 267.552L385.673 277.9L380.918 286.151L377.702 278.739L373.242 273.87L368.613 282.795C368.613 282.795 368.753 291.745 380.081 294.122C391.407 296.5 416.158 287.27 422.433 277.169Z" fill="#037CB0"/>
<path d="M427.855 204.97C427.855 204.97 423.29 203.226 418.956 207.211C414.623 211.196 416.09 215.112 416.09 215.112C416.09 215.112 418.092 210.39 422.383 210.906C426.674 211.421 429.795 223.013 424.062 225.181C418.328 227.348 411.01 224.046 411.266 215.112C411.522 206.18 414.798 201.127 420.198 200.359C425.598 199.589 427.735 204.126 427.855 204.97Z" fill="#81BDD7"/>
<path d="M387.314 249.87C386.76 249.87 386.267 249.478 386.158 248.915C386.036 248.275 386.454 247.657 387.094 247.534C409.304 243.263 416.828 222.347 416.902 222.136C417.115 221.523 417.784 221.197 418.401 221.411C419.016 221.624 419.341 222.294 419.128 222.909C419.049 223.133 411.113 245.315 387.537 249.848C387.464 249.863 387.389 249.87 387.314 249.87Z" fill="#81BDD7"/>
<path d="M382.36 249.096C382.36 251.84 384.585 254.065 387.33 254.065C390.076 254.065 392.3 251.84 392.3 249.096C392.3 246.352 390.075 244.125 387.33 244.125C384.586 244.125 382.36 246.35 382.36 249.096Z" fill="#4FA3C8"/>
<path d="M421.823 213.048C421.823 213.048 421.194 218.538 422.4 221.476C423.606 224.412 425.495 222.892 425.862 219.325C426.227 215.759 422.662 210.756 421.823 213.048Z" fill="#4FA3C8"/>
<path d="M374.564 211.205C374.564 211.205 374.574 216.329 381.281 217.179C387.989 218.029 389.211 211.205 389.211 211.205C389.211 211.205 385.402 207.634 380.477 207.528C375.553 207.422 374.564 211.205 374.564 211.205Z" fill="white"/>
<path d="M343.918 211.205C343.918 211.205 343.927 216.329 350.491 217.179C357.054 218.029 357.934 211.21 357.934 211.21C357.934 211.21 354.522 207.634 349.703 207.528C344.885 207.422 343.918 211.205 343.918 211.205Z" fill="white"/>
<path d="M357.932 211.21C357.932 211.21 354.417 207.348 350.655 206.655C346.893 205.961 344.31 207.793 343.918 211.21C343.918 211.21 344.665 208.388 348.427 208.042C352.19 207.695 357.932 211.21 357.932 211.21Z" fill="#3F2D1F"/>
<path d="M389.212 211.205C389.212 211.205 385.539 207.168 381.606 206.444C377.674 205.72 374.976 207.634 374.566 211.205C374.566 211.205 375.345 208.255 379.278 207.893C383.21 207.531 389.212 211.205 389.212 211.205Z" fill="#3F2D1F"/>
<path d="M364.378 211.351L361.285 230.026C361.285 230.026 358.823 230.215 355.412 228.827C355.412 228.827 363.494 213.449 364.378 211.351Z" fill="#FFB898"/>
<path d="M272.324 499.317C272.324 499.317 271.822 484.404 288.614 479.733C305.408 475.06 325.865 488.722 329.148 499.317H272.324Z" fill="#4FA3C8"/>
<path d="M381.004 217.841C383.328 217.841 385.212 215.458 385.212 212.517C385.212 209.577 383.328 207.193 381.004 207.193C378.68 207.193 376.796 209.577 376.796 212.517C376.796 215.458 378.68 217.841 381.004 217.841Z" fill="#3F2D1F"/>
<path d="M355.707 212.683C355.707 215.532 353.87 217.841 351.603 217.841C349.337 217.841 347.499 215.532 347.499 212.683C347.499 209.835 349.337 207.526 351.603 207.526C353.87 207.526 355.707 209.834 355.707 212.683Z" fill="#3F2D1F"/>
<path d="M399.608 225.832C399.608 228.154 396.859 230.035 393.468 230.035C390.078 230.035 387.329 228.154 387.329 225.832C387.329 223.511 390.078 221.629 393.468 221.629C396.859 221.628 399.608 223.51 399.608 225.832Z" fill="#FFB898"/>
<path d="M349.477 223.817C349.477 226.138 346.728 228.019 343.337 228.019C339.946 228.019 337.198 226.138 337.198 223.817C337.198 221.495 339.946 219.613 343.337 219.613C346.728 219.613 349.477 221.495 349.477 223.817Z" fill="#FFB898"/>
<path d="M510.449 451.848C506.198 464.638 498.422 474.309 489.212 481.152C482.935 485.797 476.001 489.126 469.079 491.218C440.184 499.981 333.167 499.31 333.167 499.31L337.193 466.98L457.026 440.046C457.026 440.046 441.526 390.874 442.21 351.148C442.829 314.173 453.854 298.935 466.276 306.134C467.21 306.686 468.143 307.344 469.078 308.133C469.078 308.133 488 336.331 507.526 394.241C515.515 417.926 515.37 436.98 510.449 451.848Z" fill="#037CB0"/>
<path d="M325.023 471.274L299.6 466.641C299.6 466.641 294.928 465.841 290.255 467.862C285.583 469.883 280.279 479.733 280.279 479.733C280.279 479.733 284.573 479.796 287.476 477.177C290.381 474.556 290.759 472.284 290.759 472.284L300.089 473.01L300.255 475.175C297.139 475.856 288.269 477.879 283.941 479.734C278.638 482.008 275.859 488.952 275.859 488.952C275.859 488.952 282.804 487.942 286.339 483.648L300.781 482.01L300.885 483.359C297.908 483.561 292.592 484.229 287.603 486.427C280.153 489.71 277.881 494.13 277.881 494.13C277.881 494.13 285.331 494.13 290.571 490.09L294.099 489.798C290.612 492.032 287.603 497.414 287.603 497.414C287.603 497.414 289.118 497.794 292.529 496.278C295.937 494.763 296.822 493.035 296.822 493.035L306.758 493.778C311.917 494.515 319.722 495.239 324.182 493.752L333.683 495.214L336.666 471.28H325.023V471.274Z" fill="#FCD3C4"/>
<path d="M536.664 514.962H58.62C54.3 514.962 50.7969 511.458 50.7969 507.138C50.7969 502.818 54.3 499.315 58.62 499.315H536.665C540.985 499.315 544.488 502.818 544.488 507.138C544.487 511.46 540.985 514.962 536.664 514.962Z" fill="#4FA3C8"/>
<path d="M353.413 514.962H55.4907C52.8987 514.962 50.7969 511.458 50.7969 507.138C50.7969 502.818 52.8987 499.315 55.4907 499.315H204.452H353.413C356.005 499.315 358.107 502.818 358.107 507.138C358.107 511.46 356.005 514.962 353.413 514.962Z" fill="#9ACBDF"/>
<path d="M263.323 469.167H98.6922C93.1398 469.167 88.3338 465.304 87.1389 459.882L65.8588 363.235C64.8148 358.496 68.4245 354.006 73.2775 354.006H239.765C244.686 354.006 248.945 357.428 250.003 362.234L271.35 459.181C272.478 464.31 268.573 469.167 263.323 469.167Z" fill="#9ACBDF"/>
<path d="M125.688 452.796C124.313 459.722 116.231 463.954 107.635 462.246C99.0396 460.541 93.1869 453.543 94.5618 446.617C95.9367 439.691 104.019 435.461 112.614 437.167C121.21 438.874 127.063 445.871 125.688 452.796Z" fill="#B3D8E7"/>
<path d="M271.348 459.181L250.002 362.233C248.944 357.427 244.685 354.004 239.764 354.004H230.167C235.088 354.004 239.347 357.427 240.405 362.233L261.751 459.181C262.881 464.31 258.977 469.167 253.725 469.167H263.322C268.573 469.167 272.478 464.31 271.348 459.181Z" fill="#4FA3C8"/>
<path d="M242.858 495.433C242.858 497.578 241.126 499.31 238.981 499.31H102.316C100.124 499.31 98.1314 498.414 96.6942 496.977C95.2445 495.54 94.3611 493.56 94.3611 491.355C94.3611 489.788 94.8319 488.255 95.7042 486.948L129.529 436.27C130.495 434.844 132.099 433.984 133.818 433.984H192.958C195.079 433.984 196.411 436.282 195.338 438.121L166.782 487.455C165.721 489.281 167.041 491.556 169.139 491.556H238.98C240.053 491.556 241.02 491.992 241.726 492.7C242.422 493.395 242.858 494.361 242.858 495.433Z" fill="#4FA3C8"/>
<path d="M202.283 410.912H118.438C117.462 410.912 116.67 410.12 116.67 409.144C116.67 408.168 117.462 407.376 118.438 407.376H202.283C203.26 407.376 204.052 408.168 204.052 409.144C204.052 410.121 203.26 410.912 202.283 410.912Z" fill="#4FA3C8"/>
<path d="M206.325 421.519H122.478C121.502 421.519 120.71 420.727 120.71 419.751C120.71 418.775 121.502 417.983 122.478 417.983H206.324C207.3 417.983 208.092 418.775 208.092 419.751C208.092 420.729 207.301 421.519 206.325 421.519Z" fill="#4FA3C8"/>
<path d="M67.595 359.73H245.147C246.591 359.73 247.979 359.997 249.259 360.473C247.661 356.614 243.872 354.006 239.577 354.006H73.0892C69.3936 354.006 66.4264 356.61 65.6787 359.944C66.2907 359.806 66.9318 359.73 67.595 359.73Z" fill="#B3D8E7"/>
<path d="M249.999 452.796C248.624 459.722 240.542 463.954 231.946 462.246C223.35 460.541 217.498 453.543 218.873 446.617C220.247 439.691 228.329 435.461 236.925 437.167C245.519 438.874 251.372 445.871 249.999 452.796Z" fill="#B3D8E7"/>
<path d="M242.849 495.715C242.702 497.78 240.844 499.311 238.774 499.311H160.997C157.857 499.311 155.311 496.765 155.311 493.626C155.311 492.552 155.615 491.499 156.188 490.591L191.921 433.985H192.958C195.079 433.985 196.411 436.284 195.338 438.122L166.782 487.456C165.721 489.282 167.041 491.557 169.139 491.557H238.98C240.053 491.557 241.02 491.994 241.726 492.701C242.483 493.454 242.932 494.532 242.849 495.715Z" fill="#1C89B8"/>
<path d="M469.079 491.218C440.184 499.981 333.167 499.31 333.167 499.31L471.436 462.518C485.894 458.67 495.102 444.522 492.751 429.747C486.674 391.549 474.911 323.011 466.276 306.132C467.21 306.685 468.143 307.343 469.078 308.132C469.078 308.132 488 336.33 507.526 394.24C527.055 452.164 497.989 482.467 469.079 491.218Z" fill="#037CB0"/>
<path d="M460.926 441.401C460.926 441.401 480.696 441.123 496.752 455.783" stroke="#1C89B8" stroke-miterlimit="10" stroke-linecap="round" stroke-linejoin="round"/>
<path d="M419.556 280.62C419.556 280.62 445.571 289.466 458.383 304.633" stroke="#1C89B8" stroke-miterlimit="10" stroke-linecap="round" stroke-linejoin="round"/>
<path d="M290.056 391.493C290.056 391.493 304.422 410.102 306.261 431.532" stroke="#1C89B8" stroke-miterlimit="10" stroke-linecap="round" stroke-linejoin="round"/>
<path d="M364.368 282.932C364.368 282.932 358.906 298.257 381.719 300.137C404.533 302.017 429.538 279.636 429.538 279.636" stroke="#1C89B8" stroke-miterlimit="10" stroke-linecap="round" stroke-linejoin="round"/>
<path d="M333.167 471.274L327.825 494.309L333.682 495.21L336.663 471.274H333.167Z" fill="#FFB898"/>
<path d="M380.079 294.122C380.079 294.122 373.315 313.396 368.612 363.242" stroke="#1C89B8" stroke-miterlimit="10" stroke-linecap="round" stroke-linejoin="round"/>
<path d="M423.768 177.013C423.768 177.013 413.112 174.492 403.469 178.2" stroke="#543E2F" stroke-miterlimit="10" stroke-linecap="round" stroke-linejoin="round"/>
<path d="M353.787 171.487C353.787 171.487 352.712 187.092 372.454 189.321" stroke="#543E2F" stroke-miterlimit="10" stroke-linecap="round" stroke-linejoin="round"/>
<path d="M425.525 166.727C425.525 166.727 427.822 172.928 425.834 176.8" stroke="#543E2F" stroke-miterlimit="10" stroke-linecap="round" stroke-linejoin="round"/>
<path d="M336.118 160.398C336.118 160.398 335.227 169.98 345.018 173.749" stroke="#543E2F" stroke-miterlimit="10" stroke-linecap="round" stroke-linejoin="round"/>
<path d="M339.679 178.2C339.679 178.2 337.861 185.372 344.629 188.461" stroke="#543E2F" stroke-miterlimit="10" stroke-linecap="round" stroke-linejoin="round"/>
<path d="M371.277 153.721C371.277 153.721 383.903 148.184 401.837 156.242C418.013 163.512 419.556 172.561 419.556 172.561" stroke="#543E2F" stroke-miterlimit="10" stroke-linecap="round" stroke-linejoin="round"/>
<path d="M425.525 180.869C425.525 180.869 429.085 182.55 429.085 187.594C429.085 192.638 426.644 197.781 426.644 197.781" stroke="#543E2F" stroke-miterlimit="10" stroke-linecap="round" stroke-linejoin="round"/>
<path d="M366.233 179.09C366.233 179.09 368.752 185.765 383.44 186.507C398.128 187.249 402.875 187.249 406.881 191.996C410.887 196.744 409.552 201.936 409.552 201.936" stroke="#543E2F" stroke-miterlimit="10" stroke-linecap="round" stroke-linejoin="round"/>
<path d="M360.732 24.2234H227.056C219.314 24.2234 213.039 30.4998 213.039 38.2412V61.1289C213.039 68.8703 219.314 75.1454 227.056 75.1454H244.761L240.641 89.3709C239.874 92.0197 242.793 94.2088 245.121 92.7314L272.841 75.1454H360.732C368.473 75.1454 374.748 68.8703 374.748 61.1289V38.2412C374.75 30.4998 368.473 24.2234 360.732 24.2234Z" fill="#CDE5EF"/>
<path d="M231.219 37.9241H357.351" stroke="white" stroke-miterlimit="10" stroke-linecap="round" stroke-linejoin="round"/>
<path d="M231.219 48.6258H357.351" stroke="white" stroke-miterlimit="10" stroke-linecap="round" stroke-linejoin="round"/>
<path d="M231.219 59.3275H357.351" stroke="white" stroke-miterlimit="10" stroke-linecap="round" stroke-linejoin="round"/>
<path d="M142.95 276.822C205.807 276.822 256.762 225.866 256.762 163.009C256.762 100.152 205.807 49.1963 142.95 49.1963C80.0929 49.1963 29.1372 100.152 29.1372 163.009C29.1372 225.866 80.0929 276.822 142.95 276.822Z" stroke="#81BDD7" stroke-miterlimit="10"/>
<path d="M249.539 162.999C249.539 202.776 227.749 237.462 195.459 255.778C191.841 257.83 188.09 259.687 184.235 261.304C171.537 266.646 157.589 269.594 142.958 269.594C141.985 269.594 141.024 269.58 140.063 269.554C139.47 269.54 138.879 269.514 138.287 269.475C137.866 269.475 137.457 269.462 137.036 269.422C136.405 269.396 135.773 269.356 135.155 269.304C134.891 269.291 134.628 269.278 134.365 269.238C133.615 269.198 132.878 269.12 132.142 269.054C131.286 268.962 130.444 268.87 129.602 268.764L155.958 230.645L85.9425 154.734L40.2571 191.644C39.7836 189.934 39.3488 188.223 38.9542 186.473C38.8102 185.815 38.6648 185.143 38.5333 184.486C38.3491 183.618 38.1775 182.736 38.0335 181.867C37.9282 181.289 37.823 180.71 37.7441 180.131C37.5987 179.302 37.481 178.46 37.3619 177.618C37.2955 177.144 37.2304 176.683 37.1778 176.21C37.085 175.486 36.9936 174.749 36.9271 174.012L36.887 173.578C36.8081 172.788 36.7291 171.999 36.6765 171.196C36.6101 170.314 36.545 169.434 36.5048 168.538V168.485C36.4522 167.577 36.4121 166.67 36.3996 165.748C36.3733 164.839 36.3608 163.919 36.3608 162.998C36.3608 145.3 40.6767 128.615 48.3087 113.93C64.1653 83.4046 94.3638 61.5222 129.983 57.1938C134.234 56.6802 138.562 56.4171 142.957 56.4171C160.852 56.4171 177.734 60.8382 192.537 68.6405L146.115 106.129L177.103 200.092L237.197 113.195C245.078 128.052 249.539 145.012 249.539 162.999Z" fill="#B3D8E7"/>
<path d="M48.0274 113.838L85.6599 154.642L39.9745 191.551C39.501 189.841 39.0662 188.13 38.6716 186.38C38.5276 185.722 38.3822 185.051 38.2507 184.393C38.0665 183.525 37.8948 182.643 37.7508 181.775C37.6456 181.196 37.5404 180.617 37.4614 180.038C37.3174 179.209 37.1984 178.367 37.0793 177.525C37.0128 177.052 36.9477 176.591 36.8951 176.117C36.8024 175.393 36.711 174.656 36.6445 173.92L36.6057 173.485C36.5268 172.696 36.4479 171.906 36.3953 171.103C36.3302 170.221 36.2637 169.341 36.2236 168.445V168.392C36.171 167.484 36.1322 166.577 36.1184 165.655C36.0921 164.747 36.0796 163.826 36.0796 162.905C36.0796 145.207 40.3954 128.522 48.0274 113.838Z" fill="#9ACBDF"/>
<path d="M183.953 261.211C171.254 266.553 157.307 269.501 142.674 269.501C141.701 269.501 140.74 269.487 139.779 269.461C139.187 269.447 138.595 269.421 138.003 269.382C137.582 269.382 137.173 269.368 136.752 269.329C136.121 269.303 135.49 269.263 134.871 269.212C134.608 269.198 134.345 269.185 134.081 269.145C133.331 269.106 132.594 269.028 131.858 268.961C131.002 268.87 130.16 268.777 129.318 268.672L155.675 230.552L183.953 261.211Z" fill="#9ACBDF"/>
<path d="M192.256 68.5477L145.834 106.036L129.702 57.1011C133.953 56.5874 138.281 56.3243 142.676 56.3243C160.571 56.3229 177.452 60.744 192.256 68.5477Z" fill="#9ACBDF"/>
<path d="M249.256 162.905C249.256 202.682 227.467 237.368 195.176 255.684L176.82 199.999L236.914 113.102C244.797 127.957 249.256 144.918 249.256 162.905Z" fill="#9ACBDF"/>
<path d="M155.676 230.552L129.32 268.672C128.648 268.593 127.978 268.501 127.307 268.395C126.754 268.316 126.202 268.237 125.649 268.146C125.03 268.054 124.425 267.948 123.806 267.83C122.991 267.686 122.175 267.54 121.358 267.369C120.66 267.225 119.964 267.079 119.279 266.922C118.844 266.829 118.41 266.724 117.976 266.618C117.397 266.487 116.831 266.341 116.252 266.197C114.37 265.724 112.515 265.184 110.673 264.605C110.002 264.395 109.331 264.184 108.674 263.96C107.779 263.657 106.897 263.355 106.029 263.025C105.214 262.736 104.398 262.42 103.595 262.104C102.779 261.789 101.976 261.459 101.187 261.117C100.398 260.788 99.6087 260.446 98.8319 260.091C98.8319 260.091 98.8195 260.091 98.8056 260.077C98.0164 259.722 97.2396 259.353 96.4628 258.985C94.0938 257.854 91.7911 256.63 89.5287 255.327C88.8184 254.906 88.1081 254.485 87.4102 254.064C85.937 253.182 84.4887 252.249 83.0805 251.288C82.3702 250.814 81.6724 250.327 80.9759 249.827C80.2781 249.34 79.5816 248.827 78.8962 248.314C78.8699 248.3 78.8436 248.274 78.8048 248.247C78.1596 247.76 77.5019 247.26 76.8705 246.76C76.3042 246.313 75.7518 245.878 75.1993 245.418C74.3838 244.761 73.5807 244.077 72.7915 243.391C72.1864 242.865 71.5938 242.339 71.0025 241.799C70.4099 241.259 69.8187 240.707 69.2261 240.154C69.1596 240.088 69.0945 240.035 69.0419 239.982C68.4631 239.416 67.8844 238.851 67.3056 238.272C66.8058 237.773 66.3059 237.259 65.8061 236.747C65.1221 236.036 64.4381 235.312 63.779 234.576C63.2002 233.944 62.6339 233.299 62.0815 232.654C61.6342 232.154 61.2133 231.64 60.7924 231.128C60.5293 230.838 60.2925 230.549 60.0558 230.246C59.6348 229.732 59.2264 229.22 58.8193 228.706C58.3582 228.127 57.911 227.549 57.4776 226.956C56.885 226.179 56.3062 225.404 55.7538 224.601C55.2539 223.903 54.7665 223.206 54.293 222.495C53.951 221.995 53.6215 221.495 53.2933 220.981C53.0828 220.678 52.8848 220.362 52.6882 220.047C51.7938 218.652 50.9256 217.218 50.0962 215.77C49.7141 215.086 49.3333 214.402 48.9511 213.704C48.083 212.112 47.2536 210.493 46.4768 208.848C46.1348 208.164 45.8191 207.466 45.5035 206.77C45.1739 206.033 44.8458 205.296 44.5301 204.56C44.5038 204.507 44.4913 204.441 44.465 204.388C44.1355 203.611 43.8073 202.822 43.4916 202.033C43.4916 202.007 43.4778 201.98 43.4653 201.942C43.1496 201.152 42.8464 200.349 42.557 199.548C42.2676 198.785 41.9907 198.008 41.7276 197.219C41.4908 196.521 41.2541 195.81 41.0298 195.1C40.8719 194.574 40.7002 194.034 40.5424 193.508C40.5299 193.468 40.5161 193.441 40.5161 193.403C40.3319 192.784 40.1478 192.166 39.9761 191.547L85.6614 154.638L155.676 230.552Z" fill="#4FA3C8"/>
<path d="M236.914 113.102L176.82 199.999L145.833 106.036L192.255 68.5477C211.269 78.5474 226.875 94.1132 236.914 113.102Z" fill="#4FA3C8"/>
<path d="M176.82 199.999L155.676 230.552L85.6599 154.642L145.833 106.035L176.82 199.999Z" fill="#9ACBDF"/>
<path d="M162.406 148.079L162.741 142.467L166.487 140.679C177.207 135.563 184.035 124.742 184.035 112.862C184.035 102.537 180.754 92.4835 174.667 84.1495L170.486 78.4242L134.836 90.3595L135.146 103.75H132.792C128.011 103.75 124.134 107.626 124.134 112.408C124.134 117.189 128.01 121.066 132.792 121.066H135.546L135.966 139.242V145.622C135.966 145.622 129.527 151.825 117.308 157.088C117.308 157.088 130.931 174.194 153.444 175.322C175.956 176.451 176.823 162.913 176.823 162.913C176.823 162.913 167.488 157.325 162.135 152.696L162.406 148.079Z" fill="#FCD3C4"/>
<path d="M162.741 142.467L162.406 148.079C161.458 147.966 160.464 147.818 159.432 147.63C143.491 144.724 137.251 130.315 137.897 122.892C137.897 122.892 143.274 140.747 162.741 142.467Z" fill="#FFB898"/>
<path d="M132.522 109.928C133.19 110.434 133.804 111.102 134.025 111.937C134.025 111.937 132.694 112.38 132.572 113.873C132.452 115.366 134.025 116.011 134.025 116.011C134.025 116.011 132.814 118.027 130.798 116.939C128.782 115.85 129.116 112.048 131.121 111.252C131.121 111.252 127.935 110.889 126.765 112.059C126.765 112.059 126.498 110.886 127.83 109.848C129.203 108.779 131.135 108.877 132.522 109.928Z" fill="#FFB898"/>
<path d="M161.974 99.3817C161.789 99.3872 161.603 99.4551 161.451 99.5866C158.408 102.248 155.277 100.154 155.245 100.132C154.866 99.8718 154.348 99.9688 154.088 100.348C153.827 100.728 153.924 101.245 154.302 101.506C155.752 102.5 159.341 103.644 162.546 100.841C162.892 100.539 162.928 100.013 162.625 99.6669C162.456 99.4703 162.214 99.3748 161.974 99.3817Z" fill="#3F2D1F"/>
<path d="M180.705 101.428C180.542 101.338 180.348 101.302 180.152 101.34C176.178 102.083 174.545 98.6894 174.53 98.6548C174.336 98.2366 173.841 98.058 173.424 98.2519C173.007 98.4457 172.827 98.9414 173.021 99.3582C173.764 100.952 176.273 103.76 180.458 102.978C180.91 102.893 181.208 102.458 181.122 102.006C181.074 101.749 180.916 101.544 180.705 101.428Z" fill="#3F2D1F"/>
<path d="M161.519 109.28C161.519 109.28 161.513 112.523 157.268 113.06C153.023 113.598 152.25 109.28 152.25 109.28C152.25 109.28 154.661 107.021 157.778 106.954C160.893 106.888 161.519 109.28 161.519 109.28Z" fill="white"/>
<path d="M180.911 109.28C180.911 109.28 180.905 112.523 176.753 113.06C172.6 113.599 172.043 109.283 172.043 109.283C172.043 109.283 174.202 107.019 177.251 106.953C180.299 106.888 180.911 109.28 180.911 109.28Z" fill="white"/>
<path d="M172.042 109.284C172.042 109.284 174.266 106.841 176.647 106.402C179.027 105.963 180.661 107.122 180.91 109.284C180.91 109.284 180.438 107.498 178.057 107.28C175.677 107.061 172.042 109.284 172.042 109.284Z" fill="#3F2D1F"/>
<path d="M152.25 109.28C152.25 109.28 154.575 106.727 157.063 106.269C159.551 105.81 161.259 107.022 161.517 109.28C161.517 109.28 161.025 107.414 158.536 107.185C156.048 106.957 152.25 109.28 152.25 109.28Z" fill="#3F2D1F"/>
<path d="M167.964 109.373L169.922 121.189C169.922 121.189 171.48 121.31 173.637 120.431C173.637 120.431 168.524 110.701 167.964 109.373Z" fill="#FFB898"/>
<path d="M154.783 110.111C154.783 111.972 155.975 113.48 157.445 113.48C158.916 113.48 160.108 111.972 160.108 110.111C160.108 108.252 158.916 106.742 157.445 106.742C155.975 106.742 154.783 108.252 154.783 110.111Z" fill="#3F2D1F"/>
<path d="M173.451 110.216C173.451 112.019 174.614 113.48 176.049 113.48C177.483 113.48 178.645 112.019 178.645 110.216C178.645 108.414 177.482 106.953 176.049 106.953C174.613 106.953 173.451 108.414 173.451 110.216Z" fill="#3F2D1F"/>
<path d="M149.557 121.196C151.702 121.196 153.441 120.005 153.441 118.536C153.441 117.067 151.702 115.877 149.557 115.877C147.412 115.877 145.673 117.067 145.673 118.536C145.673 120.005 147.412 121.196 149.557 121.196Z" fill="#FFB898"/>
<path d="M181.277 119.921C183.423 119.921 185.163 118.73 185.163 117.261C185.163 115.792 183.423 114.601 181.277 114.601C179.132 114.601 177.392 115.792 177.392 117.261C177.392 118.73 179.132 119.921 181.277 119.921Z" fill="#FFB898"/>
<path d="M169.375 125.742C169.375 125.742 163.101 125.954 160.563 128.28C158.025 130.606 167.401 131.311 169.375 130.394C171.348 129.479 172.226 125.448 169.375 125.742Z" fill="white"/>
<path d="M154.083 108.009C154.083 108.009 152.833 108.602 151.471 107.727C151.471 107.727 151.598 109.009 152.252 109.28L154.083 108.009Z" fill="#3F2D1F"/>
<path d="M179.473 107.14C179.473 107.14 180.949 108.361 182.071 107.986C182.483 107.847 180.915 109.284 180.915 109.284C180.541 107.922 179.473 107.14 179.473 107.14Z" fill="#3F2D1F"/>
<path d="M188.041 169.749C188.041 169.749 208.004 206.237 215.617 236.834L195.033 248.82C195.033 248.82 186.852 232.467 184.034 207.372C181.218 182.276 188.041 169.749 188.041 169.749Z" fill="#B59300"/>
<path d="M176.82 87.3618C176.82 87.3618 156.873 106.24 138.641 104.172C138.641 104.172 136.666 117.425 139.956 122.501C139.956 122.501 138.547 123.898 136.572 118.593C134.598 113.289 136.157 105.961 135.142 103.752C135.142 103.752 129.058 102.31 125.061 108.505C121.063 114.7 129.813 122.264 135.542 121.066L135.805 132.457C135.805 132.457 129.241 134.907 123.695 130.207C118.15 125.508 120.876 120.714 120.876 120.714C120.876 120.714 112.512 112.458 112.135 100.992C111.759 89.526 121.299 82.3205 121.299 82.3205C121.299 82.3205 124.447 65.3562 145.406 65.1678C166.365 64.9795 172.474 71.2768 172.474 71.2768C172.474 71.2768 186.003 73.5794 189.815 87.96C193.627 102.341 184.033 110.031 184.033 110.031C184.033 110.031 181.259 91.6057 176.82 87.3618Z" fill="#3F2D1F"/>
<path d="M124.825 80.346C124.825 80.346 123.817 68.0257 112.125 68.5463C100.435 69.0669 98.1795 82.4603 103.254 88.6634C108.33 94.8665 114.956 93.4569 119.89 88.6634C124.825 83.8712 124.825 80.346 124.825 80.346Z" fill="#3F2D1F"/>
<path d="M140.082 128.826L132.713 144.168C132.45 144.721 131.753 144.879 131.267 144.51L130.963 144.274L106.818 125.615C106.45 125.325 106.331 124.812 106.555 124.391L114.884 109.14L115.082 108.785C115.359 108.258 116.055 108.127 116.516 108.508L139.833 127.679C140.161 127.957 140.267 128.431 140.082 128.826Z" fill="white"/>
<path d="M190.9 258.118C176.492 265.394 160.202 269.487 142.951 269.487C128.753 269.487 115.201 266.711 102.818 261.659L94.9355 171.379C94.9355 171.379 96.5542 165.155 106.212 161.602C117.186 157.549 117.304 157.088 117.304 157.088C159.135 178.141 176.819 162.904 176.819 162.904L186.029 167.588C186.938 168.049 187.648 168.812 188.043 169.746C190.214 174.944 197.411 192.971 198.135 205.392C198.703 215.289 194.019 241.881 190.9 258.118Z" fill="#FFD000"/>
<path d="M99.5532 165.255C99.5532 165.255 89.3527 169.305 85.66 195.997C81.9658 222.69 85.9092 236.832 85.9092 236.832L106.215 212.728C106.215 212.728 113.165 175.775 99.5532 165.255Z" fill="#B59300"/>
<path d="M129.872 126.216C127.925 127.34 122.858 130.884 121.952 132.377C121.517 133.096 121.336 133.914 121.261 134.576L119.987 133.94C120.63 131.193 121.816 128.448 121.816 128.448C121.816 128.448 123.837 127.366 124.965 125.768C126.093 124.17 125.67 122.894 125.67 122.894C124.9 123.338 123.661 124.148 122.369 125.065C122.387 125.04 122.409 125.018 122.427 124.992C123.554 123.394 123.132 122.117 123.132 122.117C121.11 123.284 115.849 126.965 114.909 128.515C114.402 129.352 114.227 130.315 114.169 131.034L113.813 130.857C114.417 127.95 115.755 124.85 115.755 124.85C115.755 124.85 117.775 123.769 118.903 122.171C120.03 120.573 119.608 119.297 119.608 119.297C117.586 120.464 112.325 124.144 111.385 125.695C110.445 127.246 110.633 129.266 110.633 129.266L111.385 142.518L112.125 157.086C112.125 157.086 85.3497 218.366 85.6599 233.31C85.9701 248.254 94.9368 254.175 94.9368 254.175C94.9368 254.175 104.524 253.046 110.633 243.609C116.742 234.171 122.381 162.254 122.381 162.254C122.381 162.254 125.577 157.367 126.141 152.692C126.704 148.018 124.558 136.219 124.558 136.219C125.195 133.8 126.161 131.56 126.161 131.56C126.161 131.56 128.108 130.519 129.194 128.981C130.279 127.444 129.872 126.216 129.872 126.216Z" fill="#FCD3C4"/>
<path d="M140.082 128.826L132.713 144.168C132.45 144.721 131.753 144.879 131.267 144.51L130.963 144.274L138.411 128.261L114.884 109.142L115.082 108.786C115.359 108.26 116.055 108.128 116.516 108.509L139.833 127.68C140.161 127.957 140.267 128.431 140.082 128.826Z" fill="#D9D9D9"/>
<path d="M114.885 112.209L113.863 114.218L118.939 118.305L120.102 116.367L114.885 112.209Z" fill="#D9D9D9"/>
<path d="M261.672 172.701L255.984 173.759L255.831 173.255C257.476 172.693 261.34 171.173 262.905 168.827C264.915 165.811 265.62 162.895 265.62 162.895C265.62 162.895 262.135 164.719 260.793 168.2L258.099 168.701C259.179 168.032 260.18 167.222 260.808 166.279C262.819 163.262 263.524 160.348 263.524 160.348C263.524 160.348 260.038 162.171 258.697 165.652L255.299 166.284C256.708 165.177 258.184 163.734 258.801 162.174C260.133 158.802 260.207 155.803 260.207 155.803C260.207 155.803 257.185 158.319 256.605 162.004L252.869 163.564L236.519 168.671L236.643 166.31C236.643 166.31 237.259 165.94 238.985 164.583C240.712 163.226 242.866 157.595 242.866 157.595C242.866 157.595 234.298 161.623 232.21 166.062C230.122 170.501 228.133 181.477 228.133 181.477C228.133 181.477 208.484 228.76 204.994 241.787C204.994 241.787 198.246 244.397 195.035 248.818C195.035 248.818 201.896 261.412 207.347 262.728C207.347 262.728 223.137 259.72 230.656 241.298C238.174 222.876 241.204 185.667 241.204 185.667L256.987 177.035C256.987 177.035 261.755 175.678 263.399 173.212C265.044 170.746 265.618 168.362 265.618 168.362C265.618 168.362 262.769 169.856 261.672 172.701Z" fill="#FCD3C4"/>
<path d="M191.374 226.363C191.374 226.363 182.129 224.583 166.306 224.583C150.482 224.583 134.657 227.55 134.657 227.55" stroke="#847062" stroke-miterlimit="10" stroke-linecap="round" stroke-linejoin="round"/>
<path d="M174.711 76.2323C174.711 76.2323 177.258 80.9261 177.039 84.144" stroke="#543E2F" stroke-miterlimit="10" stroke-linecap="round" stroke-linejoin="round"/>
<path d="M170.801 72.6711C170.801 72.6711 160.469 76.0343 154.783 84.144" stroke="#543E2F" stroke-miterlimit="10" stroke-linecap="round" stroke-linejoin="round"/>
<path d="M122.887 77.9132C122.887 77.9132 121.206 81.6711 121.106 83.0557C121.106 83.0557 115.584 88.1982 114.884 91.1654" stroke="#543E2F" stroke-miterlimit="10" stroke-linecap="round" stroke-linejoin="round"/>
<path d="M102.117 91.8577C102.513 92.154 107.974 96.2912 113.577 92.8048" stroke="#543E2F" stroke-miterlimit="10" stroke-linecap="round" stroke-linejoin="round"/>
<path d="M129.7 76.2323C129.7 76.2323 142.518 64.4132 163.733 70.644" stroke="#543E2F" stroke-miterlimit="10" stroke-linecap="round" stroke-linejoin="round"/>
<path d="M132.283 100.642C132.283 100.642 137.788 102.861 149.557 100.642C161.326 98.4221 172.042 86.3691 172.042 86.3691" stroke="#543E2F" stroke-miterlimit="10" stroke-linecap="round" stroke-linejoin="round"/>
<path d="M127.529 165.255C127.529 165.255 143.624 171.967 160.108 170.979C176.592 169.99 178.645 167.023 178.645 167.023" stroke="#847062" stroke-miterlimit="10" stroke-linecap="round" stroke-linejoin="round"/>
</g>
<defs>
<clipPath id="clip0_169_941">
<rect width="600" height="600" fill="white"/>
</clipPath>
</defs>
</svg>
