<svg width="51" height="49" viewBox="0 0 51 49" fill="none" xmlns="http://www.w3.org/2000/svg">
<path d="M8.97524 33.4246C8.23667 35.9754 5.91409 37.7197 3.26584 37.7127L0.0286486 37.7041L6.1852 16.7821L13.7882 16.8024L8.97524 33.4246Z" fill="white"/>
<path d="M6.69734 15.0417C7.3867 12.699 9.52483 11.1005 11.9602 11.107L15.4346 11.1163L14.2922 15.0619L6.69734 15.0417Z" fill="white"/>
<path d="M20.5672 5.16977C21.2958 2.60413 23.6255 0.844953 26.2851 0.852046L29.4269 0.860425L17.3298 43.5314C16.6021 46.0983 14.2718 47.8588 11.6111 47.8517L8.44846 47.8433L20.5672 5.16977Z" fill="white"/>
<path d="M31.7476 5.50494C32.4762 2.9393 34.8058 1.18012 37.4655 1.18721L40.4913 1.19528L28.5032 43.8533C27.7799 46.4268 25.4465 48.1939 22.7808 48.1868L19.6289 48.1784L31.7476 5.50494Z" fill="white"/>
<path d="M42.3616 33.3791C41.6257 35.934 39.3012 37.6824 36.6498 37.6754L33.6429 37.6673L39.6236 16.7449L47.1467 16.765L42.3616 33.3791Z" fill="white"/>
<path d="M40.1242 14.9937C40.7909 12.6611 42.9109 11.0632 45.3302 11.0696L48.7844 11.0788L47.6477 15.0254L40.1242 14.9937Z" fill="white"/>
</svg>
