<svg width="201" height="308" viewBox="0 0 201 308" fill="none" xmlns="http://www.w3.org/2000/svg">
<rect width="201" height="308" fill="#6300FA"/>
<g clip-path="url(#clip0_596_1438)">
<path d="M14.4688 39.4706C14.4688 36.4925 15.0108 33.9352 16.0895 31.7932C17.1736 29.6512 18.7123 27.9955 20.7053 26.8207C22.6984 25.6458 25.0584 25.0612 27.7852 25.0612C30.512 25.0612 32.7186 25.6677 34.7555 26.8753C36.7869 28.0884 38.3967 29.755 39.5684 31.8752C40.7457 33.9953 41.3315 36.4379 41.3315 39.1919V40.9241H20.1195C20.4918 46.6234 23.1803 49.4703 28.1794 49.4703C30.1561 49.4703 31.7439 49.0223 32.9376 48.1316C34.1313 47.2354 34.8978 46.0278 35.2318 44.4978H40.9975C39.8039 50.8309 35.5111 53.9948 28.1246 53.9948C25.3267 53.9948 22.912 53.4101 20.8806 52.2353C18.8437 51.0604 17.2722 49.3884 16.1497 47.2081C15.0273 45.0278 14.4688 42.4541 14.4688 39.4706ZM27.8454 29.3616C23.3664 29.3616 20.8094 31.8916 20.1797 36.957H35.5166C35.2921 34.6511 34.4927 32.8041 33.1073 31.4271C31.7275 30.0501 29.9754 29.3616 27.8454 29.3616Z" fill="white"/>
<path d="M72.998 14.4495H78.4243V53.5468H72.998V14.4495Z" fill="white"/>
<path d="M84.582 25.6185H90.0083V29.9736C90.9062 28.4108 92.0506 27.1977 93.4523 26.3398C94.8541 25.4819 96.2613 25.0557 97.6794 25.0557H99.1907V30.6949H97.7342C95.5714 30.6949 93.7425 31.3178 92.2477 32.5637C90.7529 33.8095 90.0083 35.4215 90.0083 37.3941V53.5358H84.582V25.6185Z" fill="white"/>
<path d="M127.955 25.6187V53.5469H122.528V48.465C121.559 50.2519 120.272 51.6507 118.668 52.6562C117.064 53.6616 115.235 54.1643 113.182 54.1643C110.794 54.1643 108.697 53.5523 106.885 52.3228C105.072 51.0934 103.665 49.383 102.658 47.1864C101.65 44.9897 101.146 42.4215 101.146 39.4762C101.146 36.5309 101.65 33.9736 102.658 31.7988C103.665 29.6186 105.072 27.9246 106.885 26.717C108.692 25.5039 110.794 24.9028 113.182 24.9028C115.235 24.9028 117.064 25.3946 118.668 26.3837C120.272 27.3727 121.559 28.7607 122.528 30.542V25.6296H127.955V25.6187ZM106.742 39.4707C106.742 42.5963 107.432 45.028 108.812 46.7602C110.192 48.4924 112.114 49.3557 114.578 49.3557C117.042 49.3557 119.073 48.4924 120.453 46.7602C121.833 45.028 122.523 42.5963 122.523 39.4707C122.523 36.3451 121.833 33.9791 120.453 32.2633C119.073 30.553 117.113 29.6951 114.578 29.6951C112.043 29.6951 110.192 30.553 108.812 32.2633C107.432 33.9736 106.742 36.3779 106.742 39.4707Z" fill="white"/>
<path d="M136.293 53.5467V30.143H131.365V25.6185H136.293V18.3564H141.665V25.6185H146.593V30.143H141.665V53.5467H136.293Z" fill="white"/>
<path d="M148.383 39.4706C148.383 36.4925 148.925 33.9352 150.004 31.7932C151.088 29.6512 152.626 27.9955 154.619 26.8207C156.612 25.6458 158.972 25.0612 161.699 25.0612C164.426 25.0612 166.633 25.6677 168.67 26.8753C170.701 28.0884 172.311 29.755 173.482 31.8752C174.66 33.9953 175.246 36.4379 175.246 39.1919V40.9241H154.034C154.406 46.6234 157.094 49.4703 162.093 49.4703C164.07 49.4703 165.658 49.0223 166.852 48.1316C168.045 47.2354 168.812 46.0278 169.146 44.4978H174.912C173.718 50.8309 169.425 53.9948 162.039 53.9948C159.241 53.9948 156.826 53.4101 154.795 52.2353C152.758 51.0604 151.186 49.3884 150.064 47.2081C148.947 45.0278 148.383 42.4541 148.383 39.4706ZM161.759 29.3616C157.28 29.3616 154.723 31.8916 154.094 36.957H169.431C169.206 34.6511 168.407 32.8041 167.021 31.4271C165.642 30.0501 163.889 29.3616 161.759 29.3616Z" fill="white"/>
<path d="M69.0562 25.3563C69.0562 27.3508 69.0781 29.1814 69.0288 31.0119C69.0233 31.2578 68.6838 31.5583 68.432 31.7332C66.0665 33.3616 63.734 35.0337 61.3083 36.5746C58.0997 38.6073 54.7487 38.5964 51.5072 36.7003C48.8297 35.132 46.2671 33.367 43.6717 31.6622C43.4308 31.5037 43.1735 31.1649 43.168 30.9081C43.1242 29.1322 43.1461 27.3508 43.1461 25.3782C43.5787 25.6459 43.8743 25.8208 44.1645 26.012C47.2637 28.0448 50.3573 30.083 53.4619 32.1157C55.4824 33.4381 57.1579 33.4326 59.1455 32.0829C62.1844 30.0229 65.2124 27.9464 68.2513 25.8809C68.4648 25.7388 68.6838 25.6077 69.0671 25.3618L69.0562 25.3563Z" fill="white"/>
<path d="M69.0577 53.5468C65.641 51.2136 62.4159 49.0169 59.1963 46.8148C57.1485 45.4159 55.5223 45.405 53.4306 46.7711C50.3315 48.8038 47.2324 50.8365 44.1332 52.8638C43.8595 53.0441 43.5802 53.2135 43.1422 53.4922C43.1422 51.5196 43.1257 49.689 43.1641 47.8639C43.1641 47.6399 43.4378 47.3612 43.6623 47.2137C46.203 45.5471 48.7108 43.8313 51.3226 42.2739C54.7667 40.2193 58.26 40.2521 61.6384 42.498C63.9436 44.028 66.2214 45.6072 68.4937 47.1918C68.7401 47.3612 69.0249 47.6782 69.0303 47.935C69.0741 49.7382 69.0577 51.5469 69.0577 53.5468Z" fill="white"/>
</g>
<g clip-path="url(#clip1_596_1438)">
<path d="M14.4688 101.037C14.4688 98.0592 15.0108 95.5019 16.0895 93.3599C17.1736 91.2178 18.7123 89.5622 20.7053 88.3873C22.6984 87.2125 25.0584 86.6278 27.7852 86.6278C30.512 86.6278 32.7186 87.2343 34.7555 88.442C36.7869 89.655 38.3967 91.3217 39.5684 93.4418C40.7457 95.562 41.3315 98.0045 41.3315 100.759V102.491H20.1195C20.4918 108.19 23.1803 111.037 28.1794 111.037C30.1561 111.037 31.7439 110.589 32.9376 109.698C34.1313 108.802 34.8978 107.594 35.2318 106.064H40.9975C39.8039 112.398 35.5111 115.561 28.1246 115.561C25.3267 115.561 22.912 114.977 20.8806 113.802C18.8437 112.627 17.2722 110.955 16.1497 108.775C15.0273 106.594 14.4688 104.021 14.4688 101.037ZM27.8454 90.9282C23.3664 90.9282 20.8094 93.4582 20.1797 98.5237H35.5166C35.2921 96.2177 34.4926 94.3708 33.1073 92.9938C31.7275 91.6167 29.9754 90.9282 27.8454 90.9282Z" fill="white"/>
<path d="M72.998 76.0161H78.4243V115.113H72.998V76.0161Z" fill="white"/>
<path d="M84.582 87.1851H90.0083V91.5402C90.9062 89.9774 92.0506 88.7643 93.4523 87.9064C94.8541 87.0485 96.2613 86.6223 97.6794 86.6223H99.1907V92.2615H97.7342C95.5714 92.2615 93.7425 92.8844 92.2477 94.1303C90.7529 95.3762 90.0083 96.9882 90.0083 98.9608V115.102H84.582V87.1851Z" fill="white"/>
<path d="M127.955 87.1853V115.114H122.528V110.032C121.559 111.819 120.272 113.217 118.668 114.223C117.064 115.228 115.235 115.731 113.182 115.731C110.794 115.731 108.697 115.119 106.885 113.889C105.072 112.66 103.665 110.95 102.658 108.753C101.65 106.556 101.146 103.988 101.146 101.043C101.146 98.0976 101.65 95.5403 102.658 93.3655C103.665 91.1852 105.072 89.4913 106.885 88.2836C108.692 87.0706 110.794 86.4695 113.182 86.4695C115.235 86.4695 117.064 86.9613 118.668 87.9503C120.272 88.9394 121.559 90.3273 122.528 92.1087V87.1962H127.955V87.1853ZM106.742 101.037C106.742 104.163 107.432 106.595 108.812 108.327C110.192 110.059 112.114 110.922 114.578 110.922C117.042 110.922 119.073 110.059 120.453 108.327C121.833 106.595 122.523 104.163 122.523 101.037C122.523 97.9118 121.833 95.5457 120.453 93.8299C119.073 92.1196 117.113 91.2617 114.578 91.2617C112.043 91.2617 110.192 92.1196 108.812 93.8299C107.432 95.5403 106.742 97.9446 106.742 101.037Z" fill="white"/>
<path d="M136.293 115.113V91.7097H131.365V87.1852H136.293V79.9231H141.665V87.1852H146.593V91.7097H141.665V115.113H136.293Z" fill="white"/>
<path d="M148.383 101.037C148.383 98.0592 148.925 95.5019 150.004 93.3599C151.088 91.2178 152.626 89.5622 154.619 88.3873C156.612 87.2125 158.972 86.6278 161.699 86.6278C164.426 86.6278 166.633 87.2343 168.67 88.442C170.701 89.655 172.311 91.3217 173.482 93.4418C174.66 95.562 175.246 98.0045 175.246 100.759V102.491H154.034C154.406 108.19 157.094 111.037 162.093 111.037C164.07 111.037 165.658 110.589 166.852 109.698C168.045 108.802 168.812 107.594 169.146 106.064H174.912C173.718 112.398 169.425 115.561 162.039 115.561C159.241 115.561 156.826 114.977 154.795 113.802C152.758 112.627 151.186 110.955 150.064 108.775C148.947 106.594 148.383 104.021 148.383 101.037ZM161.759 90.9282C157.28 90.9282 154.723 93.4582 154.094 98.5237H169.431C169.206 96.2177 168.407 94.3708 167.021 92.9938C165.642 91.6167 163.889 90.9282 161.759 90.9282Z" fill="white"/>
<path d="M179.084 80.0762V81.0379H177.222V85.8848H176.067V81.0379H174.205V80.0762H179.089H179.084ZM185.375 85.8848L185.162 82.4641C185.14 82.016 185.14 81.4586 185.118 80.8412H185.052C184.904 81.3548 184.729 82.0379 184.559 82.5734L183.508 85.7973H182.309L181.258 82.4859C181.148 82.0379 180.978 81.3548 180.852 80.8412H180.787C180.787 81.3767 180.765 81.9286 180.743 82.4641L180.529 85.8848H179.418L179.845 80.0762H181.581L182.588 82.9176C182.719 83.3657 182.824 83.7919 182.971 84.393H182.993C183.141 83.8575 183.272 83.3657 183.398 82.9395L184.406 80.0762H186.076L186.525 85.8848H185.37H185.375Z" fill="white"/>
<path d="M69.0562 86.923C69.0562 88.9175 69.0781 90.748 69.0288 92.5786C69.0233 92.8245 68.6838 93.125 68.432 93.2998C66.0665 94.9282 63.734 96.6003 61.3083 98.1412C58.0997 100.174 54.7487 100.163 51.5072 98.2669C48.8297 96.6987 46.2671 94.9337 43.6717 93.2288C43.4308 93.0703 43.1735 92.7316 43.168 92.4747C43.1242 90.6988 43.1461 88.9175 43.1461 86.9448C43.5787 87.2126 43.8743 87.3874 44.1645 87.5787C47.2637 89.6114 50.3573 91.6496 53.4619 93.6824C55.4824 95.0047 57.1579 94.9993 59.1455 93.6496C62.1844 91.5895 65.2124 89.5131 68.2513 87.4475C68.4648 87.3055 68.6838 87.1743 69.0671 86.9284L69.0562 86.923Z" fill="white"/>
<path d="M69.0577 115.113C65.641 112.78 62.4159 110.584 59.1963 108.381C57.1485 106.983 55.5223 106.972 53.4306 108.338C50.3315 110.37 47.2324 112.403 44.1332 114.43C43.8595 114.611 43.5802 114.78 43.1422 115.059C43.1422 113.086 43.1257 111.256 43.1641 109.431C43.1641 109.207 43.4378 108.928 43.6623 108.78C46.203 107.114 48.7108 105.398 51.3226 103.841C54.7667 101.786 58.26 101.819 61.6384 104.065C63.9436 105.595 66.2214 107.174 68.4937 108.758C68.7401 108.928 69.0249 109.245 69.0303 109.502C69.0741 111.305 69.0577 113.114 69.0577 115.113Z" fill="white"/>
</g>
<g clip-path="url(#clip2_596_1438)">
<path d="M83.8605 145.22C83.8605 149.28 83.9097 153.018 83.8057 156.75C83.7893 157.258 83.1048 157.859 82.5847 158.22C77.7662 161.542 73.0026 164.952 68.0582 168.088C61.5204 172.236 54.6815 172.208 48.0726 168.34C42.6026 165.143 37.3844 161.542 32.0896 158.067C31.6023 157.744 31.0712 157.056 31.0548 156.526C30.9671 152.903 31.011 149.28 31.011 145.253C31.8925 145.799 32.5003 146.16 33.0916 146.548C39.4104 150.695 45.7236 154.854 52.0478 158.996C56.1654 161.69 59.5821 161.679 63.6395 158.925C69.8377 154.723 76.0141 150.493 82.2014 146.275C82.634 145.98 83.0829 145.712 83.8605 145.22Z" fill="white"/>
<path d="M83.8553 202.705C76.885 197.951 70.3199 193.465 63.7493 188.979C59.5769 186.132 56.2533 186.104 51.9934 188.897C45.6747 193.039 39.3559 197.181 33.0372 201.322C32.4787 201.689 31.9093 202.033 31.0167 202.601C31.0167 198.574 30.9784 194.853 31.0605 191.132C31.0715 190.678 31.6245 190.099 32.0735 189.804C37.2533 186.41 42.3675 182.908 47.6896 179.733C54.7147 175.542 61.8329 175.607 68.721 180.186C73.4245 183.312 78.0677 186.531 82.7055 189.755C83.2037 190.099 83.7896 190.744 83.806 191.263C83.8991 194.946 83.8553 198.629 83.8553 202.705Z" fill="white"/>
</g>
<g clip-path="url(#clip3_596_1438)">
<path d="M170.26 157.58L167.944 152.353H168.882L170.501 156.188L172.121 152.353H173.058L170.743 157.58H170.26ZM167.774 157.58V152.353H168.683V157.58H167.774ZM172.319 157.58V152.353H173.229V157.58H172.319ZM164.365 157.58V152.807H165.274V157.58H164.365ZM162.774 153.148V152.353H166.865V153.148H162.774Z" fill="white"/>
<path d="M159.159 145.816C159.159 149.876 159.208 153.613 159.104 157.345C159.087 157.853 158.403 158.455 157.883 158.815C153.064 162.138 148.301 165.547 143.356 168.684C136.819 172.831 129.98 172.804 123.371 168.935C117.906 165.739 112.688 162.138 107.393 158.662C106.906 158.34 106.375 157.651 106.358 157.121C106.265 153.498 106.309 149.87 106.309 145.848C107.191 146.395 107.798 146.755 108.39 147.143C114.709 151.291 121.022 155.449 127.346 159.591C131.464 162.285 134.88 162.274 138.938 159.52C145.136 155.318 151.312 151.089 157.5 146.87C157.932 146.575 158.381 146.307 159.159 145.816Z" fill="white"/>
<path d="M159.154 203.3C152.184 198.546 145.619 194.06 139.048 189.574C134.876 186.727 131.552 186.7 127.292 189.492C120.973 193.634 114.655 197.776 108.336 201.918C107.778 202.284 107.208 202.628 106.316 203.197C106.316 199.169 106.277 195.448 106.359 191.727C106.37 191.273 106.923 190.694 107.372 190.399C112.552 187.006 117.666 183.503 122.988 180.328C130.014 176.137 137.132 176.203 144.02 180.782C148.723 183.908 153.367 187.126 158.004 190.35C158.503 190.694 159.088 191.339 159.105 191.858C159.198 195.541 159.154 199.224 159.154 203.3Z" fill="white"/>
</g>
<g clip-path="url(#clip4_596_1438)">
<rect x="35.5" y="245" width="130" height="43" rx="21.5" fill="white"/>
<path d="M67.668 271H61.332V260.6H62.868V269.544H67.668V271ZM68.8435 266.968C68.8435 264.424 70.3155 262.84 72.6515 262.84C74.9075 262.84 76.5235 264.536 76.5235 266.888V267.384H70.4595C70.5715 268.984 71.3555 269.832 72.7635 269.832C73.8995 269.832 74.6035 269.288 74.7795 268.408H76.4275C76.0915 270.2 74.8435 271.128 72.7475 271.128C70.3475 271.128 68.8435 269.528 68.8435 266.968ZM72.6675 264.072C71.4035 264.072 70.6515 264.776 70.4755 266.248H74.8595C74.7315 264.92 73.8835 264.072 72.6675 264.072ZM84.7559 268.632C84.7559 269.624 84.8519 270.472 85.0279 271H83.4439C83.3319 270.6 83.2679 270.12 83.2359 269.608C82.6759 270.568 81.6679 271.176 80.4839 271.176C78.9319 271.176 77.8279 270.168 77.8279 268.744C77.8279 267.4 78.6759 266.584 80.1799 266.488L82.3559 266.36C82.9799 266.312 83.2199 266.104 83.2199 265.624V265.592C83.2199 264.728 82.4199 264.04 81.4119 264.04C80.2439 264.04 79.6199 264.552 79.5079 265.544H77.8919C78.0039 263.88 79.3799 262.808 81.4119 262.808C83.3639 262.808 84.7559 264.04 84.7559 265.752V268.632ZM79.4119 268.632C79.4119 269.384 80.0359 269.864 80.9959 269.864C82.2599 269.864 83.2199 268.92 83.2199 267.64V267.384L80.7399 267.528C79.8599 267.592 79.4119 267.96 79.4119 268.632ZM86.4098 263H87.9618V264.248C88.4898 263.352 89.3378 262.84 90.1538 262.84H90.5858V264.456H90.1698C88.9378 264.456 87.9618 265.24 87.9618 266.376V271H86.4098V263ZM97.445 266.264C97.445 264.84 96.693 264.232 95.509 264.232C94.373 264.232 93.493 265.032 93.493 266.168V271H91.957V263H93.493V264.248C94.085 263.32 95.093 262.792 96.037 262.792C97.749 262.792 98.997 263.912 98.997 265.944V271H97.445V266.264ZM108.984 266.248C108.984 264.84 108.296 264.232 107.208 264.232C106.168 264.232 105.368 265.032 105.368 266.152V271H103.816V263H105.368V264.184C105.928 263.288 106.872 262.792 107.752 262.792C108.952 262.792 109.896 263.4 110.312 264.536C110.84 263.432 111.912 262.792 112.92 262.792C114.536 262.792 115.704 263.896 115.704 265.928V271H114.168V266.248C114.168 264.84 113.464 264.232 112.376 264.232C111.336 264.232 110.536 265.032 110.536 266.152V271H108.984V266.248ZM117.172 266.968C117.172 264.456 118.708 262.792 121.028 262.792C123.332 262.792 124.884 264.456 124.884 266.968C124.884 269.496 123.332 271.176 121.028 271.176C118.708 271.176 117.172 269.496 117.172 266.968ZM123.284 266.968C123.284 265.192 122.452 264.168 121.028 264.168C119.604 264.168 118.772 265.192 118.772 266.968C118.772 268.76 119.604 269.8 121.028 269.8C122.452 269.8 123.284 268.76 123.284 266.968ZM126.363 263H127.915V264.248C128.443 263.352 129.291 262.84 130.107 262.84H130.539V264.456H130.123C128.891 264.456 127.915 265.24 127.915 266.376V271H126.363V263ZM131.734 266.968C131.734 264.424 133.206 262.84 135.542 262.84C137.798 262.84 139.414 264.536 139.414 266.888V267.384H133.35C133.462 268.984 134.246 269.832 135.654 269.832C136.79 269.832 137.494 269.288 137.67 268.408H139.318C138.982 270.2 137.734 271.128 135.638 271.128C133.238 271.128 131.734 269.528 131.734 266.968ZM135.558 264.072C134.294 264.072 133.542 264.776 133.366 266.248H137.75C137.622 264.92 136.774 264.072 135.558 264.072Z" fill="#6300FA"/>
<path d="M40.5 293C40.5 289.686 43.1863 287 46.5 287H48.7773C52.0911 287 54.7773 289.686 54.7773 293V293C54.7773 296.314 52.0911 299 48.7773 299H46.5C43.1863 299 40.5 296.314 40.5 293V293Z" fill="#6300FA"/>
</g>
<defs>
<clipPath id="clip0_596_1438">
<rect width="161.329" height="39.7362" fill="white" transform="translate(14.4688 14.4495)"/>
</clipPath>
<clipPath id="clip1_596_1438">
<rect width="172.181" height="40.4587" fill="white" transform="translate(14.4688 75.8599)"/>
</clipPath>
<clipPath id="clip2_596_1438">
<rect width="53.5352" height="57.7981" fill="white" transform="translate(31 145.218)"/>
</clipPath>
<clipPath id="clip3_596_1438">
<rect width="64.3869" height="58.5206" fill="white" transform="translate(106.238 145.218)"/>
</clipPath>
<clipPath id="clip4_596_1438">
<rect x="35.5" y="245" width="130" height="43" rx="21.5" fill="white"/>
</clipPath>
</defs>
</svg>
