<svg width="396" height="474" viewBox="0 0 396 474" fill="none" xmlns="http://www.w3.org/2000/svg">
<rect width="396" height="474" fill="white"/>
<path d="M135.34 57.02V59H125.6V44.8H135.16V46.78H127.84V50.82H134.18V52.68H127.84V57.02H135.34ZM137.651 59V44.8H139.891V57.02H147.511V59H137.651ZM159.07 57.02V59H149.33V44.8H158.89V46.78H151.57V50.82H157.91V52.68H151.57V57.02H159.07ZM162.281 44.8L166.561 56.26L170.821 44.8H173.201L167.621 59H165.501L159.901 44.8H162.281ZM177.884 44.8H180.004L185.524 59H183.164L181.664 55.14H176.184L174.704 59H172.324L177.884 44.8ZM181.224 53.48L178.944 47.26L176.584 53.48H181.224ZM196.372 46.78H191.652V59H189.392V46.78H184.652V44.8H196.372V46.78ZM198.276 59V44.8H200.516V59H198.276ZM209.625 59.1C208.598 59.1 207.672 58.9 206.845 58.5C206.018 58.1 205.305 57.56 204.705 56.88C204.105 56.1867 203.638 55.4133 203.305 54.56C202.985 53.6933 202.825 52.8067 202.825 51.9C202.825 50.9533 202.998 50.0533 203.345 49.2C203.692 48.3333 204.172 47.5667 204.785 46.9C205.398 46.22 206.118 45.6867 206.945 45.3C207.785 44.9 208.692 44.7 209.665 44.7C210.678 44.7 211.598 44.9067 212.425 45.32C213.265 45.7333 213.978 46.2867 214.565 46.98C215.165 47.6733 215.625 48.4467 215.945 49.3C216.278 50.1533 216.445 51.0267 216.445 51.92C216.445 52.8667 216.272 53.7733 215.925 54.64C215.592 55.4933 215.118 56.26 214.505 56.94C213.892 57.6067 213.165 58.1333 212.325 58.52C211.498 58.9067 210.598 59.1 209.625 59.1ZM205.105 51.9C205.105 52.5667 205.212 53.2133 205.425 53.84C205.638 54.4667 205.938 55.0267 206.325 55.52C206.725 56 207.205 56.38 207.765 56.66C208.325 56.94 208.952 57.08 209.645 57.08C210.365 57.08 211.005 56.9333 211.565 56.64C212.125 56.3467 212.592 55.9533 212.965 55.46C213.352 54.9533 213.645 54.3933 213.845 53.78C214.045 53.1533 214.145 52.5267 214.145 51.9C214.145 51.2333 214.038 50.5933 213.825 49.98C213.625 49.3533 213.325 48.8 212.925 48.32C212.525 47.8267 212.045 47.44 211.485 47.16C210.938 46.88 210.325 46.74 209.645 46.74C208.925 46.74 208.285 46.8867 207.725 47.18C207.165 47.4733 206.692 47.8667 206.305 48.36C205.918 48.8533 205.618 49.4067 205.405 50.02C205.205 50.6333 205.105 51.26 205.105 51.9ZM221.004 48.96V59H218.764V44.8H220.604L228.644 55.06V44.82H230.904V59H228.944L221.004 48.96ZM242.496 48.14C242.363 47.9933 242.169 47.84 241.916 47.68C241.663 47.5067 241.363 47.3467 241.016 47.2C240.669 47.0533 240.296 46.9333 239.896 46.84C239.496 46.7467 239.083 46.7 238.656 46.7C237.723 46.7 237.029 46.8733 236.576 47.22C236.123 47.5667 235.896 48.0467 235.896 48.66C235.896 49.1133 236.023 49.4733 236.276 49.74C236.529 49.9933 236.916 50.2067 237.436 50.38C237.956 50.5533 238.609 50.74 239.396 50.94C240.356 51.1667 241.189 51.44 241.896 51.76C242.603 52.0667 243.143 52.48 243.516 53C243.889 53.52 244.076 54.2067 244.076 55.06C244.076 55.78 243.943 56.4 243.676 56.92C243.409 57.44 243.036 57.8667 242.556 58.2C242.076 58.52 241.523 58.76 240.896 58.92C240.269 59.0667 239.596 59.14 238.876 59.14C238.169 59.14 237.463 59.0667 236.756 58.92C236.063 58.7733 235.396 58.56 234.756 58.28C234.129 57.9867 233.549 57.6333 233.016 57.22L234.036 55.3C234.209 55.4733 234.456 55.6667 234.776 55.88C235.109 56.08 235.489 56.2733 235.916 56.46C236.356 56.6467 236.829 56.8067 237.336 56.94C237.856 57.06 238.383 57.12 238.916 57.12C239.809 57.12 240.489 56.9667 240.956 56.66C241.436 56.34 241.676 55.8867 241.676 55.3C241.676 54.82 241.523 54.44 241.216 54.16C240.909 53.8667 240.463 53.62 239.876 53.42C239.289 53.22 238.589 53.02 237.776 52.82C236.843 52.5667 236.063 52.2933 235.436 52C234.809 51.6933 234.336 51.3067 234.016 50.84C233.709 50.36 233.556 49.7533 233.556 49.02C233.556 48.0867 233.783 47.3 234.236 46.66C234.689 46.0067 235.303 45.52 236.076 45.2C236.863 44.8667 237.743 44.7 238.716 44.7C239.356 44.7 239.963 44.7733 240.536 44.92C241.109 45.0533 241.643 45.24 242.136 45.48C242.643 45.72 243.103 45.9933 243.516 46.3L242.496 48.14Z" fill="black"/>
<g filter="url(#filter0_d_576_1076)">
<rect x="124" y="122" width="149" height="137" rx="10" fill="white" shape-rendering="crispEdges"/>
<path d="M168.056 156.008V157H160.424V145.64H167.912V146.632H161.544V150.728H167.096V151.672H161.544V156.008H168.056ZM169.998 145.32H171.086V155.112C171.086 155.528 171.161 155.8 171.31 155.928C171.459 156.056 171.641 156.12 171.854 156.12C172.046 156.12 172.238 156.099 172.43 156.056C172.622 156.013 172.787 155.971 172.926 155.928L173.118 156.808C172.915 156.893 172.665 156.963 172.366 157.016C172.078 157.069 171.827 157.096 171.614 157.096C171.123 157.096 170.729 156.952 170.43 156.664C170.142 156.376 169.998 155.981 169.998 155.48V145.32ZM177.909 157.16C177.312 157.16 176.757 157.048 176.245 156.824C175.733 156.589 175.291 156.275 174.917 155.88C174.544 155.475 174.251 155.011 174.037 154.488C173.835 153.965 173.733 153.405 173.733 152.808C173.733 152.029 173.909 151.315 174.261 150.664C174.624 150.013 175.12 149.496 175.749 149.112C176.379 148.717 177.093 148.52 177.893 148.52C178.715 148.52 179.429 148.717 180.037 149.112C180.656 149.507 181.141 150.029 181.493 150.68C181.845 151.32 182.021 152.024 182.021 152.792C182.021 152.877 182.021 152.963 182.021 153.048C182.021 153.123 182.016 153.181 182.005 153.224H174.869C174.923 153.821 175.088 154.355 175.365 154.824C175.653 155.283 176.021 155.651 176.469 155.928C176.928 156.195 177.424 156.328 177.957 156.328C178.501 156.328 179.013 156.189 179.493 155.912C179.984 155.635 180.325 155.272 180.517 154.824L181.461 155.08C181.291 155.475 181.029 155.832 180.677 156.152C180.325 156.472 179.909 156.723 179.429 156.904C178.96 157.075 178.453 157.16 177.909 157.16ZM174.837 152.44H180.997C180.955 151.832 180.789 151.299 180.501 150.84C180.224 150.381 179.856 150.024 179.397 149.768C178.949 149.501 178.453 149.368 177.909 149.368C177.365 149.368 176.869 149.501 176.421 149.768C175.973 150.024 175.605 150.387 175.317 150.856C175.04 151.315 174.88 151.843 174.837 152.44ZM185.961 157L182.585 148.664H183.721L186.569 155.912L189.433 148.664H190.505L187.129 157H185.961ZM191.137 154.6C191.137 154.077 191.287 153.629 191.585 153.256C191.884 152.872 192.295 152.579 192.817 152.376C193.351 152.163 193.964 152.056 194.657 152.056C195.063 152.056 195.484 152.088 195.921 152.152C196.359 152.216 196.748 152.312 197.089 152.44V151.736C197.089 151.032 196.881 150.472 196.465 150.056C196.049 149.64 195.473 149.432 194.737 149.432C194.289 149.432 193.847 149.517 193.409 149.688C192.983 149.848 192.535 150.088 192.065 150.408L191.649 149.64C192.193 149.267 192.727 148.989 193.249 148.808C193.772 148.616 194.305 148.52 194.849 148.52C195.873 148.52 196.684 148.813 197.281 149.4C197.879 149.987 198.177 150.797 198.177 151.832V155.688C198.177 155.837 198.209 155.949 198.273 156.024C198.337 156.088 198.439 156.125 198.577 156.136V157C198.46 157.011 198.359 157.021 198.273 157.032C198.188 157.043 198.124 157.043 198.081 157.032C197.815 157.021 197.612 156.936 197.473 156.776C197.335 156.616 197.26 156.445 197.249 156.264L197.233 155.656C196.86 156.136 196.375 156.509 195.777 156.776C195.18 157.032 194.572 157.16 193.953 157.16C193.42 157.16 192.935 157.048 192.497 156.824C192.071 156.589 191.735 156.28 191.489 155.896C191.255 155.501 191.137 155.069 191.137 154.6ZM196.721 155.24C196.839 155.091 196.929 154.947 196.993 154.808C197.057 154.669 197.089 154.547 197.089 154.44V153.224C196.727 153.085 196.348 152.979 195.953 152.904C195.569 152.829 195.18 152.792 194.785 152.792C194.007 152.792 193.377 152.947 192.897 153.256C192.417 153.565 192.177 153.987 192.177 154.52C192.177 154.829 192.257 155.123 192.417 155.4C192.577 155.667 192.812 155.891 193.121 156.072C193.431 156.243 193.793 156.328 194.209 156.328C194.732 156.328 195.217 156.227 195.665 156.024C196.124 155.821 196.476 155.56 196.721 155.24ZM204.466 156.6C204.38 156.632 204.247 156.691 204.066 156.776C203.884 156.861 203.666 156.936 203.41 157C203.154 157.064 202.876 157.096 202.578 157.096C202.268 157.096 201.975 157.037 201.698 156.92C201.431 156.803 201.218 156.627 201.058 156.392C200.898 156.147 200.818 155.848 200.818 155.496V149.528H199.666V148.664H200.818V145.848H201.906V148.664H203.826V149.528H201.906V155.192C201.927 155.491 202.034 155.715 202.226 155.864C202.428 156.013 202.658 156.088 202.914 156.088C203.212 156.088 203.484 156.04 203.73 155.944C203.975 155.837 204.124 155.763 204.178 155.72L204.466 156.6ZM205.825 157V148.664H206.913V157H205.825ZM205.825 146.92V145.32H206.913V146.92H205.825ZM212.861 157.16C212.264 157.16 211.709 157.048 211.197 156.824C210.696 156.589 210.259 156.275 209.885 155.88C209.523 155.475 209.24 155.016 209.037 154.504C208.835 153.981 208.733 153.432 208.733 152.856C208.733 152.259 208.835 151.704 209.037 151.192C209.24 150.669 209.528 150.211 209.901 149.816C210.275 149.411 210.712 149.096 211.213 148.872C211.725 148.637 212.28 148.52 212.877 148.52C213.475 148.52 214.024 148.637 214.525 148.872C215.027 149.096 215.464 149.411 215.837 149.816C216.211 150.211 216.499 150.669 216.701 151.192C216.904 151.704 217.005 152.259 217.005 152.856C217.005 153.432 216.904 153.981 216.701 154.504C216.499 155.016 216.211 155.475 215.837 155.88C215.475 156.275 215.037 156.589 214.525 156.824C214.024 157.048 213.469 157.16 212.861 157.16ZM209.837 152.872C209.837 153.491 209.971 154.056 210.237 154.568C210.515 155.069 210.883 155.469 211.341 155.768C211.8 156.056 212.307 156.2 212.861 156.2C213.416 156.2 213.923 156.051 214.381 155.752C214.84 155.453 215.208 155.048 215.485 154.536C215.763 154.013 215.901 153.448 215.901 152.84C215.901 152.221 215.763 151.656 215.485 151.144C215.208 150.632 214.84 150.227 214.381 149.928C213.923 149.629 213.416 149.48 212.861 149.48C212.307 149.48 211.8 149.635 211.341 149.944C210.893 150.253 210.531 150.664 210.253 151.176C209.976 151.677 209.837 152.243 209.837 152.872ZM225.833 157H224.745V152.344C224.745 151.363 224.601 150.648 224.313 150.2C224.025 149.741 223.572 149.512 222.953 149.512C222.526 149.512 222.105 149.619 221.689 149.832C221.273 150.035 220.905 150.317 220.585 150.68C220.276 151.032 220.052 151.437 219.913 151.896V157H218.825V148.664H219.817V150.552C220.041 150.147 220.334 149.795 220.697 149.496C221.06 149.187 221.47 148.947 221.929 148.776C222.388 148.605 222.862 148.52 223.353 148.52C223.812 148.52 224.201 148.605 224.521 148.776C224.841 148.947 225.097 149.192 225.289 149.512C225.481 149.821 225.62 150.2 225.705 150.648C225.79 151.085 225.833 151.576 225.833 152.12V157ZM237.527 156.008V157H232.103V156.008H234.375V149.16C234.29 149.288 234.146 149.427 233.943 149.576C233.741 149.725 233.506 149.864 233.239 149.992C232.983 150.12 232.727 150.227 232.471 150.312C232.215 150.397 231.981 150.44 231.767 150.44V149.384C232.013 149.384 232.279 149.315 232.567 149.176C232.855 149.037 233.133 148.877 233.399 148.696C233.666 148.515 233.89 148.344 234.071 148.184C234.253 148.024 234.354 147.917 234.375 147.864H235.495V156.008H237.527Z" fill="black"/>
</g>
<g filter="url(#filter1_d_576_1076)">
<rect x="124" y="286" width="149" height="137" rx="10" fill="white" shape-rendering="crispEdges"/>
<path d="M167.056 320.008V321H159.424V309.64H166.912V310.632H160.544V314.728H166.096V315.672H160.544V320.008H167.056ZM168.998 309.32H170.086V319.112C170.086 319.528 170.161 319.8 170.31 319.928C170.459 320.056 170.641 320.12 170.854 320.12C171.046 320.12 171.238 320.099 171.43 320.056C171.622 320.013 171.787 319.971 171.926 319.928L172.118 320.808C171.915 320.893 171.665 320.963 171.366 321.016C171.078 321.069 170.827 321.096 170.614 321.096C170.123 321.096 169.729 320.952 169.43 320.664C169.142 320.376 168.998 319.981 168.998 319.48V309.32ZM176.909 321.16C176.312 321.16 175.757 321.048 175.245 320.824C174.733 320.589 174.291 320.275 173.917 319.88C173.544 319.475 173.251 319.011 173.037 318.488C172.835 317.965 172.733 317.405 172.733 316.808C172.733 316.029 172.909 315.315 173.261 314.664C173.624 314.013 174.12 313.496 174.749 313.112C175.379 312.717 176.093 312.52 176.893 312.52C177.715 312.52 178.429 312.717 179.037 313.112C179.656 313.507 180.141 314.029 180.493 314.68C180.845 315.32 181.021 316.024 181.021 316.792C181.021 316.877 181.021 316.963 181.021 317.048C181.021 317.123 181.016 317.181 181.005 317.224H173.869C173.923 317.821 174.088 318.355 174.365 318.824C174.653 319.283 175.021 319.651 175.469 319.928C175.928 320.195 176.424 320.328 176.957 320.328C177.501 320.328 178.013 320.189 178.493 319.912C178.984 319.635 179.325 319.272 179.517 318.824L180.461 319.08C180.291 319.475 180.029 319.832 179.677 320.152C179.325 320.472 178.909 320.723 178.429 320.904C177.96 321.075 177.453 321.16 176.909 321.16ZM173.837 316.44H179.997C179.955 315.832 179.789 315.299 179.501 314.84C179.224 314.381 178.856 314.024 178.397 313.768C177.949 313.501 177.453 313.368 176.909 313.368C176.365 313.368 175.869 313.501 175.421 313.768C174.973 314.024 174.605 314.387 174.317 314.856C174.04 315.315 173.88 315.843 173.837 316.44ZM184.961 321L181.585 312.664H182.721L185.569 319.912L188.433 312.664H189.505L186.129 321H184.961ZM190.137 318.6C190.137 318.077 190.287 317.629 190.585 317.256C190.884 316.872 191.295 316.579 191.817 316.376C192.351 316.163 192.964 316.056 193.657 316.056C194.063 316.056 194.484 316.088 194.921 316.152C195.359 316.216 195.748 316.312 196.089 316.44V315.736C196.089 315.032 195.881 314.472 195.465 314.056C195.049 313.64 194.473 313.432 193.737 313.432C193.289 313.432 192.847 313.517 192.409 313.688C191.983 313.848 191.535 314.088 191.065 314.408L190.649 313.64C191.193 313.267 191.727 312.989 192.249 312.808C192.772 312.616 193.305 312.52 193.849 312.52C194.873 312.52 195.684 312.813 196.281 313.4C196.879 313.987 197.177 314.797 197.177 315.832V319.688C197.177 319.837 197.209 319.949 197.273 320.024C197.337 320.088 197.439 320.125 197.577 320.136V321C197.46 321.011 197.359 321.021 197.273 321.032C197.188 321.043 197.124 321.043 197.081 321.032C196.815 321.021 196.612 320.936 196.473 320.776C196.335 320.616 196.26 320.445 196.249 320.264L196.233 319.656C195.86 320.136 195.375 320.509 194.777 320.776C194.18 321.032 193.572 321.16 192.953 321.16C192.42 321.16 191.935 321.048 191.497 320.824C191.071 320.589 190.735 320.28 190.489 319.896C190.255 319.501 190.137 319.069 190.137 318.6ZM195.721 319.24C195.839 319.091 195.929 318.947 195.993 318.808C196.057 318.669 196.089 318.547 196.089 318.44V317.224C195.727 317.085 195.348 316.979 194.953 316.904C194.569 316.829 194.18 316.792 193.785 316.792C193.007 316.792 192.377 316.947 191.897 317.256C191.417 317.565 191.177 317.987 191.177 318.52C191.177 318.829 191.257 319.123 191.417 319.4C191.577 319.667 191.812 319.891 192.121 320.072C192.431 320.243 192.793 320.328 193.209 320.328C193.732 320.328 194.217 320.227 194.665 320.024C195.124 319.821 195.476 319.56 195.721 319.24ZM203.466 320.6C203.38 320.632 203.247 320.691 203.066 320.776C202.884 320.861 202.666 320.936 202.41 321C202.154 321.064 201.876 321.096 201.578 321.096C201.268 321.096 200.975 321.037 200.698 320.92C200.431 320.803 200.218 320.627 200.058 320.392C199.898 320.147 199.818 319.848 199.818 319.496V313.528H198.666V312.664H199.818V309.848H200.906V312.664H202.826V313.528H200.906V319.192C200.927 319.491 201.034 319.715 201.226 319.864C201.428 320.013 201.658 320.088 201.914 320.088C202.212 320.088 202.484 320.04 202.73 319.944C202.975 319.837 203.124 319.763 203.178 319.72L203.466 320.6ZM204.825 321V312.664H205.913V321H204.825ZM204.825 310.92V309.32H205.913V310.92H204.825ZM211.861 321.16C211.264 321.16 210.709 321.048 210.197 320.824C209.696 320.589 209.259 320.275 208.885 319.88C208.523 319.475 208.24 319.016 208.037 318.504C207.835 317.981 207.733 317.432 207.733 316.856C207.733 316.259 207.835 315.704 208.037 315.192C208.24 314.669 208.528 314.211 208.901 313.816C209.275 313.411 209.712 313.096 210.213 312.872C210.725 312.637 211.28 312.52 211.877 312.52C212.475 312.52 213.024 312.637 213.525 312.872C214.027 313.096 214.464 313.411 214.837 313.816C215.211 314.211 215.499 314.669 215.701 315.192C215.904 315.704 216.005 316.259 216.005 316.856C216.005 317.432 215.904 317.981 215.701 318.504C215.499 319.016 215.211 319.475 214.837 319.88C214.475 320.275 214.037 320.589 213.525 320.824C213.024 321.048 212.469 321.16 211.861 321.16ZM208.837 316.872C208.837 317.491 208.971 318.056 209.237 318.568C209.515 319.069 209.883 319.469 210.341 319.768C210.8 320.056 211.307 320.2 211.861 320.2C212.416 320.2 212.923 320.051 213.381 319.752C213.84 319.453 214.208 319.048 214.485 318.536C214.763 318.013 214.901 317.448 214.901 316.84C214.901 316.221 214.763 315.656 214.485 315.144C214.208 314.632 213.84 314.227 213.381 313.928C212.923 313.629 212.416 313.48 211.861 313.48C211.307 313.48 210.8 313.635 210.341 313.944C209.893 314.253 209.531 314.664 209.253 315.176C208.976 315.677 208.837 316.243 208.837 316.872ZM224.833 321H223.745V316.344C223.745 315.363 223.601 314.648 223.313 314.2C223.025 313.741 222.572 313.512 221.953 313.512C221.526 313.512 221.105 313.619 220.689 313.832C220.273 314.035 219.905 314.317 219.585 314.68C219.276 315.032 219.052 315.437 218.913 315.896V321H217.825V312.664H218.817V314.552C219.041 314.147 219.334 313.795 219.697 313.496C220.06 313.187 220.47 312.947 220.929 312.776C221.388 312.605 221.862 312.52 222.353 312.52C222.812 312.52 223.201 312.605 223.521 312.776C223.841 312.947 224.097 313.192 224.289 313.512C224.481 313.821 224.62 314.2 224.705 314.648C224.79 315.085 224.833 315.576 224.833 316.12V321ZM230.735 321C230.735 320.637 230.767 320.275 230.831 319.912C230.895 319.539 231.018 319.171 231.199 318.808C231.381 318.445 231.647 318.099 231.999 317.768C232.351 317.427 232.815 317.107 233.391 316.808C233.701 316.648 234.021 316.493 234.351 316.344C234.682 316.184 234.991 316.013 235.279 315.832C235.578 315.64 235.813 315.427 235.983 315.192C236.165 314.947 236.255 314.659 236.255 314.328C236.255 314.061 236.175 313.8 236.015 313.544C235.866 313.288 235.631 313.08 235.311 312.92C235.002 312.76 234.613 312.68 234.143 312.68C233.802 312.68 233.493 312.728 233.215 312.824C232.938 312.92 232.693 313.043 232.479 313.192C232.266 313.331 232.085 313.475 231.935 313.624C231.786 313.763 231.663 313.88 231.567 313.976L230.879 313.224C230.933 313.16 231.05 313.048 231.231 312.888C231.423 312.717 231.663 312.541 231.951 312.36C232.25 312.179 232.597 312.024 232.991 311.896C233.397 311.768 233.839 311.704 234.319 311.704C234.97 311.704 235.525 311.821 235.983 312.056C236.453 312.28 236.81 312.584 237.055 312.968C237.301 313.352 237.423 313.768 237.423 314.216C237.423 314.653 237.327 315.032 237.135 315.352C236.954 315.661 236.714 315.933 236.415 316.168C236.127 316.392 235.823 316.589 235.503 316.76C235.194 316.92 234.911 317.059 234.655 317.176C234.154 317.411 233.733 317.645 233.391 317.88C233.05 318.115 232.778 318.355 232.575 318.6C232.373 318.835 232.213 319.069 232.095 319.304C231.989 319.528 231.914 319.763 231.871 320.008H237.599V321H230.735Z" fill="black"/>
</g>
<defs>
<filter id="filter0_d_576_1076" x="104" y="102" width="189" height="177" filterUnits="userSpaceOnUse" color-interpolation-filters="sRGB">
<feFlood flood-opacity="0" result="BackgroundImageFix"/>
<feColorMatrix in="SourceAlpha" type="matrix" values="0 0 0 0 0 0 0 0 0 0 0 0 0 0 0 0 0 0 127 0" result="hardAlpha"/>
<feOffset/>
<feGaussianBlur stdDeviation="10"/>
<feComposite in2="hardAlpha" operator="out"/>
<feColorMatrix type="matrix" values="0 0 0 0 0 0 0 0 0 0 0 0 0 0 0 0 0 0 0.2 0"/>
<feBlend mode="normal" in2="BackgroundImageFix" result="effect1_dropShadow_576_1076"/>
<feBlend mode="normal" in="SourceGraphic" in2="effect1_dropShadow_576_1076" result="shape"/>
</filter>
<filter id="filter1_d_576_1076" x="104" y="270" width="189" height="177" filterUnits="userSpaceOnUse" color-interpolation-filters="sRGB">
<feFlood flood-opacity="0" result="BackgroundImageFix"/>
<feColorMatrix in="SourceAlpha" type="matrix" values="0 0 0 0 0 0 0 0 0 0 0 0 0 0 0 0 0 0 127 0" result="hardAlpha"/>
<feOffset dy="4"/>
<feGaussianBlur stdDeviation="10"/>
<feComposite in2="hardAlpha" operator="out"/>
<feColorMatrix type="matrix" values="0 0 0 0 0 0 0 0 0 0 0 0 0 0 0 0 0 0 0.2 0"/>
<feBlend mode="normal" in2="BackgroundImageFix" result="effect1_dropShadow_576_1076"/>
<feBlend mode="normal" in="SourceGraphic" in2="effect1_dropShadow_576_1076" result="shape"/>
</filter>
</defs>
</svg>
