<svg width="131" height="131" viewBox="0 0 131 131" fill="none" xmlns="http://www.w3.org/2000/svg">
<rect x="0.5" y="0.5" width="130" height="130" rx="9.5" stroke="#037CB0" stroke-dasharray="10 5"/>
<rect x="20" y="20" width="88" height="39" rx="5" fill="#18CE0F"/>
<path d="M42.14 38.904C42.7093 39.0627 43.148 39.352 43.456 39.772C43.7733 40.192 43.932 40.7053 43.932 41.312C43.932 42.152 43.6287 42.81 43.022 43.286C42.4247 43.762 41.5987 44 40.544 44H36.932C36.6613 44 36.4467 43.9253 36.288 43.776C36.1387 43.6267 36.064 43.4167 36.064 43.146V34.984C36.064 34.7133 36.1387 34.5033 36.288 34.354C36.4467 34.2047 36.6613 34.13 36.932 34.13H40.404C41.4307 34.13 42.2333 34.3587 42.812 34.816C43.4 35.264 43.694 35.894 43.694 36.706C43.694 37.2287 43.554 37.6813 43.274 38.064C43.0033 38.4467 42.6253 38.7267 42.14 38.904ZM37.828 38.288H40.11C41.3513 38.288 41.972 37.826 41.972 36.902C41.972 36.4353 41.818 36.09 41.51 35.866C41.202 35.642 40.7353 35.53 40.11 35.53H37.828V38.288ZM40.348 42.6C41.0013 42.6 41.4773 42.4833 41.776 42.25C42.0747 42.0167 42.224 41.6527 42.224 41.158C42.224 40.6633 42.07 40.2947 41.762 40.052C41.4633 39.8093 40.992 39.688 40.348 39.688H37.828V42.6H40.348ZM49.6946 44.126C48.3413 44.126 47.3146 43.776 46.6146 43.076C45.9146 42.376 45.5646 41.354 45.5646 40.01V34.956C45.5646 34.6853 45.644 34.4707 45.8026 34.312C45.9613 34.144 46.176 34.06 46.4466 34.06C46.7173 34.06 46.932 34.144 47.0906 34.312C47.2493 34.4707 47.3286 34.6853 47.3286 34.956V40.108C47.3286 40.9573 47.5293 41.6013 47.9306 42.04C48.332 42.4693 48.92 42.684 49.6946 42.684C50.46 42.684 51.0433 42.4647 51.4446 42.026C51.846 41.5873 52.0466 40.948 52.0466 40.108V34.956C52.0466 34.6853 52.126 34.4707 52.2846 34.312C52.4433 34.144 52.658 34.06 52.9286 34.06C53.1993 34.06 53.414 34.144 53.5726 34.312C53.7313 34.4707 53.8106 34.6853 53.8106 34.956V40.01C53.8106 41.3447 53.4606 42.3667 52.7606 43.076C52.0606 43.776 51.0386 44.126 49.6946 44.126ZM59.1222 44.07C58.8422 44.07 58.6182 43.9907 58.4502 43.832C58.2916 43.664 58.2122 43.4447 58.2122 43.174V35.614H55.6642C55.1042 35.614 54.8242 35.3667 54.8242 34.872C54.8242 34.3773 55.1042 34.13 55.6642 34.13H62.5662C63.1262 34.13 63.4062 34.3773 63.4062 34.872C63.4062 35.3667 63.1262 35.614 62.5662 35.614H60.0182V43.174C60.0182 43.4447 59.9342 43.664 59.7662 43.832C59.6076 43.9907 59.3929 44.07 59.1222 44.07ZM67.7082 44.07C67.4282 44.07 67.2042 43.9907 67.0362 43.832C66.8775 43.664 66.7982 43.4447 66.7982 43.174V35.614H64.2502C63.6902 35.614 63.4102 35.3667 63.4102 34.872C63.4102 34.3773 63.6902 34.13 64.2502 34.13H71.1522C71.7122 34.13 71.9922 34.3773 71.9922 34.872C71.9922 35.3667 71.7122 35.614 71.1522 35.614H68.6042V43.174C68.6042 43.4447 68.5202 43.664 68.3522 43.832C68.1935 43.9907 67.9788 44.07 67.7082 44.07ZM76.8682 44.126C75.9069 44.126 75.0715 43.9207 74.3622 43.51C73.6622 43.0993 73.1209 42.5113 72.7382 41.746C72.3555 40.9807 72.1642 40.0847 72.1642 39.058C72.1642 38.0313 72.3509 37.14 72.7242 36.384C73.1069 35.6187 73.6529 35.0307 74.3622 34.62C75.0715 34.2093 75.9069 34.004 76.8682 34.004C77.8295 34.004 78.6602 34.2093 79.3602 34.62C80.0695 35.0307 80.6109 35.6187 80.9842 36.384C81.3669 37.14 81.5582 38.0313 81.5582 39.058C81.5582 40.0847 81.3669 40.9807 80.9842 41.746C80.6015 42.5113 80.0555 43.0993 79.3462 43.51C78.6462 43.9207 77.8202 44.126 76.8682 44.126ZM76.8682 42.684C77.7735 42.684 78.4782 42.3713 78.9822 41.746C79.4955 41.1207 79.7522 40.2247 79.7522 39.058C79.7522 37.8913 79.4955 37 78.9822 36.384C78.4782 35.7587 77.7735 35.446 76.8682 35.446C75.9535 35.446 75.2395 35.7587 74.7262 36.384C74.2222 37 73.9702 37.8913 73.9702 39.058C73.9702 40.2247 74.2222 41.1207 74.7262 41.746C75.2395 42.3713 75.9535 42.684 76.8682 42.684ZM90.8584 34.06C91.1197 34.06 91.325 34.144 91.4744 34.312C91.633 34.4707 91.7124 34.6853 91.7124 34.956V43.174C91.7124 43.4447 91.633 43.664 91.4744 43.832C91.3157 44 91.1104 44.084 90.8584 44.084C90.5597 44.084 90.331 43.9767 90.1724 43.762L85.0624 37.112V43.174C85.0624 43.4447 84.9877 43.664 84.8384 43.832C84.689 44 84.4837 44.084 84.2224 44.084C83.961 44.084 83.7557 44 83.6064 43.832C83.457 43.664 83.3824 43.4447 83.3824 43.174V34.956C83.3824 34.6853 83.4617 34.4707 83.6204 34.312C83.779 34.144 83.989 34.06 84.2504 34.06C84.5397 34.06 84.7637 34.1673 84.9224 34.382L90.0184 41.004V34.956C90.0184 34.6853 90.093 34.4707 90.2424 34.312C90.401 34.144 90.6064 34.06 90.8584 34.06Z" fill="white"/>
<rect x="20" y="77" width="88" height="39" rx="5" fill="#18C20F"/>
<path d="M42.14 95.904C42.7093 96.0627 43.148 96.352 43.456 96.772C43.7733 97.192 43.932 97.7053 43.932 98.312C43.932 99.152 43.6287 99.81 43.022 100.286C42.4247 100.762 41.5987 101 40.544 101H36.932C36.6613 101 36.4467 100.925 36.288 100.776C36.1387 100.627 36.064 100.417 36.064 100.146V91.984C36.064 91.7133 36.1387 91.5033 36.288 91.354C36.4467 91.2047 36.6613 91.13 36.932 91.13H40.404C41.4307 91.13 42.2333 91.3587 42.812 91.816C43.4 92.264 43.694 92.894 43.694 93.706C43.694 94.2287 43.554 94.6813 43.274 95.064C43.0033 95.4467 42.6253 95.7267 42.14 95.904ZM37.828 95.288H40.11C41.3513 95.288 41.972 94.826 41.972 93.902C41.972 93.4353 41.818 93.09 41.51 92.866C41.202 92.642 40.7353 92.53 40.11 92.53H37.828V95.288ZM40.348 99.6C41.0013 99.6 41.4773 99.4833 41.776 99.25C42.0747 99.0167 42.224 98.6527 42.224 98.158C42.224 97.6633 42.07 97.2947 41.762 97.052C41.4633 96.8093 40.992 96.688 40.348 96.688H37.828V99.6H40.348ZM49.6946 101.126C48.3413 101.126 47.3146 100.776 46.6146 100.076C45.9146 99.376 45.5646 98.354 45.5646 97.01V91.956C45.5646 91.6853 45.644 91.4707 45.8026 91.312C45.9613 91.144 46.176 91.06 46.4466 91.06C46.7173 91.06 46.932 91.144 47.0906 91.312C47.2493 91.4707 47.3286 91.6853 47.3286 91.956V97.108C47.3286 97.9573 47.5293 98.6013 47.9306 99.04C48.332 99.4693 48.92 99.684 49.6946 99.684C50.46 99.684 51.0433 99.4647 51.4446 99.026C51.846 98.5873 52.0466 97.948 52.0466 97.108V91.956C52.0466 91.6853 52.126 91.4707 52.2846 91.312C52.4433 91.144 52.658 91.06 52.9286 91.06C53.1993 91.06 53.414 91.144 53.5726 91.312C53.7313 91.4707 53.8106 91.6853 53.8106 91.956V97.01C53.8106 98.3447 53.4606 99.3667 52.7606 100.076C52.0606 100.776 51.0386 101.126 49.6946 101.126ZM59.1222 101.07C58.8422 101.07 58.6182 100.991 58.4502 100.832C58.2916 100.664 58.2122 100.445 58.2122 100.174V92.614H55.6642C55.1042 92.614 54.8242 92.3667 54.8242 91.872C54.8242 91.3773 55.1042 91.13 55.6642 91.13H62.5662C63.1262 91.13 63.4062 91.3773 63.4062 91.872C63.4062 92.3667 63.1262 92.614 62.5662 92.614H60.0182V100.174C60.0182 100.445 59.9342 100.664 59.7662 100.832C59.6076 100.991 59.3929 101.07 59.1222 101.07ZM67.7082 101.07C67.4282 101.07 67.2042 100.991 67.0362 100.832C66.8775 100.664 66.7982 100.445 66.7982 100.174V92.614H64.2502C63.6902 92.614 63.4102 92.3667 63.4102 91.872C63.4102 91.3773 63.6902 91.13 64.2502 91.13H71.1522C71.7122 91.13 71.9922 91.3773 71.9922 91.872C71.9922 92.3667 71.7122 92.614 71.1522 92.614H68.6042V100.174C68.6042 100.445 68.5202 100.664 68.3522 100.832C68.1935 100.991 67.9788 101.07 67.7082 101.07ZM76.8682 101.126C75.9069 101.126 75.0715 100.921 74.3622 100.51C73.6622 100.099 73.1209 99.5113 72.7382 98.746C72.3555 97.9807 72.1642 97.0847 72.1642 96.058C72.1642 95.0313 72.3509 94.14 72.7242 93.384C73.1069 92.6187 73.6529 92.0307 74.3622 91.62C75.0715 91.2093 75.9069 91.004 76.8682 91.004C77.8295 91.004 78.6602 91.2093 79.3602 91.62C80.0695 92.0307 80.6109 92.6187 80.9842 93.384C81.3669 94.14 81.5582 95.0313 81.5582 96.058C81.5582 97.0847 81.3669 97.9807 80.9842 98.746C80.6015 99.5113 80.0555 100.099 79.3462 100.51C78.6462 100.921 77.8202 101.126 76.8682 101.126ZM76.8682 99.684C77.7735 99.684 78.4782 99.3713 78.9822 98.746C79.4955 98.1207 79.7522 97.2247 79.7522 96.058C79.7522 94.8913 79.4955 94 78.9822 93.384C78.4782 92.7587 77.7735 92.446 76.8682 92.446C75.9535 92.446 75.2395 92.7587 74.7262 93.384C74.2222 94 73.9702 94.8913 73.9702 96.058C73.9702 97.2247 74.2222 98.1207 74.7262 98.746C75.2395 99.3713 75.9535 99.684 76.8682 99.684ZM90.8584 91.06C91.1197 91.06 91.325 91.144 91.4744 91.312C91.633 91.4707 91.7124 91.6853 91.7124 91.956V100.174C91.7124 100.445 91.633 100.664 91.4744 100.832C91.3157 101 91.1104 101.084 90.8584 101.084C90.5597 101.084 90.331 100.977 90.1724 100.762L85.0624 94.112V100.174C85.0624 100.445 84.9877 100.664 84.8384 100.832C84.689 101 84.4837 101.084 84.2224 101.084C83.961 101.084 83.7557 101 83.6064 100.832C83.457 100.664 83.3824 100.445 83.3824 100.174V91.956C83.3824 91.6853 83.4617 91.4707 83.6204 91.312C83.779 91.144 83.989 91.06 84.2504 91.06C84.5397 91.06 84.7637 91.1673 84.9224 91.382L90.0184 98.004V91.956C90.0184 91.6853 90.093 91.4707 90.2424 91.312C90.401 91.144 90.6064 91.06 90.8584 91.06Z" fill="white"/>
</svg>
