<svg width="303" height="302" viewBox="0 0 303 302" fill="none" xmlns="http://www.w3.org/2000/svg">
<rect width="301.741" height="301.741" transform="translate(0.753906)" fill="white"/>
<rect width="189" height="126" transform="translate(57 88)" fill="white"/>
<path fill-rule="evenodd" clip-rule="evenodd" d="M157.257 187.242L157.257 114.628L151.317 104.227L145.357 114.628V197.773H157.257L163.555 197.773V187.242H157.257Z" fill="#3B87E5"/>
<path fill-rule="evenodd" clip-rule="evenodd" d="M135.815 131.187V197.773H123.916V197.773H104.296L102.475 197.773V188.751L114.374 168.211V187.242H123.916L123.916 151.508L135.815 131.187Z" fill="#3B87E5"/>
<path fill-rule="evenodd" clip-rule="evenodd" d="M166.801 187.242L166.801 131.187L178.7 151.526V155.499H180.849L186.994 166.029H178.7L178.7 187.242H188.24V168.211L200.14 188.751V197.773H196.859H188.24H178.7V197.773H166.801L166.801 197.773V187.242Z" fill="#3B87E5"/>
</svg>
