<svg width="303" height="302" viewBox="0 0 303 302" fill="none" xmlns="http://www.w3.org/2000/svg">
<rect width="301.741" height="301.741" transform="translate(0.505859)" fill="white"/>
<rect width="168" height="132" transform="translate(67 85)" fill="white"/>
<mask id="path-1-inside-1_602_1221" fill="white">
<path fill-rule="evenodd" clip-rule="evenodd" d="M156.132 191.377C155.219 192.073 154.389 191.147 154.389 189.999L154.389 112.364C154.389 111.313 154.043 110.291 153.403 109.457C151.492 106.961 147.732 106.961 145.816 109.453C145.173 110.289 144.824 111.315 144.824 112.369V196.185C144.824 196.185 144.824 196.185 144.825 196.185C144.825 196.185 144.825 196.185 144.825 196.185C149.747 202.167 152.888 202.474 158.677 196.944C159.177 196.466 159.451 195.797 159.451 195.105V192.385C159.451 190.907 157.306 190.481 156.132 191.377Z"/>
</mask>
<path fill-rule="evenodd" clip-rule="evenodd" d="M156.132 191.377C155.219 192.073 154.389 191.147 154.389 189.999L154.389 112.364C154.389 111.313 154.043 110.291 153.403 109.457C151.492 106.961 147.732 106.961 145.816 109.453C145.173 110.289 144.824 111.315 144.824 112.369V196.185C144.824 196.185 144.824 196.185 144.825 196.185C144.825 196.185 144.825 196.185 144.825 196.185C149.747 202.167 152.888 202.474 158.677 196.944C159.177 196.466 159.451 195.797 159.451 195.105V192.385C159.451 190.907 157.306 190.481 156.132 191.377Z" fill="#3B87E5"/>
<path d="M158.677 196.944L157.986 196.221L158.677 196.944ZM144.825 196.185L144.053 196.821L144.825 196.185ZM153.389 112.364L153.389 189.999H155.389L155.389 112.364H153.389ZM145.824 196.185V112.369H143.824V196.185H145.824ZM157.986 196.221C155.102 198.976 153.149 199.988 151.488 199.884C149.826 199.779 148.052 198.533 145.597 195.55L144.053 196.821C146.52 199.819 148.777 201.718 151.363 201.88C153.95 202.042 156.463 200.442 159.368 197.667L157.986 196.221ZM158.451 192.385V195.105H160.451V192.385H158.451ZM160.451 192.385C160.451 191.039 159.441 190.274 158.486 190.023C157.545 189.776 156.389 189.923 155.525 190.582L156.738 192.172C157.049 191.935 157.553 191.846 157.978 191.958C158.389 192.066 158.451 192.253 158.451 192.385H160.451ZM159.368 197.667C160.073 196.992 160.451 196.058 160.451 195.105H158.451C158.451 195.535 158.28 195.939 157.986 196.221L159.368 197.667ZM144.825 197.185C144.514 197.185 144.235 197.042 144.053 196.821L145.597 195.55C145.415 195.328 145.136 195.185 144.825 195.185V197.185ZM143.824 196.185C143.824 196.737 144.272 197.185 144.825 197.185V195.185C145.377 195.185 145.824 195.633 145.824 196.185H143.824ZM145.023 108.844C144.246 109.854 143.824 111.094 143.824 112.369H145.824C145.824 111.536 146.1 110.724 146.609 110.063L145.023 108.844ZM154.197 108.848C151.885 105.83 147.339 105.831 145.023 108.844L146.609 110.063C148.124 108.091 151.098 108.092 152.61 110.065L154.197 108.848ZM153.389 189.999C153.389 190.78 153.666 191.601 154.251 192.125C154.556 192.398 154.963 192.601 155.441 192.616C155.921 192.632 156.364 192.457 156.738 192.172L155.525 190.582C155.443 190.645 155.44 190.615 155.507 190.617C155.574 190.62 155.601 190.649 155.585 190.635C155.564 190.615 155.512 190.556 155.465 190.435C155.42 190.318 155.389 190.168 155.389 189.999H153.389ZM155.389 112.364C155.389 111.093 154.97 109.857 154.197 108.848L152.61 110.065C153.115 110.725 153.389 111.533 153.389 112.364H155.389Z" fill="#275892" mask="url(#path-1-inside-1_602_1221)"/>
<mask id="path-3-inside-2_602_1221" fill="white">
<path fill-rule="evenodd" clip-rule="evenodd" d="M142.277 111.215L142.277 139.951L142.277 188.105C142.277 188.106 142.277 188.106 142.277 188.106C142.278 188.105 142.278 188.106 142.278 188.106V194.47C142.278 195.543 141.745 196.553 140.845 197.137C130.329 203.97 124.899 203.828 117.252 196.484C117.056 196.295 116.792 196.185 116.519 196.185C115.945 196.185 115.479 195.719 115.479 195.144V163.548C115.479 162.231 116.021 160.973 116.979 160.069C120.03 157.191 125.043 159.354 125.043 163.548L125.043 189.858C125.043 191.989 126.4 194.012 128.531 194.067C128.72 194.072 128.909 194.072 129.099 194.067C131.287 194.013 132.712 191.949 132.712 189.761L132.712 108.454C132.712 95.8104 154.389 95.887 154.389 108.454L154.389 110.215C154.389 110.767 153.941 111.215 153.389 111.215H145.893C145.341 111.215 144.911 110.76 144.793 110.221C144.313 108.02 142.277 107.976 142.277 111.215Z"/>
</mask>
<path fill-rule="evenodd" clip-rule="evenodd" d="M142.277 111.215L142.277 139.951L142.277 188.105C142.277 188.106 142.277 188.106 142.277 188.106C142.278 188.105 142.278 188.106 142.278 188.106V194.47C142.278 195.543 141.745 196.553 140.845 197.137C130.329 203.97 124.899 203.828 117.252 196.484C117.056 196.295 116.792 196.185 116.519 196.185C115.945 196.185 115.479 195.719 115.479 195.144V163.548C115.479 162.231 116.021 160.973 116.979 160.069C120.03 157.191 125.043 159.354 125.043 163.548L125.043 189.858C125.043 191.989 126.4 194.012 128.531 194.067C128.72 194.072 128.909 194.072 129.099 194.067C131.287 194.013 132.712 191.949 132.712 189.761L132.712 108.454C132.712 95.8104 154.389 95.887 154.389 108.454L154.389 110.215C154.389 110.767 153.941 111.215 153.389 111.215H145.893C145.341 111.215 144.911 110.76 144.793 110.221C144.313 108.02 142.277 107.976 142.277 111.215Z" fill="#3B87E5"/>
<path d="M142.277 139.951H143.277H142.277ZM142.277 111.215H141.277H142.277ZM132.712 108.454H133.712H132.712ZM154.389 108.454L155.389 108.454V108.454H154.389ZM154.389 110.215L155.389 110.215L154.389 110.215ZM144.793 110.221L145.77 110.008V110.008L144.793 110.221ZM129.099 194.067L129.124 195.067L129.099 194.067ZM125.043 189.858H124.043H125.043ZM128.531 194.067L128.505 195.067L128.531 194.067ZM117.252 196.484L116.56 197.205L117.252 196.484ZM140.845 197.137L141.39 197.976L140.845 197.137ZM142.277 188.105H143.277H142.277ZM143.277 139.951L143.277 111.215H141.277L141.277 139.951H143.277ZM143.277 188.105L143.277 139.951H141.277L141.277 188.105H143.277ZM143.278 194.47V188.106H141.278V194.47H143.278ZM116.56 197.205C120.45 200.942 123.948 203.017 127.945 203.127C131.895 203.235 136.101 201.413 141.39 197.976L140.3 196.299C135.074 199.695 131.306 201.218 128 201.127C124.741 201.038 121.701 199.37 117.945 195.763L116.56 197.205ZM116.479 195.144V163.548H114.479V195.144H116.479ZM124.043 163.548L124.043 189.858H126.043L126.043 163.548H124.043ZM129.075 193.068C128.901 193.072 128.729 193.072 128.557 193.067L128.505 195.067C128.711 195.072 128.917 195.072 129.124 195.067L129.075 193.068ZM131.712 108.454L131.712 189.761H133.712L133.712 108.454H131.712ZM155.389 108.454C155.389 104.988 153.88 102.341 151.615 100.584C149.377 98.8479 146.441 98.0051 143.552 98C140.663 97.9949 137.726 98.8273 135.486 100.562C133.22 102.318 131.712 104.971 131.712 108.454H133.712C133.712 105.615 134.913 103.536 136.711 102.143C138.536 100.729 141.018 99.9956 143.549 100C146.079 100.004 148.562 100.747 150.389 102.164C152.189 103.561 153.389 105.636 153.389 108.454H155.389ZM155.389 110.215L155.389 108.454L153.389 108.454L153.389 110.215L155.389 110.215ZM153.389 112.215C154.494 112.215 155.389 111.32 155.389 110.215L153.389 110.215V112.215ZM145.893 112.215H153.389V110.215H145.893V112.215ZM143.816 110.434C144.003 111.292 144.741 112.215 145.893 112.215V110.215C145.893 110.215 145.894 110.215 145.896 110.215C145.898 110.216 145.898 110.216 145.897 110.215C145.895 110.215 145.884 110.21 145.868 110.194C145.831 110.159 145.789 110.093 145.77 110.008L143.816 110.434ZM143.277 111.215C143.277 110.497 143.391 110.053 143.505 109.813C143.621 109.571 143.681 109.632 143.559 109.657C143.424 109.685 143.395 109.602 143.484 109.693C143.577 109.788 143.725 110.015 143.816 110.434L145.77 110.008C145.621 109.326 145.334 108.723 144.911 108.291C144.483 107.856 143.855 107.552 143.151 107.699C142.459 107.843 141.981 108.363 141.699 108.954C141.416 109.548 141.277 110.313 141.277 111.215H143.277ZM129.124 195.067C132.037 194.995 133.712 192.288 133.712 189.761H131.712C131.712 191.61 130.536 193.032 129.075 193.068L129.124 195.067ZM124.043 189.858C124.043 192.312 125.637 194.992 128.505 195.067L128.557 193.067C127.164 193.031 126.043 191.667 126.043 189.858H124.043ZM117.665 160.797C120.078 158.521 124.043 160.231 124.043 163.548H126.043C126.043 158.477 119.982 155.862 116.293 159.342L117.665 160.797ZM116.479 163.548C116.479 162.507 116.908 161.511 117.665 160.797L116.293 159.342C115.135 160.434 114.479 161.956 114.479 163.548H116.479ZM116.519 195.185C116.497 195.185 116.479 195.166 116.479 195.144H114.479C114.479 196.271 115.392 197.185 116.519 197.185V195.185ZM117.945 195.763C117.57 195.402 117.06 195.185 116.519 195.185V197.185C116.52 197.185 116.526 197.185 116.535 197.189C116.544 197.192 116.553 197.198 116.56 197.205L117.945 195.763ZM141.278 194.47C141.278 195.213 140.908 195.904 140.3 196.299L141.39 197.976C142.581 197.202 143.278 195.872 143.278 194.47H141.278ZM142.867 188.914C142.206 189.395 141.278 188.924 141.278 188.106H143.278C143.278 187.287 142.349 186.816 141.688 187.298L142.867 188.914ZM141.277 188.105C141.277 188.924 142.205 189.396 142.867 188.914L141.688 187.298C142.349 186.816 143.277 187.288 143.277 188.105H141.277Z" fill="#275892" mask="url(#path-3-inside-2_602_1221)"/>
<mask id="path-5-inside-3_602_1221" fill="white">
<path fill-rule="evenodd" clip-rule="evenodd" d="M161.844 188.66L161.844 137.161C161.844 133.195 166.637 131.207 169.444 134.009C170.281 134.844 170.752 135.978 170.752 137.161V147.271C170.752 148.602 171.831 149.681 173.161 149.681C173.916 149.681 174.628 150.035 175.083 150.637L176.305 152.252C177.845 154.287 176.394 157.206 173.841 157.206C172.135 157.206 170.752 158.589 170.752 160.296L170.752 189.038C170.752 191.297 172.309 193.392 174.561 193.224C176.605 193.073 177.895 191.122 177.895 189.073V184.69C177.895 180.894 182.339 178.838 185.232 181.296C186.228 182.142 186.802 183.383 186.802 184.69V194.339C186.802 195.358 185.976 196.185 184.956 196.185C184.559 196.185 184.17 196.316 183.849 196.55C175.643 202.526 170.753 202.862 161.844 196.185C161.844 196.185 161.844 196.185 161.844 196.185C161.844 196.185 161.844 196.185 161.844 196.185L161.844 196.185V188.66Z"/>
</mask>
<path fill-rule="evenodd" clip-rule="evenodd" d="M161.844 188.66L161.844 137.161C161.844 133.195 166.637 131.207 169.444 134.009C170.281 134.844 170.752 135.978 170.752 137.161V147.271C170.752 148.602 171.831 149.681 173.161 149.681C173.916 149.681 174.628 150.035 175.083 150.637L176.305 152.252C177.845 154.287 176.394 157.206 173.841 157.206C172.135 157.206 170.752 158.589 170.752 160.296L170.752 189.038C170.752 191.297 172.309 193.392 174.561 193.224C176.605 193.073 177.895 191.122 177.895 189.073V184.69C177.895 180.894 182.339 178.838 185.232 181.296C186.228 182.142 186.802 183.383 186.802 184.69V194.339C186.802 195.358 185.976 196.185 184.956 196.185C184.559 196.185 184.17 196.316 183.849 196.55C175.643 202.526 170.753 202.862 161.844 196.185C161.844 196.185 161.844 196.185 161.844 196.185C161.844 196.185 161.844 196.185 161.844 196.185L161.844 196.185V188.66Z" fill="#3B87E5"/>
<path d="M161.844 188.66H160.844H161.844ZM161.844 196.185H160.844C160.844 196.201 160.844 196.218 160.845 196.234L161.844 196.185ZM161.844 196.185L162.843 196.135L161.844 196.185ZM161.844 196.185L161.244 196.985L161.844 196.185ZM183.849 196.55L183.26 195.742L183.849 196.55ZM170.752 189.038H169.752H170.752ZM170.752 160.296H169.752H170.752ZM175.083 150.637L174.286 151.24L175.083 150.637ZM160.844 137.161L160.844 188.66H162.844L162.844 137.161H160.844ZM171.752 147.271V137.161H169.752V147.271H171.752ZM174.286 151.24L175.508 152.855L177.103 151.648L175.881 150.033L174.286 151.24ZM171.752 189.038L171.752 160.296H169.752L169.752 189.038H171.752ZM176.895 184.69V189.073H178.895V184.69H176.895ZM187.802 194.339V184.69H185.802V194.339H187.802ZM161.244 196.985C165.75 200.362 169.417 202.108 173.109 202.112C176.8 202.116 180.292 200.377 184.437 197.358L183.26 195.742C179.199 198.699 176.144 200.116 173.111 200.112C170.079 200.109 166.847 198.685 162.444 195.385L161.244 196.985ZM160.845 196.234L160.845 196.234L162.843 196.135L162.843 196.135L160.845 196.234ZM160.844 188.66V196.185H162.844V188.66H160.844ZM161.844 195.185C162.377 195.185 162.816 195.603 162.843 196.135L160.845 196.234C160.871 196.767 161.311 197.185 161.844 197.185V195.185ZM162.444 195.385C162.276 195.259 162.067 195.185 161.844 195.185V197.185C161.62 197.185 161.411 197.11 161.244 196.985L162.444 195.385ZM184.956 195.185C184.34 195.185 183.746 195.388 183.26 195.742L184.437 197.358C184.593 197.245 184.778 197.185 184.956 197.185V195.185ZM184.585 182.058C185.357 182.714 185.802 183.677 185.802 184.69H187.802C187.802 183.09 187.099 181.57 185.88 180.534L184.585 182.058ZM178.895 184.69C178.895 181.746 182.341 180.152 184.585 182.058L185.88 180.534C182.337 177.524 176.895 180.042 176.895 184.69H178.895ZM174.635 194.222C177.373 194.019 178.895 191.455 178.895 189.073H176.895C176.895 190.79 175.838 192.127 174.487 192.227L174.635 194.222ZM169.752 189.038C169.752 191.641 171.59 194.448 174.635 194.222L174.487 192.227C173.027 192.336 171.752 190.953 171.752 189.038H169.752ZM173.841 156.206C171.583 156.206 169.752 158.037 169.752 160.296H171.752C171.752 159.141 172.687 158.206 173.841 158.206V156.206ZM173.161 150.681C173.603 150.681 174.019 150.888 174.286 151.24L175.881 150.033C175.236 149.182 174.23 148.681 173.161 148.681V150.681ZM169.752 147.271C169.752 149.155 171.278 150.681 173.161 150.681V148.681C172.383 148.681 171.752 148.05 171.752 147.271H169.752ZM168.738 134.717C169.387 135.364 169.752 136.244 169.752 137.161H171.752C171.752 135.713 171.176 134.324 170.151 133.301L168.738 134.717ZM175.508 152.855C176.549 154.232 175.568 156.206 173.841 156.206V158.206C177.22 158.206 179.141 154.342 177.103 151.648L175.508 152.855ZM185.802 194.339C185.802 194.806 185.423 195.185 184.956 195.185V197.185C186.528 197.185 187.802 195.911 187.802 194.339H185.802ZM162.844 137.161C162.844 134.085 166.561 132.544 168.738 134.717L170.151 133.301C166.713 129.87 160.844 132.305 160.844 137.161H162.844Z" fill="#275892" mask="url(#path-5-inside-3_602_1221)"/>
</svg>
